<svg id="actions" xmlns="http://www.w3.org/2000/svg" width="441.602" height="270.708" viewBox="0 0 441.602 270.708">
  <g id="leaf3">
    <path id="Tracé_1220" data-name="Tracé 1220" d="M638.186,621.735l-15.929,4.273,16.044-9.866c-.345-15.729-5.835-32.038-5.835-32.038s-34.289,9.933-43.288,27.135-1.915,28.557,10.7,35.157,25.982,5.943,34.981-11.258A34.053,34.053,0,0,0,638.186,621.735Z" transform="translate(-371.725 -382.06)" fill="#f2f2f2"/>
    <path id="Tracé_1221" data-name="Tracé 1221" d="M635.287,624.3l-.444.848c-5.207,9.829-10.892,16.649-16.986,20.358-.088.056-.178.1-.266.16l-.249-.413-.234-.4c6.677-3.954,12.281-11.549,16.825-20.121.149-.275.3-.554.443-.837,1.891-3.646,3.595-7.443,5.109-11.206.12-.29.237-.587.355-.883,1.973-4.977,3.618-9.858,4.936-14.157.095-.3.185-.609.273-.91,2.2-7.285,3.423-12.756,3.685-13.972.034-.148.051-.23.055-.249l.458.1.006,0,.462.1c0,.019-.058.3-.174.8-.42,1.9-1.614,7.02-3.582,13.571-.09.295-.181.6-.275.9-1.066,3.489-2.341,7.346-3.829,11.314q-.558,1.5-1.135,2.935c-.114.3-.231.6-.351.886Q637.917,619.219,635.287,624.3Z" transform="translate(-387.799 -381.261)" fill="#fff"/>
    <path id="Tracé_1222" data-name="Tracé 1222" d="M662.174,602.952c-.3-.109-.606-.221-.911-.343a26.126,26.126,0,0,1-2.431-1.117,25.422,25.422,0,0,1-8.587-7.294l-.884.393a26.363,26.363,0,0,0,9.033,7.741,27.065,27.065,0,0,0,2.6,1.188c.3.12.606.231.909.337a26.143,26.143,0,0,0,7.756,1.475q-.09-.488-.173-.957A25.334,25.334,0,0,1,662.174,602.952Z" transform="translate(-404.012 -387.134)" fill="#fff"/>
    <path id="Tracé_1223" data-name="Tracé 1223" d="M648.875,622.057q-.448-.2-.882-.429c-.09-.042-.183-.09-.271-.136a25.556,25.556,0,0,1-13.507-19.432c-.3.16-.595.32-.89.486a26.505,26.505,0,0,0,13.958,19.786c.117.061.235.123.355.18.3.149.59.293.886.432a26.365,26.365,0,0,0,14.729,2.146c0-.318-.01-.636-.018-.956a25.381,25.381,0,0,1-14.36-2.075Z" transform="translate(-395.951 -391.085)" fill="#fff"/>
    <path id="Tracé_1224" data-name="Tracé 1224" d="M636.952,637.621c-.307-.129-.61-.266-.91-.407-.321-.152-.641-.308-.955-.473a25.625,25.625,0,0,1-13.221-27.725c-.367.241-.731.478-1.09.724a26.564,26.564,0,0,0,13.872,27.84c.315.165.632.325.951.471.3.148.6.284.91.417a26.486,26.486,0,0,0,19.443.544c.074-.357.134-.716.2-1.079A25.543,25.543,0,0,1,636.952,637.621Z" transform="translate(-389.465 -394.583)" fill="#fff"/>
  </g>
  <g id="leaf1">
    <path id="Tracé_1225" data-name="Tracé 1225" d="M271.067,624.735,287,629.008l-16.044-9.866c.345-15.729,5.835-32.038,5.835-32.038s34.289,9.933,43.288,27.135,1.915,28.557-10.7,35.157-25.982,5.943-34.981-11.258A34.055,34.055,0,0,1,271.067,624.735Z" transform="translate(-213.786 -383.568)" fill="#f2f2f2"/>
    <path id="Tracé_1226" data-name="Tracé 1226" d="M294.751,627.3l.444.848c5.206,9.829,10.892,16.649,16.986,20.358.088.056.178.1.266.16l.249-.414.234-.4c-6.677-3.954-12.281-11.549-16.825-20.121-.149-.275-.3-.554-.443-.837-1.891-3.646-3.595-7.443-5.109-11.206-.12-.29-.237-.587-.355-.883-1.973-4.977-3.618-9.858-4.936-14.157-.095-.3-.185-.609-.273-.91-2.2-7.285-3.423-12.756-3.685-13.972-.034-.148-.051-.23-.055-.249l-.458.1-.006,0-.462.1c0,.019.058.3.174.8.42,1.9,1.614,7.02,3.582,13.571.09.295.181.6.275.9,1.066,3.489,2.341,7.346,3.829,11.314q.558,1.5,1.135,2.935c.114.3.231.6.351.886Q292.12,622.219,294.751,627.3Z" transform="translate(-218.496 -382.769)" fill="#fff"/>
    <path id="Tracé_1227" data-name="Tracé 1227" d="M273,607.374q-.084.469-.173.957a26.14,26.14,0,0,0,7.756-1.475c.3-.105.608-.217.909-.337a27.038,27.038,0,0,0,2.6-1.188,26.362,26.362,0,0,0,9.033-7.741l-.884-.393a25.421,25.421,0,0,1-8.587,7.294,26.121,26.121,0,0,1-2.431,1.117c-.3.122-.61.234-.911.343A25.332,25.332,0,0,1,273,607.374Z" transform="translate(-214.73 -388.642)" fill="#fff"/>
    <path id="Tracé_1228" data-name="Tracé 1228" d="M269.513,627.132c-.009.32-.014.638-.018.956a26.364,26.364,0,0,0,14.729-2.146c.3-.139.59-.282.886-.432.12-.057.237-.119.355-.18a26.5,26.5,0,0,0,13.958-19.786c-.3-.166-.593-.326-.89-.486a25.556,25.556,0,0,1-13.507,19.432c-.088.046-.18.094-.271.136q-.434.227-.882.429A25.381,25.381,0,0,1,269.513,627.132Z" transform="translate(-213.054 -392.594)" fill="#fff"/>
    <path id="Tracé_1229" data-name="Tracé 1229" d="M270.738,640.934c.062.363.121.722.2,1.079a26.486,26.486,0,0,0,19.443-.544c.3-.133.607-.27.91-.417.319-.146.636-.306.951-.471a26.564,26.564,0,0,0,13.872-27.84c-.358-.246-.723-.483-1.09-.724A25.625,25.625,0,0,1,291.8,639.742c-.315.165-.634.321-.955.473-.3.141-.6.278-.91.407a25.543,25.543,0,0,1-19.2.312Z" transform="translate(-213.679 -396.092)" fill="#fff"/>
  </g>
  <g id="leaf2">
    <path id="Tracé_1230" data-name="Tracé 1230" d="M421.287,664.349l9.483,2.544-9.552-5.874a74.39,74.39,0,0,1,3.474-19.073s20.413,5.914,25.77,16.154,1.14,17-6.369,20.93-15.468,3.538-20.825-6.7A20.275,20.275,0,0,1,421.287,664.349Z" transform="translate(-289.325 -411.137)" fill="#f2f2f2"/>
    <path id="Tracé_1231" data-name="Tracé 1231" d="M435.386,665.875l.264.5c3.1,5.852,6.484,9.912,10.112,12.119.052.033.106.062.158.1l.148-.246.139-.238c-3.975-2.354-7.311-6.875-10.016-11.979-.089-.164-.179-.33-.264-.5-1.126-2.17-2.14-4.431-3.041-6.671-.071-.173-.141-.349-.211-.526-1.175-2.963-2.154-5.869-2.939-8.428-.056-.181-.11-.363-.163-.542-1.311-4.337-2.038-7.594-2.194-8.318-.021-.088-.03-.137-.033-.148l-.273.057h0l-.275.058c0,.011.035.176.1.477.25,1.129.961,4.179,2.133,8.079.054.176.107.358.164.538.635,2.077,1.393,4.373,2.279,6.736q.332.891.675,1.747c.068.178.138.354.209.527Q433.82,662.851,435.386,665.875Z" transform="translate(-292.129 -410.661)" fill="#fff"/>
    <path id="Tracé_1232" data-name="Tracé 1232" d="M422.44,654.014q-.05.279-.1.569a15.561,15.561,0,0,0,4.617-.878c.18-.063.362-.129.541-.2a16.1,16.1,0,0,0,1.546-.707,15.694,15.694,0,0,0,5.377-4.608l-.526-.234a15.133,15.133,0,0,1-5.112,4.342,15.565,15.565,0,0,1-1.447.665c-.182.073-.363.139-.542.2a15.081,15.081,0,0,1-4.35.847Z" transform="translate(-289.888 -414.158)" fill="#fff"/>
    <path id="Tracé_1233" data-name="Tracé 1233" d="M420.362,665.776c-.005.191-.008.38-.011.569a15.7,15.7,0,0,0,8.769-1.277c.176-.083.351-.168.528-.257.071-.034.141-.071.211-.107a15.779,15.779,0,0,0,8.31-11.779c-.176-.1-.353-.194-.53-.289A15.214,15.214,0,0,1,429.6,664.2c-.052.027-.107.056-.161.081q-.259.135-.525.256a15.109,15.109,0,0,1-8.549,1.236Z" transform="translate(-288.889 -416.51)" fill="#fff"/>
    <path id="Tracé_1234" data-name="Tracé 1234" d="M421.091,673.993c.037.216.072.43.117.642a15.768,15.768,0,0,0,11.575-.324c.181-.079.362-.161.542-.248s.379-.182.566-.28a15.814,15.814,0,0,0,8.258-16.574c-.213-.146-.43-.287-.649-.431a15.255,15.255,0,0,1-7.871,16.505c-.187.1-.377.191-.569.282s-.359.166-.542.242A15.206,15.206,0,0,1,421.091,673.993Z" transform="translate(-289.261 -418.593)" fill="#fff"/>
  </g>
  <rect id="Rectangle_106" data-name="Rectangle 106" width="2.984" height="2.486" transform="translate(19.643 179.892)" fill="#f0f0f0"/>
  <path id="Tracé_1254" data-name="Tracé 1254" d="M489.676,542.045H483.8v-2.486h5.88Zm-11.759,0h-5.88v-2.486h5.88Zm-11.76,0h-5.88v-2.486h5.88Zm-11.759,0h-5.88v-2.486h5.88Zm-11.76,0h-5.88v-2.486h5.88Zm-11.76,0H425v-2.486h5.88Zm-11.759,0h-5.88v-2.486h5.88Zm-11.76,0h-5.88v-2.486h5.88Zm-11.76,0h-5.88v-2.486h5.88Zm-11.76,0h-5.88v-2.486h5.88Zm-11.76,0H366.2v-2.486h5.88Zm-11.76,0h-5.88v-2.486h5.88Zm-11.76,0h-5.88v-2.486h5.88Zm-11.76,0h-5.88v-2.486h5.88Zm-11.76,0h-5.88v-2.486h5.88Zm-11.76,0H307.4v-2.486h5.88Zm-11.76,0h-5.88v-2.486h5.88Zm-11.76,0h-5.88v-2.486h5.88Zm-11.76,0h-5.88v-2.486H278Zm-11.76,0h-5.88v-2.486h5.88Zm-11.76,0H248.6v-2.486h5.88Zm-11.76,0h-5.88v-2.486h5.88Zm-11.76,0h-5.88v-2.486h5.88Zm-11.76,0h-5.88v-2.486h5.88Z" transform="translate(-184.817 -359.667)" fill="#f0f0f0"/>
  <rect id="Rectangle_107" data-name="Rectangle 107" width="2.984" height="2.486" transform="translate(19.643 116.735)" fill="#f0f0f0"/>
  <path id="Tracé_1255" data-name="Tracé 1255" d="M489.676,415.045H483.8v-2.487h5.88Zm-11.759,0h-5.88v-2.487h5.88Zm-11.76,0h-5.88v-2.487h5.88Zm-11.759,0h-5.88v-2.487h5.88Zm-11.76,0h-5.88v-2.487h5.88Zm-11.76,0H425v-2.487h5.88Zm-11.759,0h-5.88v-2.487h5.88Zm-11.76,0h-5.88v-2.487h5.88Zm-11.76,0h-5.88v-2.487h5.88Zm-11.76,0h-5.88v-2.487h5.88Zm-11.76,0H366.2v-2.487h5.88Zm-11.76,0h-5.88v-2.487h5.88Zm-11.76,0h-5.88v-2.487h5.88Zm-11.76,0h-5.88v-2.487h5.88Zm-11.76,0h-5.88v-2.487h5.88Zm-11.76,0H307.4v-2.487h5.88Zm-11.76,0h-5.88v-2.487h5.88Zm-11.76,0h-5.88v-2.487h5.88Zm-11.76,0h-5.88v-2.487H278Zm-11.76,0h-5.88v-2.487h5.88Zm-11.76,0H248.6v-2.487h5.88Zm-11.76,0h-5.88v-2.487h5.88Zm-11.76,0h-5.88v-2.487h5.88Zm-11.76,0h-5.88v-2.487h5.88Z" transform="translate(-184.817 -295.824)" fill="#f0f0f0"/>
  <rect id="Rectangle_108" data-name="Rectangle 108" width="2.984" height="2.486" transform="translate(19.643 53.577)" fill="#f0f0f0"/>
  <path id="Tracé_1256" data-name="Tracé 1256" d="M489.676,288.045H483.8v-2.487h5.88Zm-11.759,0h-5.88v-2.487h5.88Zm-11.76,0h-5.88v-2.487h5.88Zm-11.759,0h-5.88v-2.487h5.88Zm-11.76,0h-5.88v-2.487h5.88Zm-11.76,0H425v-2.487h5.88Zm-11.759,0h-5.88v-2.487h5.88Zm-11.76,0h-5.88v-2.487h5.88Zm-11.76,0h-5.88v-2.487h5.88Zm-11.76,0h-5.88v-2.487h5.88Zm-11.76,0H366.2v-2.487h5.88Zm-11.76,0h-5.88v-2.487h5.88Zm-11.76,0h-5.88v-2.487h5.88Zm-11.76,0h-5.88v-2.487h5.88Zm-11.76,0h-5.88v-2.487h5.88Zm-11.76,0H307.4v-2.487h5.88Zm-11.76,0h-5.88v-2.487h5.88Zm-11.76,0h-5.88v-2.487h5.88Zm-11.76,0h-5.88v-2.487H278Zm-11.76,0h-5.88v-2.487h5.88Zm-11.76,0H248.6v-2.487h5.88Zm-11.76,0h-5.88v-2.487h5.88Zm-11.76,0h-5.88v-2.487h5.88Zm-11.76,0h-5.88v-2.487h5.88Z" transform="translate(-184.817 -231.981)" fill="#f0f0f0"/>
  <g id="bar1">
    <rect id="Rectangle_109" data-name="Rectangle 109" width="24.368" height="89.514" transform="translate(92.498 180.637)" fill="#3f3d56"/>
    <rect id="Rectangle_110" data-name="Rectangle 110" width="24.368" height="89.514" transform="translate(96.973 180.637)" fill="#77c4c2"/>
  </g>
  <g id="bar2">
    <rect id="Rectangle_111" data-name="Rectangle 111" width="24.368" height="152.671" transform="translate(150.185 117.48)" fill="#3f3d56"/>
    <rect id="Rectangle_112" data-name="Rectangle 112" width="24.368" height="152.671" transform="translate(154.66 117.48)" fill="#77c4c2"/>
  </g>
  <g id="bar3">
    <rect id="Rectangle_113" data-name="Rectangle 113" width="24.368" height="215.828" transform="translate(207.871 54.323)" fill="#3f3d56"/>
    <rect id="Rectangle_114" data-name="Rectangle 114" width="24.368" height="215.828" transform="translate(212.347 54.323)" fill="#77c4c2"/>
  </g>
  <circle id="Ellipse_40" data-name="Ellipse 40" cx="5.968" cy="5.968" r="5.968" transform="translate(13.924 48.853)" fill="#f0f0f0"/>
  <circle id="Ellipse_41" data-name="Ellipse 41" cx="5.968" cy="5.968" r="5.968" transform="translate(13.924 112.01)" fill="#f0f0f0"/>
  <circle id="Ellipse_42" data-name="Ellipse 42" cx="5.968" cy="5.968" r="5.968" transform="translate(13.924 175.167)" fill="#f0f0f0"/>
  <rect id="Rectangle_115" data-name="Rectangle 115" width="441.602" height="1.114" transform="translate(0 269.594)" fill="#cacaca"/>
  <g id="buyer">
    <path id="Tracé_1235" data-name="Tracé 1235" d="M774.423,500.467l-.041,0a87.9,87.9,0,0,0-25.615,0h0a1.833,1.833,0,0,1-1.855-1.825v-8.779a1.829,1.829,0,0,1,1.827-1.827,99.4,99.4,0,0,1,25.718,0h0a1.82,1.82,0,0,1,1.793,1.825v8.779A1.829,1.829,0,0,1,774.423,500.467Z" transform="translate(-453.05 -333.346)" fill="#fff"/>
    <path id="Tracé_1236" data-name="Tracé 1236" d="M774.423,500.467l-.041,0a87.9,87.9,0,0,0-25.615,0h0a1.833,1.833,0,0,1-1.855-1.825v-8.779a1.829,1.829,0,0,1,1.827-1.827,99.4,99.4,0,0,1,25.718,0h0a1.82,1.82,0,0,1,1.793,1.825v8.779A1.829,1.829,0,0,1,774.423,500.467ZM761.254,487.7a91.751,91.751,0,0,0-12.484.831,1.342,1.342,0,0,0-1.363,1.332v8.779a1.331,1.331,0,0,0,1.329,1.329,88.278,88.278,0,0,1,25.707,0,1.331,1.331,0,0,0,1.31-1.329v-8.779a1.331,1.331,0,0,0-1.329-1.329A107.182,107.182,0,0,0,761.254,487.7Z" transform="translate(-453.05 -333.346)" fill="#77c4c2"/>
    <circle id="Ellipse_35" data-name="Ellipse 35" cx="3.481" cy="3.481" r="3.481" transform="translate(305.048 157.005)" fill="#77c4c2"/>
    <path id="Tracé_1237" data-name="Tracé 1237" d="M754.639,494.365h-2.984a.747.747,0,0,1-.746-.746v-.995a.747.747,0,0,1,.746-.746h2.984a.747.747,0,0,1,.746.746v.995A.747.747,0,0,1,754.639,494.365Z" transform="translate(-455.061 -335.698)" fill="#77c4c2"/>
    <path id="Tracé_1238" data-name="Tracé 1238" d="M796.639,508.365h-2.984a.747.747,0,0,1-.746-.746v-.995a.747.747,0,0,1,.746-.746h2.984a.747.747,0,0,1,.746.746v.995A.747.747,0,0,1,796.639,508.365Z" transform="translate(-476.174 -342.736)" fill="#77c4c2"/>
    <path id="Tracé_1239" data-name="Tracé 1239" d="M768.651,484.756l-.036-.019a87.9,87.9,0,0,0-23.6-9.96l0,0a1.833,1.833,0,0,1-1-2.4l3.414-8.088a1.829,1.829,0,0,1,2.393-.973,99.4,99.4,0,0,1,23.693,10h0a1.82,1.82,0,0,1,.942,2.378l-3.414,8.088a1.829,1.829,0,0,1-2.393.973Z" transform="translate(-451.523 -321.266)" fill="#fff"/>
    <path id="Tracé_1240" data-name="Tracé 1240" d="M768.651,484.756l-.036-.019a87.9,87.9,0,0,0-23.6-9.96l0,0a1.833,1.833,0,0,1-1-2.4l3.414-8.088a1.829,1.829,0,0,1,2.393-.973,99.4,99.4,0,0,1,23.693,10h0a1.82,1.82,0,0,1,.942,2.378l-3.414,8.088a1.829,1.829,0,0,1-2.393.973Zm-7.168-16.885a91.753,91.753,0,0,0-11.824-4.089,1.342,1.342,0,0,0-1.774.7l-3.414,8.088a1.331,1.331,0,0,0,.708,1.742,88.28,88.28,0,0,1,23.683,10,1.331,1.331,0,0,0,1.724-.715L774,475.5a1.331,1.331,0,0,0-.708-1.742,107.187,107.187,0,0,0-11.809-5.889Z" transform="translate(-451.523 -321.266)" fill="#77c4c2"/>
    <circle id="Ellipse_36" data-name="Ellipse 36" cx="3.481" cy="3.481" r="3.481" transform="translate(304.394 148.901)" fill="#77c4c2"/>
    <path id="Tracé_1241" data-name="Tracé 1241" d="M756.694,470.323l-2.749-1.16a.747.747,0,0,1-.4-.977l.387-.916a.747.747,0,0,1,.977-.4l2.749,1.16a.747.747,0,0,1,.4.977l-.387.916a.747.747,0,0,1-.977.4Z" transform="translate(-456.358 -323.098)" fill="#77c4c2"/>
    <path id="Tracé_1242" data-name="Tracé 1242" d="M789.943,499.555l-2.749-1.16a.747.747,0,0,1-.4-.977l.387-.916a.747.747,0,0,1,.977-.4l2.749,1.16a.747.747,0,0,1,.4.977l-.387.916a.747.747,0,0,1-.977.4Z" transform="translate(-473.073 -337.792)" fill="#77c4c2"/>
    <path id="Tracé_1243" data-name="Tracé 1243" d="M799.743,473.652a5,5,0,0,0,1.186-7.576l8.807-15.435-9.216.6-6.95,14.566a5.028,5.028,0,0,0,6.173,7.849Z" transform="translate(-475.765 -314.968)" fill="#ffb6b6"/>
    <path id="Tracé_1244" data-name="Tracé 1244" d="M778.7,506.912h-6.1L769.7,483.4h9Z" transform="translate(-386.93 -243.003)" fill="#ffb6b6"/>
    <path id="Tracé_1245" data-name="Tracé 1245" d="M927.05,712.4H907.392v-.249a7.652,7.652,0,0,1,7.651-7.652h12.008Z" transform="translate(-533.725 -442.584)" fill="#2f2e41"/>
    <path id="Tracé_1246" data-name="Tracé 1246" d="M694.7,506.912h-6.1L685.7,483.4h9Z" transform="translate(-344.704 -243.003)" fill="#ffb6b6"/>
    <path id="Tracé_1247" data-name="Tracé 1247" d="M843.05,712.4H823.392v-.249a7.652,7.652,0,0,1,7.651-7.652h12.008Z" transform="translate(-491.498 -442.584)" fill="#2f2e41"/>
    <path id="Tracé_1248" data-name="Tracé 1248" d="M827.841,451.974s-1.677,23.881,1.626,35.908,3.893,84.76,3.893,84.76H844.43l9.6-99.005,22.121,99.354,10.545-.725-5.783-117.076Z" transform="translate(-493.521 -315.638)" fill="#2f2e41"/>
    <path id="Tracé_1249" data-name="Tracé 1249" d="M874.5,283.853l-8.463-6.176-14.182,3.088-3.839,9.122-6.615,3.28a14.994,14.994,0,0,0-8.179,11.285l-9.45,65.258,55.3-2.138,6.7-76.854a6.025,6.025,0,0,0-5.653-6.538Z" transform="translate(-491.691 -228.019)" fill="#344766"/>
    <path id="Tracé_1250" data-name="Tracé 1250" d="M668.537,141.253l-5.108,6.886-22.247,67.854,10.428,4.175,16.7-31.619Z" transform="translate(-322.322 -71.008)" fill="#344766"/>
    <circle id="Ellipse_37" data-name="Ellipse 37" cx="16.927" cy="16.927" r="16.927" transform="translate(347.574 11.815)" fill="#2f2e41"/>
    <circle id="Ellipse_38" data-name="Ellipse 38" cx="12.352" cy="12.352" r="12.352" transform="translate(352.378 21.73)" fill="#ffb9b9"/>
    <path id="Tracé_1251" data-name="Tracé 1251" d="M885.619,230.188c-7.865-2.837-10.527-4.58-19.214,0l-3.2-12.809h25.619Z" transform="translate(-511.511 -197.707)" fill="#2f2e41"/>
    <circle id="Ellipse_39" data-name="Ellipse 39" cx="9.607" cy="9.607" r="9.607" transform="translate(353.522 2.287)" fill="#2f2e41"/>
    <path id="Tracé_1252" data-name="Tracé 1252" d="M862.278,187.428a9.6,9.6,0,0,1,9.15-9.584c-.153-.007-.3-.023-.458-.023a9.607,9.607,0,1,0,0,19.214c.154,0,.3-.016.458-.023A9.6,9.6,0,0,1,862.278,187.428Z" transform="translate(-510.586 -177.822)" fill="#2f2e41"/>
    <path id="Tracé_1253" data-name="Tracé 1253" d="M762.3,149.111l-3.446,34.356-12.171,23.987Z" transform="translate(-375.358 -74.958)" opacity="0.1"/>
    <path id="Tracé_1257" data-name="Tracé 1257" d="M877.423,478.467l-.041,0a87.9,87.9,0,0,0-25.615,0h0a1.833,1.833,0,0,1-1.855-1.825v-8.779a1.829,1.829,0,0,1,1.827-1.827,99.4,99.4,0,0,1,25.718,0h0a1.82,1.82,0,0,1,1.793,1.825v8.779A1.829,1.829,0,0,1,877.423,478.467Z" transform="translate(-504.829 -322.287)" fill="#fff"/>
    <path id="Tracé_1258" data-name="Tracé 1258" d="M877.423,478.467l-.041,0a87.9,87.9,0,0,0-25.615,0h0a1.833,1.833,0,0,1-1.855-1.825v-8.779a1.829,1.829,0,0,1,1.827-1.827,99.4,99.4,0,0,1,25.718,0h0a1.82,1.82,0,0,1,1.793,1.825v8.779A1.829,1.829,0,0,1,877.423,478.467ZM864.254,465.7a91.75,91.75,0,0,0-12.484.831,1.342,1.342,0,0,0-1.363,1.332v8.779a1.331,1.331,0,0,0,1.329,1.329,88.277,88.277,0,0,1,25.707,0,1.331,1.331,0,0,0,1.31-1.329v-8.779a1.331,1.331,0,0,0-1.329-1.329A107.188,107.188,0,0,0,864.254,465.7Z" transform="translate(-504.829 -322.287)" fill="#77c4c2"/>
    <circle id="Ellipse_43" data-name="Ellipse 43" cx="3.481" cy="3.481" r="3.481" transform="translate(356.27 146.064)" fill="#77c4c2"/>
    <path id="Tracé_1259" data-name="Tracé 1259" d="M857.639,472.365h-2.984a.747.747,0,0,1-.746-.746v-.995a.747.747,0,0,1,.746-.746h2.984a.747.747,0,0,1,.746.746v.995A.747.747,0,0,1,857.639,472.365Z" transform="translate(-506.839 -324.638)" fill="#77c4c2"/>
    <path id="Tracé_1260" data-name="Tracé 1260" d="M899.639,486.365h-2.984a.747.747,0,0,1-.746-.746v-.995a.747.747,0,0,1,.746-.746h2.984a.747.747,0,0,1,.746.746v.995a.747.747,0,0,1-.746.746Z" transform="translate(-527.953 -331.676)" fill="#77c4c2"/>
    <path id="Tracé_1261" data-name="Tracé 1261" d="M893.981,447.109a5,5,0,0,1,5.52-5.322l7.578-16.074,4.806,7.886-7.933,14.055a5.028,5.028,0,0,1-9.971-.545Z" transform="translate(-526.977 -302.436)" fill="#ffb6b6"/>
    <path id="Tracé_1262" data-name="Tracé 1262" d="M918.964,295.465l3.121-4.07s7.6-1.549,8.9,8.9l-.813,46.431L913.5,372.947l-10.822-2.763,14.149-31.155Z" transform="translate(-531.357 -234.874)" fill="#344766"/>
  </g>
</svg>
