<svg xmlns="http://www.w3.org/2000/svg" xmlns:xlink="http://www.w3.org/1999/xlink" width="64.826" height="64.826" viewBox="0 0 64.826 64.826">
  <defs>
    <clipPath id="clip-path">
      <rect id="Rectangle_111" data-name="Rectangle 111" width="64.826" height="64.826" transform="translate(0 0)" fill="#ae8967"/>
    </clipPath>
  </defs>
  <g id="Groupe_2584" data-name="Groupe 2584" clip-path="url(#clip-path)">
    <path id="Tracé_1278" data-name="Tracé 1278" d="M31.662,34.38,58.212,2.653c2.851-3.1,5.62-.487,3.51,3.143L36.416,45.232a5.117,5.117,0,0,1-8.239.249l-11.921-13.9c-4.294-5.005,3.4-11.608,7.659-6.5Zm.751-28.56a26.46,26.46,0,0,1,15.013,4.643l3.751-4.482A32.4,32.4,0,1,0,59.4,14.455l-3.508,5.467a26.593,26.593,0,1,1-23.479-14.1" transform="translate(0 0.003)" fill="#ae8967" fill-rule="evenodd"/>
  </g>
</svg>
