<svg xmlns="http://www.w3.org/2000/svg" width="215" height="215" viewBox="0 0 215 215">
  <g id="compost1" transform="translate(-379 -9579)">
    <g id="caps3" transform="translate(7698.158 15447.205) rotate(131)">
      <path id="Tracé_1262" data-name="Tracé 1262" d="M-4865.358,11866.471l1.276-10.224,2.178-1.272,5.978.185,1.862,1.407.807,9.9Z" transform="translate(5222 -2555)" fill="#fff"/>
      <path id="Tracé_1237" data-name="Tracé 1237" d="M15.914,10.237h-1.24L13.661.331,11.4-1H5.323L3.062.331,2.049,10.237H.809c-.446,0-.809.011-.809.457H0c0,.446.363.592.809.592h15.1c.446,0,.809-.146.809-.592h0c0-.446-.363-.457-.809-.457M3.758.782,5.525-.258H11.2L12.965.782l.937,9.233H2.821ZM15.98,10.477a.067.067,0,0,1-.067.067H.809a.067.067,0,0,1-.067-.067v.569a.067.067,0,0,1,.067-.067h15.1a.067.067,0,0,1,.067.067Z" transform="translate(354.426 9300.742)" fill="#a8805c" stroke="#a8805c" stroke-width="0.9"/>
    </g>
    <g id="caps2" transform="translate(-7763.526 5270.062) rotate(-60)">
      <path id="Tracé_1262-2" data-name="Tracé 1262" d="M-4865.358,11866.471l1.276-10.224,2.178-1.272,5.978.185,1.862,1.407.807,9.9Z" transform="translate(5222 -2555)" fill="#fff"/>
      <path id="Tracé_1237-2" data-name="Tracé 1237" d="M15.914,10.237h-1.24L13.661.331,11.4-1H5.323L3.062.331,2.049,10.237H.809c-.446,0-.809.011-.809.457H0c0,.446.363.592.809.592h15.1c.446,0,.809-.146.809-.592h0c0-.446-.363-.457-.809-.457M3.758.782,5.525-.258H11.2L12.965.782l.937,9.233H2.821ZM15.98,10.477a.067.067,0,0,1-.067.067H.809a.067.067,0,0,1-.067-.067v.569a.067.067,0,0,1,.067-.067h15.1a.067.067,0,0,1,.067.067Z" transform="translate(354.426 9300.742)" fill="#a8805c" stroke="#a8805c" stroke-width="0.9"/>
    </g>
    <g id="caps1" transform="translate(6224.356 2253.878) rotate(40)">
      <path id="Tracé_1262-3" data-name="Tracé 1262" d="M-4865.358,11866.471l1.276-10.224,2.178-1.272,5.978.185,1.862,1.407.807,9.9Z" transform="translate(5222 -2555)" fill="#fff"/>
      <path id="Tracé_1237-3" data-name="Tracé 1237" d="M15.914,10.237h-1.24L13.661.331,11.4-1H5.323L3.062.331,2.049,10.237H.809c-.446,0-.809.011-.809.457H0c0,.446.363.592.809.592h15.1c.446,0,.809-.146.809-.592h0c0-.446-.363-.457-.809-.457M3.758.782,5.525-.258H11.2L12.965.782l.937,9.233H2.821ZM15.98,10.477a.067.067,0,0,1-.067.067H.809a.067.067,0,0,1-.067-.067v.569a.067.067,0,0,1,.067-.067h15.1a.067.067,0,0,1,.067.067Z" transform="translate(354.426 9300.742)" fill="#a8805c" stroke="#a8805c" stroke-width="0.9"/>
    </g>
    <g id="orange2" transform="translate(53.538 289.961)">
      <path id="Tracé_1260" data-name="Tracé 1260" d="M-4840.19,11908.231l2.342-.746-1.4-9.952.766-2.866,1.567-2.114,1.681-1.2,4.75,2.836-1.312-3.3-1.7-4.418,1.7-2.425,3.18-2.413h2.217v-4.573l2.319-1.031h2.7l2.287.311,1.08.721-1.824,1.148-.7,1.5.288,1.929,1.516,2.6,1.31,2.786,2.292,2.181,1.885,2.489-.876,2.057-1.335,1.836-1.521,1.228-2.861-3.343-3.354-2.582,1,3.3,2.354,6.13-1.542,2.194-3.713,1.625-2.6.279-3.611-1.442,1.187,3.951-.375,2.622-2.379,1.914h-3.63l-2.346-1.914Z" transform="translate(5222 -2555)" fill="#fff"/>
      <path id="Tracé_1239" data-name="Tracé 1239" d="M35.31,4.543l-.018-.023-.305,0c-.066,0-.134,0-.2.007h-.013a6.286,6.286,0,0,0-4.454,2.538l-.14.153.008.007q-.3.366-.591.8c-.008-2.573-.8-3.535-1.279-3.879a8.813,8.813,0,0,0-7.4-3.277h0V.879l-.093.01c-.445.116-.843.523-1.329,1.361-.572.984-2.031,3.294-3.895,5.988.016-.143.032-.286.05-.428.594-4.911,1.191-6.258,1.194-6.264l.191-.394L16.725.837C16.59.7,15.781,0,13.146,0,10.61,0,9.56,0,8.795,2.372a29.841,29.841,0,0,0-.828,4.48.723.723,0,0,0-.189.245,34.239,34.239,0,0,1-3.219,6.016,1.426,1.426,0,0,1-.891.363,7,7,0,0,1-2.8-.507L0,12.617v.933c0,1.527,2.807,6.67,5.246,7.014l.029.006a1.5,1.5,0,0,0,.342.068h.006l.137.027.014-.035c.816-.068,1.844-.722,3.189-2.032l0,.006c.017.027.036.053.054.08.035.055.071.109.11.162.023.031.049.06.073.091.037.046.073.092.112.136s.057.061.086.092.077.082.118.121.065.059.1.089.082.074.124.109.071.057.107.085.086.068.131.1.077.054.115.08.09.062.136.091.082.051.123.076.093.056.141.083l.129.071.147.077.133.065.151.07.138.06.153.063.143.056.154.057.146.052.157.052.147.047.154.046.152.044.151.04.154.04.147.035.157.037.14.03.159.033.131.025.165.031.049.009q.231.04.452.072l.056.008.18.024.09.012.161.019.1.012.146.015.1.01.137.012.093.008.127.01.086.007.117.008.078,0,.1.006.074,0,.089,0,.065,0,.073,0,.062,0h.051l.062,0h.128c1.907,0,3.132-1.891,4.9-5.793a19.254,19.254,0,0,0,.176,2.328c.23,1.754.638,1.969.895,2.1h0c.024.013.054.024.079.036a8.239,8.239,0,0,0,3.32.582c.109,0,.236,0,.371-.007l.166-.007.195-.011L26.6,20.5l.161-.016c.081-.008.163-.017.246-.028l.166-.023q.119-.017.238-.039l.178-.034q.114-.023.228-.05c.059-.014.117-.028.174-.044.081-.022.16-.046.239-.071.048-.015.1-.03.144-.046.092-.032.179-.067.265-.1,1.29-.132,2.952-1.853,4.828-3.92.3-.333.569-.627.78-.846.193-.2.417-.431.652-.668.093-.094.185-.187.272-.273l.1-.1a8.473,8.473,0,0,1,1.531-1.308l.009,0a.435.435,0,0,1,.1-.034l.027.007a5.141,5.141,0,0,1,1.423,1.089l.725.743.318-.987a15,15,0,0,0,.657-4.069c0-2.187-2.575-4.928-4.754-5.13m-.572,8.47q-.18.172-.374.365l-.02.02c-.114.114-.235.236-.358.361l-.058.058-.439.447h0l-.138.142c-.219.226-.5.53-.808.876C31.6,16.326,29.4,18.751,28.555,18.8h-.041c-.008-.025-.017-.058-.026-.1,0-.009,0-.019-.006-.029s0-.007,0-.011c-.006-.028-.011-.065-.017-.1a15.414,15.414,0,0,1,.224-3.893l.114-.618c.166-.9.355-1.922.515-2.969a13.636,13.636,0,0,1,2.076-3.329v0l.111-.121c.081-.088.161-.173.241-.253l.032-.031q.083-.083.166-.16l.089-.082.1-.091.111-.095.064-.052a4.776,4.776,0,0,1,1.988-1.007l.042-.009.092-.018.068-.012.072-.011.132-.016h0c.05.067.1.136.144.2.03.042.061.084.09.127l.04.058c.019.028.035.056.053.085.067.1.133.206.194.31.017.029.033.058.049.087.059.1.118.207.172.311l.009.017.032.063.012.024c.05.1.1.2.144.3.01.021.019.043.029.064v0l.038.086c.036.082.071.165.1.247l.022.057.031.08.02.051q.04.107.077.213l.015.045c.04.118.078.235.113.352l.01.036q.053.18.1.356l.007.027c.026.1.05.208.072.31v.006l.008.04,0,.023q.036.176.065.348a.039.039,0,0,1,0,.007l0,.021v0c.019.111.035.22.049.328l0,.035c.013.1.025.205.035.306,0,.017,0,.034.005.051.009.091.016.181.022.269,0,.025,0,.051.005.077s0,.078.007.116,0,.048,0,.072,0,.022,0,.033c0,.037,0,.075,0,.111s0,.074,0,.111c0,.016,0,.033,0,.049s0,.06,0,.09,0,.044,0,.065,0,.015,0,.022c0,.029,0,.056,0,.085,0,0,0,.005,0,.008,0,.042,0,.086,0,.127v0h0l-.026.011a2.11,2.11,0,0,0-.244.108c-.042.022-.085.049-.128.074s-.1.061-.159.1-.107.073-.162.113-.094.069-.143.106-.124.1-.188.15l-.137.116c-.069.059-.138.119-.21.184-.049.044-.1.093-.151.14-.071.066-.142.131-.217.2m-7.555,4.038c0,.017,0,.032,0,.049,0,.048,0,.094-.006.139,0,.017,0,.035,0,.052,0,.064,0,.126-.006.186v0c0,.106,0,.207,0,.3,0,.038,0,.072,0,.109,0,.018,0,.035,0,.052s0,.012,0,.017c0,.026,0,.052,0,.078l0,.058h0q0,.1.009.187c0,.077.009.153.016.224,0,.022,0,.046.006.067a3.342,3.342,0,0,0,.108.572H27.3a7.578,7.578,0,0,1-.774.107h-.006c-.139.012-.279.021-.421.027s-.285.009-.431.01h-.043c-.248,0-.493-.01-.731-.027L25.165,19l-.865-.9-.9.864.077.081-.06-.014-.052-.015c-.074-.021-.144-.043-.21-.066l-.061-.021c-.074-.027-.143-.056-.205-.085l-.014-.006h0a5.777,5.777,0,0,1-.374-2.16c0-.068-.009-.137-.013-.209,0-.056-.006-.116-.009-.174,0-.09-.009-.18-.013-.276-.009-.213-.015-.437-.02-.661,0-.162-.007-.33-.009-.507,0-.017,0-.033,0-.05,0-.143,0-.289,0-.442,0-.48.007-.908.015-1.238,0-.169.008-.339.014-.5v-.059h0V12.51l0-.08c0-.009,0-.043,0-.087.012-.368.022-.75.033-1.14q.022-.869.03-1.774c0-.161,0-.3,0-.4,0-.2,0-.4,0-.593,0-.068,0-.133,0-.2,0-.124,0-.246,0-.366h0c0-.038,0-.076,0-.113s0-.076,0-.114q0-.169,0-.333h0c0-.042,0-.084,0-.126s0-.055,0-.082c0-.122,0-.241,0-.359,0-.051,0-.1,0-.154,0-.164,0-.324-.007-.479v-.04c0-.023,0-.046,0-.07v0c0-.117,0-.233-.007-.345h0c0-.054,0-.106,0-.159v0q0-.139-.007-.274a0,0,0,0,0,0,0c0-.055,0-.11,0-.164h0c0-.087-.006-.171-.009-.255v0c0-.049,0-.1-.006-.147h0c0-.1-.009-.192-.013-.285a.059.059,0,0,0,0-.008c0-.027,0-.056,0-.083h0c-.007-.121-.014-.237-.021-.35v0c0-.032,0-.062-.007-.093,0,0,0,0,0-.006-.006-.079-.011-.157-.018-.233v0c0-.037-.006-.073-.01-.109,0,0,0,0,0,0-.006-.068-.012-.136-.019-.2,0,0,0,0,0,0,0-.035-.007-.069-.011-.1a.009.009,0,0,1,0,0c-.008-.067-.016-.132-.024-.2V2.951c0-.026-.006-.052-.01-.077a.005.005,0,0,0,0,0q-.037-.272-.082-.5v0l-.011-.053,0-.007c-.011-.055-.023-.109-.036-.16v0c0-.009,0-.019-.006-.028a8.07,8.07,0,0,1,5.224,2.921l.138.118c.362.227.907,1.305.747,3.784-.012.184-.027.372-.046.563,0,.021,0,.041-.005.062s0,.038-.007.057c-.02.194-.043.391-.071.588,0,.005,0,.011,0,.016l-.038.2c-.323,1.658-.542,2.991-.691,4.067-.083.6-.145,1.125-.188,1.573h0l-.453-.468-.9.864.864.908.42-.4h0c0,.029,0,.061-.006.09m-7.4-1.542c-1.424,3.057-2.409,4.523-3.508,4.523a.092.092,0,0,1-.046-.023.447.447,0,0,1-.059-.056l-.011-.013a1.213,1.213,0,0,1-.084-.115c-.02-.032-.041-.065-.061-.1l0-.005c-.027-.051-.053-.113-.079-.172a5.505,5.505,0,0,1-.282-.938c-.021-.1-.042-.191-.061-.294a26.457,26.457,0,0,1-.314-4.487c0-.3.006-.616.013-.93l0-.06,0-.166c0-.085.006-.172.009-.258.016-.54.041-1.082.074-1.618,0-.024,0-.049,0-.073h0v0c2.309-3.229,4.231-6.227,5.043-7.588.054-.091.1-.174.147-.25a4.673,4.673,0,0,1,.395-.591h0l0,.015c.018.061.035.128.051.2l0,.007q.025.117.046.255a.089.089,0,0,1,0,.009c.014.09.027.187.039.288,0,.012,0,.023,0,.035.012.1.022.2.032.314,0,.015,0,.03,0,.044q.015.166.028.345l0,.041c.009.124.016.251.024.384,0,0,0,.007,0,.01.007.133.014.271.02.411,0,.01,0,.02,0,.029.006.137.011.278.016.42,0,.018,0,.036,0,.054q.006.208.012.422c0,.023,0,.046,0,.068,0,.143.006.286.009.432,0,.02,0,.039,0,.059q0,.225.006.452V6.6q0,.229,0,.46c0,.014,0,.027,0,.042q0,.224,0,.447c0,.024,0,.048,0,.071q0,.215,0,.428c0,.025,0,.05,0,.075,0,.139,0,.277,0,.413v.491c0,.132,0,.259,0,.39,0,.6-.014,1.183-.03,1.763-.008.3-.016.6-.025.9,0,.067,0,.135-.006.2v0h0c-.131.3-.267.618-.406.936l-.017.038c-.333.763-.681,1.545-1.011,2.257Zm-6.8,4.114c-.074-.018-.148-.039-.222-.059l-.136-.036c-.1-.028-.2-.058-.292-.089l-.059-.018c-.076-.025-.15-.052-.224-.079l-.117-.041c-.052-.02-.1-.041-.151-.062L12.025,19l-.871-.908-.523.5a2.324,2.324,0,0,1-.678-.8c-.067-.138-.129-.285-.189-.435,0-.008-.007-.016-.01-.024-.018-.046-.035-.095-.053-.142-.045-.121-.089-.245-.13-.374-.016-.049-.031-.1-.046-.148s-.031-.112-.047-.168l0,0,.668-.64-.871-.9-.111.106c0-.019-.007-.038-.01-.058-.008-.053-.018-.105-.026-.158-.016-.106-.028-.218-.042-.327-.017-.132-.034-.264-.048-.4-.009-.088-.016-.178-.025-.268-.015-.166-.029-.331-.041-.5-.005-.08-.01-.161-.015-.242-.011-.191-.02-.382-.027-.573,0-.045,0-.088-.006-.133l0-.109-.015-.471a37.718,37.718,0,0,1,.242-4.482,27.605,27.605,0,0,1,.835-4.6c.486-1.5.688-1.5,3.161-1.5a7.061,7.061,0,0,1,2.361.308,36.782,36.782,0,0,0-1.105,6.1s0,.007,0,.01h0l-.067.623c-.021.2-.041.4-.06.6-.013.142-.023.288-.035.431-.01.122-.02.245-.031.373-.016.194-.034.386-.048.582l0,0-.011.166v.012c0,.046,0,.092-.008.139-.011.168-.021.337-.031.5,0,.037,0,.075-.006.114,0,.067-.006.134-.01.2,0,.014,0,.029,0,.043,0,.059-.006.118-.008.177-.01.231-.019.482-.027.742,0,.016,0,.031,0,.046l0,.157-.008.255-.006.214h0q-.005.273-.007.541c0,.085,0,.171,0,.256,0,.032,0,.065,0,.1s0,.038,0,.058c0,.906.028,1.7.076,2.393l0,0-.713.683.864.908.013-.012,0,0a9.007,9.007,0,0,0,.478,1.96,14.185,14.185,0,0,1-1.763-.312M1.514,14.492a7.738,7.738,0,0,0,1.618.252c0,.012,0,.023,0,.036.013.258.03.506.05.748,0,.056.009.112.014.167.023.25.049.492.079.724,0,.026.007.05.011.075a12.392,12.392,0,0,0,.261,1.379,14.59,14.59,0,0,1-2.035-3.382m6.177-4.311c-.023.546-.033,1.1-.028,1.649H7.656l.012.376.007.25c0,.143.013.279.02.419,0,.016,0,.033,0,.049v0c.013.277.032.551.054.824,0,.016,0,.033,0,.049s0,.04.005.06.005.045.007.068c.023.255.049.507.081.756,0,.011,0,.023,0,.034l.007.061c.024.179.05.353.078.524.016.1.031.193.049.288.056.312.118.612.189.9.007.027.014.054.021.081.012.047.026.091.039.137,0,.016.009.032.013.048.032.114.062.231.1.341.015.05.031.1.047.149s.024.081.038.12C6.6,19.226,5.839,19.385,5.686,19.395h0c-.018-.015-.036-.033-.053-.049s-.038-.033-.056-.052c-.035-.035-.068-.073-.1-.113l-.026-.031c-.587-.74-.965-2.346-1.065-4.54h0a2.378,2.378,0,0,0,1.077-.625,20.123,20.123,0,0,0,2.234-3.8M37.752,11.9c0-.073,0-.149,0-.226,0-.008,0-.015,0-.022,0-.038,0-.079,0-.118,0-.015,0-.029,0-.044s0-.042,0-.063c0-.044,0-.088,0-.133,0-.02,0-.04,0-.06,0-.049,0-.1,0-.148s0-.086-.006-.128,0-.065,0-.1c0,0,0-.007,0-.01s0-.023,0-.034c-.01-.172-.026-.352-.044-.535-.006-.06-.013-.12-.02-.182,0-.035-.007-.068-.011-.1s-.01-.078-.016-.118c-.015-.109-.032-.22-.051-.332,0-.027-.007-.053-.012-.079v0l-.016-.089,0-.016q-.032-.174-.071-.351c0-.006,0-.013,0-.02l0-.01,0-.02c0-.016-.009-.034-.012-.05q-.043-.189-.094-.381c-.006-.023-.011-.045-.017-.068v0c-.007-.026-.016-.052-.024-.078q-.049-.173-.1-.347c-.013-.043-.026-.085-.04-.129-.006-.018-.013-.036-.02-.054-.018-.053-.038-.106-.057-.158-.029-.083-.057-.165-.089-.248-.016-.041-.033-.082-.05-.123-.026-.066-.052-.132-.08-.2l-.018-.045c-.025-.057-.05-.115-.076-.172-.013-.03-.028-.06-.042-.089l-.013-.028c-.021-.046-.042-.092-.065-.138-.039-.079-.08-.159-.121-.238l-.046-.09L36.5,6.3a4.942,4.942,0,0,1,2.308,3.377,12.731,12.731,0,0,1-.341,2.722,5.3,5.3,0,0,0-.719-.5M24.3,14.341l.865.9-.9.87-.864-.908Zm2.123-2.228-.908.87-.864-.908.246-.235.656-.628.206.213Zm-15.269-.275.871.9-.908.87-.864-.908Z" transform="matrix(-0.574, 0.819, -0.819, -0.574, 415.369, 9329.209)" fill="#a8805c" stroke="#a8805c" stroke-width="0.3"/>
    </g>
    <g id="orange1" transform="translate(-8109.932 6040.26) rotate(-65)">
      <path id="Tracé_1260-2" data-name="Tracé 1260" d="M-4840.19,11908.231l2.342-.746-1.4-9.952.766-2.866,1.567-2.114,1.681-1.2,4.75,2.836-1.312-3.3-1.7-4.418,1.7-2.425,3.18-2.413h2.217v-4.573l2.319-1.031h2.7l2.287.311,1.08.721-1.824,1.148-.7,1.5.288,1.929,1.516,2.6,1.31,2.786,2.292,2.181,1.885,2.489-.876,2.057-1.335,1.836-1.521,1.228-2.861-3.343-3.354-2.582,1,3.3,2.354,6.13-1.542,2.194-3.713,1.625-2.6.279-3.611-1.442,1.187,3.951-.375,2.622-2.379,1.914h-3.63l-2.346-1.914Z" transform="translate(5222 -2555)" fill="#fff"/>
      <path id="Tracé_1239-2" data-name="Tracé 1239" d="M35.31,4.543l-.018-.023-.305,0c-.066,0-.134,0-.2.007h-.013a6.286,6.286,0,0,0-4.454,2.538l-.14.153.008.007q-.3.366-.591.8c-.008-2.573-.8-3.535-1.279-3.879a8.813,8.813,0,0,0-7.4-3.277h0V.879l-.093.01c-.445.116-.843.523-1.329,1.361-.572.984-2.031,3.294-3.895,5.988.016-.143.032-.286.05-.428.594-4.911,1.191-6.258,1.194-6.264l.191-.394L16.725.837C16.59.7,15.781,0,13.146,0,10.61,0,9.56,0,8.795,2.372a29.841,29.841,0,0,0-.828,4.48.723.723,0,0,0-.189.245,34.239,34.239,0,0,1-3.219,6.016,1.426,1.426,0,0,1-.891.363,7,7,0,0,1-2.8-.507L0,12.617v.933c0,1.527,2.807,6.67,5.246,7.014l.029.006a1.5,1.5,0,0,0,.342.068h.006l.137.027.014-.035c.816-.068,1.844-.722,3.189-2.032l0,.006c.017.027.036.053.054.08.035.055.071.109.11.162.023.031.049.06.073.091.037.046.073.092.112.136s.057.061.086.092.077.082.118.121.065.059.1.089.082.074.124.109.071.057.107.085.086.068.131.1.077.054.115.08.09.062.136.091.082.051.123.076.093.056.141.083l.129.071.147.077.133.065.151.07.138.06.153.063.143.056.154.057.146.052.157.052.147.047.154.046.152.044.151.04.154.04.147.035.157.037.14.03.159.033.131.025.165.031.049.009q.231.04.452.072l.056.008.18.024.09.012.161.019.1.012.146.015.1.01.137.012.093.008.127.01.086.007.117.008.078,0,.1.006.074,0,.089,0,.065,0,.073,0,.062,0h.051l.062,0h.128c1.907,0,3.132-1.891,4.9-5.793a19.254,19.254,0,0,0,.176,2.328c.23,1.754.638,1.969.895,2.1h0c.024.013.054.024.079.036a8.239,8.239,0,0,0,3.32.582c.109,0,.236,0,.371-.007l.166-.007.195-.011L26.6,20.5l.161-.016c.081-.008.163-.017.246-.028l.166-.023q.119-.017.238-.039l.178-.034q.114-.023.228-.05c.059-.014.117-.028.174-.044.081-.022.16-.046.239-.071.048-.015.1-.03.144-.046.092-.032.179-.067.265-.1,1.29-.132,2.952-1.853,4.828-3.92.3-.333.569-.627.78-.846.193-.2.417-.431.652-.668.093-.094.185-.187.272-.273l.1-.1a8.473,8.473,0,0,1,1.531-1.308l.009,0a.435.435,0,0,1,.1-.034l.027.007a5.141,5.141,0,0,1,1.423,1.089l.725.743.318-.987a15,15,0,0,0,.657-4.069c0-2.187-2.575-4.928-4.754-5.13m-.572,8.47q-.18.172-.374.365l-.02.02c-.114.114-.235.236-.358.361l-.058.058-.439.447h0l-.138.142c-.219.226-.5.53-.808.876C31.6,16.326,29.4,18.751,28.555,18.8h-.041c-.008-.025-.017-.058-.026-.1,0-.009,0-.019-.006-.029s0-.007,0-.011c-.006-.028-.011-.065-.017-.1a15.414,15.414,0,0,1,.224-3.893l.114-.618c.166-.9.355-1.922.515-2.969a13.636,13.636,0,0,1,2.076-3.329v0l.111-.121c.081-.088.161-.173.241-.253l.032-.031q.083-.083.166-.16l.089-.082.1-.091.111-.095.064-.052a4.776,4.776,0,0,1,1.988-1.007l.042-.009.092-.018.068-.012.072-.011.132-.016h0c.05.067.1.136.144.2.03.042.061.084.09.127l.04.058c.019.028.035.056.053.085.067.1.133.206.194.31.017.029.033.058.049.087.059.1.118.207.172.311l.009.017.032.063.012.024c.05.1.1.2.144.3.01.021.019.043.029.064v0l.038.086c.036.082.071.165.1.247l.022.057.031.08.02.051q.04.107.077.213l.015.045c.04.118.078.235.113.352l.01.036q.053.18.1.356l.007.027c.026.1.05.208.072.31v.006l.008.04,0,.023q.036.176.065.348a.039.039,0,0,1,0,.007l0,.021v0c.019.111.035.22.049.328l0,.035c.013.1.025.205.035.306,0,.017,0,.034.005.051.009.091.016.181.022.269,0,.025,0,.051.005.077s0,.078.007.116,0,.048,0,.072,0,.022,0,.033c0,.037,0,.075,0,.111s0,.074,0,.111c0,.016,0,.033,0,.049s0,.06,0,.09,0,.044,0,.065,0,.015,0,.022c0,.029,0,.056,0,.085,0,0,0,.005,0,.008,0,.042,0,.086,0,.127v0h0l-.026.011a2.11,2.11,0,0,0-.244.108c-.042.022-.085.049-.128.074s-.1.061-.159.1-.107.073-.162.113-.094.069-.143.106-.124.1-.188.15l-.137.116c-.069.059-.138.119-.21.184-.049.044-.1.093-.151.14-.071.066-.142.131-.217.2m-7.555,4.038c0,.017,0,.032,0,.049,0,.048,0,.094-.006.139,0,.017,0,.035,0,.052,0,.064,0,.126-.006.186v0c0,.106,0,.207,0,.3,0,.038,0,.072,0,.109,0,.018,0,.035,0,.052s0,.012,0,.017c0,.026,0,.052,0,.078l0,.058h0q0,.1.009.187c0,.077.009.153.016.224,0,.022,0,.046.006.067a3.342,3.342,0,0,0,.108.572H27.3a7.578,7.578,0,0,1-.774.107h-.006c-.139.012-.279.021-.421.027s-.285.009-.431.01h-.043c-.248,0-.493-.01-.731-.027L25.165,19l-.865-.9-.9.864.077.081-.06-.014-.052-.015c-.074-.021-.144-.043-.21-.066l-.061-.021c-.074-.027-.143-.056-.205-.085l-.014-.006h0a5.777,5.777,0,0,1-.374-2.16c0-.068-.009-.137-.013-.209,0-.056-.006-.116-.009-.174,0-.09-.009-.18-.013-.276-.009-.213-.015-.437-.02-.661,0-.162-.007-.33-.009-.507,0-.017,0-.033,0-.05,0-.143,0-.289,0-.442,0-.48.007-.908.015-1.238,0-.169.008-.339.014-.5v-.059h0V12.51l0-.08c0-.009,0-.043,0-.087.012-.368.022-.75.033-1.14q.022-.869.03-1.774c0-.161,0-.3,0-.4,0-.2,0-.4,0-.593,0-.068,0-.133,0-.2,0-.124,0-.246,0-.366h0c0-.038,0-.076,0-.113s0-.076,0-.114q0-.169,0-.333h0c0-.042,0-.084,0-.126s0-.055,0-.082c0-.122,0-.241,0-.359,0-.051,0-.1,0-.154,0-.164,0-.324-.007-.479v-.04c0-.023,0-.046,0-.07v0c0-.117,0-.233-.007-.345h0c0-.054,0-.106,0-.159v0q0-.139-.007-.274a0,0,0,0,0,0,0c0-.055,0-.11,0-.164h0c0-.087-.006-.171-.009-.255v0c0-.049,0-.1-.006-.147h0c0-.1-.009-.192-.013-.285a.059.059,0,0,0,0-.008c0-.027,0-.056,0-.083h0c-.007-.121-.014-.237-.021-.35v0c0-.032,0-.062-.007-.093,0,0,0,0,0-.006-.006-.079-.011-.157-.018-.233v0c0-.037-.006-.073-.01-.109,0,0,0,0,0,0-.006-.068-.012-.136-.019-.2,0,0,0,0,0,0,0-.035-.007-.069-.011-.1a.009.009,0,0,1,0,0c-.008-.067-.016-.132-.024-.2V2.951c0-.026-.006-.052-.01-.077a.005.005,0,0,0,0,0q-.037-.272-.082-.5v0l-.011-.053,0-.007c-.011-.055-.023-.109-.036-.16v0c0-.009,0-.019-.006-.028a8.07,8.07,0,0,1,5.224,2.921l.138.118c.362.227.907,1.305.747,3.784-.012.184-.027.372-.046.563,0,.021,0,.041-.005.062s0,.038-.007.057c-.02.194-.043.391-.071.588,0,.005,0,.011,0,.016l-.038.2c-.323,1.658-.542,2.991-.691,4.067-.083.6-.145,1.125-.188,1.573h0l-.453-.468-.9.864.864.908.42-.4h0c0,.029,0,.061-.006.09m-7.4-1.542c-1.424,3.057-2.409,4.523-3.508,4.523a.092.092,0,0,1-.046-.023.447.447,0,0,1-.059-.056l-.011-.013a1.213,1.213,0,0,1-.084-.115c-.02-.032-.041-.065-.061-.1l0-.005c-.027-.051-.053-.113-.079-.172a5.505,5.505,0,0,1-.282-.938c-.021-.1-.042-.191-.061-.294a26.457,26.457,0,0,1-.314-4.487c0-.3.006-.616.013-.93l0-.06,0-.166c0-.085.006-.172.009-.258.016-.54.041-1.082.074-1.618,0-.024,0-.049,0-.073h0v0c2.309-3.229,4.231-6.227,5.043-7.588.054-.091.1-.174.147-.25a4.673,4.673,0,0,1,.395-.591h0l0,.015c.018.061.035.128.051.2l0,.007q.025.117.046.255a.089.089,0,0,1,0,.009c.014.09.027.187.039.288,0,.012,0,.023,0,.035.012.1.022.2.032.314,0,.015,0,.03,0,.044q.015.166.028.345l0,.041c.009.124.016.251.024.384,0,0,0,.007,0,.01.007.133.014.271.02.411,0,.01,0,.02,0,.029.006.137.011.278.016.42,0,.018,0,.036,0,.054q.006.208.012.422c0,.023,0,.046,0,.068,0,.143.006.286.009.432,0,.02,0,.039,0,.059q0,.225.006.452V6.6q0,.229,0,.46c0,.014,0,.027,0,.042q0,.224,0,.447c0,.024,0,.048,0,.071q0,.215,0,.428c0,.025,0,.05,0,.075,0,.139,0,.277,0,.413v.491c0,.132,0,.259,0,.39,0,.6-.014,1.183-.03,1.763-.008.3-.016.6-.025.9,0,.067,0,.135-.006.2v0h0c-.131.3-.267.618-.406.936l-.017.038c-.333.763-.681,1.545-1.011,2.257Zm-6.8,4.114c-.074-.018-.148-.039-.222-.059l-.136-.036c-.1-.028-.2-.058-.292-.089l-.059-.018c-.076-.025-.15-.052-.224-.079l-.117-.041c-.052-.02-.1-.041-.151-.062L12.025,19l-.871-.908-.523.5a2.324,2.324,0,0,1-.678-.8c-.067-.138-.129-.285-.189-.435,0-.008-.007-.016-.01-.024-.018-.046-.035-.095-.053-.142-.045-.121-.089-.245-.13-.374-.016-.049-.031-.1-.046-.148s-.031-.112-.047-.168l0,0,.668-.64-.871-.9-.111.106c0-.019-.007-.038-.01-.058-.008-.053-.018-.105-.026-.158-.016-.106-.028-.218-.042-.327-.017-.132-.034-.264-.048-.4-.009-.088-.016-.178-.025-.268-.015-.166-.029-.331-.041-.5-.005-.08-.01-.161-.015-.242-.011-.191-.02-.382-.027-.573,0-.045,0-.088-.006-.133l0-.109-.015-.471a37.718,37.718,0,0,1,.242-4.482,27.605,27.605,0,0,1,.835-4.6c.486-1.5.688-1.5,3.161-1.5a7.061,7.061,0,0,1,2.361.308,36.782,36.782,0,0,0-1.105,6.1s0,.007,0,.01h0l-.067.623c-.021.2-.041.4-.06.6-.013.142-.023.288-.035.431-.01.122-.02.245-.031.373-.016.194-.034.386-.048.582l0,0-.011.166v.012c0,.046,0,.092-.008.139-.011.168-.021.337-.031.5,0,.037,0,.075-.006.114,0,.067-.006.134-.01.2,0,.014,0,.029,0,.043,0,.059-.006.118-.008.177-.01.231-.019.482-.027.742,0,.016,0,.031,0,.046l0,.157-.008.255-.006.214h0q-.005.273-.007.541c0,.085,0,.171,0,.256,0,.032,0,.065,0,.1s0,.038,0,.058c0,.906.028,1.7.076,2.393l0,0-.713.683.864.908.013-.012,0,0a9.007,9.007,0,0,0,.478,1.96,14.185,14.185,0,0,1-1.763-.312M1.514,14.492a7.738,7.738,0,0,0,1.618.252c0,.012,0,.023,0,.036.013.258.03.506.05.748,0,.056.009.112.014.167.023.25.049.492.079.724,0,.026.007.05.011.075a12.392,12.392,0,0,0,.261,1.379,14.59,14.59,0,0,1-2.035-3.382m6.177-4.311c-.023.546-.033,1.1-.028,1.649H7.656l.012.376.007.25c0,.143.013.279.02.419,0,.016,0,.033,0,.049v0c.013.277.032.551.054.824,0,.016,0,.033,0,.049s0,.04.005.06.005.045.007.068c.023.255.049.507.081.756,0,.011,0,.023,0,.034l.007.061c.024.179.05.353.078.524.016.1.031.193.049.288.056.312.118.612.189.9.007.027.014.054.021.081.012.047.026.091.039.137,0,.016.009.032.013.048.032.114.062.231.1.341.015.05.031.1.047.149s.024.081.038.12C6.6,19.226,5.839,19.385,5.686,19.395h0c-.018-.015-.036-.033-.053-.049s-.038-.033-.056-.052c-.035-.035-.068-.073-.1-.113l-.026-.031c-.587-.74-.965-2.346-1.065-4.54h0a2.378,2.378,0,0,0,1.077-.625,20.123,20.123,0,0,0,2.234-3.8M37.752,11.9c0-.073,0-.149,0-.226,0-.008,0-.015,0-.022,0-.038,0-.079,0-.118,0-.015,0-.029,0-.044s0-.042,0-.063c0-.044,0-.088,0-.133,0-.02,0-.04,0-.06,0-.049,0-.1,0-.148s0-.086-.006-.128,0-.065,0-.1c0,0,0-.007,0-.01s0-.023,0-.034c-.01-.172-.026-.352-.044-.535-.006-.06-.013-.12-.02-.182,0-.035-.007-.068-.011-.1s-.01-.078-.016-.118c-.015-.109-.032-.22-.051-.332,0-.027-.007-.053-.012-.079v0l-.016-.089,0-.016q-.032-.174-.071-.351c0-.006,0-.013,0-.02l0-.01,0-.02c0-.016-.009-.034-.012-.05q-.043-.189-.094-.381c-.006-.023-.011-.045-.017-.068v0c-.007-.026-.016-.052-.024-.078q-.049-.173-.1-.347c-.013-.043-.026-.085-.04-.129-.006-.018-.013-.036-.02-.054-.018-.053-.038-.106-.057-.158-.029-.083-.057-.165-.089-.248-.016-.041-.033-.082-.05-.123-.026-.066-.052-.132-.08-.2l-.018-.045c-.025-.057-.05-.115-.076-.172-.013-.03-.028-.06-.042-.089l-.013-.028c-.021-.046-.042-.092-.065-.138-.039-.079-.08-.159-.121-.238l-.046-.09L36.5,6.3a4.942,4.942,0,0,1,2.308,3.377,12.731,12.731,0,0,1-.341,2.722,5.3,5.3,0,0,0-.719-.5M24.3,14.341l.865.9-.9.87-.864-.908Zm2.123-2.228-.908.87-.864-.908.246-.235.656-.628.206.213Zm-15.269-.275.871.9-.908.87-.864-.908Z" transform="matrix(-0.574, 0.819, -0.819, -0.574, 415.369, 9329.209)" fill="#a8805c" stroke="#a8805c" stroke-width="0.3"/>
    </g>
    <g id="banana1" transform="translate(118.891 243.039)">
      <path id="Tracé_1261" data-name="Tracé 1261" d="M-4877.329,11953.2l.65-3.077,1.981-1.717,2.616-.438h5.544l3.283-.87,1.281-1.6-.578-4.692.578-3.71,2.2-2.237.82-.523-.82-1.636.454-1.578.868-.632,1.214.632v3.737h1.881l1.487,1.356,1.379,2.372,2.006,4.354,2.053,1.353,3.587.905,2.43-.493,2.19-1.135h2.81l3.572.723,1.47,1.2-3.849,1.242-3.684,1.226-2.242,1.082-2.7.748,2.43,1.3,3,1.443,1.458,2.335v2.669l-1.458,1.069-1.259-2.705-3.588-.382-3.575-.651-3.681-1.673-2.6-2.105-2.188-3.127-.932,2.854-2.536,1.352-4.457.7-4.705-.7-3.686-1.079-2.849,1.079Z" transform="translate(5222 -2555)" fill="#fff"/>
      <path id="Tracé_1241" data-name="Tracé 1241" d="M39.486,29.423a1,1,0,0,1-.286-.042,1.416,1.416,0,0,1-.846-1c-.271-.7-.682-1.747-2.974-1.97-4.81-.457-10.288-1.679-12.922-6.581a3.361,3.361,0,0,1-1.4,2.056c-1.995,1.385-6.89,2.748-12.2.823-3.53-1.285-5.157.016-6.129.793a2.743,2.743,0,0,1-1.035.621,1.319,1.319,0,0,1-1.412-.5c-.483-.679-.343-1.813.364-2.962C2.761,17.122,5.5,17.221,8.68,17.333c.614.022,1.258.039,1.935.043,2.4,0,4.092-.436,4.767-1.226a1.525,1.525,0,0,0,.31-1.318l-.07-.431c-.367-2.259-.823-5.071.323-7.492a5.847,5.847,0,0,1,2.382-2.717A4.326,4.326,0,0,1,18.622.768,1.591,1.591,0,0,1,20.034,0a2.38,2.38,0,0,1,1.694,1.243.837.837,0,0,1,.105.5,5.57,5.57,0,0,0,.128,2.128c2.356.44,3.466,1,6.012,7.5.395,1.006,1.976,2.135,3.759,2.684a5.2,5.2,0,0,0,4.313-.222c3.375-2.309,8.465-.457,9.982.374.537.288,1.281.688,1.151,1.439-.126.723-.83.828-1.577.94a12.028,12.028,0,0,0-1.456.285,50.652,50.652,0,0,0-5.032,1.994c-.948.411-1.767.765-2.27.952a6.9,6.9,0,0,1-.963.268,10.058,10.058,0,0,1,4.252,2.661,5.443,5.443,0,0,1,1.359,4.153,3.427,3.427,0,0,1-1.316,2.274,1.174,1.174,0,0,1-.689.24m-17.6-15.028h0a.834.834,0,0,1,.824.72c1.044,7.519,7.07,9.092,12.827,9.639,2.7.263,3.688,1.564,4.134,2.476a2.045,2.045,0,0,0,.167-.565,3.967,3.967,0,0,0-1.031-2.89c-.876-1.139-3.032-1.949-5.118-2.733-.615-.231-1.221-.459-1.8-.7a.829.829,0,0,1-.367-.154,6.561,6.561,0,0,1-3.285-2.375.834.834,0,1,1,1.458-.81,5.572,5.572,0,0,0,2.6,1.7,11.859,11.859,0,0,0,3.953-.445c.465-.173,1.265-.52,2.192-.921A51.219,51.219,0,0,1,43.7,15.271c.132-.036.261-.069.389-.1-1.953-.727-5.108-1.319-7.1.046a6.734,6.734,0,0,1-5.745.439c-2.336-.719-4.229-2.159-4.822-3.669-2.363-6.034-3.056-6.16-4.907-6.5l-.169-.031a.835.835,0,0,1-.391-.186c-.879-.749-.871-2.52-.807-3.391a1.375,1.375,0,0,0-.154-.163l-.015.02c-.419.581-.078,2.029.152,2.64A.835.835,0,0,1,19.492,5.5c-.029.007-1.151.277-2.042,2.129-.922,1.947-.529,4.369-.182,6.505l.07.436a3.2,3.2,0,0,1-.689,2.663c-1.036,1.213-3.123,1.823-6.12,1.811-.665,0-1.3-.023-1.909-.044-3.075-.109-4.931-.176-6.545,2.532a3.311,3.311,0,0,0-.293.6c1.115-.888,3.362-2.545,7.649-.985,4.714,1.71,8.969.562,10.679-.625.838-.582.869-1.513.851-3.108a14.6,14.6,0,0,1,.1-2.3.835.835,0,0,1,.826-.714" transform="translate(343.513 9374.996)" fill="#a8805c"/>
    </g>
    <g id="box" transform="translate(0 284)">
      <g id="mud" transform="translate(412.574 9344.843)">
        <path id="Tracé_1277" data-name="Tracé 1277" d="M-4791.346,12234.365h4.891l3.953-6.487,7-3.681h6.219l5.409,3.681,1.513-4.9,4.167-4.872,5.852-3.252,6.033-1.456h5.938l4.688,2.266,6.147,3.74,2.648,4.8,2.156,3.681h6.148l5.246,1.354,3.462-5.035,5.927-2.055,7.834.833,4.405,2.565,2.489,3.691,2.013,4.321v5.011h13.478v9.09h-124.537v-13.289Z" transform="translate(4809.426 -12183.843)" fill="#fff"/>
        <path id="Tracé_1220" data-name="Tracé 1220" d="M830.194,330.046h-6.282a1.517,1.517,0,0,1-1.5-1.729,14.636,14.636,0,0,0,.118-2.54,13.784,13.784,0,0,0-.383-2.41,12.622,12.622,0,0,0-.823-2.318,12.4,12.4,0,0,0-1.248-2.109,13.07,13.07,0,0,0-1.644-1.861,12.589,12.589,0,0,0-2-1.5,12.745,12.745,0,0,0-2.346-1.11,12.92,12.92,0,0,0-2.51-.645,13.077,13.077,0,0,0-2.514-.113,11.087,11.087,0,0,0-2.409.371,11.886,11.886,0,0,0-2.339.823,13.277,13.277,0,0,0-2.112,1.255,11.533,11.533,0,0,0-1.821,1.626,11.683,11.683,0,0,0-1.549,2.018,1.519,1.519,0,1,1-2.6-1.573,14.58,14.58,0,0,1,1.913-2.5,14.405,14.405,0,0,1,2.265-2.022A16.3,16.3,0,0,1,803,312.156a14.764,14.764,0,0,1,2.89-1.024,13.928,13.928,0,0,1,3.018-.464,16.37,16.37,0,0,1,3.091.14,16.017,16.017,0,0,1,3.112.8,15.724,15.724,0,0,1,2.886,1.365,15.488,15.488,0,0,1,2.49,1.871,16.224,16.224,0,0,1,2.034,2.3,15.554,15.554,0,0,1,1.557,2.632,15.285,15.285,0,0,1,1.016,2.868,16.84,16.84,0,0,1,.469,2.981q.028.721,0,1.39h4.631a1.52,1.52,0,1,1,0,3.04" transform="translate(-701.656 -273.826)" fill="#a8805c"/>
        <path id="Tracé_1221" data-name="Tracé 1221" d="M412.431,256.977a1.519,1.519,0,0,1-1.456-1.087,19.077,19.077,0,0,0-1.391-3.459,20.683,20.683,0,0,0-2.02-3.139,20.041,20.041,0,0,0-2.557-2.656,17.14,17.14,0,0,0-3.038-2.134,18.578,18.578,0,0,0-3.48-1.55,19.031,19.031,0,0,0-3.819-.843,20.947,20.947,0,0,0-3.922-.059,19.5,19.5,0,0,0-3.7.7,17.707,17.707,0,0,0-3.483,1.385,16.984,16.984,0,0,0-3.089,1.995,19.54,19.54,0,0,0-4.845,5.637,18.3,18.3,0,0,0-1.1,2.262,1.52,1.52,0,0,1-2.817-1.143,22.513,22.513,0,0,1,6.855-9.127,19.99,19.99,0,0,1,3.591-2.321,20.709,20.709,0,0,1,4.037-1.607,22.322,22.322,0,0,1,4.283-.808,24.2,24.2,0,0,1,4.522.066,22.213,22.213,0,0,1,4.434.976,21.647,21.647,0,0,1,4,1.781,20.054,20.054,0,0,1,3.55,2.492,23.331,23.331,0,0,1,2.963,3.081,23.662,23.662,0,0,1,2.324,3.611,21.969,21.969,0,0,1,1.609,4,1.52,1.52,0,0,1-1.022,1.891,1.54,1.54,0,0,1-.435.062" transform="translate(-327.557 -210.622)" fill="#a8805c"/>
        <path id="Tracé_1222" data-name="Tracé 1222" d="M567.672,372.781h-8.465a1.52,1.52,0,1,1,0-3.041h7.3a15.559,15.559,0,0,1,25.566-6.618h5.719a1.52,1.52,0,0,1,0,3.041h-6.348a1.519,1.519,0,0,1-1.093-.465,12.516,12.516,0,0,0-21.2,5.9,1.521,1.521,0,0,1-1.483,1.184" transform="translate(-491.583 -316.315)" fill="#a8805c"/>
        <path id="Tracé_1223" data-name="Tracé 1223" d="M148.007,339.936H143.2a1.52,1.52,0,0,1,0-3.04h3.737a16.15,16.15,0,0,1,27.052-4.793h3.432a1.52,1.52,0,0,1,0,3.041h-4.133a1.521,1.521,0,0,1-1.181-.563,13.107,13.107,0,0,0-22.649,4.294,1.523,1.523,0,0,1-1.45,1.06" transform="translate(-124.887 -287.994)" fill="#a8805c"/>
        <path id="Tracé_1224" data-name="Tracé 1224" d="M606.112,362.207H604.48a1.52,1.52,0,1,1,0-3.041h1.632a1.52,1.52,0,0,1,0,3.041" transform="translate(-531.49 -316.595)" fill="#a8805c"/>
        <path id="Tracé_1225" data-name="Tracé 1225" d="M534.878,329.745h-1.991a1.52,1.52,0,0,1,0-3.04h1.991a1.52,1.52,0,1,1,0,3.04" transform="translate(-468.385 -287.98)" fill="#a8805c"/>
        <path id="Tracé_1226" data-name="Tracé 1226" d="M274.276,423.895h-1.79a1.52,1.52,0,0,1,0-3.04h1.79a1.52,1.52,0,0,1,0,3.04" transform="translate(-238.849 -370.972)" fill="#a8805c"/>
        <path id="Tracé_1227" data-name="Tracé 1227" d="M753.5,442.735h-1.6a1.52,1.52,0,1,1,0-3.041h1.6a1.52,1.52,0,0,1,0,3.041" transform="translate(-661.43 -387.577)" fill="#a8805c"/>
        <path id="Tracé_1228" data-name="Tracé 1228" d="M356.243,457.352h-2.271a1.52,1.52,0,0,1,0-3.04h2.271a1.52,1.52,0,0,1,0,3.04" transform="translate(-310.676 -400.463)" fill="#a8805c"/>
        <path id="Tracé_1229" data-name="Tracé 1229" d="M534.878,405.135h-1.991a1.52,1.52,0,0,1,0-3.04h1.991a1.52,1.52,0,1,1,0,3.04" transform="translate(-468.385 -354.435)" fill="#a8805c"/>
        <path id="Tracé_1230" data-name="Tracé 1230" d="M941.4,407.773h-1.533a1.52,1.52,0,0,1,0-3.04H941.4a1.52,1.52,0,0,1,0,3.04" transform="translate(-827.127 -356.76)" fill="#a8805c"/>
        <path id="Tracé_1231" data-name="Tracé 1231" d="M895.536,468.827h-1.781a1.52,1.52,0,0,1,0-3.04h1.781a1.52,1.52,0,1,1,0,3.04" transform="translate(-786.479 -410.577)" fill="#a8805c"/>
      </g>
      <path id="Tracé_1276" data-name="Tracé 1276" d="M-4808.222,12226.164h9.129l.851,21.7h124.431v-22.4l10.017.705v102.262h-10.017v-8.77h-124.431v8.77h-9.979Z" transform="translate(5222 -2839)" fill="#fff"/>
      <path id="Tracé_1207" data-name="Tracé 1207" d="M10.928,448.483H1.52A1.52,1.52,0,0,1,0,446.964V344.318A1.52,1.52,0,0,1,1.52,342.8h9.408a1.52,1.52,0,0,1,1.52,1.519V446.964a1.52,1.52,0,0,1-1.52,1.519M3.04,445.442H9.408v-99.6H3.04Z" transform="translate(412.574 9042.676)" fill="#a8805c"/>
      <path id="Tracé_1208" data-name="Tracé 1208" d="M1144.8,448.483h-9.415a1.52,1.52,0,0,1-1.522-1.519V344.318a1.52,1.52,0,0,1,1.522-1.519h9.415a1.519,1.519,0,0,1,1.519,1.519V446.964a1.52,1.52,0,0,1-1.519,1.519m-7.9-3.041h6.376v-99.6H1136.9Z" transform="translate(-586.888 9042.676)" fill="#a8805c"/>
      <path id="Tracé_1209" data-name="Tracé 1209" d="M41.178,659.08a1.518,1.518,0,0,1-1.52-1.519v-.253a1.52,1.52,0,0,1,3.04,0v.253a1.519,1.519,0,0,1-1.52,1.519" transform="translate(377.617 8766.785)" fill="#a8805c"/>
      <path id="Tracé_1210" data-name="Tracé 1210" d="M41.178,1006.184a1.519,1.519,0,0,1-1.52-1.519v-.257a1.52,1.52,0,1,1,3.04,0v.257a1.52,1.52,0,0,1-1.52,1.519" transform="translate(377.617 8460.828)" fill="#a8805c"/>
      <path id="Tracé_1211" data-name="Tracé 1211" d="M1175.1,659.08a1.519,1.519,0,0,1-1.52-1.519v-.253a1.52,1.52,0,0,1,3.041,0v.253a1.519,1.519,0,0,1-1.521,1.519" transform="translate(-621.905 8766.785)" fill="#a8805c"/>
      <path id="Tracé_1212" data-name="Tracé 1212" d="M1175.1,1006.184a1.52,1.52,0,0,1-1.52-1.519v-.257a1.52,1.52,0,1,1,3.041,0v.257a1.52,1.52,0,0,1-1.521,1.519" transform="translate(-621.905 8460.828)" fill="#a8805c"/>
      <path id="Tracé_1213" data-name="Tracé 1213" d="M205.885,792.108H80.895a1.52,1.52,0,0,1,0-3.04h124.99a1.52,1.52,0,0,1,0,3.04" transform="translate(342.607 8649.303)" fill="#a8805c"/>
      <path id="Tracé_1214" data-name="Tracé 1214" d="M205.885,527.676H80.895a1.52,1.52,0,0,1,0-3.041h124.99a1.52,1.52,0,0,1,0,3.041" transform="translate(342.607 8882.393)" fill="#a8805c"/>
      <path id="Tracé_1215" data-name="Tracé 1215" d="M205.885,1139.336H80.895a1.52,1.52,0,0,1,0-3.041h124.99a1.52,1.52,0,0,1,0,3.041" transform="translate(342.607 8343.232)" fill="#a8805c"/>
      <path id="Tracé_1216" data-name="Tracé 1216" d="M205.885,874.754H80.895a1.52,1.52,0,0,1,0-3.04h124.99a1.52,1.52,0,0,1,0,3.04" transform="translate(342.607 8576.453)" fill="#a8805c"/>
      <path id="Tracé_1217" data-name="Tracé 1217" d="M891.95,880.248a1.521,1.521,0,0,1-1.52-1.521v-5.1a1.521,1.521,0,0,1,3.041,0v5.1a1.523,1.523,0,0,1-1.521,1.521" transform="translate(-372.313 8576.063)" fill="#a8805c"/>
      <path id="Tracé_1218" data-name="Tracé 1218" d="M414.772,741.061a1.51,1.51,0,0,1-1.52-1.509v-6.863a1.52,1.52,0,1,1,3.041,0v6.863a1.513,1.513,0,0,1-1.521,1.509" transform="translate(48.305 8700.34)" fill="#a8805c"/>
      <path id="Tracé_1219" data-name="Tracé 1219" d="M891.95,971.4a1.519,1.519,0,0,1-1.52-1.519v-.859a1.52,1.52,0,1,1,3.041,0v.859a1.521,1.521,0,0,1-1.521,1.519" transform="translate(-372.313 8492.015)" fill="#a8805c"/>
    </g>
    <rect id="square" width="215" height="215" transform="translate(379 9579)" fill="none"/>
  </g>
</svg>
