<svg xmlns="http://www.w3.org/2000/svg" width="215" height="215" viewBox="0 0 215 215">
  <g id="compost2" transform="translate(-701 -9579)">
    <g id="stick" transform="translate(861.271 9592.393) rotate(16)" fill="#fff" stroke="#a8805c" stroke-width="2">
      <rect width="7" height="121" rx="3.5" stroke="none"/>
      <rect x="1" y="1" width="5" height="119" rx="2.5" fill="none"/>
    </g>
    <g id="box" transform="translate(323 284)">
      <g id="mud" transform="translate(412.574 9344.843)">
        <path id="Tracé_1277" data-name="Tracé 1277" d="M-4791.346,12234.365h4.891l3.953-6.487,7-3.681h6.219l5.409,3.681,1.513-4.9,4.167-4.872,5.852-3.252,6.033-1.456h5.938l4.688,2.266,6.147,3.74,2.648,4.8,2.156,3.681h6.148l5.246,1.354,3.462-5.035,5.927-2.055,7.834.833,4.405,2.565,2.489,3.691,2.013,4.321v5.011h13.478v9.09h-124.537v-13.289Z" transform="translate(4809.426 -12183.843)" fill="#fff"/>
        <path id="Tracé_1220" data-name="Tracé 1220" d="M830.194,330.046h-6.282a1.517,1.517,0,0,1-1.5-1.729,14.636,14.636,0,0,0,.118-2.54,13.784,13.784,0,0,0-.383-2.41,12.622,12.622,0,0,0-.823-2.318,12.4,12.4,0,0,0-1.248-2.109,13.07,13.07,0,0,0-1.644-1.861,12.589,12.589,0,0,0-2-1.5,12.745,12.745,0,0,0-2.346-1.11,12.92,12.92,0,0,0-2.51-.645,13.077,13.077,0,0,0-2.514-.113,11.087,11.087,0,0,0-2.409.371,11.886,11.886,0,0,0-2.339.823,13.277,13.277,0,0,0-2.112,1.255,11.533,11.533,0,0,0-1.821,1.626,11.683,11.683,0,0,0-1.549,2.018,1.519,1.519,0,1,1-2.6-1.573,14.58,14.58,0,0,1,1.913-2.5,14.405,14.405,0,0,1,2.265-2.022A16.3,16.3,0,0,1,803,312.156a14.764,14.764,0,0,1,2.89-1.024,13.928,13.928,0,0,1,3.018-.464,16.37,16.37,0,0,1,3.091.14,16.017,16.017,0,0,1,3.112.8,15.724,15.724,0,0,1,2.886,1.365,15.488,15.488,0,0,1,2.49,1.871,16.224,16.224,0,0,1,2.034,2.3,15.554,15.554,0,0,1,1.557,2.632,15.285,15.285,0,0,1,1.016,2.868,16.84,16.84,0,0,1,.469,2.981q.028.721,0,1.39h4.631a1.52,1.52,0,1,1,0,3.04" transform="translate(-701.656 -273.826)" fill="#a8805c"/>
        <path id="Tracé_1221" data-name="Tracé 1221" d="M412.431,256.977a1.519,1.519,0,0,1-1.456-1.087,19.077,19.077,0,0,0-1.391-3.459,20.683,20.683,0,0,0-2.02-3.139,20.041,20.041,0,0,0-2.557-2.656,17.14,17.14,0,0,0-3.038-2.134,18.578,18.578,0,0,0-3.48-1.55,19.031,19.031,0,0,0-3.819-.843,20.947,20.947,0,0,0-3.922-.059,19.5,19.5,0,0,0-3.7.7,17.707,17.707,0,0,0-3.483,1.385,16.984,16.984,0,0,0-3.089,1.995,19.54,19.54,0,0,0-4.845,5.637,18.3,18.3,0,0,0-1.1,2.262,1.52,1.52,0,0,1-2.817-1.143,22.513,22.513,0,0,1,6.855-9.127,19.99,19.99,0,0,1,3.591-2.321,20.709,20.709,0,0,1,4.037-1.607,22.322,22.322,0,0,1,4.283-.808,24.2,24.2,0,0,1,4.522.066,22.213,22.213,0,0,1,4.434.976,21.647,21.647,0,0,1,4,1.781,20.054,20.054,0,0,1,3.55,2.492,23.331,23.331,0,0,1,2.963,3.081,23.662,23.662,0,0,1,2.324,3.611,21.969,21.969,0,0,1,1.609,4,1.52,1.52,0,0,1-1.022,1.891,1.54,1.54,0,0,1-.435.062" transform="translate(-327.557 -210.622)" fill="#a8805c"/>
        <path id="Tracé_1222" data-name="Tracé 1222" d="M567.672,372.781h-8.465a1.52,1.52,0,1,1,0-3.041h7.3a15.559,15.559,0,0,1,25.566-6.618h5.719a1.52,1.52,0,0,1,0,3.041h-6.348a1.519,1.519,0,0,1-1.093-.465,12.516,12.516,0,0,0-21.2,5.9,1.521,1.521,0,0,1-1.483,1.184" transform="translate(-491.583 -316.315)" fill="#a8805c"/>
        <path id="Tracé_1223" data-name="Tracé 1223" d="M148.007,339.936H143.2a1.52,1.52,0,0,1,0-3.04h3.737a16.15,16.15,0,0,1,27.052-4.793h3.432a1.52,1.52,0,0,1,0,3.041h-4.133a1.521,1.521,0,0,1-1.181-.563,13.107,13.107,0,0,0-22.649,4.294,1.523,1.523,0,0,1-1.45,1.06" transform="translate(-124.887 -287.994)" fill="#a8805c"/>
        <path id="Tracé_1224" data-name="Tracé 1224" d="M606.112,362.207H604.48a1.52,1.52,0,1,1,0-3.041h1.632a1.52,1.52,0,0,1,0,3.041" transform="translate(-531.49 -316.595)" fill="#a8805c"/>
        <path id="Tracé_1225" data-name="Tracé 1225" d="M534.878,329.745h-1.991a1.52,1.52,0,0,1,0-3.04h1.991a1.52,1.52,0,1,1,0,3.04" transform="translate(-468.385 -287.98)" fill="#a8805c"/>
        <path id="Tracé_1226" data-name="Tracé 1226" d="M274.276,423.895h-1.79a1.52,1.52,0,0,1,0-3.04h1.79a1.52,1.52,0,0,1,0,3.04" transform="translate(-238.849 -370.972)" fill="#a8805c"/>
        <path id="Tracé_1227" data-name="Tracé 1227" d="M753.5,442.735h-1.6a1.52,1.52,0,1,1,0-3.041h1.6a1.52,1.52,0,0,1,0,3.041" transform="translate(-661.43 -387.577)" fill="#a8805c"/>
        <path id="Tracé_1228" data-name="Tracé 1228" d="M356.243,457.352h-2.271a1.52,1.52,0,0,1,0-3.04h2.271a1.52,1.52,0,0,1,0,3.04" transform="translate(-310.676 -400.463)" fill="#a8805c"/>
        <path id="Tracé_1229" data-name="Tracé 1229" d="M534.878,405.135h-1.991a1.52,1.52,0,0,1,0-3.04h1.991a1.52,1.52,0,1,1,0,3.04" transform="translate(-468.385 -354.435)" fill="#a8805c"/>
        <path id="Tracé_1230" data-name="Tracé 1230" d="M941.4,407.773h-1.533a1.52,1.52,0,0,1,0-3.04H941.4a1.52,1.52,0,0,1,0,3.04" transform="translate(-827.127 -356.76)" fill="#a8805c"/>
        <path id="Tracé_1231" data-name="Tracé 1231" d="M895.536,468.827h-1.781a1.52,1.52,0,0,1,0-3.04h1.781a1.52,1.52,0,1,1,0,3.04" transform="translate(-786.479 -410.577)" fill="#a8805c"/>
      </g>
      <path id="Tracé_1276" data-name="Tracé 1276" d="M-4808.222,12226.164h9.129l.851,21.7h124.431v-22.4l10.017.705v102.262h-10.017v-8.77h-124.431v8.77h-9.979Z" transform="translate(5222 -2839)" fill="#fff"/>
      <path id="Tracé_1207" data-name="Tracé 1207" d="M10.928,448.483H1.52A1.52,1.52,0,0,1,0,446.964V344.318A1.52,1.52,0,0,1,1.52,342.8h9.408a1.52,1.52,0,0,1,1.52,1.519V446.964a1.52,1.52,0,0,1-1.52,1.519M3.04,445.442H9.408v-99.6H3.04Z" transform="translate(412.574 9042.676)" fill="#a8805c"/>
      <path id="Tracé_1208" data-name="Tracé 1208" d="M1144.8,448.483h-9.415a1.52,1.52,0,0,1-1.522-1.519V344.318a1.52,1.52,0,0,1,1.522-1.519h9.415a1.519,1.519,0,0,1,1.519,1.519V446.964a1.52,1.52,0,0,1-1.519,1.519m-7.9-3.041h6.376v-99.6H1136.9Z" transform="translate(-586.888 9042.676)" fill="#a8805c"/>
      <path id="Tracé_1209" data-name="Tracé 1209" d="M41.178,659.08a1.518,1.518,0,0,1-1.52-1.519v-.253a1.52,1.52,0,0,1,3.04,0v.253a1.519,1.519,0,0,1-1.52,1.519" transform="translate(377.617 8766.785)" fill="#a8805c"/>
      <path id="Tracé_1210" data-name="Tracé 1210" d="M41.178,1006.184a1.519,1.519,0,0,1-1.52-1.519v-.257a1.52,1.52,0,1,1,3.04,0v.257a1.52,1.52,0,0,1-1.52,1.519" transform="translate(377.617 8460.828)" fill="#a8805c"/>
      <path id="Tracé_1211" data-name="Tracé 1211" d="M1175.1,659.08a1.519,1.519,0,0,1-1.52-1.519v-.253a1.52,1.52,0,0,1,3.041,0v.253a1.519,1.519,0,0,1-1.521,1.519" transform="translate(-621.905 8766.785)" fill="#a8805c"/>
      <path id="Tracé_1212" data-name="Tracé 1212" d="M1175.1,1006.184a1.52,1.52,0,0,1-1.52-1.519v-.257a1.52,1.52,0,1,1,3.041,0v.257a1.52,1.52,0,0,1-1.521,1.519" transform="translate(-621.905 8460.828)" fill="#a8805c"/>
      <path id="Tracé_1213" data-name="Tracé 1213" d="M205.885,792.108H80.895a1.52,1.52,0,0,1,0-3.04h124.99a1.52,1.52,0,0,1,0,3.04" transform="translate(342.607 8649.303)" fill="#a8805c"/>
      <path id="Tracé_1214" data-name="Tracé 1214" d="M205.885,527.676H80.895a1.52,1.52,0,0,1,0-3.041h124.99a1.52,1.52,0,0,1,0,3.041" transform="translate(342.607 8882.393)" fill="#a8805c"/>
      <path id="Tracé_1215" data-name="Tracé 1215" d="M205.885,1139.336H80.895a1.52,1.52,0,0,1,0-3.041h124.99a1.52,1.52,0,0,1,0,3.041" transform="translate(342.607 8343.232)" fill="#a8805c"/>
      <path id="Tracé_1216" data-name="Tracé 1216" d="M205.885,874.754H80.895a1.52,1.52,0,0,1,0-3.04h124.99a1.52,1.52,0,0,1,0,3.04" transform="translate(342.607 8576.453)" fill="#a8805c"/>
      <path id="Tracé_1217" data-name="Tracé 1217" d="M891.95,880.248a1.521,1.521,0,0,1-1.52-1.521v-5.1a1.521,1.521,0,0,1,3.041,0v5.1a1.523,1.523,0,0,1-1.521,1.521" transform="translate(-372.313 8576.063)" fill="#a8805c"/>
      <path id="Tracé_1218" data-name="Tracé 1218" d="M414.772,741.061a1.51,1.51,0,0,1-1.52-1.509v-6.863a1.52,1.52,0,1,1,3.041,0v6.863a1.513,1.513,0,0,1-1.521,1.509" transform="translate(48.305 8700.34)" fill="#a8805c"/>
      <path id="Tracé_1219" data-name="Tracé 1219" d="M891.95,971.4a1.519,1.519,0,0,1-1.52-1.519v-.859a1.52,1.52,0,1,1,3.041,0v.859a1.521,1.521,0,0,1-1.521,1.519" transform="translate(-372.313 8492.015)" fill="#a8805c"/>
    </g>
    <g id="water" transform="translate(785.454 9591)">
      <path id="Tracé_1254" data-name="Tracé 1254" d="M-4861.148,12055.259l3.759,4.979,1.669,2.212.637,5.973-3.1,2.816-5.015.835-3.405-2.229-1.6-3.5,1.034-3.9,3.128-4.956Z" transform="translate(4868.759 -12053.732)" fill="#fff"/>
      <path id="Tracé_1255" data-name="Tracé 1255" d="M-4861.148,12055.259l3.759,4.979,1.669,2.212.637,5.973-3.1,2.816-5.015.835-3.405-2.229-1.6-3.5,1.034-3.9,3.128-4.956Z" transform="translate(4884.759 -12042.732)" fill="#fff"/>
      <path id="Tracé_1256" data-name="Tracé 1256" d="M-4861.148,12055.259l3.759,4.979,1.669,2.212.637,5.973-3.1,2.816-5.015.835-3.405-2.229-1.6-3.5,1.034-3.9,3.128-4.956Z" transform="translate(4900.759 -12053.732)" fill="#fff"/>
      <path id="Tracé_1257" data-name="Tracé 1257" d="M-4861.148,12055.259l3.759,4.979,1.669,2.212.637,5.973-3.1,2.816-5.015.835-3.405-2.229-1.6-3.5,1.034-3.9,3.128-4.956Z" transform="translate(4900.759 -12027.732)" fill="#fff"/>
      <path id="Tracé_1258" data-name="Tracé 1258" d="M-4861.148,12055.259l3.759,4.979,1.669,2.212.637,5.973-3.1,2.816-5.015.835-3.405-2.229-1.6-3.5,1.034-3.9,3.128-4.956Z" transform="translate(4868.759 -12027.732)" fill="#fff"/>
      <path id="Tracé_1259" data-name="Tracé 1259" d="M-4861.148,12055.259l3.759,4.979,1.669,2.212.637,5.973-3.1,2.816-5.015.835-3.405-2.229-1.6-3.5,1.034-3.9,3.128-4.956Z" transform="translate(4884.759 -12016.732)" fill="#fff"/>
      <path id="Tracé_1248" data-name="Tracé 1248" d="M7.4,19.517a7.514,7.514,0,0,1-5.225-2.012A7.167,7.167,0,0,1,0,12.239C0,8.547,3.349,4.409,5.792,1.388c.28-.346.549-.679.8-1a1.036,1.036,0,0,1,1.621,0c.252.317.521.65.8,1,2.443,3.021,5.79,7.158,5.792,10.851a7.168,7.168,0,0,1-2.179,5.266A7.514,7.514,0,0,1,7.4,19.517m0-16.829,0,0C5.153,5.472,2.073,9.28,2.071,12.24a5.05,5.05,0,0,0,1.536,3.765,5.454,5.454,0,0,0,3.8,1.441,5.454,5.454,0,0,0,3.8-1.441,5.051,5.051,0,0,0,1.536-3.765c0-2.96-3.082-6.769-5.331-9.55l0,0" transform="translate(0 -0.001)" fill="#a8805c"/>
      <path id="Tracé_1249" data-name="Tracé 1249" d="M141.509,109.006a7.514,7.514,0,0,1-5.225-2.012,7.167,7.167,0,0,1-2.179-5.266c0-3.692,3.349-7.83,5.792-10.851.28-.346.549-.679.8-1a1.036,1.036,0,0,1,1.621,0c.252.317.521.65.8,1,2.443,3.021,5.79,7.158,5.792,10.851a7.168,7.168,0,0,1-2.179,5.266,7.513,7.513,0,0,1-5.225,2.012m0-16.829,0,0c-2.249,2.781-5.329,6.589-5.331,9.55a5.05,5.05,0,0,0,1.536,3.765,5.725,5.725,0,0,0,7.595,0,5.051,5.051,0,0,0,1.536-3.765c0-2.96-3.082-6.769-5.331-9.55l0,0" transform="translate(-118.023 -78.16)" fill="#a8805c"/>
      <path id="Tracé_1250" data-name="Tracé 1250" d="M276.741,19.517a7.514,7.514,0,0,1-5.225-2.012,7.168,7.168,0,0,1-2.179-5.266c0-3.692,3.349-7.83,5.792-10.851.28-.346.549-.679.8-1a1.036,1.036,0,0,1,1.621,0c.252.317.521.65.8,1,2.443,3.021,5.79,7.158,5.792,10.851a7.168,7.168,0,0,1-2.179,5.266,7.513,7.513,0,0,1-5.225,2.012m0-16.829,0,0c-2.249,2.781-5.33,6.589-5.332,9.55a5.051,5.051,0,0,0,1.536,3.765,5.725,5.725,0,0,0,7.595,0,5.051,5.051,0,0,0,1.536-3.765c0-2.96-3.082-6.769-5.331-9.55l0,0" transform="translate(-237.053 -0.001)" fill="#a8805c"/>
      <path id="Tracé_1251" data-name="Tracé 1251" d="M7.4,224.43a7.514,7.514,0,0,1-5.225-2.012A7.167,7.167,0,0,1,0,217.152c0-3.692,3.349-7.83,5.792-10.851.28-.346.549-.679.8-1a1.035,1.035,0,0,1,1.621,0c.252.317.521.65.8,1,2.443,3.021,5.79,7.158,5.792,10.851a7.168,7.168,0,0,1-2.179,5.266A7.514,7.514,0,0,1,7.4,224.43m0-16.829,0,0c-2.249,2.781-5.329,6.589-5.331,9.55a5.05,5.05,0,0,0,1.536,3.765,5.454,5.454,0,0,0,3.8,1.441,5.454,5.454,0,0,0,3.8-1.441,5.051,5.051,0,0,0,1.536-3.765c0-2.96-3.082-6.769-5.331-9.55l0,0" transform="translate(0 -179.493)" fill="#a8805c"/>
      <path id="Tracé_1252" data-name="Tracé 1252" d="M141.509,313.92a7.514,7.514,0,0,1-5.225-2.012,7.167,7.167,0,0,1-2.179-5.266c0-3.692,3.349-7.83,5.792-10.851.28-.346.55-.679.8-1a1.036,1.036,0,0,1,1.621,0c.252.317.521.65.8,1,2.443,3.021,5.79,7.158,5.792,10.851a7.168,7.168,0,0,1-2.179,5.266,7.513,7.513,0,0,1-5.225,2.012m0-16.829,0,0c-2.249,2.781-5.329,6.589-5.331,9.55a5.05,5.05,0,0,0,1.536,3.765,5.725,5.725,0,0,0,7.595,0,5.051,5.051,0,0,0,1.536-3.765c0-2.96-3.082-6.769-5.331-9.55l0,0" transform="translate(-118.023 -257.653)" fill="#a8805c"/>
      <path id="Tracé_1253" data-name="Tracé 1253" d="M276.741,224.43a7.514,7.514,0,0,1-5.225-2.012,7.167,7.167,0,0,1-2.179-5.266c0-3.692,3.349-7.83,5.792-10.851.28-.346.549-.679.8-1a1.035,1.035,0,0,1,1.621,0c.252.317.521.65.8,1,2.443,3.021,5.79,7.159,5.792,10.851a7.168,7.168,0,0,1-2.179,5.266,7.513,7.513,0,0,1-5.225,2.012m0-16.829,0,0c-2.249,2.781-5.33,6.59-5.332,9.55a5.051,5.051,0,0,0,1.536,3.765,5.725,5.725,0,0,0,7.595,0,5.051,5.051,0,0,0,1.536-3.765c0-2.96-3.082-6.769-5.331-9.55l0,0" transform="translate(-237.053 -179.493)" fill="#a8805c"/>
    </g>
    <rect id="square" width="215" height="215" transform="translate(701 9579)" fill="none"/>
  </g>
</svg>
