<svg xmlns="http://www.w3.org/2000/svg" width="60" height="60" viewBox="0 0 60 60">
  <g id="dot-4" transform="translate(-1358 -9417)">
    <circle id="Ellipse_55" data-name="Ellipse 55" cx="30" cy="30" r="30" transform="translate(1358 9417)" fill="#f7dfbc"/>
    <path id="Tracé_1310" data-name="Tracé 1310" d="M7.392-29.848l.224,1.456L-10.976-5.88l1.288-2.576H8.624a5.3,5.3,0,0,0,2.912-.5,2.883,2.883,0,0,0,.84-1.792h1.288q0,3.808.056,5.936t.168,3.752a7.8,7.8,0,0,0-1.6-.14q-1.2-.028-2.828-.084T6.216-1.344h-21.5V-2.52Zm.9,0V7.9H.448v-28.5l6.944-9.24Z" transform="translate(1386 9459)"/>
  </g>
</svg>
