<svg xmlns="http://www.w3.org/2000/svg" width="60" height="60" viewBox="0 0 60 60">
  <g id="dot-5" transform="translate(-1358 -9515)">
    <circle id="Ellipse_56" data-name="Ellipse 56" cx="30" cy="30" r="30" transform="translate(1358 9515)" fill="#f7dfbc"/>
    <path id="Tracé_1311" data-name="Tracé 1311" d="M9.772-30.744q0,4.032.056,6.272T10-20.5a10.315,10.315,0,0,0-1.708-.168q-1.26-.056-2.884-.084t-3.192-.028H-8.2L-9.268-12.04a11.983,11.983,0,0,1,3.92-1.848,20.674,20.674,0,0,1,5.824-.728,15.5,15.5,0,0,1,6.552,1.2,8.459,8.459,0,0,1,3.808,3.248,8.567,8.567,0,0,1,1.232,4.508A8.832,8.832,0,0,1,9.912.168a17.944,17.944,0,0,1-5.74,4.4A33.014,33.014,0,0,1-3.78,7.336a41.172,41.172,0,0,1-8.792.952V7.28a16.129,16.129,0,0,0,5.236-.868A15.2,15.2,0,0,0-2.744,3.92,12,12,0,0,0,.5-.056a11.632,11.632,0,0,0,1.2-5.376A8.212,8.212,0,0,0,.2-10.752,5.45,5.45,0,0,0-4.284-12.6a7.335,7.335,0,0,0-3,.56,9.841,9.841,0,0,0-2.38,1.512l-.9-.616,2.24-18.088a13.119,13.119,0,0,0,1.428.168q.812.056,1.6.056H5.852A3.648,3.648,0,0,0,7.728-29.4a1.7,1.7,0,0,0,.756-1.344Z" transform="translate(1388 9557)"/>
  </g>
</svg>
