<svg xmlns="http://www.w3.org/2000/svg" width="60" height="60" viewBox="0 0 60 60">
  <g id="dot-3" transform="translate(-1102 -9247)">
    <circle id="Ellipse_53" data-name="Ellipse 53" cx="30" cy="30" r="30" transform="translate(1102 9247)" fill="#f7dfbc"/>
    <path id="Tracé_1305" data-name="Tracé 1305" d="M.168-29.848a17.5,17.5,0,0,1,5.432.784,8.986,8.986,0,0,1,3.78,2.212,4.86,4.86,0,0,1,1.372,3.5A6.2,6.2,0,0,1,9.24-19.4a12.461,12.461,0,0,1-4.48,3.276,25.747,25.747,0,0,1-7.392,2.016,24.858,24.858,0,0,1,8.064.672,11.513,11.513,0,0,1,5.4,2.968,6.855,6.855,0,0,1,1.932,4.928,8.191,8.191,0,0,1-1.512,4.76A14.884,14.884,0,0,1,7.168,3.108,27.653,27.653,0,0,1,1.26,6.02,40.218,40.218,0,0,1-5.712,7.84a43.557,43.557,0,0,1-7.28.616V7.28A20.389,20.389,0,0,0-7.84,6.328,18.61,18.61,0,0,0-2.828,3.892,13.135,13.135,0,0,0,.952-.056,10.107,10.107,0,0,0,2.408-5.488a8.908,8.908,0,0,0-1.54-5.4,5.619,5.619,0,0,0-4.284-2.324q-.84.392-1.568.672a4.176,4.176,0,0,1-1.512.28,1.694,1.694,0,0,1-.812-.168q-.308-.168-.308-.728A1.013,1.013,0,0,1-7-14.168a3.348,3.348,0,0,1,1.4-.28,7.909,7.909,0,0,1,.924.056q.476.056,1.036.112A9.515,9.515,0,0,0-.252-17.724a8.031,8.031,0,0,0,.924-3.668A4.678,4.678,0,0,0-.672-25.06a5.34,5.34,0,0,0-3.7-1.2A8.5,8.5,0,0,0-8.4-25.256a8.642,8.642,0,0,0-3.192,2.968l-1.008-.56a18.22,18.22,0,0,1,2.716-3.444,11.888,11.888,0,0,1,4.032-2.576A16.193,16.193,0,0,1,.168-29.848Z" transform="translate(1132 9291)"/>
  </g>
</svg>
