<svg xmlns="http://www.w3.org/2000/svg" width="60" height="60" viewBox="0 0 60 60">
  <g id="dot-1" transform="translate(-457 -9247)">
    <circle id="Ellipse_51" data-name="Ellipse 51" cx="30" cy="30" r="30" transform="translate(457 9247)" fill="#f7dfbc"/>
    <path id="Tracé_1303" data-name="Tracé 1303" d="M5.936-29.68V-5.208a5.217,5.217,0,0,0,.7,3.192,3.025,3.025,0,0,0,2.436.84V0Q7.952-.056,5.8-.14T1.344-.224q-3.08,0-5.908.084T-8.96,0V-1.176A5.928,5.928,0,0,0-5.4-2.1q1.26-.924,1.26-3.668V-19.544a13.825,13.825,0,0,0-.42-3.976A2.463,2.463,0,0,0-6.048-25.2a8.685,8.685,0,0,0-2.912-.392v-1.232a58.9,58.9,0,0,0,8.792-.728A18.725,18.725,0,0,0,5.936-29.68Z" transform="translate(487 9291)"/>
  </g>
</svg>
