<svg xmlns="http://www.w3.org/2000/svg" width="60" height="60" viewBox="0 0 60 60">
  <g id="dot-2" transform="translate(-779 -9247)">
    <circle id="Ellipse_52" data-name="Ellipse 52" cx="30" cy="30" r="30" transform="translate(779 9247)" fill="#f7dfbc"/>
    <path id="Tracé_1304" data-name="Tracé 1304" d="M1.036-29.848a12.629,12.629,0,0,1,7.336,1.876A6.079,6.079,0,0,1,11.06-22.68a6.591,6.591,0,0,1-1.148,3.808,13.794,13.794,0,0,1-3,3.108A35.948,35.948,0,0,1,2.94-13.1Q.812-11.872-1.176-10.7A22.388,22.388,0,0,0-4.62-8.232H8.036a5.3,5.3,0,0,0,2.912-.5,2.883,2.883,0,0,0,.84-1.792h1.288q0,4.256.056,6.636T13.3.28A12.423,12.423,0,0,0,11.452.112Q10.108.056,8.372.028T4.956,0H-13.468V-1.176q1.512-1.512,3.78-3.472a52,52,0,0,0,4.48-4.4,25.817,25.817,0,0,0,3.724-5.292,12.854,12.854,0,0,0,1.512-6.1A5.959,5.959,0,0,0-1.2-24.612a4.905,4.905,0,0,0-3.752-1.316,8.742,8.742,0,0,0-4.256.98,11,11,0,0,0-3.248,2.772l-.952-.672a18.1,18.1,0,0,1,3.22-3.556,13.872,13.872,0,0,1,4.62-2.52A20.822,20.822,0,0,1,1.036-29.848Z" transform="translate(809 9291)"/>
  </g>
</svg>
