<svg xmlns="http://www.w3.org/2000/svg" width="60" height="60" viewBox="0 0 60 60">
  <g id="dot-6" transform="translate(-1358 -9613)">
    <circle id="Ellipse_57" data-name="Ellipse 57" cx="30" cy="30" r="30" transform="translate(1358 9613)" fill="#f7dfbc"/>
    <path id="Tracé_1312" data-name="Tracé 1312" d="M10.388-40.488l.224,1.12a33.2,33.2,0,0,0-4.2,1.652,16.4,16.4,0,0,0-3.92,2.632A15.312,15.312,0,0,0-.756-30.8,24.04,24.04,0,0,0-2.94-24.22a50.2,50.2,0,0,0-.784,9.6A42.123,42.123,0,0,0-3.052-6.16,11.57,11.57,0,0,0-1.344-1.68,2.781,2.781,0,0,0,.7-.336,2.54,2.54,0,0,0,2.632-1.512a9.485,9.485,0,0,0,1.484-3.78,33.828,33.828,0,0,0,.56-6.86,31.067,31.067,0,0,0-.532-6.44,8.52,8.52,0,0,0-1.4-3.472A2.529,2.529,0,0,0,.756-23.128a3.726,3.726,0,0,0-1.736.56A5.66,5.66,0,0,0-2.828-20.8,8.468,8.468,0,0,0-4.06-17.528l-.5-.56A7.891,7.891,0,0,1-3.08-21.952,6.677,6.677,0,0,1-.2-24.08a10.3,10.3,0,0,1,3.752-.672,11.608,11.608,0,0,1,5.852,1.484A11.186,11.186,0,0,1,13.58-19.1a12.566,12.566,0,0,1,1.568,6.44A12.665,12.665,0,0,1,13.076-5.32,12.951,12.951,0,0,1,7.56-.756,18.1,18.1,0,0,1,.084.784q-6.664,0-10.472-4.172T-14.2-15.176a23.6,23.6,0,0,1,1.6-8.96,22.657,22.657,0,0,1,4.228-6.8,26.4,26.4,0,0,1,5.88-4.844,34.164,34.164,0,0,1,6.608-3.108A36.868,36.868,0,0,1,10.388-40.488Z" transform="translate(1386 9661)"/>
  </g>
</svg>
