<svg xmlns="http://www.w3.org/2000/svg" width="557.698" height="603.444" viewBox="0 0 557.698 603.444">
  <g id="etf" transform="translate(-82 80)">
    <path id="Tracé_1263" data-name="Tracé 1263" d="M259.3,695.092a50.793,50.793,0,0,0,13.59,12.63c1.12.71,2.27,1.38,3.44,2h27.53c-.33-.66-.65-1.33-.96-2a95.354,95.354,0,0,1,19.84-109.34c-16.64,5.14-32.02,15.16-42.08,29.37a64.47,64.47,0,0,0-10.23,23,96.275,96.275,0,0,1,7.67-48.41c-13.51,10.99-24.03,26.04-28.04,42.98S248.961,681.082,259.3,695.092Z" transform="translate(-143.102 -188.278)" fill="#f0f0f0"/>
    <g id="e3" transform="translate(-200.099 -78)">
      <path id="Tracé_1264" data-name="Tracé 1264" d="M1015.546,469.267H828.377a4.358,4.358,0,0,1-4.353-4.353V349.131a4.358,4.358,0,0,1,4.353-4.353h187.169a4.358,4.358,0,0,1,4.353,4.353V464.914a4.358,4.358,0,0,1-4.353,4.353Z" transform="translate(-180.102 -188.278)" fill="#fff"/>
      <path id="Tracé_1265" data-name="Tracé 1265" d="M1015.546,469.267H828.377a4.358,4.358,0,0,1-4.353-4.353V349.131a4.358,4.358,0,0,1,4.353-4.353h187.169a4.358,4.358,0,0,1,4.353,4.353V464.914a4.358,4.358,0,0,1-4.353,4.353ZM828.377,346.519a2.614,2.614,0,0,0-2.612,2.612V464.914a2.614,2.614,0,0,0,2.612,2.612h187.169a2.614,2.614,0,0,0,2.612-2.612V349.131a2.615,2.615,0,0,0-2.612-2.612Z" transform="translate(-180.102 -188.278)" fill="#3f3d56"/>
      <path id="Tracé_1266" data-name="Tracé 1266" d="M978.547,383.446H865.376a3.918,3.918,0,0,1,0-7.835H978.547a3.917,3.917,0,0,1,0,7.835Z" transform="translate(-180.102 -188.278)" fill="#ccc"/>
      <path id="Tracé_1267" data-name="Tracé 1267" d="M978.547,410.433H865.376a3.918,3.918,0,0,1,0-7.835H978.547a3.917,3.917,0,0,1,0,7.835Z" transform="translate(-180.102 -188.278)" fill="#ccc"/>
      <circle id="Ellipse_44" data-name="Ellipse 44" cx="14" cy="14" r="14" transform="translate(774.363 236.944)" fill="#77c4c2"/>
      <path id="Tracé_1268" data-name="Tracé 1268" d="M968.849,432.627v-1.334h.395v1.334a4.259,4.259,0,0,1,1.615.395,2.372,2.372,0,0,1,.921.768,1.8,1.8,0,0,1,.333,1.048,1.131,1.131,0,0,1-.259.755.8.8,0,0,1-.636.307.668.668,0,0,1-.491-.2.679.679,0,0,1-.2-.5.95.95,0,0,1,.079-.377l.158-.333a1.108,1.108,0,0,0,.079-.439,1.033,1.033,0,0,0-.211-.645,1.273,1.273,0,0,0-.6-.417,3.376,3.376,0,0,0-.79-.158v4.8l.088.053a8.74,8.74,0,0,1,2.22,1.676,3.94,3.94,0,0,1,.671,1.137,3.489,3.489,0,0,1,.241,1.259,3.056,3.056,0,0,1-.421,1.588,2.851,2.851,0,0,1-1.167,1.1,4.929,4.929,0,0,1-1.632.474v1.43h-.395v-1.4a4.4,4.4,0,0,1-1.667-.342,3.155,3.155,0,0,1-1.347-.965,2.186,2.186,0,0,1-.478-1.378,1.557,1.557,0,0,1,.307-.979.915.915,0,0,1,.746-.4.645.645,0,0,1,.667.665,1.3,1.3,0,0,1-.325.727,2.2,2.2,0,0,0-.241.4.9.9,0,0,0-.066.35,1.417,1.417,0,0,0,.312.88,1.989,1.989,0,0,0,.838.626,3.086,3.086,0,0,0,1.185.21h.07v-5.73l-.5-.29q-.711-.412-1.084-.684a4.527,4.527,0,0,1-.671-.6,2.882,2.882,0,0,1-.781-1.983,2.69,2.69,0,0,1,.333-1.312,2.617,2.617,0,0,1,.922-.979,3.751,3.751,0,0,1,1.781-.535Zm0,.193a2.716,2.716,0,0,0-.987.219,1.681,1.681,0,0,0-.734.709,2.171,2.171,0,0,0-.279,1.095,2.223,2.223,0,0,0,.41,1.305,2.646,2.646,0,0,0,.511.552,9.519,9.519,0,0,0,.992.648l.087.053Zm.395,11.9a2.72,2.72,0,0,0,.664-.14,1.749,1.749,0,0,0,.481-.281,2.172,2.172,0,0,0,.612-.855,2.948,2.948,0,0,0,.227-1.154,3.625,3.625,0,0,0-1.983-3.036Z" transform="translate(-180.102 -188.278)" fill="#fff"/>
    </g>
    <g id="e2" transform="translate(-140.099 -78)">
      <path id="Tracé_1269" data-name="Tracé 1269" d="M888.046,391.767H700.877a4.358,4.358,0,0,1-4.353-4.353V271.631a4.358,4.358,0,0,1,4.353-4.353H888.046a4.358,4.358,0,0,1,4.353,4.353V387.414A4.358,4.358,0,0,1,888.046,391.767Z" transform="translate(-180.102 -188.278)" fill="#fff"/>
      <path id="Tracé_1270" data-name="Tracé 1270" d="M888.046,391.767H700.877a4.358,4.358,0,0,1-4.353-4.353V271.631a4.358,4.358,0,0,1,4.353-4.353H888.046a4.358,4.358,0,0,1,4.353,4.353V387.414A4.358,4.358,0,0,1,888.046,391.767ZM700.877,269.019a2.614,2.614,0,0,0-2.612,2.612V387.414a2.615,2.615,0,0,0,2.612,2.612H888.046a2.615,2.615,0,0,0,2.612-2.612V271.631a2.615,2.615,0,0,0-2.612-2.612Z" transform="translate(-180.102 -188.278)" fill="#3f3d56"/>
      <path id="Tracé_1271" data-name="Tracé 1271" d="M851.047,305.946H737.876a3.918,3.918,0,0,1,0-7.835H851.047a3.917,3.917,0,0,1,0,7.835Z" transform="translate(-180.102 -188.278)" fill="#ccc"/>
      <path id="Tracé_1272" data-name="Tracé 1272" d="M851.047,332.933H737.876a3.918,3.918,0,0,1,0-7.835H851.047a3.917,3.917,0,0,1,0,7.835Z" transform="translate(-180.102 -188.278)" fill="#ccc"/>
      <circle id="Ellipse_45" data-name="Ellipse 45" cx="14" cy="14" r="14" transform="translate(646.863 159.444)" fill="#77c4c2"/>
      <path id="Tracé_1273" data-name="Tracé 1273" d="M841.349,355.127v-1.334h.395v1.334a4.259,4.259,0,0,1,1.615.395,2.372,2.372,0,0,1,.921.768,1.794,1.794,0,0,1,.334,1.048,1.131,1.131,0,0,1-.259.755.8.8,0,0,1-.636.307.668.668,0,0,1-.491-.2.679.679,0,0,1-.2-.5.95.95,0,0,1,.079-.377l.158-.333a1.109,1.109,0,0,0,.079-.439,1.034,1.034,0,0,0-.211-.645,1.272,1.272,0,0,0-.6-.417,3.381,3.381,0,0,0-.79-.158v4.8l.088.053a8.739,8.739,0,0,1,2.22,1.676,3.943,3.943,0,0,1,.671,1.137,3.485,3.485,0,0,1,.241,1.259,3.056,3.056,0,0,1-.421,1.588,2.851,2.851,0,0,1-1.167,1.1,4.929,4.929,0,0,1-1.632.474v1.43h-.395v-1.4a4.405,4.405,0,0,1-1.667-.342,3.155,3.155,0,0,1-1.347-.965,2.186,2.186,0,0,1-.478-1.378,1.557,1.557,0,0,1,.307-.979.915.915,0,0,1,.746-.4.645.645,0,0,1,.667.665,1.3,1.3,0,0,1-.325.727,2.2,2.2,0,0,0-.241.4.9.9,0,0,0-.066.35,1.418,1.418,0,0,0,.311.88,1.989,1.989,0,0,0,.838.626,3.087,3.087,0,0,0,1.185.21h.07v-5.73l-.5-.29q-.711-.412-1.084-.684a4.525,4.525,0,0,1-.671-.6,2.883,2.883,0,0,1-.781-1.983,2.691,2.691,0,0,1,.333-1.312,2.617,2.617,0,0,1,.921-.979,3.751,3.751,0,0,1,1.782-.535Zm0,.193a2.715,2.715,0,0,0-.987.219,1.682,1.682,0,0,0-.734.709,2.171,2.171,0,0,0-.28,1.095,2.223,2.223,0,0,0,.411,1.3,2.645,2.645,0,0,0,.511.552,9.521,9.521,0,0,0,.992.648l.087.053Zm.395,11.9a2.721,2.721,0,0,0,.664-.14,1.748,1.748,0,0,0,.481-.281,2.172,2.172,0,0,0,.611-.855,2.947,2.947,0,0,0,.227-1.154,3.625,3.625,0,0,0-1.983-3.036Z" transform="translate(-180.102 -188.278)" fill="#fff"/>
    </g>
    <g id="e1" transform="translate(-80.099 -78)">
      <path id="Tracé_1286" data-name="Tracé 1286" d="M758.046,312.767H570.877a4.358,4.358,0,0,1-4.353-4.353V192.631a4.358,4.358,0,0,1,4.353-4.353H758.046a4.358,4.358,0,0,1,4.353,4.353V308.414a4.358,4.358,0,0,1-4.353,4.353Z" transform="translate(-196.124 -190.278)" fill="#fff"/>
      <path id="Tracé_1287" data-name="Tracé 1287" d="M758.046,312.767H570.877a4.358,4.358,0,0,1-4.353-4.353V192.631a4.358,4.358,0,0,1,4.353-4.353H758.046a4.358,4.358,0,0,1,4.353,4.353V308.414a4.358,4.358,0,0,1-4.353,4.353ZM570.877,190.019a2.614,2.614,0,0,0-2.612,2.612V308.414a2.615,2.615,0,0,0,2.612,2.612H758.046a2.615,2.615,0,0,0,2.612-2.612V192.631a2.614,2.614,0,0,0-2.612-2.612Z" transform="translate(-196.124 -190.278)" fill="#3f3d56"/>
      <path id="Tracé_1288" data-name="Tracé 1288" d="M721.047,226.946H607.876a3.918,3.918,0,0,1,0-7.835H721.047a3.917,3.917,0,0,1,0,7.835Z" transform="translate(-196.124 -190.278)" fill="#ccc"/>
      <path id="Tracé_1289" data-name="Tracé 1289" d="M721.047,253.933H607.876a3.918,3.918,0,0,1,0-7.835H721.047a3.917,3.917,0,0,1,0,7.835Z" transform="translate(-196.124 -190.278)" fill="#ccc"/>
      <circle id="Ellipse_46" data-name="Ellipse 46" cx="14" cy="14" r="14" transform="translate(500.841 78.444)" fill="#77c4c2"/>
      <path id="Tracé_1290" data-name="Tracé 1290" d="M711.349,276.127v-1.334h.395v1.334a4.258,4.258,0,0,1,1.615.395,2.372,2.372,0,0,1,.921.768,1.8,1.8,0,0,1,.333,1.048,1.131,1.131,0,0,1-.259.755.8.8,0,0,1-.636.307.668.668,0,0,1-.491-.2.679.679,0,0,1-.2-.5.949.949,0,0,1,.079-.377l.158-.333a1.109,1.109,0,0,0,.079-.439,1.034,1.034,0,0,0-.211-.645,1.273,1.273,0,0,0-.6-.417,3.381,3.381,0,0,0-.79-.158v4.8l.088.053a8.741,8.741,0,0,1,2.22,1.676,3.94,3.94,0,0,1,.671,1.137,3.485,3.485,0,0,1,.241,1.259,3.055,3.055,0,0,1-.421,1.588,2.851,2.851,0,0,1-1.167,1.1,4.929,4.929,0,0,1-1.632.474v1.43h-.395v-1.4a4.4,4.4,0,0,1-1.667-.342,3.155,3.155,0,0,1-1.347-.965,2.185,2.185,0,0,1-.478-1.378,1.557,1.557,0,0,1,.307-.979.914.914,0,0,1,.746-.4.645.645,0,0,1,.667.665,1.3,1.3,0,0,1-.325.727,2.2,2.2,0,0,0-.241.4.9.9,0,0,0-.066.35,1.417,1.417,0,0,0,.312.88,1.989,1.989,0,0,0,.838.626,3.087,3.087,0,0,0,1.185.21h.07v-5.73l-.5-.29q-.711-.412-1.084-.684a4.525,4.525,0,0,1-.671-.6,2.883,2.883,0,0,1-.781-1.983,2.692,2.692,0,0,1,.333-1.312,2.617,2.617,0,0,1,.921-.979,3.751,3.751,0,0,1,1.781-.535Zm0,.193a2.716,2.716,0,0,0-.987.219,1.682,1.682,0,0,0-.734.709,2.171,2.171,0,0,0-.28,1.095,2.224,2.224,0,0,0,.411,1.3,2.647,2.647,0,0,0,.511.552,9.527,9.527,0,0,0,.992.648l.087.053Zm.395,11.9a2.72,2.72,0,0,0,.664-.14,1.748,1.748,0,0,0,.481-.281,2.172,2.172,0,0,0,.612-.855,2.947,2.947,0,0,0,.227-1.154,3.625,3.625,0,0,0-1.983-3.036Z" transform="translate(-196.124 -190.278)" fill="#fff"/>
    </g>
    <path id="Tracé_1291" data-name="Tracé 1291" d="M562.1,711.722h-381a1,1,0,1,1,0-2h381a1,1,0,0,1,0,2Z" transform="translate(-98.102 -188.278)" fill="#cacaca"/>
    <g id="phoner" transform="translate(37 30)">
      <path id="Tracé_1306" data-name="Tracé 1306" d="M518.738,445.425a10.52,10.52,0,0,0-1.43.838l-46.19-18.055L469.288,416.3l-18.333.414,1.193,21.4a8,8,0,0,0,6.18,7.348l54.962,12.75a10.5,10.5,0,1,0,5.449-12.783Z" transform="translate(-220.303 -235.645)" fill="#feb9b9"/>
      <path id="Tracé_1307" data-name="Tracé 1307" d="M215.287,542.561h12.26l5.832-47.288H215.285Z" transform="translate(13.797 -63.745)" fill="#feb9b9"/>
      <path id="Tracé_1308" data-name="Tracé 1308" d="M446.26,710.457H470.4a15.387,15.387,0,0,1,15.386,15.385v.5H446.261Z" transform="translate(-220.303 -235.645)" fill="#2f2e41"/>
      <path id="Tracé_1309" data-name="Tracé 1309" d="M156.287,542.561h12.26l5.832-47.288H156.285Z" transform="translate(13.797 -63.745)" fill="#feb9b9"/>
      <path id="Tracé_1310" data-name="Tracé 1310" d="M387.26,710.457H411.4a15.387,15.387,0,0,1,15.387,15.385v.5H387.261Z" transform="translate(-220.303 -235.645)" fill="#2f2e41"/>
      <path id="Tracé_1313" data-name="Tracé 1313" d="M410.321,430.582l-8.69,14.483s-23.8,44.636-22.384,81.634l5.267,46.084-5.78,11.309,3.869,19.9-7.185,14.253,12.988,68.811.553,14.923h21l-1.105-15.2,8.843-67.036,14.923-71.574,7.738,61.785L437.6,625.428l3.593,12.988,4.974,40.071.553,19.344,19.068,2.211,7.185-71.574,4.145-34.15L454.9,442.9Z" transform="translate(-220.303 -235.645)" fill="#2f2e41"/>
      <g id="Groupe_2584" data-name="Groupe 2584" transform="translate(-125.098 22.703)">
        <path id="Tracé_1326" data-name="Tracé 1326" d="M345.569,123.428l3.263-20.4-22.027-8.974-3.263,31Z" transform="translate(-4.006 -12.249)" fill="#ffb6b6"/>
        <path id="Tracé_1327" data-name="Tracé 1327" d="M345.569,123.428l3.263-20.4-22.027-8.974-3.263,31Z" transform="translate(-4.006 -12.249)" opacity="0.1"/>
        <g id="Groupe_2576" data-name="Groupe 2576" transform="translate(301.791 27.557)">
          <circle id="Ellipse_51" data-name="Ellipse 51" cx="22.462" cy="22.462" r="22.462" transform="translate(11.743 24.858)" fill="#ffb6b6"/>
          <path id="Tracé_1331" data-name="Tracé 1331" d="M334.2,44.679c.65.379,1.521-.195,1.729-.918a3.762,3.762,0,0,0-.275-2.2l-1.212-3.59c-.86-2.546-1.772-5.181-3.633-7.118-2.81-2.925-7.275-3.669-11.295-3.13-5.162.692-10.255,3.487-12.655,8.11s-1.378,11.072,2.959,13.956c-6.181,7.085-8.336,14.98-8,24.376S312.4,92.2,319.082,98.824c1.491-.9,2.847-5.14,2.027-6.679s.355-3.322-.661-4.739-1.865.84-.839-.57c.648-.889-1.881-2.936-.918-3.468,4.658-2.575,6.207-8.381,9.133-12.827a21.853,21.853,0,0,1,15.959-9.6,15.091,15.091,0,0,1,10.125,2.313c2.886,2.044,4.754,5.7,4.085,9.169A8.143,8.143,0,0,0,356.3,59.681a13.3,13.3,0,0,0-2.824-12.539c-3.01-3.318-15.218-2.753-19.612-1.88" transform="translate(-301.791 -27.557)" fill="#2f2e41"/>
        </g>
      </g>
      <path id="Tracé_1314" data-name="Tracé 1314" d="M407.565,360.649l-12.938,5.495-7.266,30.072,15.3,39.181-5.719,19.577c17.313,29.615,38.742,33.918,63.958,14.926-5.337-14.984-4.566-30.391.752-46.114,0,0,13.265-12.352,4-28.411l-8.839-23.992-10.944-5.472Z" transform="translate(-220.303 -235.645)" fill="#344766"/>
      <path id="Tracé_1315" data-name="Tracé 1315" d="M454.263,376.613l2.937-5.454s7.746,1.165,10.909,10.489,3.986,46.992,3.986,46.992l-16.573.839Z" transform="translate(-220.303 -235.645)" fill="#344766"/>
      <path id="Tracé_1316" data-name="Tracé 1316" d="M389.338,504.458a10.743,10.743,0,0,0,3.842-16.018l8.033-78.54h-17.36l-6.384,76.69a10.8,10.8,0,0,0,11.87,17.868Z" transform="translate(-220.303 -235.645)" fill="#feb9b9"/>
      <path id="Tracé_1317" data-name="Tracé 1317" d="M405.2,375.027l-6.084-8.6s-10.7-7.253-16.153,9.44-4.615,47.621-4.615,47.621l20.769,8.6Z" transform="translate(-220.303 -235.645)" fill="#344766"/>
      <path id="Tracé_1318" data-name="Tracé 1318" d="M534.956,353.474h-.44V341.427a6.972,6.972,0,0,0-6.972-6.973H502.02a6.972,6.972,0,0,0-6.973,6.973v66.091a6.972,6.972,0,0,0,6.973,6.973h25.523a6.973,6.973,0,0,0,6.973-6.973V362.049h.44Z" transform="translate(-201.556 -160.199)" fill="#3f3d56"/>
      <path id="Tracé_1319" data-name="Tracé 1319" d="M527.825,336.268h-3.332a2.474,2.474,0,0,1-2.29,3.408H507.581a2.474,2.474,0,0,1-2.29-3.408h-3.112a5.207,5.207,0,0,0-5.207,5.207v65.994a5.207,5.207,0,0,0,5.207,5.207h25.646a5.207,5.207,0,0,0,5.207-5.207h0V341.475a5.207,5.207,0,0,0-5.207-5.207Z" transform="translate(-201.556 -160.199)" fill="#77c4c2"/>
      <path id="Tracé_1332" data-name="Tracé 1332" d="M336.513,68.641c-5.819.711-10.021,6.416-13.569,11.684-2.045,3.037-4.187,6.39-4.136,10.207.052,3.86,2.332,7.17,3.422,10.828,1.781,5.979.045,13.092-4.2,17.189,4.19.9,8.719-2.655,9.443-7.412.842-5.537-2.867-10.881-2.428-16.477.387-4.93,3.82-8.725,6.739-12.411s5.66-8.578,4.317-13.289" transform="translate(-129.089 15.136)" fill="#2f2e41"/>
    </g>
  </g>
</svg>
