<svg xmlns="http://www.w3.org/2000/svg" width="97" height="97" viewBox="0 0 97 97">
  <g id="icon-scale" transform="translate(-1024 -13325)">
    <g id="Groupe_2587" data-name="Groupe 2587" transform="translate(1025.109 13343.475)">
      <path id="Tracé_1290" data-name="Tracé 1290" d="M-4065.5,15947.67h27.049l-1.487,4.478-3.842,4.818-3.762,1.176-6.348,1.533-6-2.709-3.266-3.14Z" transform="translate(4066.891 -15898.475)" fill="#fff"/>
      <path id="Tracé_1293" data-name="Tracé 1293" d="M-4023.042,15967.729v-66.036l1.87-1.824,1.856-.5,1.948.5,1.027,1.824.538,1.638-.538,64.786Z" transform="translate(4066.891 -15898.475)" fill="#fff"/>
      <path id="Tracé_1291" data-name="Tracé 1291" d="M-4065.5,15947.67h27.049l-1.487,4.478-3.842,4.818-3.762,1.176-6.348,1.533-6-2.709-3.266-3.14Z" transform="translate(4131.891 -15898.475)" fill="#fff"/>
      <path id="Tracé_1292" data-name="Tracé 1292" d="M-4035.228,15974.8h31.58l-13.105-6.705h-7.676Z" transform="translate(4066.891 -15898.475)" fill="#fff"/>
      <path id="Tracé_1290-2" data-name="Tracé 1290" d="M31.913,40h6.837a1.239,1.239,0,0,1,.554.131l13.675,6.837a1.238,1.238,0,0,1-.554,2.346H18.239a1.238,1.238,0,0,1-.554-2.346l13.675-6.837A1.239,1.239,0,0,1,31.913,40Zm6.545,2.477H32.206l-8.721,4.36H47.179Z" transform="translate(12.059 28.374)" fill="#746456"/>
      <path id="Tracé_1291-2" data-name="Tracé 1291" d="M34.314,69.613H31.837V4.657a2.18,2.18,0,0,0-4.36,0V69.613H25V4.657a4.657,4.657,0,1,1,9.314,0Z" transform="translate(17.734)" fill="#746456"/>
      <path id="Tracé_1292-2" data-name="Tracé 1292" d="M59.648,17.4a14.087,14.087,0,0,1-1.884-.127,13.486,13.486,0,0,1-11.585-11.8H30.238a1.238,1.238,0,1,1,0-2.477H47.332A1.238,1.238,0,0,1,48.57,4.207,11.007,11.007,0,0,0,58.1,14.823a10.961,10.961,0,0,0,10.421-4.35,1.238,1.238,0,1,1,2.01,1.448A13.346,13.346,0,0,1,59.648,17.4Z" transform="translate(20.571 2.128)" fill="#746456"/>
      <path id="Tracé_1293-2" data-name="Tracé 1293" d="M13.132,17.4A13.35,13.35,0,0,1,2.253,11.922a1.238,1.238,0,1,1,2.009-1.449,10.965,10.965,0,0,0,10.421,4.35A11.007,11.007,0,0,0,24.209,4.207,1.238,1.238,0,0,1,25.447,3H42.54a1.238,1.238,0,1,1,0,2.477H26.6a13.486,13.486,0,0,1-11.585,11.8A14.089,14.089,0,0,1,13.132,17.4Z" transform="translate(1.432 2.128)" fill="#746456"/>
      <path id="Tracé_1294" data-name="Tracé 1294" d="M65.436,42.51,52.893,14.288,40.35,42.51,38.086,41.5,51.761,10.735a1.238,1.238,0,0,1,2.263,0L67.7,41.5Z" transform="translate(26.976 7.094)" fill="#746456"/>
      <path id="Tracé_1295" data-name="Tracé 1295" d="M27.436,42.51,14.893,14.288,2.35,42.51.086,41.5,13.761,10.735a1.238,1.238,0,0,1,2.263,0L29.7,41.5Z" transform="translate(0.021 7.094)" fill="#746456"/>
      <path id="Tracé_1296" data-name="Tracé 1296" d="M39.238,28h27.35a1.238,1.238,0,0,1,1.229,1.391,15.035,15.035,0,0,1-29.808,0A1.238,1.238,0,0,1,39.238,28ZM65.1,30.477H40.722a12.577,12.577,0,0,0,24.383,0Z" transform="translate(26.955 19.862)" fill="#746456"/>
      <path id="Tracé_1297" data-name="Tracé 1297" d="M1.238,28h27.35a1.238,1.238,0,0,1,1.229,1.391,15.035,15.035,0,0,1-29.808,0A1.238,1.238,0,0,1,1.238,28ZM27.1,30.477H2.722a12.577,12.577,0,0,0,24.383,0Z" transform="translate(0 19.862)" fill="#746456"/>
    </g>
    <rect id="Rectangle_120" data-name="Rectangle 120" width="97" height="97" transform="translate(1024 13325)" fill="none"/>
  </g>
</svg>
