<svg xmlns="http://www.w3.org/2000/svg" width="64.539" height="64.616" viewBox="0 0 64.539 64.616">
  <g id="icon-wrench" transform="translate(0.712 1)">
    <g id="Groupe_2497" data-name="Groupe 2497" transform="translate(0.288)">
      <path id="Tracé_1015" data-name="Tracé 1015" d="M27.689,181.586,1.736,207.539a4.731,4.731,0,0,0-1.448,3.468,4.531,4.531,0,0,0,1.448,3.431l4.039,4.116a4.881,4.881,0,0,0,3.468,1.41,4.668,4.668,0,0,0,3.43-1.41l25.99-25.991a19.737,19.737,0,0,1-10.975-10.976ZM13.4,210.283a2.394,2.394,0,1,1,.724-1.715A2.347,2.347,0,0,1,13.4,210.283Z" transform="translate(-0.288 -157.347)" fill="#fff" stroke="#000" stroke-width="2"/>
      <path id="Tracé_1016" data-name="Tracé 1016" d="M247.311,17.683a1.111,1.111,0,0,0-.9-.381,12.422,12.422,0,0,0-2.687,1.353q-2.343,1.353-5.164,3.087t-3.011,1.849L228.2,19.513V10.976l11.166-6.441a1.238,1.238,0,0,0,0-2.134,13.047,13.047,0,0,0-4.1-1.772A18.417,18.417,0,0,0,230.638,0a16.442,16.442,0,0,0-12.061,5.012,16.439,16.439,0,0,0-5.011,12.062,16.443,16.443,0,0,0,5.011,12.062,16.443,16.443,0,0,0,12.061,5.011,16.639,16.639,0,0,0,9.852-3.183,16.762,16.762,0,0,0,6.269-8.289,13.347,13.347,0,0,0,.876-4.039A1.418,1.418,0,0,0,247.311,17.683Z" transform="translate(-185.096)" fill="#fff" stroke="#000" stroke-width="2"/>
    </g>
  </g>
</svg>
