<svg id="icon-grains" xmlns="http://www.w3.org/2000/svg" width="54.562" height="43" viewBox="0 0 54.562 43">
  <g id="Tracé_1048" data-name="Tracé 1048" fill="#fff" fill-rule="evenodd">
    <path d="M 32.02035903930664 42 C 30.11859130859375 42 28.35708618164062 41.61979675292969 26.84241485595703 40.89043426513672 C 30.46475219726562 38.60271072387695 33.24992752075195 36.30587768554688 35.32735061645508 33.89725112915039 C 37.62015151977539 31.23888969421387 38.85337066650391 28.66512870788574 39.75732040405273 26.49806976318359 C 39.89039993286133 26.17844009399414 40.02423095703125 25.85078048706055 40.15365219116211 25.53392028808594 C 41.03710174560547 23.37094879150391 41.95063018798828 21.13432884216309 43.59955978393555 18.94046020507812 C 45.3543815612793 16.6056957244873 47.7310791015625 14.63318538665771 50.85120391845703 12.92507743835449 C 53.11975479125977 15.3677396774292 54.00820541381836 18.91935920715332 53.35470962524414 22.97228050231934 C 52.65913009643555 27.2862491607666 50.31362152099609 31.62448883056641 46.75025177001953 35.18785095214844 C 44.59775924682617 37.34033966064453 42.08367156982422 39.09976959228516 39.47977066040039 40.27593994140625 C 36.98274993896484 41.40382766723633 34.4033317565918 42 32.02035903930664 42 Z M 24.09879493713379 38.9063606262207 C 21.75279998779297 36.46096420288086 20.82660675048828 32.86259078979492 21.49009132385254 28.74771881103516 C 22.18567085266113 24.43375015258789 24.53118133544922 20.09551048278809 28.09455108642578 16.53215026855469 C 30.24691963195801 14.37976932525635 32.76079177856445 12.6204891204834 35.36436080932617 11.44449996948242 C 37.86103057861328 10.31679916381836 40.44021987915039 9.720729827880859 42.8231201171875 9.720729827880859 C 44.85982513427734 9.720729827880859 46.72661972045898 10.15400695800781 48.30874633789062 10.9846363067627 C 44.66733169555664 12.9502124786377 42.00524520874023 14.89052104949951 40.00860214233398 17.0238094329834 C 37.77621078491211 19.40897941589355 36.59291076660156 21.84030914306641 35.64672088623047 24.11240005493164 C 35.5476188659668 24.34996032714844 35.44787216186523 24.59156036376953 35.34677886962891 24.83638954162598 C 34.45624923706055 26.99329948425293 33.44689178466797 29.43799018859863 31.69114112854004 31.90189933776855 C 29.79734230041504 34.55954742431641 27.30901336669922 36.85623550415039 24.09879493713379 38.9063606262207 Z M 13.99193000793457 38.29409408569336 C 10.60492324829102 38.22269821166992 7.406749725341797 36.33350372314453 4.967280387878418 32.95610046386719 C 2.408940315246582 29.41412925720215 1.000000476837158 24.68791961669922 1.000000476837158 19.64809036254883 C 1.000000476837158 14.91919994354248 2.262370347976685 10.40541934967041 4.55456018447876 6.938229560852051 C 6.402018547058105 4.143740653991699 8.781190872192383 2.234448432922363 11.37509059906006 1.430801033973694 C 10.18861103057861 5.395196914672852 9.677443504333496 8.649591445922852 9.773690223693848 11.57090950012207 C 9.881180763244629 14.83356952667236 10.76249027252197 17.38900947570801 11.69885063171387 19.66452980041504 C 11.79679012298584 19.90276908874512 11.89702033996582 20.14410018920898 11.99857997894287 20.38862991333008 C 12.89402008056641 22.54455947875977 13.90894031524658 24.98814964294434 14.40921020507812 27.9722900390625 C 14.9486780166626 31.19031143188477 14.81256771087646 34.5743293762207 13.99193000793457 38.29409408569336 Z M 17.33185768127441 37.7567024230957 C 17.54743385314941 36.80243301391602 17.73184585571289 35.87863540649414 17.88525581359863 34.98348999023438 C 18.05096244812012 35.76330184936523 18.27430534362793 36.51702880859375 18.55476570129395 37.23971176147461 C 18.15268707275391 37.44022750854492 17.74448394775391 37.61277770996094 17.33185768127441 37.7567024230957 Z M 18.31401252746582 25.99260139465332 C 17.97976684570312 22.88402557373047 17.11064720153809 20.44419479370117 16.28795051574707 18.4459400177002 C 16.15546989440918 18.12417030334473 16.01753997802734 17.79557037353516 15.88415050506592 17.47777938842773 C 14.98025035858154 15.32427978515625 14.04557037353516 13.09746932983398 13.6606502532959 10.38111972808838 C 13.25124454498291 7.491994857788086 13.53620624542236 4.418386936187744 14.53205490112305 1.006140351295471 C 17.16553688049316 1.101101398468018 19.68550491333008 2.295189380645752 21.83981132507324 4.473979473114014 C 23.95071983337402 6.608872890472412 25.60052108764648 9.630146026611328 26.52089691162109 13.03016567230225 C 26.18167114257812 13.34017848968506 25.85149574279785 13.65561008453369 25.53474998474121 13.97234916687012 C 22.01720809936523 17.48989868164062 19.5088996887207 21.68553352355957 18.31401252746582 25.99260139465332 Z" stroke="none"/>
    <path d="M 15.27433013916016 2.070106506347656 C 13.43588638305664 9.060127258300781 15.14741897583008 13.13874816894531 16.80622863769531 17.09075927734375 C 16.94026184082031 17.41009902954102 17.0788688659668 17.74030876159668 17.21263885498047 18.06523895263672 C 17.70727157592773 19.26663017272949 18.21816635131836 20.62317276000977 18.62733459472656 22.18381118774414 C 20.05150604248047 18.98327827453613 22.15962600708008 15.93326187133789 24.82762908935547 13.2652587890625 C 25.0114803314209 13.08140563964844 25.19973373413086 12.89795684814453 25.39150810241699 12.71574401855469 C 24.49227142333984 9.71697998046875 23.00105285644531 7.070693969726562 21.12871932983398 5.177078247070312 C 19.37414932250977 3.402572631835938 17.36884689331055 2.342273712158203 15.27433013916016 2.070106506347656 M 9.852878570556641 3.171028137207031 C 8.184974670410156 4.103172302246094 6.657657623291016 5.570323944091797 5.388740539550781 7.489707946777344 C 3.203479766845703 10.79515838623047 2 15.11308860778809 2 19.64809036254883 C 2 22.10249900817871 2.345870971679688 24.4791202545166 3.027999877929688 26.71193885803223 C 3.678401947021484 28.84090995788574 4.603610992431641 30.7447509765625 5.777931213378906 32.37056732177734 C 7.826419830322266 35.20666122436523 10.42808532714844 36.90507507324219 13.19069671630859 37.23638916015625 C 14.69954681396484 29.49872589111328 12.78056335449219 24.87846183776855 11.0750617980957 20.77217864990234 C 10.97303009033203 20.52651977539062 10.87234115600586 20.28408050537109 10.77408981323242 20.04505920410156 C 9.802021026611328 17.68278884887695 8.886959075927734 15.02517890930176 8.77423095703125 11.60383987426758 C 8.691425323486328 9.090484619140625 9.037723541259766 6.353561401367188 9.852878570556641 3.171028137207031 M 42.8231201171875 10.72072982788086 C 38.12502288818359 10.72072982788086 32.88335037231445 13.15756034851074 28.80165100097656 17.23925018310547 C 27.06632995605469 18.97457885742188 25.63050079345703 20.89958953857422 24.53406143188477 22.96080017089844 C 23.48860168457031 24.92617988586426 22.7966194152832 26.92672920227051 22.47734069824219 28.90690040588379 C 21.92016983032227 32.36240386962891 22.55942916870117 35.40414047241211 24.27984237670898 37.59199523925781 C 30.81731033325195 33.18746948242188 32.72582626342773 28.56407737731934 34.42247009277344 24.45475959777832 C 34.52402114868164 24.20878982543945 34.62424087524414 23.9660701751709 34.72357177734375 23.72797012329102 C 35.70584869384766 21.36919021606445 36.93753051757812 18.84165000915527 39.27849960327148 16.34046936035156 C 40.99581146240234 14.50563430786133 43.17499923706055 12.81512451171875 45.9998893737793 11.14076995849609 C 45.01562881469727 10.86311721801758 43.94903945922852 10.72072982788086 42.8231201171875 10.72072982788086 M 50.62274932861328 14.20232963562012 C 44.37471771240234 17.84357452392578 42.70132827758789 21.94104957580566 41.07941055297852 25.91203880310059 C 40.94935989379883 26.23044013977051 40.81488037109375 26.55967903137207 40.68025207519531 26.88306045532227 C 39.74591064453125 29.12295913696289 38.46923828125 31.78553009033203 36.08460235595703 34.55036926269531 C 34.277099609375 36.64605331420898 31.95981025695801 38.65354919433594 29.05322074890137 40.63608551025391 C 29.97972297668457 40.87665176391602 30.97583770751953 41 32.02036285400391 41 C 36.71883010864258 41 41.96099090576172 38.56288909912109 46.04314041137695 34.48072814941406 C 47.77846145629883 32.74541091918945 49.21429061889648 30.82040977478027 50.31074142456055 28.75918960571289 C 51.356201171875 26.79381942749023 52.04817962646484 24.79325866699219 52.36746215820312 22.81308937072754 C 52.91835021972656 19.39654541015625 52.29963684082031 16.38449478149414 50.62274932861328 14.20232963562012 M 14.1910285949707 0 C 20.44289016723633 0 25.74899101257324 5.599147796630859 27.64054107666016 13.36957931518555 C 27.16543006896973 13.7869701385498 26.69919967651367 14.22210884094238 26.24186134338379 14.67945861816406 C 22.08578109741211 18.83552932739258 19.53264999389648 23.83968925476074 18.77336120605469 28.55966949462891 C 18.24053192138672 31.84988975524902 18.5779914855957 35.01133728027344 19.83013916015625 37.67993927001953 C 18.62239074707031 38.40369033813477 17.32583999633789 38.90544128417969 15.9715690612793 39.14077758789062 C 18.60018920898438 28.76391983032227 17.33028030395508 23.60434913635254 15.36325073242188 18.8266487121582 C 13.45838928222656 14.19990921020508 10.87416076660156 9.240150451660156 13.79140853881836 0.0044403076171875 C 13.92016983032227 0.0044403076171875 14.05781936645508 0 14.1910285949707 0 Z M 12.84563064575195 0.08880996704101562 C 9.617580413818359 9.892868041992188 10.62107086181641 14.41748046875 12.62361907958984 19.28398895263672 C 14.50185012817383 23.8530101776123 17.17486953735352 29.43439865112305 14.79045867919922 39.27841949462891 C 14.59064865112305 39.29174041748047 14.39083862304688 39.29618072509766 14.1910285949707 39.29618072509766 C 6.353988647460938 39.29618072509766 0 30.50005912780762 0 19.64809036254883 C 0 9.426639556884766 5.639110565185547 1.025688171386719 12.84563064575195 0.08880996704101562 Z M 42.8231201171875 8.720729827880859 C 45.63962554931641 8.720729827880859 48.23614883422852 9.488178253173828 50.29911041259766 11.07397079467773 C 41.08560180664062 15.72735023498535 38.59461975097656 19.63476943969727 36.56986999511719 24.49683952331543 C 34.66944885253906 29.05253982543945 32.61360931396484 34.89146041870117 23.96844863891602 40.16646957397461 C 23.81748199462891 40.03326034545898 23.67095947265625 39.8956184387207 23.52886962890625 39.7535285949707 C 17.98744201660156 34.21209716796875 19.71469116210938 23.49778938293457 27.3874397277832 15.82503890991211 C 32.0267219543457 11.18575668334961 37.77701568603516 8.720729827880859 42.8231201171875 8.720729827880859 Z M 51.03176116943359 11.69561004638672 C 51.125 11.77997970581055 51.22269058227539 11.87321853637695 51.3159294128418 11.96646118164062 C 56.85736083984375 17.50788879394531 55.13011169433594 28.22220993041992 47.45735168457031 35.89495086669922 C 40.37516021728516 42.97714996337891 30.70430183410645 44.99301910400391 24.90089988708496 40.90798950195312 C 34.09664916992188 35.42873001098633 36.84516143798828 30.88190841674805 38.83440017700195 26.11308860778809 C 40.75703048706055 21.49522972106934 42.43988037109375 16.15806007385254 51.03176116943359 11.69561004638672 Z" stroke="none" fill="#000"/>
  </g>
</svg>
