<svg xmlns="http://www.w3.org/2000/svg" xmlns:xlink="http://www.w3.org/1999/xlink" width="41.961" height="43" viewBox="0 0 41.961 43">
  <defs>
    <clipPath id="clip-path">
      <rect id="Rectangle_54" data-name="Rectangle 54" width="41.961" height="43" fill="none"/>
    </clipPath>
  </defs>
  <g id="icon-agronomist" transform="translate(-1219.461 -401)">
    <path id="Tracé_1058" data-name="Tracé 1058" d="M8.107,35.65,6.438,32.4l-1.654-5.1v-5.75l1.654-3.787,1.22-.848L11,19.767l2.1,1.1V15.642l1.5-3.663,2.232-2.855,2.67,2.484,1.873,1.9,1.169-6L25.273,4l1.36-.855,3.08,4.135L34.2,3.144,39.176,1.7l2.349-.366L41.133,5.56,39.984,8.231l-2,2.715-2.292,2.022.874,1.126,2.952,2.813-1.534,2.446-4.379,2.015-4.333.616,2.939,2.568,1.744,2.286-4.683,3.318-6.738.974,3.788,5.493L23.7,38.656l-6.2.721-5.06-1.33Z" transform="translate(1219.267 400.941)" fill="#fff"/>
    <g id="Groupe_2519" data-name="Groupe 2519" transform="translate(1219.461 401)">
      <g id="Groupe_2518" data-name="Groupe 2518" transform="translate(0 0)" clip-path="url(#clip-path)">
        <path id="Tracé_1059" data-name="Tracé 1059" d="M37.711,13.868c-.282-.256-.576-.524-.886-.813A.515.515,0,0,1,36.772,13a.521.521,0,0,1,.04-.723,26.466,26.466,0,0,0,2.235-2.31,17.159,17.159,0,0,0,2.9-8.868,1.1,1.1,0,0,0-.205-.9A1.231,1.231,0,0,0,40.686.038a49.312,49.312,0,0,0-5.269,1.227,10.624,10.624,0,0,0-4.376,2.819c-.251.251-.483.491-.72.736l-.854.877L28.76,4.78c-.244-.323-.47-.621-.717-.909a15.875,15.875,0,0,0-1.236-1.3c-.9-.825-1.044-.829-1.969-.032a12.62,12.62,0,0,0-4.022,6.645c-.059.23-.136.446-.228.711l-.406,1.193-.565-.579c-.161-.165-.3-.315-.436-.455-.224-.238-.417-.442-.624-.632a14.815,14.815,0,0,0-1.146-.943c-1.162-.863-1.416-.837-2.276.231a15.673,15.673,0,0,0-3.292,7.631c-.046.319-.1.634-.155.948l-.206,1.228-.629-.39c-.406-.252-.791-.5-1.165-.738-.807-.519-1.57-1.008-2.354-1.422a1.769,1.769,0,0,0-.778-.262c-.332,0-.584.226-.939.729a11.218,11.218,0,0,0-1.764,4.055A18.918,18.918,0,0,0,4.911,31.326c.274.769.581,1.5.905,2.277.174.417.352.842.529,1.283l.127.316L.86,40.946a5.256,5.256,0,0,0-.75.863.709.709,0,0,0,.115.9.68.68,0,0,0,.921.186A4.883,4.883,0,0,0,2,42.178L3.141,41q1.583-1.626,3.172-3.243c.276-.281.567-.546.858-.811l.61-.562.3.135c.425.191.763.351,1.091.5l.115.055a21.794,21.794,0,0,0,10.085,2.334,11.678,11.678,0,0,0,6.212-1.925c1.2-.821,1.283-1.139.607-2.431-.274-.52-.6-1.034-.921-1.531-.144-.226-.289-.45-.429-.679-.109-.176-.222-.349-.355-.553l-.668-1.033,1.306-.245c.3-.059.553-.109.808-.147a15.816,15.816,0,0,0,7.506-3.309c1.074-.841,1.123-1.186.334-2.311-.274-.392-.58-.761-.885-1.129-.148-.178-.295-.356-.439-.536l-1.128-1.426,1.129-.341c.293-.09.532-.164.773-.226a12.175,12.175,0,0,0,6.148-3.85c.939-1.043.934-1.327-.038-2.339-.493-.515-1.015-.99-1.618-1.539M30.675,7.83a7.66,7.66,0,0,1,1.756-2.693,11.928,11.928,0,0,1,7-3.13A.365.365,0,0,1,39.552,2a.508.508,0,0,1,.467.511c0,.017,0,.034,0,.051a11.717,11.717,0,0,1-3.732,7.873,5.885,5.885,0,0,1-2.316,1.241,2.549,2.549,0,0,1-.832.139,2.689,2.689,0,0,1-1.172-.272,2.818,2.818,0,0,1-1.29-3.713M25.294,4.561l.007-.01a.5.5,0,0,1,.581-.173.5.5,0,0,1,.165.1,6.319,6.319,0,0,1,2.11,6.952,12.352,12.352,0,0,1-3.63,5.206l-.327.276-.319-.286a5.75,5.75,0,0,1-1.669-4.2,11.34,11.34,0,0,1,3.082-7.864m-9.08,5.706.3-.384.385.3a8.683,8.683,0,0,1,3.349,6.657A9.01,9.01,0,0,1,15.9,25.283a.35.35,0,0,1-.04.028.481.481,0,0,1-.257.073.5.5,0,0,1-.428-.249,13.274,13.274,0,0,1,1.041-14.868M8.485,33.123c-.013.014-.025.029-.04.043a.493.493,0,0,1-.677.009.527.527,0,0,1-.1-.121C4.8,28.86,4.3,21.531,6.651,18.234l.234-.328.364.158a8.624,8.624,0,0,1,5.116,8.7,6.125,6.125,0,0,1-2.111,4.574,19.483,19.483,0,0,0-1.769,1.782M24.42,35.444a.524.524,0,0,1-.124.6,8.314,8.314,0,0,1-5.531,1.644,18.416,18.416,0,0,1-8.823-2.342L9.513,35.1l.241-.441a8,8,0,0,1,5.075-4.214A8.166,8.166,0,0,1,21.41,31.89a8.421,8.421,0,0,1,3.01,3.555M31.99,25.6a.3.3,0,0,1,.024.028.521.521,0,0,1-.07.723.235.235,0,0,1-.031.025,12.445,12.445,0,0,1-14.441,1.11l-.465-.284.312-.453c1.436-2.082,3.564-4.478,7.305-4.507A8.992,8.992,0,0,1,31.99,25.6m5.582-8.746-.011.011a8.951,8.951,0,0,1-11.612,2.061l-.393-.235.193-.422a7.44,7.44,0,0,1,1.457-2.133,7.219,7.219,0,0,1,10.366-.006.521.521,0,0,1,0,.724" transform="translate(0 0)"/>
      </g>
    </g>
  </g>
</svg>
