<svg xmlns="http://www.w3.org/2000/svg" xmlns:xlink="http://www.w3.org/1999/xlink" width="97" height="97" viewBox="0 0 97 97">
  <defs>
    <clipPath id="clip-path">
      <rect id="Rectangle_117" data-name="Rectangle 117" width="62.493" height="58.875" fill="none" stroke="#746456" stroke-width="3"/>
    </clipPath>
  </defs>
  <g id="icon-air-water" transform="translate(-753 -13325)">
    <path id="Tracé_1279" data-name="Tracé 1279" d="M36.869,49.589c-5.264,0-9.711-4.219-9.711-9.214a7.8,7.8,0,0,1,7.789-7.789l.154,0a13.832,13.832,0,0,0-5.479-.964H.313A4.313,4.313,0,0,1,.313,23H29.621c12.416,0,17.974,7.717,17.974,15.366C47.595,44.764,42.984,49.589,36.869,49.589Zm-.328-8.681a1.08,1.08,0,0,0,.328.056c1.885,0,2.08-1.988,2.1-2.5A4.327,4.327,0,0,1,36.541,40.908Z" transform="translate(784.468 13371.594)" fill="#fff"/>
    <path id="Tracé_1280" data-name="Tracé 1280" d="M44.174,29.772H13.313a4.313,4.313,0,0,1,0-8.625H44.174a12.509,12.509,0,0,0,2.454-.229,7.8,7.8,0,0,1-6.561-7.692,9.224,9.224,0,0,1,9.214-9.214A11.236,11.236,0,0,1,60.5,15.235C60.5,22.237,55.395,29.772,44.174,29.772ZM49.3,12.638a4.325,4.325,0,0,1,2.576,2.5A2.6,2.6,0,0,0,49.3,12.638Z" transform="translate(788.223 13363.823)" fill="#fff"/>
    <path id="Tracé_1281" data-name="Tracé 1281" d="M27.474,21.778H5.313a4.313,4.313,0,0,1,0-8.625H27.474a14.786,14.786,0,0,0,2.612-.216,7.805,7.805,0,0,1-6.44-7.408,9.228,9.228,0,0,1,8.9-9.522A11.237,11.237,0,0,1,44.14,6.847a13.789,13.789,0,0,1-3.81,10.162C38.226,19.184,34.288,21.778,27.474,21.778ZM32.853,4.626a4.325,4.325,0,0,1,2.661,2.415A2.6,2.6,0,0,0,32.853,4.626Z" transform="translate(786.615 13360.541)" fill="#fff"/>
    <g id="Groupe_2586" data-name="Groupe 2586" transform="translate(783.647 13359.426)">
      <g id="Groupe_2586-2" data-name="Groupe 2586" transform="translate(0 0)" clip-path="url(#clip-path)">
        <path id="Tracé_1279-2" data-name="Tracé 1279" d="M34.65,37.5a3.412,3.412,0,0,0-3.377,3.445c0,2.683,2.615,4.857,5.245,4.857,3.709,0,6.231-3.065,6.231-6.848C42.749,33.62,39.026,28,29.476,28H1" transform="translate(0.389 11.657)" fill="none" stroke="#746456" stroke-linecap="round" stroke-linejoin="round" stroke-width="3"/>
        <path id="Tracé_1280-2" data-name="Tracé 1280" d="M47.563,17.313a3.412,3.412,0,0,1-3.377-3.445,4.81,4.81,0,0,1,4.762-4.857,6.782,6.782,0,0,1,6.714,6.848c0,5.333-3.927,10.131-11.676,10.131H14" transform="translate(5.442 3.752)" fill="none" stroke="#746456" stroke-linecap="round" stroke-linejoin="round" stroke-width="3"/>
        <path id="Tracé_1281-2" data-name="Tracé 1281" d="M31.49,9.348A3.409,3.409,0,0,1,28,6.021,4.82,4.82,0,0,1,32.6,1a6.772,6.772,0,0,1,6.937,6.614c.176,5.33-3.519,10.379-12,10.379H6" transform="translate(2.332 0.415)" fill="none" stroke="#746456" stroke-linecap="round" stroke-linejoin="round" stroke-width="3"/>
      </g>
    </g>
    <path id="Tracé_1285" data-name="Tracé 1285" d="M-4849.664,12055.258l9.878,13.086,4.387,5.813,1.673,15.7-8.144,7.4-13.18,2.193-8.948-5.857-4.205-9.193,2.717-10.238,8.22-13.023Z" transform="translate(5627.757 1275.413)" fill="#fff"/>
    <path id="Tracé_1286" data-name="Tracé 1286" d="M153.562,140.774a19.745,19.745,0,0,1-13.731-5.286,18.834,18.834,0,0,1-5.725-13.838c.006-9.7,8.8-20.575,15.221-28.514.736-.91,1.444-1.785,2.106-2.618a2.721,2.721,0,0,1,4.26,0c.662.833,1.37,1.708,2.106,2.618,6.421,7.938,15.215,18.811,15.221,28.514a18.835,18.835,0,0,1-5.726,13.838,19.744,19.744,0,0,1-13.731,5.286m0-44.223-.005.006c-5.91,7.308-14.005,17.316-14.01,25.095a13.272,13.272,0,0,0,4.036,9.894,15.045,15.045,0,0,0,19.957,0,13.272,13.272,0,0,0,4.037-9.894c-.005-7.779-8.1-17.787-14.01-25.095l-.005-.006" transform="translate(624.204 13238.037)" fill="#746456" stroke="#fff" stroke-linecap="round" stroke-linejoin="bevel" stroke-width="3"/>
    <rect id="Rectangle_118" data-name="Rectangle 118" width="97" height="97" transform="translate(753 13325)" fill="none"/>
  </g>
</svg>
