<svg xmlns="http://www.w3.org/2000/svg" xmlns:xlink="http://www.w3.org/1999/xlink" width="44.77" height="43.847" viewBox="0 0 44.77 43.847">
  <defs>
    <clipPath id="clip-path">
      <rect id="Rectangle_53" data-name="Rectangle 53" width="42.982" height="43" transform="translate(0 0)" fill="none"/>
    </clipPath>
  </defs>
  <g id="icon-woman" transform="translate(-1082.884 -633.941)">
    <path id="Tracé_1061" data-name="Tracé 1061" d="M-617.283,2992.038v-5.622l.231-4.935,1.469-1.46v-5.2l1.1-12.421,2.981-7.469,4.736-3.929,7.12-.2,4.517,2.211,2.93,4.3,1.434,5.091.869,11.079.764,4.813,1.921,1.734,7.1-2.738h5.6l-1.48,2.5-1.4,5.846-2.187,3.772-3.789,1.672-3.574-.5-1.327-.807-1.632.807-7.809,2.07-11.711-.614Z" transform="translate(1701 -2316)" fill="#fff"/>
    <g id="Groupe_2517" data-name="Groupe 2517" transform="translate(-105.401 -1)">
      <g id="Groupe_2515" data-name="Groupe 2515" transform="translate(1188.285 634.938)">
        <g id="Groupe_2514" data-name="Groupe 2514" transform="translate(0 0.003)" clip-path="url(#clip-path)">
          <path id="Tracé_1052" data-name="Tracé 1052" d="M1.787,41.2h3.33V40.9q0-2.66,0-5.32a.9.9,0,1,1,1.8-.047c0,1.564,0,3.128,0,4.692,0,.316,0,.632,0,.983h.287q6.68,0,13.36,0c.209,0,.418.028.61.042L20.52,43H12.087C11.65,43,11.212,43,10.775,43Q7.488,43,4.2,43,2.915,43,1.629,43a1.561,1.561,0,0,1-1.5-1.016,1.611,1.611,0,0,1-.118-.651c-.008-2.6-.014-5.2,0-7.806a4.269,4.269,0,0,1,1.638-3.383.387.387,0,0,0,.15-.329c.045-2.14.07-4.28.152-6.419q.136-3.543.59-7.063A41.707,41.707,0,0,1,4.065,9.009,16.208,16.208,0,0,1,6.194,4.517,10.2,10.2,0,0,1,8.71,1.957,10.093,10.093,0,0,1,10.61.915,13.879,13.879,0,0,1,17.438.107a10.869,10.869,0,0,1,4.055,1.2,9.928,9.928,0,0,1,2.523,1.93A13.827,13.827,0,0,1,26.63,7.356a26.223,26.223,0,0,1,1.677,5.819,49.866,49.866,0,0,1,.622,5.081c.212,2.791.242,5.586.237,8.382,0,.5,0,1.01-.008,1.514a.283.283,0,0,1-.125.208,3.8,3.8,0,0,0-1.3,1.208c-.26.354-.536.7-.814,1.037a.63.63,0,0,1-.7.213c-.463-.132-.922-.28-1.384-.417-.314-.093-.632-.176-.946-.27a.357.357,0,0,0-.357.068q-2.8,2.171-5.608,4.332c-.57.44-1.139.882-1.711,1.319a.888.888,0,0,1-1.155,0q-2.611-2.01-5.219-4.025c-.711-.549-1.419-1.1-2.135-1.645a.369.369,0,0,0-.274-.057c-1.224.3-2.449.6-3.666.918a2.6,2.6,0,0,0-1.97,2.6q0,3.6,0,7.2V41.2M4.233,17.209a1.008,1.008,0,0,0,.113-.056c.539-.4,1.069-.807,1.618-1.189a7.171,7.171,0,0,0,2.289-2.6A21.126,21.126,0,0,0,9.643,9.81a.89.89,0,0,1,.957-.7c.713.013,1.427.011,2.137.066,1.356.1,2.716.195,4.062.38A14.634,14.634,0,0,1,21.307,10.9a13.736,13.736,0,0,1,4.474,3.284c.331.385.679.754,1.041,1.155a.925.925,0,0,0,0-.113c-.114-.7-.215-1.409-.347-2.109A23.052,23.052,0,0,0,24.85,7.765a12.138,12.138,0,0,0-2.11-3.257,8.138,8.138,0,0,0-4.462-2.458,13.708,13.708,0,0,0-4.515-.134A8.529,8.529,0,0,0,9.209,3.839,9.495,9.495,0,0,0,7.2,6.254a17.915,17.915,0,0,0-1.817,4.607,42.087,42.087,0,0,0-.965,4.913c-.067.466-.123.933-.188,1.435M12.587,10.9c-.41,0-.821.005-1.231,0a.2.2,0,0,0-.233.161c-.127.39-.287.771-.4,1.166s-.335.7-.466,1.074A8.04,8.04,0,0,1,9.014,15.51c-.2.265-.44.5-.65.763a.277.277,0,0,0-.043.213c.107.417.2.839.345,1.245a13.742,13.742,0,0,0,2.36,4.17,10.083,10.083,0,0,0,2.5,2.27,3.8,3.8,0,0,0,3.2.525A5.765,5.765,0,0,0,18.9,23.452a11.606,11.606,0,0,0,2.715-3.68,15.181,15.181,0,0,0,1.551-5.3.468.468,0,0,0-.241-.512c-.181-.109-.346-.245-.52-.367a13.361,13.361,0,0,0-5.143-2.148,39.833,39.833,0,0,0-4.677-.545m14.8,18.272c0-.66,0-1.271,0-1.882.015-2.911-.024-5.821-.226-8.727a.618.618,0,0,0-.148-.335c-.568-.655-1.145-1.3-1.722-1.949-.158-.177-.324-.347-.5-.53-.094.446-.155.874-.277,1.283-.232.779-.456,1.564-.758,2.317a14.242,14.242,0,0,1-3.578,5.363.357.357,0,0,0-.1.24c.005.389.023.778.046,1.166a1.539,1.539,0,0,0,1.073,1.47c.5.184,1,.377,1.495.564a.766.766,0,0,0,.658.071.426.426,0,0,1,.256,0c.428.092.856.184,1.28.293.826.212,1.649.435,2.5.661M6.752,17.6c-.226.159-.439.309-.651.46a11.974,11.974,0,0,0-1.984,1.811.743.743,0,0,0-.195.484c-.023.442-.073.883-.091,1.325q-.119,2.97-.224,5.94c-.018.523,0,1.048,0,1.587.052-.008.108-.012.161-.026,1.236-.308,2.472-.619,3.71-.923a.882.882,0,0,1,.424-.03.939.939,0,0,0,.6-.074c.122-.043.247-.081.366-.13.5-.2,1.006-.393,1.492-.625a1.269,1.269,0,0,0,.653-.823,6.788,6.788,0,0,0,.171-1.845.308.308,0,0,0-.1-.175c-.481-.513-.987-1-1.445-1.537a14.334,14.334,0,0,1-1.682-2.5A14.029,14.029,0,0,1,6.752,17.6m14.6,12.006-.525-.234c-.454-.2-.918-.38-1.36-.6A1.889,1.889,0,0,1,18.445,27.4c-.046-.225-.077-.454-.1-.683s-.038-.451-.058-.7a5.479,5.479,0,0,1-5.312-.113c-.04.375-.076.7-.109,1.03a2.487,2.487,0,0,1-1.391,2.037,9.177,9.177,0,0,1-1.172.452c-.143.052-.292.087-.48.142.109.1.176.175.255.234.8.6,1.6,1.195,2.393,1.8q1.519,1.161,3.024,2.341a.18.18,0,0,0,.274-.005,10.881,10.881,0,0,1,1.353-1.089c.437-.259.757-.647,1.2-.9a9.6,9.6,0,0,0,1.069-.807c.651-.505,1.3-1.012,1.964-1.528" transform="translate(0 -0.003)"/>
        </g>
      </g>
      <g id="Groupe_2516" data-name="Groupe 2516" transform="translate(-7.85 -6.376)">
        <path id="Tracé_1055" data-name="Tracé 1055" d="M-443.885,2984.448c-12-1.413-19.525,5.829-14.513,11.928,4.271,4.125,11.109.643,11.109-4.293A10.927,10.927,0,0,1-443.885,2984.448Z" transform="translate(1684 -2315.736)" fill="none" stroke="#000" stroke-width="1.5"/>
        <path id="Tracé_1056" data-name="Tracé 1056" d="M-459.6,3000.053s.961-6.868,9.866-12.174" transform="translate(1684 -2315.736)" fill="none" stroke="#000" stroke-linecap="round" stroke-width="1.5"/>
      </g>
    </g>
  </g>
</svg>
