<svg id="icon-globe" xmlns="http://www.w3.org/2000/svg" xmlns:xlink="http://www.w3.org/1999/xlink" width="43.065" height="43.059" viewBox="0 0 43.065 43.059">
  <defs>
    <clipPath id="clip-path">
      <rect id="Rectangle_49" data-name="Rectangle 49" width="43.065" height="43.059" fill="none"/>
    </clipPath>
  </defs>
  <g id="Groupe_2499" data-name="Groupe 2499" clip-path="url(#clip-path)">
    <path id="Tracé_1035" data-name="Tracé 1035" d="M184.469,47.742a1.385,1.385,0,0,0,.963,1.01,7.261,7.261,0,0,0,1.438.234.811.811,0,0,1,.776.615,6.406,6.406,0,0,1,.294,4.119,4.606,4.606,0,0,0-.288,1.551c.087.856.8,1.5,1.157,2.286a4.089,4.089,0,0,1,.241,2.267l-.007.007a20.664,20.664,0,0,1-6.124,6.646,13.163,13.163,0,0,0-.441-4,5.429,5.429,0,0,0-3.169-3.664c-1.016-.348-2.213-.314-3.022-1.03-.421-.374-.7-.923-1.19-1.183a3.018,3.018,0,0,0-1.123-.241,4.309,4.309,0,0,1-3.483-1.832,4.647,4.647,0,0,1,.02-3.65,9.992,9.992,0,0,0,.849-3.637,2.258,2.258,0,0,1,.16-1.538,1.62,1.62,0,0,1,.528-.421c.9-.535,1.892-.415,2.788-.95.889.428,2.019.194,2.527,1.043.16.261.267.562.455.809a3.173,3.173,0,0,0,1.658.943,1.419,1.419,0,0,0,.642.094,1.081,1.081,0,0,0,.735-1.1c.027-1.424-1.417-2.481-2.821-2.741s-2.855,0-4.272-.174a2.971,2.971,0,0,1-1.571-.568,1.441,1.441,0,0,1-.542-1.5c.321-1,1.738-1.07,2.474-1.812a4.723,4.723,0,0,0,.655-1.03,12.456,12.456,0,0,1,2.828-3.129,4.683,4.683,0,0,1,1.177-.842c.475-.214,1.01-.268,1.471-.5a3.247,3.247,0,0,0,1.457-1.979h.007A20.71,20.71,0,0,1,188.24,38v.007a7.75,7.75,0,0,1-2.12,2.641.494.494,0,0,0-.16.174c-.073.174.087.361.247.461a4.263,4.263,0,0,0,2.4.461c.542-.007,1.083-.027,1.625-.047a19.889,19.889,0,0,1,1.23,4.172c-.334.14-.669.288-1.01.408a6.953,6.953,0,0,1-2.668.388,9.989,9.989,0,0,0-1.839-.074c-.615.087-1.565.542-1.478,1.15" transform="translate(-149.671 -28.021)" fill="#fff"/>
    <path id="Tracé_1036" data-name="Tracé 1036" d="M176.005,60.494a.947.947,0,0,1-.947-.956,12.458,12.458,0,0,0-.4-3.712,4.464,4.464,0,0,0-2.573-3.046,7.836,7.836,0,0,0-.942-.231,4.861,4.861,0,0,1-2.4-.984,5.09,5.09,0,0,1-.549-.595,2,2,0,0,0-.456-.461,2.028,2.028,0,0,0-.644-.123l-.135-.013a5.119,5.119,0,0,1-4.217-2.319,5.406,5.406,0,0,1-.049-4.4c.072-.218.147-.431.222-.645a7.073,7.073,0,0,0,.582-2.643c0-.077-.012-.159-.02-.242a2.6,2.6,0,0,1,.372-1.925,2.469,2.469,0,0,1,.8-.664,4.431,4.431,0,0,1,1.224-.48,3.276,3.276,0,0,1-1.21-.616,2.358,2.358,0,0,1-.837-2.518,2.982,2.982,0,0,1,1.857-1.7,3.126,3.126,0,0,0,.844-.49,2.713,2.713,0,0,0,.363-.572c.047-.087.093-.173.141-.258a13.323,13.323,0,0,1,3.026-3.373,5.491,5.491,0,0,1,1.422-1,5.546,5.546,0,0,1,.822-.276,3.419,3.419,0,0,0,.6-.2,2.327,2.327,0,0,0,.99-1.44.946.946,0,0,1,.9-.641.971.971,0,0,1,.492.134,21.794,21.794,0,0,1,6.823,6.432.946.946,0,0,1,.164.532.976.976,0,0,1-.1.423,8.745,8.745,0,0,1-1.655,2.316,5.965,5.965,0,0,0,.954.059h.21c.518-.006,1.04-.026,1.561-.045a1,1,0,0,1,.944.579,20.869,20.869,0,0,1,1.289,4.371.947.947,0,0,1-.566,1.04l-.189.08c-.288.122-.578.244-.871.347a7.845,7.845,0,0,1-3.032.441c-.2-.011-.4-.03-.6-.05a4.63,4.63,0,0,0-1.066-.031,1.655,1.655,0,0,0-.556.2.866.866,0,0,0,.24.13,3.743,3.743,0,0,0,.8.136c.146.015.293.03.44.05a1.9,1.9,0,0,1,.869.31,1.927,1.927,0,0,1,.655.886,7.327,7.327,0,0,1,.332,4.719c-.029.109-.061.221-.094.334a2.74,2.74,0,0,0-.166.891,2.648,2.648,0,0,0,.51,1.015,6.856,6.856,0,0,1,.566.965,5.076,5.076,0,0,1,.317,2.777.948.948,0,0,1-.156.413,21.76,21.76,0,0,1-6.374,6.9.947.947,0,0,1-.539.168m-8.031-22.057a6.566,6.566,0,0,1-1.244.365,3.671,3.671,0,0,0-1.112.363,1.554,1.554,0,0,0-.247.163,1.755,1.755,0,0,0-.007.625c.009.1.018.2.024.3a8.578,8.578,0,0,1-.685,3.385c-.071.2-.143.407-.21.61a3.7,3.7,0,0,0-.091,2.893c.563,1.029,2.11,1.286,2.749,1.349l.128.013a3.477,3.477,0,0,1,1.345.333,3.433,3.433,0,0,1,1.032.93,3.587,3.587,0,0,0,.344.382,3.324,3.324,0,0,0,1.52.546,9.386,9.386,0,0,1,1.18.3,6.341,6.341,0,0,1,3.768,4.284,11.176,11.176,0,0,1,.43,2.4,19.867,19.867,0,0,0,4.319-5.091,2.963,2.963,0,0,0-.186-1.564,5.264,5.264,0,0,0-.417-.7,4.114,4.114,0,0,1-.819-1.885,4.21,4.21,0,0,1,.232-1.6c.028-.1.056-.195.082-.292a5.437,5.437,0,0,0-.25-3.508L179.841,43h-.007c-.131-.018-.257-.031-.382-.044a5.249,5.249,0,0,1-1.248-.237,2.306,2.306,0,0,1-1.585-1.772,1.547,1.547,0,0,1,.317-1.163,3.155,3.155,0,0,1,1.965-1.054,6.515,6.515,0,0,1,1.5.023c.173.017.345.034.518.043a6.14,6.14,0,0,0,2.3-.335q.123-.044.245-.092a19.009,19.009,0,0,0-.782-2.627c-.332.011-.657.02-.981.024h-.23a4.776,4.776,0,0,1-2.7-.617,1.32,1.32,0,0,1-.6-1.623,1.4,1.4,0,0,1,.437-.54,6.828,6.828,0,0,0,1.606-1.844,19.934,19.934,0,0,0-5-4.836,3.475,3.475,0,0,1-1.451,1.442,4.959,4.959,0,0,1-.952.339,2.757,2.757,0,0,0-1.493.867,11.715,11.715,0,0,0-2.63,2.882l-.123.226a4.188,4.188,0,0,1-.682,1.005,4.561,4.561,0,0,1-1.4.879c-.388.18-.789.366-.852.561a.548.548,0,0,0,.234.47,2.054,2.054,0,0,0,1.09.366,9.39,9.39,0,0,0,1.159.058c.22,0,.44,0,.66-.007s.461-.007.69-.007a10.022,10.022,0,0,1,1.824.14c1.814.337,3.632,1.712,3.595,3.689a2.008,2.008,0,0,1-1.509,2.009,1.823,1.823,0,0,1-.3.026,2.572,2.572,0,0,1-.806-.149,4,4,0,0,1-2.123-1.274,3.779,3.779,0,0,1-.366-.622c-.044-.088-.087-.177-.138-.26-.1-.163-.333-.221-.851-.317a7,7,0,0,1-.818-.189m2.743-1.089a2.141,2.141,0,0,1,.544.613c.074.119.144.257.213.395a2.372,2.372,0,0,0,.184.329,2.487,2.487,0,0,0,1.188.611l.12.036a.479.479,0,0,0,.026-.149c.017-.874-1.05-1.612-2.048-1.8q-.114-.021-.228-.037" transform="translate(-142.758 -21.092)" fill="#333"/>
    <path id="Tracé_1037" data-name="Tracé 1037" d="M22.584,28.535c-.562.254-1.284.267-1.645.762-.381.528-.12,1.257.087,1.879s.234,1.471-.354,1.758c-.468.227-1.05-.074-1.531.114-.368.134-.582.508-.842.8-1.056,1.2-3.116,1.33-3.838,2.755a5.589,5.589,0,0,0-.348,2.086,7.675,7.675,0,0,1-.622,2.44.869.869,0,0,1-.261.388.86.86,0,0,1-.956-.1c-.782-.528-1.451-1.571-2.373-1.357-.876.2-1.056,1.444-.682,2.267s1.564,1.524,2.153,2.213c1.043,1.23,0,3.4-1.819,4.5A20.6,20.6,0,0,1,20.257,22a2.588,2.588,0,0,0,.782,2.6,7.636,7.636,0,0,0,2.534,1.424,2,2,0,0,1-.989,2.507" transform="translate(-6.928 -19.358)" fill="#fff"/>
    <path id="Tracé_1038" data-name="Tracé 1038" d="M2.625,43.058a.946.946,0,0,1-.869-.572,21.552,21.552,0,0,1,11.2-28.28.946.946,0,0,1,1.269,1.187A1.664,1.664,0,0,0,14.774,17a6.776,6.776,0,0,0,2.2,1.212,1.021,1.021,0,0,1,.543.519,2.952,2.952,0,0,1-1.479,3.743,5.086,5.086,0,0,1-.711.242,1.793,1.793,0,0,0-.552.212c-.083.114.124.732.2.965l.022.065c.421,1.307.091,2.444-.84,2.9a2.462,2.462,0,0,1-1.291.162C12.733,27,12.547,27,12.545,27a1.943,1.943,0,0,0-.25.282c-.071.089-.142.178-.217.262a6.294,6.294,0,0,1-2.093,1.4A3.308,3.308,0,0,0,8.377,30.1a3.394,3.394,0,0,0-.217,1.262c-.009.16-.018.319-.032.476a8.574,8.574,0,0,1-.7,2.744,1.726,1.726,0,0,1-.564.766,1.5,1.5,0,0,1-.905.294,2.109,2.109,0,0,1-1.13-.363,6.973,6.973,0,0,1-.788-.645c-.273-.248-.647-.587-.823-.587-.14.065-.249.554-.066.956A4.521,4.521,0,0,0,4.2,36.094a8.552,8.552,0,0,1,.959.9,2.839,2.839,0,0,1,.6,2.34,5.485,5.485,0,0,1-2.646,3.586.946.946,0,0,1-.489.136m-.54-6.341a19.5,19.5,0,0,0,.952,3.859,3.107,3.107,0,0,0,.854-1.546.959.959,0,0,0-.169-.806,7.275,7.275,0,0,0-.744-.689,11.256,11.256,0,0,1-.892-.818m1.133-4.56a3.2,3.2,0,0,1,2.095,1.077c.162.147.317.288.463.4a6.756,6.756,0,0,0,.466-1.953c.012-.138.019-.28.028-.421a4.892,4.892,0,0,1,.418-2.01A4.812,4.812,0,0,1,9.163,27.24a4.772,4.772,0,0,0,1.5-.946c.053-.06.1-.123.153-.186a2.46,2.46,0,0,1,1.076-.879,2.665,2.665,0,0,1,1.148-.1c.08.007.161.015.24.016a1.484,1.484,0,0,0-.079-.611,2.905,2.905,0,0,1,.046-2.723,2.684,2.684,0,0,1,1.566-.921,3.6,3.6,0,0,0,.457-.15,1.073,1.073,0,0,0,.569-.954,7.417,7.417,0,0,1-2.384-1.436,3.96,3.96,0,0,1-1.063-1.779A19.642,19.642,0,0,0,1.938,32.624a1.9,1.9,0,0,1,.823-.415,2.017,2.017,0,0,1,.457-.052" transform="translate(0 -12.428)" fill="#333"/>
    <path id="Tracé_1039" data-name="Tracé 1039" d="M48.661,45.382a20.6,20.6,0,0,1-20.82,1.538c.475-.682.956-1.364,1.431-2.046a5.066,5.066,0,0,0,.989-1.979c.147-.876-.167-1.792.027-2.661.207-.923.983-1.792.715-2.7-.214-.742-1.016-1.11-1.651-1.545-.8-.555-1.424-1.337-2.233-1.885a2.48,2.48,0,0,0-2.741-.247,8.727,8.727,0,0,0-1.163,1.391,4.551,4.551,0,0,0-.776.829,7.114,7.114,0,0,0-.307,1.752c-.261,1.043-1.3,1.638-2.273,2.106A20.745,20.745,0,0,1,18.04,36.61c1.819-1.1,2.862-3.269,1.819-4.5-.588-.689-1.772-1.391-2.153-2.213s-.194-2.066.682-2.267c.923-.214,1.591.829,2.374,1.357a.708.708,0,0,0,1.217-.288,7.675,7.675,0,0,0,.622-2.44,5.587,5.587,0,0,1,.348-2.086c.722-1.424,2.781-1.558,3.838-2.755.261-.294.475-.669.842-.8.481-.187,1.063.114,1.531-.114.588-.288.555-1.137.354-1.758s-.468-1.351-.087-1.879c.361-.495,1.083-.508,1.645-.762a2,2,0,0,0,.99-2.507,7.635,7.635,0,0,1-2.534-1.424,2.588,2.588,0,0,1-.782-2.6h.007a20.6,20.6,0,0,1,18.7,1.183,3.247,3.247,0,0,1-1.458,1.979c-.461.234-1,.288-1.471.5a4.679,4.679,0,0,0-1.177.842,12.456,12.456,0,0,0-2.828,3.129,4.723,4.723,0,0,1-.655,1.03c-.735.742-2.153.816-2.474,1.812a1.441,1.441,0,0,0,.541,1.5,2.97,2.97,0,0,0,1.571.568c1.417.174,2.868-.087,4.272.174s2.848,1.317,2.821,2.741a1.081,1.081,0,0,1-.735,1.1,1.417,1.417,0,0,1-.642-.094,3.172,3.172,0,0,1-1.658-.943c-.187-.247-.294-.548-.455-.809a2.088,2.088,0,0,0-.384-.462,3.237,3.237,0,0,0-3.835-.288l-1.1.656a1.62,1.62,0,0,0-.528.421,2.258,2.258,0,0,0-.16,1.538,9.993,9.993,0,0,1-.849,3.637,4.647,4.647,0,0,0-.02,3.65,4.309,4.309,0,0,0,3.484,1.832,3.02,3.02,0,0,1,1.123.241c.495.261.769.809,1.19,1.183.809.715,2.006.682,3.022,1.03a5.429,5.429,0,0,1,3.169,3.664,13.165,13.165,0,0,1,.441,4" transform="translate(-15.415 -6.928)" fill="#fff"/>
    <path id="Tracé_1040" data-name="Tracé 1040" d="M30.022,43.059A21.32,21.32,0,0,1,20.5,40.841a.947.947,0,0,1-.358-1.389l1.431-2.046a4.385,4.385,0,0,0,.834-1.6,4.47,4.47,0,0,0-.01-1.03,5.48,5.48,0,0,1,.046-1.676,5.971,5.971,0,0,1,.429-1.161,1.974,1.974,0,0,0,.3-1.066c-.076-.263-.484-.521-.879-.771-.136-.086-.27-.171-.4-.259a10.575,10.575,0,0,1-1.209-1.019,8.714,8.714,0,0,0-1.021-.864A1.625,1.625,0,0,0,18,27.7a2.472,2.472,0,0,0-.5.6,6.027,6.027,0,0,1-.516.668c-.109.114-.215.213-.323.31a1.8,1.8,0,0,0-.322.338,1.874,1.874,0,0,0-.1.636,4.712,4.712,0,0,1-.116.885c-.4,1.583-2.007,2.356-2.781,2.727a.948.948,0,0,1-1.194-.325,21.762,21.762,0,0,1-1.9-3.474.947.947,0,0,1,.38-1.188A3.67,3.67,0,0,0,12.38,26.6a.959.959,0,0,0-.169-.806,7.275,7.275,0,0,0-.744-.689,5.6,5.6,0,0,1-1.545-1.738,3.033,3.033,0,0,1,0-2.509,1.963,1.963,0,0,1,1.33-1.079,2.024,2.024,0,0,1,.457-.052A3.2,3.2,0,0,1,13.8,20.806c.162.147.317.288.463.4a6.756,6.756,0,0,0,.466-1.954c.012-.138.019-.28.028-.421a4.893,4.893,0,0,1,.418-2.01,4.812,4.812,0,0,1,2.475-2.008,4.77,4.77,0,0,0,1.5-.946c.053-.06.1-.123.153-.186a2.461,2.461,0,0,1,1.076-.879,2.665,2.665,0,0,1,1.148-.1c.08.007.161.015.24.016a1.484,1.484,0,0,0-.079-.611,2.905,2.905,0,0,1,.046-2.723A2.684,2.684,0,0,1,23.3,8.465a3.6,3.6,0,0,0,.457-.15,1.073,1.073,0,0,0,.569-.954,7.423,7.423,0,0,1-2.384-1.436,3.493,3.493,0,0,1-1.014-3.6.947.947,0,0,1,.583-.576,21.553,21.553,0,0,1,19.5,1.265.947.947,0,0,1,.411,1.119,4.089,4.089,0,0,1-1.927,2.518,4.951,4.951,0,0,1-.952.339,3.98,3.98,0,0,0-.556.181,3.981,3.981,0,0,0-.937.687,11.715,11.715,0,0,0-2.63,2.882l-.123.226a4.188,4.188,0,0,1-.682,1.005,4.559,4.559,0,0,1-1.4.879c-.388.18-.789.366-.852.561a.547.547,0,0,0,.234.47,2.053,2.053,0,0,0,1.09.366,9.415,9.415,0,0,0,1.159.058c.22,0,.44,0,.66-.007s.461-.007.691-.007a10.021,10.021,0,0,1,1.824.14c1.814.337,3.632,1.712,3.595,3.689a2.007,2.007,0,0,1-1.509,2.009,1.81,1.81,0,0,1-.3.026A2.576,2.576,0,0,1,38,20.006a4,4,0,0,1-2.124-1.274,3.8,3.8,0,0,1-.366-.622c-.044-.088-.087-.177-.138-.26a1.168,1.168,0,0,0-.218-.261,2.343,2.343,0,0,0-2.709-.173l-1.1.657a1.564,1.564,0,0,0-.246.163,1.765,1.765,0,0,0-.007.625c.009.1.018.2.024.3a8.578,8.578,0,0,1-.685,3.385c-.071.2-.143.407-.21.609a3.706,3.706,0,0,0-.091,2.894c.564,1.029,2.11,1.286,2.749,1.349l.128.013a3.476,3.476,0,0,1,1.345.333,3.433,3.433,0,0,1,1.032.931,3.6,3.6,0,0,0,.344.382,3.325,3.325,0,0,0,1.52.546,9.362,9.362,0,0,1,1.18.3A6.341,6.341,0,0,1,42.2,34.181a14.176,14.176,0,0,1,.482,4.283.947.947,0,0,1-.407.769,21.389,21.389,0,0,1-12.254,3.826m-7.681-3.452a19.668,19.668,0,0,0,18.45-1.655,11.393,11.393,0,0,0-.4-3.218,4.465,4.465,0,0,0-2.573-3.046,7.862,7.862,0,0,0-.943-.231,4.862,4.862,0,0,1-2.4-.984,5.091,5.091,0,0,1-.549-.595,2,2,0,0,0-.456-.461,2.025,2.025,0,0,0-.644-.123l-.135-.013a5.119,5.119,0,0,1-4.217-2.319,5.406,5.406,0,0,1-.049-4.4c.072-.218.147-.431.222-.645a7.072,7.072,0,0,0,.582-2.643c0-.077-.012-.159-.02-.242a2.6,2.6,0,0,1,.373-1.925,2.475,2.475,0,0,1,.8-.664l.951-.569a3.129,3.129,0,0,1-.937-.528,2.358,2.358,0,0,1-.837-2.518,2.983,2.983,0,0,1,1.857-1.7,3.122,3.122,0,0,0,.845-.49,2.716,2.716,0,0,0,.363-.572c.047-.087.093-.173.141-.258A13.325,13.325,0,0,1,35.8,6.441a5.489,5.489,0,0,1,1.422-1,5.531,5.531,0,0,1,.822-.276,3.418,3.418,0,0,0,.6-.2,1.662,1.662,0,0,0,.685-.728,19.668,19.668,0,0,0-16.669-.913,1.915,1.915,0,0,0,.607,1.247,6.774,6.774,0,0,0,2.2,1.211,1.021,1.021,0,0,1,.543.519,2.952,2.952,0,0,1-1.479,3.743,5.087,5.087,0,0,1-.711.243,1.79,1.79,0,0,0-.552.212c-.083.114.124.732.2.965l.022.066c.421,1.306.091,2.444-.84,2.9a2.461,2.461,0,0,1-1.291.161c-.135-.012-.321-.013-.324-.012a1.952,1.952,0,0,0-.25.282c-.071.089-.142.178-.216.262a6.3,6.3,0,0,1-2.094,1.4,3.308,3.308,0,0,0-1.608,1.158,3.394,3.394,0,0,0-.217,1.262c-.009.16-.018.319-.032.476a8.574,8.574,0,0,1-.7,2.744,1.726,1.726,0,0,1-.564.766,1.5,1.5,0,0,1-.905.294,2.109,2.109,0,0,1-1.13-.363,6.948,6.948,0,0,1-.788-.645c-.273-.248-.647-.587-.823-.587-.14.065-.249.554-.066.956a4.521,4.521,0,0,0,1.053,1.087,8.552,8.552,0,0,1,.959.9,2.839,2.839,0,0,1,.6,2.34A5.246,5.246,0,0,1,12.3,30a19.9,19.9,0,0,0,.959,1.761,2.014,2.014,0,0,0,1.027-1.094,3.207,3.207,0,0,0,.062-.543,2.69,2.69,0,0,1,1.037-2.256c.074-.067.148-.134.217-.206a4.562,4.562,0,0,0,.344-.455,3.977,3.977,0,0,1,.961-1.057,3.437,3.437,0,0,1,3.817.238,10.3,10.3,0,0,1,1.252,1.048,9.033,9.033,0,0,0,.989.842c.106.073.222.146.338.219a3.388,3.388,0,0,1,1.684,1.841,3.327,3.327,0,0,1-.4,2.379,4.464,4.464,0,0,0-.306.791,3.955,3.955,0,0,0-.006,1.109,6,6,0,0,1-.011,1.5,5.894,5.894,0,0,1-1.149,2.367ZM36.509,16.264a2.992,2.992,0,0,1,.483.6c.073.119.143.256.212.394a2.347,2.347,0,0,0,.184.329,2.486,2.486,0,0,0,1.188.611l.12.036a.482.482,0,0,0,.027-.149c.017-.874-1.05-1.612-2.048-1.8l-.166-.028" transform="translate(-8.489)" fill="#333"/>
    <path id="Tracé_1041" data-name="Tracé 1041" d="M306.051,86.772c-.542.02-1.083.04-1.625.047a4.263,4.263,0,0,1-2.4-.461c-.16-.1-.321-.288-.247-.461a.5.5,0,0,1,.16-.174,7.752,7.752,0,0,0,2.119-2.641,20,20,0,0,1,1.992,3.691" transform="translate(-265.49 -73.095)" fill="#bce4f1"/>
    <path id="Tracé_1042" data-name="Tracé 1042" d="M297.279,80.841a4.776,4.776,0,0,1-2.7-.616,1.32,1.32,0,0,1-.6-1.623,1.4,1.4,0,0,1,.437-.54,6.822,6.822,0,0,0,1.864-2.322.946.946,0,0,1,.783-.528.959.959,0,0,1,.849.412A21.027,21.027,0,0,1,300,79.489a.946.946,0,0,1-.841,1.3c-.573.021-1.111.041-1.648.047Zm-.955-1.952a5.964,5.964,0,0,0,.955.059h.21l.184,0q-.252-.5-.536-1a8.739,8.739,0,0,1-.813.94" transform="translate(-258.561 -66.17)" fill="#333"/>
    <path id="Tracé_1043" data-name="Tracé 1043" d="M294.048,162.451a4.091,4.091,0,0,0-.241-2.267c-.354-.782-1.07-1.431-1.157-2.287a4.614,4.614,0,0,1,.288-1.551,6.4,6.4,0,0,0-.294-4.119.811.811,0,0,0-.776-.615,7.256,7.256,0,0,1-1.437-.234,1.385,1.385,0,0,1-.963-1.01c-.087-.608.862-1.063,1.478-1.15a9.989,9.989,0,0,1,1.839.074,6.953,6.953,0,0,0,2.668-.388c.341-.12.675-.267,1.01-.408a20.915,20.915,0,0,1,.328,3.684,20.479,20.479,0,0,1-2.741,10.27" transform="translate(-254.67 -130.648)" fill="#fff"/>
    <path id="Tracé_1044" data-name="Tracé 1044" d="M287.115,156.467a.946.946,0,0,1-.939-1.067,3.153,3.153,0,0,0-.164-1.755,5.275,5.275,0,0,0-.417-.7,4.115,4.115,0,0,1-.819-1.885,4.21,4.21,0,0,1,.232-1.6c.028-.1.056-.195.082-.292a5.439,5.439,0,0,0-.25-3.508l-.019-.046h-.007c-.131-.018-.257-.031-.382-.044a5.252,5.252,0,0,1-1.248-.237,2.307,2.307,0,0,1-1.585-1.772,1.547,1.547,0,0,1,.317-1.163,3.154,3.154,0,0,1,1.965-1.054,6.509,6.509,0,0,1,1.5.022c.173.017.345.034.518.043a6.14,6.14,0,0,0,2.3-.335c.259-.092.511-.2.764-.306l.2-.083a.947.947,0,0,1,1.3.706,21.914,21.914,0,0,1,.343,3.851,21.508,21.508,0,0,1-2.868,10.743.946.946,0,0,1-.82.473m-3.535-13.039a.868.868,0,0,0,.24.13,3.746,3.746,0,0,0,.8.136c.146.015.293.03.44.05a1.9,1.9,0,0,1,.869.31,1.927,1.927,0,0,1,.655.886,7.329,7.329,0,0,1,.332,4.719c-.029.109-.061.221-.094.334a2.742,2.742,0,0,0-.166.89,2.651,2.651,0,0,0,.51,1.015c.118.178.247.37.366.578a19.674,19.674,0,0,0,1.373-7.225,19.953,19.953,0,0,0-.141-2.361,7.891,7.891,0,0,1-2.967.418c-.2-.011-.4-.03-.6-.05a4.622,4.622,0,0,0-1.065-.031,1.657,1.657,0,0,0-.556.2" transform="translate(-247.737 -123.718)" fill="#333"/>
    <path id="Tracé_1045" data-name="Tracé 1045" d="M47.37,230.759a5.07,5.07,0,0,1-.989,1.979c-.475.682-.956,1.364-1.431,2.046a20.716,20.716,0,0,1-7.983-6.987c.976-.468,2.013-1.063,2.273-2.106a7.119,7.119,0,0,1,.308-1.752,4.55,4.55,0,0,1,.776-.829,8.727,8.727,0,0,1,1.163-1.391,2.48,2.48,0,0,1,2.741.247c.809.548,1.431,1.331,2.233,1.885.635.435,1.437.8,1.651,1.545.268.909-.508,1.779-.715,2.7-.194.869.12,1.785-.027,2.661" transform="translate(-32.524 -194.791)" fill="#fff"/>
    <path id="Tracé_1046" data-name="Tracé 1046" d="M38.022,228.912a.941.941,0,0,1-.419-.1,21.663,21.663,0,0,1-8.348-7.306.947.947,0,0,1,.376-1.382c.822-.394,1.605-.847,1.764-1.482a3.185,3.185,0,0,0,.062-.543,2.692,2.692,0,0,1,1.037-2.256c.074-.067.148-.134.217-.205a4.583,4.583,0,0,0,.344-.455,3.972,3.972,0,0,1,.961-1.057,3.438,3.438,0,0,1,3.817.238,10.3,10.3,0,0,1,1.251,1.048,9.045,9.045,0,0,0,.989.842c.106.073.222.146.338.219a3.388,3.388,0,0,1,1.684,1.841,3.326,3.326,0,0,1-.4,2.379,4.471,4.471,0,0,0-.306.792,3.96,3.96,0,0,0-.006,1.109,6,6,0,0,1-.011,1.5,5.894,5.894,0,0,1-1.149,2.367L38.8,228.506a.947.947,0,0,1-.778.406m-6.587-7.606a19.774,19.774,0,0,0,6.287,5.436l.953-1.363a4.388,4.388,0,0,0,.834-1.6,4.46,4.46,0,0,0-.01-1.031,5.485,5.485,0,0,1,.046-1.676,5.983,5.983,0,0,1,.43-1.161,1.974,1.974,0,0,0,.3-1.066c-.076-.263-.484-.521-.879-.771-.136-.086-.27-.171-.4-.259A10.6,10.6,0,0,1,37.79,216.8a8.7,8.7,0,0,0-1.021-.864,1.633,1.633,0,0,0-1.66-.261,2.473,2.473,0,0,0-.5.6,6.012,6.012,0,0,1-.516.668c-.108.114-.215.213-.323.31a1.8,1.8,0,0,0-.322.338,1.871,1.871,0,0,0-.1.636,4.705,4.705,0,0,1-.116.886,3.762,3.762,0,0,1-1.795,2.2" transform="translate(-25.596 -187.973)" fill="#333"/>
  </g>
</svg>
