<svg xmlns="http://www.w3.org/2000/svg" xmlns:xlink="http://www.w3.org/1999/xlink" width="36.211" height="43" viewBox="0 0 36.211 43">
  <defs>
    <clipPath id="clip-path">
      <rect id="Rectangle_50" data-name="Rectangle 50" width="36.211" height="43" transform="translate(0 0)" fill="none"/>
    </clipPath>
  </defs>
  <g id="icon-farmer" transform="translate(0 -0.002)">
    <path id="Tracé_1057" data-name="Tracé 1057" d="M-1058.064,2757.969v-5.141l3.177-5.372,4.716-2.826s3.175-1.48,3.225-1.611-1.971-3.274-1.971-3.274l.381-3.47v-2.586l-5.028-.88-3.612-1.213-.888-2.344,2.142-1.8,6.027-.825,1.144-.674.495-4.769s3.269-3.278,3.408-3.333,3.26-1.127,3.26-1.127l3.575.523,2.531,1.569,1.847,2.369.779,2.76a11.4,11.4,0,0,0,0,2.295c.153-.244,2.9.559,2.9.559l4.038,1.239,1.861,1.213-.7,2.53-5.584,1.51-2.514.4v2.936l-.779,4.379-1.542,2.653,5.712,2.139,2.924,2.532,2.48,4.259.453,3.208v1.834Z" transform="translate(1058.98 -2715.845)" fill="#fff"/>
    <g id="Groupe_2507" data-name="Groupe 2507" transform="translate(0 0.002)" clip-path="url(#clip-path)">
      <path id="Tracé_1047" data-name="Tracé 1047" d="M26.852,27.466l-1.369-.407A9.016,9.016,0,0,0,27.158,21.5V18.639c4.82-.69,9.053-2.047,9.053-4.492,0-2.591-4.708-3.87-9.053-4.493v-.6a9.053,9.053,0,0,0-18.106,0v.6C4.708,10.277,0,11.556,0,14.147c0,2.444,4.232,3.8,9.053,4.492V21.5a8.971,8.971,0,0,0,1.675,5.545l-1.369.419a13.09,13.09,0,0,0-8.351,7.559A13.025,13.025,0,0,0,0,40.06v1.81A1.135,1.135,0,0,0,1.132,43H35.079a1.135,1.135,0,0,0,1.132-1.131V40.06a13.107,13.107,0,0,0-3.847-9.3,13.374,13.374,0,0,0-5.511-3.293M11.316,9.055a6.8,6.8,0,0,1,6.789-6.79,6.8,6.8,0,0,1,6.79,6.79v2.852a40.389,40.389,0,0,1-6.79.543,40.352,40.352,0,0,1-6.789-.543ZM2.252,14.192c.181-.453,2.082-1.539,6.8-2.263v.9a1.138,1.138,0,0,0,.894,1.109,40.534,40.534,0,0,0,8.159.77,40.531,40.531,0,0,0,8.159-.77,1.137,1.137,0,0,0,.894-1.109v-.905c4.718.725,6.62,1.811,6.8,2.173-.4,1-6.19,2.874-15.853,2.874S2.648,15.1,2.252,14.192m15.853,14.1a8.06,8.06,0,0,1-4.979-1.924,6.453,6.453,0,0,1-1.81-4.865V18.911c2.387.237,4.8.328,6.789.328s4.4-.091,6.79-.328V21.5c0,6.552-6.1,6.79-6.79,6.79m6.224.792v6H11.882V29.072l.735-.226a10.767,10.767,0,0,0,5.488,1.709,10.071,10.071,0,0,0,5.477-1.7ZM2.263,40.739V40.06a11.027,11.027,0,0,1,.826-4.175,11.442,11.442,0,0,1,1.437-2.467v7.321Zm27.158,0H6.79V31.234a10.635,10.635,0,0,1,2.829-1.46v6.438a1.135,1.135,0,0,0,1.132,1.132H25.461a1.135,1.135,0,0,0,1.132-1.131V29.774a10.636,10.636,0,0,1,2.829,1.46Zm4.526,0H31.684V33.417a10.769,10.769,0,0,1,2.263,6.643Z" transform="translate(0 -0.002)" fill="#100e0c" fill-rule="evenodd"/>
    </g>
  </g>
</svg>
