<svg xmlns="http://www.w3.org/2000/svg" width="69.319" height="61.864" viewBox="0 0 69.319 61.864">
  <g id="icon-label" transform="translate(-84.256 -647)">
    <g id="Tracé_1017" data-name="Tracé 1017" transform="translate(110.962 669.86) rotate(45)" fill="#fff">
      <path d="M 16.39314460754395 35.80723190307617 L 9.07408332824707 30.49820137023926 L 8.472543716430664 30.06186103820801 L 7.881233215332031 30.51197052001953 L 0.9999938011169434 35.75002670288086 L 1.000002980232239 1.000001192092896 L 16.39315223693848 1.000001192092896 L 16.39314460754395 35.80723190307617 Z" stroke="none"/>
      <path d="M 15.39315223693848 1.999992370605469 L 2.000002861022949 2 L 1.999994277954102 33.7320556640625 L 8.458163261413574 28.8160514831543 L 15.39314460754395 33.84647750854492 L 15.39315223693848 1.999992370605469 M 17.39315414428711 -7.62939453125e-06 L 17.39314270019531 37.76798248291016 L 8.486923217773438 31.30767059326172 L -7.62939453125e-06 37.76798248291016 L 3.814697265625e-06 0 L 17.39315414428711 -7.62939453125e-06 Z" stroke="none" fill="#000"/>
    </g>
    <g id="Tracé_1018" data-name="Tracé 1018" transform="translate(114.569 682.158) rotate(-45)" fill="#fff">
      <path d="M 16.39315795898438 35.80724334716797 L 9.074089050292969 30.49820518493652 L 8.472549438476562 30.06186485290527 L 7.88123893737793 30.5119743347168 L 1.000008463859558 35.75002288818359 L 0.9999992251396179 1.000005006790161 L 16.39314842224121 1.000005006790161 L 16.39315795898438 35.80724334716797 Z" stroke="none"/>
      <path d="M 1.999999046325684 1.999996185302734 L 2.000007629394531 33.73205947875977 L 8.458168983459473 28.81605529785156 L 15.39315795898438 33.84648132324219 L 15.39314937591553 2.000003814697266 L 1.999999046325684 1.999996185302734 M -1.9073486328125e-06 -3.814697265625e-06 L 17.39314842224121 3.814697265625e-06 L 17.39315986633301 37.76798629760742 L 8.486928939819336 31.30767440795898 L 9.5367431640625e-06 37.76798629760742 L -1.9073486328125e-06 -3.814697265625e-06 Z" stroke="none" fill="#000"/>
    </g>
    <g id="Ellipse_20" data-name="Ellipse 20" transform="translate(97 647)" fill="#fff" stroke="#000" stroke-width="2">
      <ellipse cx="22.5" cy="23" rx="22.5" ry="23" stroke="none"/>
      <ellipse cx="22.5" cy="23" rx="21.5" ry="22" fill="none"/>
    </g>
    <path id="Tracé_1019" data-name="Tracé 1019" d="M58.2,317.833a2.78,2.78,0,0,0-3.931.129l-11.141,11.9-5.093-5.252a2.781,2.781,0,1,0-3.992,3.873l7.125,7.347a2.762,2.762,0,0,0,4.026-.035l13.136-14.026A2.782,2.782,0,0,0,58.2,317.833Z" transform="translate(73.42 343.05)" stroke="#000" stroke-width="1"/>
  </g>
</svg>
