<svg xmlns="http://www.w3.org/2000/svg" width="97" height="98.768" viewBox="0 0 97 98.768">
  <g id="icon-mesure" transform="translate(-3.956 13.543)">
    <path id="Tracé_1320" data-name="Tracé 1320" d="M-4832.952,14903.628l31.1-11.745,30.989,11.745.772,34.658-31.287,16.584-32.272-17.157Z" transform="translate(4853.956 -14886.028)" fill="#fff"/>
    <line id="Ligne_33" data-name="Ligne 33" x2="63.309" transform="translate(20.188 78.758)" fill="none" stroke="#746456" stroke-linecap="round" stroke-linejoin="round" stroke-width="2.5"/>
    <path id="Tracé_1313" data-name="Tracé 1313" d="M81.3,343,77,347.3l4.3,4.3" transform="translate(-57.411 -268.541)" fill="none" stroke="#746456" stroke-linecap="round" stroke-linejoin="round" stroke-width="2.5"/>
    <path id="Tracé_1314" data-name="Tracé 1314" d="M364,343l4.3,4.3-4.3,4.3" transform="translate(-283.645 -268.143)" fill="none" stroke="#746456" stroke-linecap="round" stroke-linejoin="round" stroke-width="2.5"/>
    <line id="Ligne_34" data-name="Ligne 34" y1="63.309" transform="translate(10.739 6)" fill="none" stroke="#746456" stroke-linecap="round" stroke-linejoin="round" stroke-width="2.5"/>
    <path id="Tracé_1315" data-name="Tracé 1315" d="M7,294l4.3,4.3,4.3-4.3" transform="translate(-0.744 -228.176)" fill="none" stroke="#746456" stroke-linecap="round" stroke-linejoin="round" stroke-width="2.5"/>
    <path id="Tracé_1316" data-name="Tracé 1316" d="M7,11.3,11.3,7l4.3,4.3" transform="translate(-0.744 -1.941)" fill="none" stroke="#746456" stroke-linecap="round" stroke-linejoin="round" stroke-width="2.5"/>
    <path id="Tracé_1317" data-name="Tracé 1317" d="M108.533,114.6,77,97.4V63l31.533,14.333Z" transform="translate(-56.411 -45.475)" fill="none" stroke="#746456" stroke-linecap="round" stroke-linejoin="round" stroke-width="2.5"/>
    <path id="Tracé_1318" data-name="Tracé 1318" d="M231,114.6l31.533-17.2V63L231,77.333Z" transform="translate(-178.878 -45.475)" fill="none" stroke="#746456" stroke-linecap="round" stroke-linejoin="round" stroke-width="2.5"/>
    <path id="Tracé_1319" data-name="Tracé 1319" d="M77,18.466,108.533,7l31.533,11.466" transform="translate(-56.411 -0.941)" fill="none" stroke="#746456" stroke-linecap="round" stroke-linejoin="round" stroke-width="2.5"/>
    <rect id="Rectangle_132" data-name="Rectangle 132" width="97" height="97" transform="translate(3.956 -13.543)" fill="none"/>
  </g>
</svg>
