<svg xmlns="http://www.w3.org/2000/svg" width="69.562" height="53.923" viewBox="0 0 69.562 53.923">
  <g id="icon-package" transform="translate(0 -55.084)">
    <path id="Tracé_1014" data-name="Tracé 1014" d="M-1291.268,1787.7l.6-21.055,28.147-10.227,27.847,10.972.644,30.791-28.891,9.881-18.66-6.8-4.558,5.187-9.411.574-5.521-5.761v-7.336l5.992-6.006Z" transform="translate(1303.591 -1700.197)" fill="#fff"/>
    <path id="Tracé_1011" data-name="Tracé 1011" d="M68.621,65.85l-28.5-10.674a1.444,1.444,0,0,0-1.016,0L10.6,65.85a1.453,1.453,0,0,0-.941,1.357V86.074a11.449,11.449,0,1,0,11.855,16.77l17.626,6.083a1.453,1.453,0,0,0,.945,0l28.5-9.838a1.449,1.449,0,0,0,.976-1.37V67.207A1.447,1.447,0,0,0,68.621,65.85ZM39.609,58.081,63.98,67.207,39.609,76.332,15.238,67.207Zm-28.16,47.853A8.551,8.551,0,1,1,20,97.382,8.561,8.561,0,0,1,11.449,105.933Zm1.1-19.946V69.3L38.16,78.885v26.639l-15.6-5.384A11.445,11.445,0,0,0,12.554,85.987Zm54.11,10.7-25.605,8.838V78.885L66.664,69.3Z"/>
    <path id="Tracé_1012" data-name="Tracé 1012" d="M46.254,317.474a1.449,1.449,0,0,0-2.049.067l-5.806,6.2L35.744,321a1.449,1.449,0,1,0-2.08,2.018l3.713,3.829a1.44,1.44,0,0,0,2.1-.018l6.846-7.31A1.45,1.45,0,0,0,46.254,317.474Z" transform="translate(-28.534 -224.804)"/>
  </g>
</svg>
