<svg xmlns="http://www.w3.org/2000/svg" width="38.148" height="63.512" viewBox="0 0 38.148 63.512">
  <g id="icon-collect" transform="translate(-23.642 -4.88)">
    <path id="Tracé_1020" data-name="Tracé 1020" d="M-1507.926,1593.977l7.45,1.439,4.043,2.543,4.6,5.459,1.925,5.937v6.075l-2.538,5.631-7.244,11.539-4.119,7.5,4.967.725,5.507,1.906,3.051,3.127v4.02l-3.443,2.723-5.964,2.1-9.987.776-7.308-.776-5.63-2.1-3.589-4.332,1.293-3.953,6.474-3.146,6.359-1.368-4.907-8.22-7.927-13.685-.959-8.275,2.063-6.7,6.534-6.418" transform="translate(1550.642 -1588.12)" fill="#fff"/>
    <path id="Tracé_1006" data-name="Tracé 1006" d="M48.232,51.171,58.891,34.031a.971.971,0,0,0,.087-.174,19.047,19.047,0,1,0-32.465,0,1.1,1.1,0,0,0,.076.154l10.277,17.2c-7.977,1.128-13.224,4.408-13.224,8.387,0,4.93,8.378,8.792,19.074,8.792S61.79,64.53,61.79,59.6C61.79,55.6,56.3,52.249,48.232,51.171ZM28.427,32.9a16.913,16.913,0,1,1,28.634,0,1.027,1.027,0,0,0-.088.177L45.712,51.184c-.169.259-.2.319-.41.658l-2.844,4.573L28.523,33.093A1.072,1.072,0,0,0,28.427,32.9ZM42.717,66.259c-9.984,0-16.941-3.51-16.941-6.659,0-2.858,5.24-5.551,12.287-6.385l3.462,5.795a1.065,1.065,0,0,0,.906.519h.009a1.068,1.068,0,0,0,.906-.5l3.64-5.852c7.16.776,12.671,3.537,12.671,6.427C59.658,62.75,52.7,66.259,42.717,66.259Z" transform="translate(0)"/>
    <path id="Tracé_1007" data-name="Tracé 1007" d="M54.582,28.854a6.925,6.925,0,1,0-6.925,6.925A6.933,6.933,0,0,0,54.582,28.854Zm-11.718,0a4.792,4.792,0,1,1,4.792,4.792A4.8,4.8,0,0,1,42.864,28.854Z" transform="translate(-4.94 -4.928)"/>
  </g>
</svg>
