<svg xmlns="http://www.w3.org/2000/svg" width="97" height="97" viewBox="0 0 97 97">
  <g id="icon-recyclable" transform="translate(-171.039 -12765.261)">
    <path id="Tracé_1301" data-name="Tracé 1301" d="M213.018,12844.407l-4.929,14.161,6.9,1.4,11.071,1.132,13.118-3.144,8.984-4.877,7.335-7.149,7.876,6.705,1.462-29.4-28.493,6.3,7.454,6.531-2.848,3.673-5.728,3.8-8.46,2.391-5.6.88Z" fill="#fff"/>
    <path id="Tracé_1302" data-name="Tracé 1302" d="M250.32,12814.245l-4.22-11.048-6.907-6.949-11.344-4.781-1.463,9.6-19.959-21.643,26.071-12.765L230.627,12777l5.2,1.285,5.993,2.165,5.376,3.431,3.951,3.051,3.667,3.838s3.32,3.769,3.455,4.151,2.8,5.477,3.034,6.147,2.914,7.346,2.914,7.346l.75,3.079Z" fill="#fff"/>
    <path id="Tracé_1283" data-name="Tracé 1283" d="M-4465.515,15900.744l9.409,11.571-3.909,3.808-2.958,4.452-1.946,4.848-.6,5.39-.409,5.942.409,4.092.6,1.717,4.9-1.283,5.123-1.67-8.812,26.01-22.742-15.012,7.833-3.089-2.585-10.765v-8.861l2.585-9.889,5.006-8.415,4.58-5.615Z" transform="translate(4661.039 -3114.739)" fill="#fff"/>
    <path id="Tracé_1279" data-name="Tracé 1279" d="M60.728,50.978a1.24,1.24,0,0,1-1.22-1.026,26.644,26.644,0,0,0-10.589-16.94,26.925,26.925,0,0,0-9.555-4.378l-1.541,8.5a1.24,1.24,0,0,1-2.135.615L15.965,16.177a1.24,1.24,0,0,1,.351-1.941L42.353.944a1.24,1.24,0,0,1,1.784,1.325l-1.693,9.357A43.936,43.936,0,0,1,76.513,46.954a1.24,1.24,0,0,1-2.442.432,41.461,41.461,0,0,0-33.29-33.564,1.24,1.24,0,0,1-.994-1.44l1.464-8.091L18.893,15.7,35.829,34.231l1.323-7.3a1.24,1.24,0,0,1,1.449-1,29.15,29.15,0,0,1,20.241,14.7,29.019,29.019,0,0,1,3.109,8.884,1.241,1.241,0,0,1-1.223,1.455Z" transform="translate(189.608 12764.453)" fill="#746456"/>
    <path id="Tracé_1280" data-name="Tracé 1280" d="M32.277,66.3q-.861,0-1.724-.034a43.908,43.908,0,0,1-13.316-2.617,1.24,1.24,0,0,1,.848-2.33A41.441,41.441,0,0,0,63.873,49.186a1.24,1.24,0,0,1,1.751-.14l5.969,5.1L73,29.08l-24.537,5.3,5.925,5.062a1.24,1.24,0,0,1,.141,1.744,29.151,29.151,0,0,1-32.232,8.571,1.24,1.24,0,0,1,.848-2.33A26.668,26.668,0,0,0,51.814,40.51l-6.869-5.868a1.24,1.24,0,0,1,.543-2.155l28.575-6.175a1.24,1.24,0,0,1,1.5,1.281L73.929,56.788a1.24,1.24,0,0,1-2.044.873l-6.94-5.933A43.909,43.909,0,0,1,32.277,66.3Z" transform="translate(190.574 12795.958)" fill="#746456"/>
    <path id="Tracé_1281" data-name="Tracé 1281" d="M25.888,77.058a1.24,1.24,0,0,1-.677-.2L1.8,61.619a1.24,1.24,0,0,1,.26-2.207l7.1-2.531a43.392,43.392,0,0,1-.326-25.635,44.076,44.076,0,0,1,5.438-11.689,44.663,44.663,0,0,1,8.51-9.6,1.24,1.24,0,0,1,1.6,1.895,42.185,42.185,0,0,0-8.038,9.065,41.6,41.6,0,0,0-5.133,11.031,41.007,41.007,0,0,0,.679,25.283,1.24,1.24,0,0,1-.755,1.576l-5.883,2.1L25.2,73.891l7.219-22.673-7.358,2.625a1.24,1.24,0,0,1-1.589-.765,28.841,28.841,0,0,1-.418-17.722,29.247,29.247,0,0,1,3.607-7.725,29.631,29.631,0,0,1,5.63-6.344,1.24,1.24,0,1,1,1.6,1.895,26.908,26.908,0,0,0-8.46,12.884,26.3,26.3,0,0,0,.006,15.01l8.508-3.036a1.24,1.24,0,0,1,1.6,1.544L27.069,76.195a1.24,1.24,0,0,1-1.181.864Z" transform="translate(171.8 12775.409)" fill="#746456"/>
    <rect id="Rectangle_116" data-name="Rectangle 116" width="97" height="97" transform="translate(171.039 12765.261)" fill="none"/>
  </g>
</svg>
