<svg xmlns="http://www.w3.org/2000/svg" xmlns:xlink="http://www.w3.org/1999/xlink" width="53.713" height="43" viewBox="0 0 53.713 43">
  <defs>
    <clipPath id="clip-path">
      <rect id="Rectangle_52" data-name="Rectangle 52" width="53.713" height="43" transform="translate(0 0)" fill="none"/>
    </clipPath>
  </defs>
  <g id="icon-coins" transform="translate(-486.019 -634.941)">
    <path id="Tracé_1060" data-name="Tracé 1060" d="M-1213.977,2976.981l1.581-6.019,3.809-4.99,5.273-2.562,5.612-.539,5.193,1.118-.4-7.391a18.045,18.045,0,0,1,1.7-2.443c.352-.221,6.891-2.074,6.891-2.074l6.815-.395,6.437.395,5.942,1.6,2.736,2.194v33.268l-2.563,1.869-7.621,1.736s-7.434.384-7.573.34-7.218-1.06-7.218-1.06l-3.113-1.654-4.249,2.121-6.275.253-4.493-1.214s-3.631-1.952-3.813-2.064-3.093-4.073-3.093-4.073l-1.1-4.479Z" transform="translate(1701 -2316)" fill="#fff"/>
    <g id="Groupe_2512" data-name="Groupe 2512" transform="translate(486.019 634.938)">
      <g id="Groupe_2511" data-name="Groupe 2511" transform="translate(0 0.003)" clip-path="url(#clip-path)">
        <path id="Tracé_1050" data-name="Tracé 1050" d="M875.055,5.849c0-1.256-.9-3.038-5.173-4.391a42.636,42.636,0,0,0-22.088,0c-4.275,1.353-5.173,3.135-5.173,4.391v4.225a2.558,2.558,0,0,0,.016.289h-.016v1.653q.443.157.879.341.228.1.452.2h0a15.831,15.831,0,0,1,2.46,1.409q.4.282.79.589a36.807,36.807,0,0,0,11.635,1.654c5.976,0,11.377-1.077,14.129-2.814v1.193a1.253,1.253,0,0,1-.463.774,11.59,11.59,0,0,1-4.964,2.09,39.483,39.483,0,0,1-8.7.894,39.487,39.487,0,0,1-8.7-.894l-.128-.03q.132.173.258.35a15.818,15.818,0,0,1,1.264,2.085q.079.156.154.313a44.6,44.6,0,0,0,7.155.553c5.976,0,11.377-1.077,14.129-2.814V19.1a1.252,1.252,0,0,1-.463.774,11.59,11.59,0,0,1-4.964,2.09,39.5,39.5,0,0,1-8.7.894,43.063,43.063,0,0,1-6.28-.44q.045.15.088.3a15.812,15.812,0,0,1,.408,1.876q.023.146.042.293a46.187,46.187,0,0,0,5.742.348c5.976,0,11.377-1.077,14.129-2.814v1.193a1.253,1.253,0,0,1-.463.774,11.591,11.591,0,0,1-4.964,2.09,39.485,39.485,0,0,1-8.7.894,43.926,43.926,0,0,1-5.6-.345v.024q0,.131,0,.262a16.082,16.082,0,0,1-.129,1.8q-.018.142-.039.283a46.161,46.161,0,0,0,5.768.351c5.976,0,11.377-1.077,14.129-2.814v1.193a1.252,1.252,0,0,1-.463.774,11.59,11.59,0,0,1-4.964,2.09,39.5,39.5,0,0,1-8.7.894,43.175,43.175,0,0,1-6.213-.43q-.039.138-.082.275a15.855,15.855,0,0,1-.557,1.529q-.042.1-.085.2-.059.135-.121.268a44.709,44.709,0,0,0,7.057.537c5.976,0,11.377-1.077,14.129-2.814v1.193a1.253,1.253,0,0,1-.463.774,11.591,11.591,0,0,1-4.964,2.09,39.485,39.485,0,0,1-8.7.894,40.5,40.5,0,0,1-8.1-.762q-.082.128-.166.254a15.883,15.883,0,0,1-1.2,1.578q-.1.119-.208.236a40.811,40.811,0,0,0,9.677,1.071c5.976,0,11.377-1.077,14.129-2.814v1.193a1.252,1.252,0,0,1-.463.774,11.59,11.59,0,0,1-4.964,2.09,42.781,42.781,0,0,1-17.405,0,20.318,20.318,0,0,1-2.576-.761,15.842,15.842,0,0,1-1.97,1.419,19.35,19.35,0,0,0,4.075,1.377,44.844,44.844,0,0,0,18.345,0c1.907-.441,4.482-1.25,5.922-2.6a3.128,3.128,0,0,0,1.122-2.3V32.932h-.017a2.549,2.549,0,0,0,.017-.289V28.418h-.017a2.545,2.545,0,0,0,.017-.289V23.9h-.017a2.549,2.549,0,0,0,.017-.289V19.39h-.017a2.545,2.545,0,0,0,.017-.289V14.877h-.017a2.548,2.548,0,0,0,.017-.289V10.363h-.017a2.545,2.545,0,0,0,.017-.289Zm-2.551,5a11.588,11.588,0,0,1-4.963,2.09,39.5,39.5,0,0,1-8.7.894,39.5,39.5,0,0,1-8.7-.894,11.59,11.59,0,0,1-4.964-2.09,1.252,1.252,0,0,1-.462-.774V8.881l.13.08.136.081.139.079.142.078h0q.107.057.218.114l.075.038.076.038.077.037.157.074.08.037q.12.055.244.108l.083.035.084.035.17.07.174.068.088.034.089.034.09.033.091.033.091.033.092.033.14.048.141.048.288.093.1.03.1.03.3.089.2.058.1.028.207.056.21.055.106.027.107.027.107.026.108.026.328.076.107.024.115.025.112.024.107.023.118.025.113.023.114.023.346.067.116.022.117.021.118.021.118.021.358.06.12.019.121.019.121.019.122.018.112.017.145.021.111.016.122.017.135.018.241.031.379.046.215.025.312.034.467.046.4.035.085.007.078.006q.4.032.8.057l.134.008.269.015.206.011.046,0,.137.006.137.006.138.006h.029l.124,0,.049,0,.213.007h.048l.1,0,.457.011.1,0,.3,0,.241,0h.583l.241,0,.3,0,.1,0,.457-.011.1,0h.048l.217-.007.045,0,.123,0h.029l.138-.006.137-.006.137-.006.049,0,.2-.011.269-.015.134-.008q.4-.025.8-.057l.081-.006.082-.007.362-.032.034,0,.328-.032q.3-.03.589-.063l.246-.029.21-.026.125-.016.111-.014.14-.019.122-.017.105-.015.207-.03.106-.016.245-.038.119-.019h.006l.117-.019.246-.041.1-.017.142-.025.09-.016.315-.059.115-.022.289-.058.114-.024.114-.024.344-.075.1-.024q.443-.1.864-.213l.1-.026.111-.03.1-.029.1-.029q.179-.051.354-.1l.08-.024.07-.022.1-.031.094-.03q.245-.078.48-.16l.093-.033q.232-.082.453-.168l.088-.034q.175-.069.344-.14l.084-.036q.376-.162.716-.334l.075-.038q.372-.192.7-.4v1.193a1.252,1.252,0,0,1-.463.774M845.484,4.816a10.241,10.241,0,0,1,2.941-1.367,40.612,40.612,0,0,1,20.827,0,10.242,10.242,0,0,1,2.941,1.367c.5.374.774.74.774,1.034a1.252,1.252,0,0,1-.463.774,4.246,4.246,0,0,1-.6.461c-2.376,1.533-7.5,2.523-13.063,2.523s-10.688-.991-13.064-2.524a4.231,4.231,0,0,1-.6-.461,1.252,1.252,0,0,1-.462-.774c0-.293.275-.66.774-1.034" transform="translate(-821.343 -0.003)" fill="#3c3c3b"/>
        <path id="Tracé_1051" data-name="Tracé 1051" d="M31.754,453.355q-.02-.147-.042-.293a15.8,15.8,0,0,0-.408-1.876q-.043-.15-.088-.3a15.877,15.877,0,0,0-.571-1.575q-.144-.341-.3-.674-.075-.158-.154-.313a15.813,15.813,0,0,0-1.264-2.086q-.127-.177-.258-.35a16.181,16.181,0,0,0-2.8-2.866q-.386-.308-.79-.589a15.834,15.834,0,0,0-2.46-1.409h0q-.224-.1-.452-.2-.435-.184-.879-.341a15.961,15.961,0,1,0,4.938,27.243q.522-.44,1.01-.928.305-.305.592-.624.106-.117.208-.236a15.886,15.886,0,0,0,1.2-1.578q.084-.126.166-.254a15.877,15.877,0,0,0,1.044-1.911q.061-.133.121-.268.043-.1.085-.2A15.867,15.867,0,0,0,31.2,460.2q.042-.137.082-.275a15.737,15.737,0,0,0,.445-2.058q.021-.141.039-.283a16.08,16.08,0,0,0,.129-1.8q0-.131,0-.262V455.5a16.112,16.112,0,0,0-.145-2.14m-2.091,4.191a13.755,13.755,0,0,1-.451,2.007q-.041.136-.086.271a13.77,13.77,0,0,1-.684,1.7q-.063.13-.128.259a13.888,13.888,0,0,1-1.079,1.779q-.085.12-.173.237a13.948,13.948,0,0,1-1.276,1.48q-.106.107-.213.211a13.935,13.935,0,0,1-3.262,2.347,13.872,13.872,0,1,1,1.539-23.7q.346.241.676.5a13.978,13.978,0,0,1,2.879,3.086q.118.173.231.349a13.829,13.829,0,0,1,1.213,2.373q.062.158.121.317a13.724,13.724,0,0,1,.557,1.957q.031.148.058.3a13.845,13.845,0,0,1,.222,2.143q0,.144,0,.289c0,.023,0,.047,0,.07a13.922,13.922,0,0,1-.109,1.746c-.012.094-.025.187-.038.281" transform="translate(0 -428.469)" fill="#3c3c3b"/>
      </g>
    </g>
  </g>
</svg>
