<svg xmlns="http://www.w3.org/2000/svg" width="97" height="97" viewBox="0 0 97 97">
  <g id="icon-grind" transform="translate(-895 -13325)">
    <path id="Soustraction_1" data-name="Soustraction 1" d="M40.3,74.367v0L42.029,70.2l1.632-6V57.155L39.273,62.14l-7.688,4.83H22.479l-7.884-1.6,9.337-6.417,3.131-3.792H20.3l-6.586-2.1L8.189,49.771,2.077,44.286,0,39.687,4.716,42.2l5.757,1.065L15.449,42.2l-3.462-4.357-3.8-6.893L7.249,20.388,9.3,13.483l4.41,8.726,4.672,4.084V17.667l3.4-7.546,5.278-5.127L34.244,0,31.01,8.437v7.849l4.355-4.419,6.063-3.43,8.625-1.6,11.927,1.6L52.6,12.384,47.555,18.19l5.9-.523,11.816,4.542L74.57,33.482l-2.638-.925-5.655-2.067H58.209l2,2.991,2.513,2.833L65.275,40.6l1.935,8.26v8.294l-1.935,1.8-2.548-4.9-3.611-4.282-3.537-2.55v9.934l-2.12,4.985L48.845,68.2,40.3,74.365ZM37.676,26.416a10.336,10.336,0,1,0,7.308,3.028A10.268,10.268,0,0,0,37.676,26.416Z" transform="translate(905.788 13343.735)" fill="#fff"/>
    <path id="Tracé_1287" data-name="Tracé 1287" d="M2247.52,1033.729a11.352,11.352,0,1,1,11.352-11.352,11.365,11.365,0,0,1-11.352,11.352m0-19.915a8.563,8.563,0,1,0,8.563,8.563,8.572,8.572,0,0,0-8.563-8.563" transform="translate(-1304.289 12358.338)" fill="#746456"/>
    <path id="Tracé_1288" data-name="Tracé 1288" d="M2161.6,973.025a1.395,1.395,0,0,1-1.158-2.171c.047-.07,4.047-6.144,3.79-12.916-4.207,4.765-10.9,7.526-18.575,7.526a41.974,41.974,0,0,1-11.715-1.806,1.395,1.395,0,0,1,.124-2.707c.081-.016,7.209-1.483,11.816-6.457q-.594.036-1.2.036a22.864,22.864,0,0,1-12.441-3.9c-4.58-2.988-8.56-7.532-11.831-13.5a1.395,1.395,0,0,1,2-1.827c.055.037,5.761,3.805,12.268,3.8q.329,0,.655-.013a21.827,21.827,0,0,1-6.089-9.365c-2.054-6.041-1.933-13.082.361-20.927a1.395,1.395,0,0,1,2.708.123c.016.081,1.482,7.208,6.455,11.815a21.825,21.825,0,0,1,2.317-10.923c2.82-5.725,7.884-10.618,15.053-14.543a1.395,1.395,0,0,1,1.827,2c-.046.069-4.046,6.142-3.79,12.914,4.208-4.765,10.9-7.525,18.576-7.525a41.981,41.981,0,0,1,11.714,1.806,1.394,1.394,0,0,1-.123,2.707c-.081.016-7.209,1.483-11.816,6.458q.594-.037,1.2-.036a22.856,22.856,0,0,1,12.441,3.9c4.557,2.973,8.521,7.487,11.783,13.417a1.395,1.395,0,0,1-1.169,2.152h-.006a1.4,1.4,0,0,1-.779-.237c-.055-.037-5.76-3.8-12.267-3.8q-.33,0-.656.013a21.83,21.83,0,0,1,6.09,9.364c2.054,6.042,1.932,13.083-.361,20.928a1.394,1.394,0,0,1-2.707-.124c-.016-.081-1.484-7.208-6.456-11.815a21.833,21.833,0,0,1-2.317,10.924c-2.82,5.725-7.884,10.617-15.053,14.543a1.39,1.39,0,0,1-.67.171m3.513-20.056a1.395,1.395,0,0,1,1.35,1.041c1.363,5.208.064,10.314-1.36,13.823a28.874,28.874,0,0,0,9.717-10.754,18.149,18.149,0,0,0,1.57-12.489,1.395,1.395,0,0,1,2.055-1.553,21.6,21.6,0,0,1,8.145,9.271c.18.357.438.923.666,1.463a28.885,28.885,0,0,0-.733-14.475,18.151,18.151,0,0,0-7.723-9.94,1.395,1.395,0,0,1,.355-2.551,18.092,18.092,0,0,1,4.574-.573,25.022,25.022,0,0,1,9.246,1.936c-7.367-10.544-15.732-11.785-19.249-11.785a15.936,15.936,0,0,0-3.992.5,1.395,1.395,0,0,1-1.553-2.055c2.717-4.642,7.241-7.333,10.726-8.808a35.391,35.391,0,0,0-6.152-.566c-8.105,0-14.931,3.372-18.256,9.018a1.394,1.394,0,0,1-2.551-.354c-1.363-5.208-.064-10.313,1.359-13.822a28.872,28.872,0,0,0-9.717,10.754,18.143,18.143,0,0,0-1.57,12.489,1.395,1.395,0,0,1-2.054,1.553c-4.646-2.72-7.337-7.248-8.811-10.735a28.871,28.871,0,0,0,.734,14.475,18.146,18.146,0,0,0,7.722,9.94,1.395,1.395,0,0,1-.354,2.551,18.086,18.086,0,0,1-4.574.573,25.02,25.02,0,0,1-9.247-1.936c7.368,10.542,15.733,11.785,19.249,11.785a15.933,15.933,0,0,0,3.993-.495,1.395,1.395,0,0,1,1.553,2.055c-2.718,4.642-7.241,7.333-10.727,8.807a35.394,35.394,0,0,0,6.152.566c8.106,0,14.93-3.371,18.256-9.018a1.394,1.394,0,0,1,1.2-.687" transform="translate(-1215.974 12446.653)" fill="#746456"/>
    <rect id="Rectangle_119" data-name="Rectangle 119" width="97" height="97" transform="translate(895 13325)" fill="none"/>
  </g>
</svg>
