<svg id="undraw_my_answer_re_k4dv" xmlns="http://www.w3.org/2000/svg" width="422.337" height="326.03" viewBox="0 0 422.337 326.03">
  <path id="Tracé_1146" data-name="Tracé 1146" d="M957.036,645.319c-1.775-14.273-10.621-28.337-24.233-32.982a66.269,66.269,0,0,1,0,45.5c-2.092,5.658-5.007,11.733-3.04,17.436,1.224,3.548,4.219,6.263,7.567,7.96a44,44,0,0,0,10.732,3.3l.722.6C954.6,673.977,958.811,659.593,957.036,645.319Z" transform="translate(-541.859 -362.468)" fill="#f0f0f0"/>
  <path id="Tracé_1147" data-name="Tracé 1147" d="M935.686,612.344a56.643,56.643,0,0,1,14.081,31.878,24.394,24.394,0,0,1-.277,7.638,13.991,13.991,0,0,1-3.48,6.489c-1.568,1.723-3.372,3.3-4.494,5.378a8.567,8.567,0,0,0-.418,6.993,22.257,22.257,0,0,0,4.932,7.356c2.208,2.441,4.539,4.942,5.478,8.178.114.392.715.193.6-.2-1.632-5.631-7.1-8.829-9.7-13.9a8.675,8.675,0,0,1-.587-7.612c1-2.184,2.856-3.816,4.459-5.547a14.927,14.927,0,0,0,3.639-6.218,22.548,22.548,0,0,0,.57-7.6,54.952,54.952,0,0,0-4.013-16.7,57.648,57.648,0,0,0-10.366-16.612C935.835,611.565,935.417,612.043,935.686,612.344Z" transform="translate(-544.878 -362.205)" fill="#fff"/>
  <path id="Tracé_1148" data-name="Tracé 1148" d="M961.4,657.267a8.5,8.5,0,0,0,6.469-8.9c-.032-.407-.666-.376-.633.032a7.869,7.869,0,0,1-6.034,8.269C960.806,656.759,961.007,657.36,961.4,657.267Z" transform="translate(-556.683 -379.085)" fill="#fff"/>
  <path id="Tracé_1149" data-name="Tracé 1149" d="M949.868,689.009a16.379,16.379,0,0,1-7.314-9.433c-.115-.392-.717-.192-.6.2a17.037,17.037,0,0,0,7.631,9.8C949.934,689.783,950.217,689.216,949.868,689.009Z" transform="translate(-547.825 -393.634)" fill="#fff"/>
  <path id="Tracé_1150" data-name="Tracé 1150" d="M945.834,632.5a4.811,4.811,0,0,1-4.559-.231c-.349-.213-.632.355-.285.566a5.39,5.39,0,0,0,5.043.267.328.328,0,0,0,.2-.4A.319.319,0,0,0,945.834,632.5Z" transform="translate(-547.311 -371.716)" fill="#fff"/>
  <path id="Tracé_1151" data-name="Tracé 1151" d="M858.461,658.669c.214.139.428.278.642.423a63.351,63.351,0,0,1,8.1,6.324c.2.177.4.359.589.54a66.783,66.783,0,0,1,14.5,19.855A64.848,64.848,0,0,1,885.849,695c1.311,4.35,2.386,9.17,4.981,12.728a11.147,11.147,0,0,0,.867,1.07h23.45c.053-.027.107-.048.16-.075l.936.043c-.038-.166-.08-.337-.118-.5-.021-.1-.048-.193-.07-.289-.016-.064-.032-.128-.043-.187-.005-.021-.011-.043-.016-.059-.011-.059-.027-.112-.038-.166q-.353-1.436-.728-2.873c0-.005,0-.005-.005-.011a95.354,95.354,0,0,0-8.025-21.069c-.107-.2-.214-.4-.332-.6a61.9,61.9,0,0,0-5.559-8.432,54.768,54.768,0,0,0-3.644-4.168,45.5,45.5,0,0,0-11.385-8.528c-8.411-4.441-18.148-6.142-27.136-3.429C858.916,658.525,858.691,658.594,858.461,658.669Z" transform="translate(-509.01 -383.306)" fill="#f0f0f0"/>
  <path id="Tracé_1152" data-name="Tracé 1152" d="M858.32,659.989a56.643,56.643,0,0,1,30.436,16.975,24.393,24.393,0,0,1,4.377,6.265,13.992,13.992,0,0,1,1.129,7.276c-.215,2.32-.7,4.668-.35,7a8.566,8.566,0,0,0,3.876,5.836,22.255,22.255,0,0,0,8.367,2.9c3.232.62,6.6,1.213,9.3,3.232.327.245.687-.277.361-.521-4.693-3.513-10.983-2.776-16.118-5.255a8.675,8.675,0,0,1-5.051-5.724c-.519-2.344-.018-4.766.22-7.114a14.929,14.929,0,0,0-.838-7.155,22.551,22.551,0,0,0-4.12-6.41,54.954,54.954,0,0,0-13.259-10.917,57.645,57.645,0,0,0-18.278-7.023c-.4-.079-.445.553-.049.632Z" transform="translate(-508.817 -384.328)" fill="#fff"/>
  <path id="Tracé_1153" data-name="Tracé 1153" d="M910.214,677.083a8.5,8.5,0,0,0-.195-11c-.271-.305-.758.1-.487.406a7.869,7.869,0,0,1,.16,10.235C909.433,677.037,909.956,677.4,910.214,677.083Z" transform="translate(-532.72 -387.408)" fill="#fff"/>
  <path id="Tracé_1154" data-name="Tracé 1154" d="M915.793,712.636a16.38,16.38,0,0,1-11.52-3.128c-.328-.243-.688.278-.361.521a17.037,17.037,0,0,0,11.994,3.231C916.312,713.215,916.2,712.591,915.793,712.636Z" transform="translate(-530.084 -407.621)" fill="#fff"/>
  <path id="Tracé_1155" data-name="Tracé 1155" d="M878.551,667.637a4.81,4.81,0,0,1-3.779,2.56c-.407.04-.291.663.113.624A5.39,5.39,0,0,0,879.072,668a.328.328,0,0,0-.08-.441A.319.319,0,0,0,878.551,667.637Z" transform="translate(-516.476 -388.118)" fill="#fff"/>
  <path id="Tracé_1156" data-name="Tracé 1156" d="M642.49,175.863a6.181,6.181,0,0,0,1.863,9.294l-3.615,21.667,10.434-4.631,1.833-19.866a6.215,6.215,0,0,0-10.515-6.465Z" transform="translate(-407.774 -158.421)" fill="#aa7e90"/>
  <path id="Tracé_1157" data-name="Tracé 1157" d="M603.205,564.284h-8.531l-4.059-32.907h12.592Z" transform="translate(-274.623 -247.078)" fill="#9e616a"/>
  <path id="Tracé_1158" data-name="Tracé 1158" d="M799.615,744.044H772.106v-.348a10.708,10.708,0,0,1,10.707-10.707h16.8Z" transform="translate(-468.857 -418.568)" fill="#2f2e41"/>
  <path id="Tracé_1159" data-name="Tracé 1159" d="M496.205,564.284h-8.531l-4.059-32.907h12.592Z" transform="translate(-224.87 -247.078)" fill="#9e616a"/>
  <path id="Tracé_1160" data-name="Tracé 1160" d="M692.615,744.044H665.106v-.348a10.708,10.708,0,0,1,10.706-10.707h16.8Z" transform="translate(-419.104 -418.568)" fill="#2f2e41"/>
  <path id="Tracé_1161" data-name="Tracé 1161" d="M696.277,451.188l-3.189,4.194s-.289,1.959-5.126,17.915l-2.653,119.939H701.36l21.454-95.965,22.267,97.89,13.914.821L758.34,484.72s1.758-22.89-4.472-27.141S696.277,451.188,696.277,451.188Z" transform="translate(-428.498 -287.538)" fill="#2f2e41"/>
  <circle id="Ellipse_26" data-name="Ellipse 26" cx="16.843" cy="16.843" r="16.843" transform="translate(272.461 29.176)" fill="#aa7e90"/>
  <path id="Tracé_1162" data-name="Tracé 1162" d="M746.156,210.382l-.278-.556c-.43-.86-3.992-8.012-4.439-9.851l-4.482.527-11.672,0,1.622-2.433-4.288.559a9.841,9.841,0,0,0-4.369,1.647,6.7,6.7,0,0,0-1.982,2.043c-1.532,2.623-3.872,6.913-3.9,6.956l-.224.41-1.945-3.271c-.026-.127-2.435-12.7,5.63-16.96a12.979,12.979,0,0,1,12.338-7.042,5.311,5.311,0,0,1,3.611-1.8c1.913-.1,3.9.905,5.893,3,2.649,2.782,6.278,6.591,8.472,10.821l.605.864a6.807,6.807,0,0,1,1.211,4.226,14.11,14.11,0,0,1-.481,7.2Z" transform="translate(-439.909 -161.726)" fill="#2f2e41"/>
  <path id="Tracé_1163" data-name="Tracé 1163" d="M737.4,268.729l9.32,5.151,18.307,5.126-5.465,47.909.994,47.191s-30.989,21.229-60.7-3.564v-59.4l1.758-32.136s7.111-2.02,10.691,1.465l6.791-8.821Z" transform="translate(-435.259 -202.698)" fill="#e4e4e4"/>
  <path id="Tracé_1164" data-name="Tracé 1164" d="M465.512,106.959l-4.106-4.414-22.628-2.563L440.9,65.227l-12.337-8.8L419.5,105.354l41.87,29.327Z" transform="translate(-195.058 -26.237)" fill="#e4e4e4"/>
  <path id="Tracé_1165" data-name="Tracé 1165" d="M796.447,470.355a6.182,6.182,0,0,1,6-7.335l6.967-20.833,7.045,8.982-7.7,18.406a6.215,6.215,0,0,1-12.319.78Z" transform="translate(-480.125 -283.352)" fill="#aa7e90"/>
  <path id="Tracé_1166" data-name="Tracé 1166" d="M805.554,293.422l6.878-5.484s7.033,3.879,9.173,10.834,5.885,46.547,5.885,46.547l-10.165,50.827-11.368-7.884,5.483-40.268-9.63-29.426Z" transform="translate(-482.668 -211.63)" fill="#e4e4e4"/>
  <rect id="Rectangle_76" data-name="Rectangle 76" width="173.455" height="42.15" transform="translate(63.209)" fill="#e6e6e6"/>
  <path id="Tracé_1167" data-name="Tracé 1167" d="M331.958,186.866H496.311V153.819H331.958Z" transform="translate(-264.198 -149.267)" fill="#fff"/>
  <circle id="Ellipse_27" data-name="Ellipse 27" cx="12.59" cy="12.59" r="12.59" transform="translate(86.474 8.485)" fill="#fddd93"/>
  <rect id="Rectangle_77" data-name="Rectangle 77" width="84.228" height="2.737" transform="translate(129.171 16.148)" fill="#fddd93"/>
  <rect id="Rectangle_78" data-name="Rectangle 78" width="84.228" height="2.737" transform="translate(129.171 23.265)" fill="#fddd93"/>
  <path id="Rectangle_1" data-name="Rectangle 1" d="M205.309,265.054l146.764,10.705v38.535l-146.764-2.725Z" transform="translate(-205.309 -200.989)" fill="#e6e6e6"/>
  <path id="Path_1" data-name="Path 1" d="M213.95,311.294l138.937,3.4V284.339L213.95,275.021Z" transform="translate(-209.327 -205.624)" fill="#fff"/>
  <path id="Ellipse_1" data-name="Ellipse 1" d="M260.519,286.6a11.047,11.047,0,0,1,4.577,1.325,12.742,12.742,0,0,1,3.7,3.051,14.409,14.409,0,0,1,2.476,4.319,15.1,15.1,0,0,1,.9,5.16,14.41,14.41,0,0,1-.9,5.077,12.8,12.8,0,0,1-2.476,4.095,11.174,11.174,0,0,1-3.7,2.713,10.383,10.383,0,0,1-4.577.906,10.961,10.961,0,0,1-4.629-1.189,12.627,12.627,0,0,1-3.819-3,14.352,14.352,0,0,1-2.595-4.383,15.1,15.1,0,0,1-.955-5.3,14.388,14.388,0,0,1,.955-5.212,12.72,12.72,0,0,1,2.6-4.144,11.1,11.1,0,0,1,3.819-2.652A10.378,10.378,0,0,1,260.519,286.6Z" transform="translate(-225.402 -211)" fill="#e6e6e6"/>
  <path id="Rectangle_2" data-name="Rectangle 2" d="M322.037,304.444l67.621,3.524v2.561l-67.621-3.285Z" transform="translate(-259.585 -219.305)" fill="#e6e6e6"/>
  <path id="Rectangle_3" data-name="Rectangle 3" d="M322.037,318.051l67.621,2.9v2.561l-67.621-2.664Z" transform="translate(-259.585 -225.632)" fill="#e6e6e6"/>
  <path id="Rectangle_4" data-name="Rectangle 4" d="M205.309,409l146.764-2.725v38.535L205.309,455.514Z" transform="translate(-205.309 -266.653)" fill="#e6e6e6"/>
  <path id="Path_2" data-name="Path 2" d="M213.95,453.864l138.937-9.318V414.2l-138.937,3.4Z" transform="translate(-209.327 -270.337)" fill="#fff"/>
  <path id="Ellipse_2" data-name="Ellipse 2" d="M248.528,440.185a15.078,15.078,0,0,1,1.169-5.254,14.178,14.178,0,0,1,2.764-4.249,12.413,12.413,0,0,1,3.927-2.807,10.831,10.831,0,0,1,4.661-.953,10.4,10.4,0,0,1,4.525,1.14,11.333,11.333,0,0,1,3.579,2.9,13.011,13.011,0,0,1,2.305,4.222,14.557,14.557,0,0,1,.7,5.126,15.085,15.085,0,0,1-1.106,5.119,14.246,14.246,0,0,1-2.643,4.2A12.529,12.529,0,0,1,264.6,452.5a10.909,10.909,0,0,1-4.62,1.093,10.387,10.387,0,0,1-4.587-1.007,11.25,11.25,0,0,1-3.7-2.851,12.94,12.94,0,0,1-2.42-4.283A14.54,14.54,0,0,1,248.528,440.185Z" transform="translate(-225.398 -276.254)" fill="#e6e6e6"/>
  <path id="Rectangle_5" data-name="Rectangle 5" d="M322.037,437.761l67.621-2.664v2.561l-67.621,2.9Z" transform="translate(-259.585 -280.055)" fill="#e6e6e6"/>
  <path id="Rectangle_6" data-name="Rectangle 6" d="M322.037,450.828l67.621-3.285V450.1l-67.621,3.524Z" transform="translate(-259.585 -285.843)" fill="#e6e6e6"/>
  <path id="Tracé_1168" data-name="Tracé 1168" d="M816.069,753.758H612.226a.535.535,0,0,1,0-1.07H816.069a.535.535,0,0,1,0,1.07Z" transform="translate(-394.268 -427.728)" fill="#cacaca"/>
</svg>
