<svg id="illustration-cards" xmlns="http://www.w3.org/2000/svg" width="422.337" height="326.03" viewBox="0 0 422.337 326.03">
  <g id="plant">
    <path id="Tracé_1146" data-name="Tracé 1146" d="M957.036,645.319c-1.775-14.273-10.621-28.337-24.233-32.982a66.269,66.269,0,0,1,0,45.5c-2.092,5.658-5.007,11.733-3.04,17.436,1.224,3.548,4.219,6.263,7.567,7.96a44,44,0,0,0,10.732,3.3l.722.6C954.6,673.977,958.811,659.593,957.036,645.319Z" transform="translate(-541.859 -362.469)" fill="#f0f0f0"/>
    <path id="Tracé_1147" data-name="Tracé 1147" d="M935.686,612.344a56.643,56.643,0,0,1,14.081,31.878,24.394,24.394,0,0,1-.277,7.638,13.991,13.991,0,0,1-3.48,6.489c-1.568,1.723-3.372,3.3-4.494,5.378a8.567,8.567,0,0,0-.418,6.993,22.257,22.257,0,0,0,4.932,7.356c2.208,2.441,4.539,4.942,5.478,8.178.114.392.715.193.6-.2-1.632-5.631-7.1-8.829-9.7-13.9a8.675,8.675,0,0,1-.587-7.612c1-2.184,2.856-3.816,4.459-5.547a14.927,14.927,0,0,0,3.639-6.218,22.548,22.548,0,0,0,.57-7.6,54.952,54.952,0,0,0-4.013-16.7,57.648,57.648,0,0,0-10.366-16.612C935.835,611.565,935.417,612.043,935.686,612.344Z" transform="translate(-544.878 -362.205)" fill="#fff"/>
    <path id="Tracé_1148" data-name="Tracé 1148" d="M961.4,657.267a8.5,8.5,0,0,0,6.469-8.9c-.032-.407-.666-.376-.633.032a7.869,7.869,0,0,1-6.034,8.269C960.806,656.759,961.007,657.36,961.4,657.267Z" transform="translate(-556.683 -379.085)" fill="#fff"/>
    <path id="Tracé_1149" data-name="Tracé 1149" d="M949.868,689.009a16.379,16.379,0,0,1-7.314-9.433c-.115-.392-.717-.192-.6.2a17.037,17.037,0,0,0,7.631,9.8C949.934,689.783,950.217,689.216,949.868,689.009Z" transform="translate(-547.825 -393.634)" fill="#fff"/>
    <path id="Tracé_1150" data-name="Tracé 1150" d="M945.834,632.5a4.811,4.811,0,0,1-4.559-.231c-.349-.213-.632.355-.285.566a5.39,5.39,0,0,0,5.043.267.328.328,0,0,0,.2-.4A.319.319,0,0,0,945.834,632.5Z" transform="translate(-547.311 -371.716)" fill="#fff"/>
    <path id="Tracé_1151" data-name="Tracé 1151" d="M858.461,658.669c.214.139.428.278.642.423a63.351,63.351,0,0,1,8.1,6.324c.2.177.4.359.589.54a66.783,66.783,0,0,1,14.5,19.855A64.848,64.848,0,0,1,885.849,695c1.311,4.35,2.386,9.17,4.981,12.728a11.147,11.147,0,0,0,.867,1.07h23.45c.053-.027.107-.048.16-.075l.936.043c-.038-.166-.08-.337-.118-.5-.021-.1-.048-.193-.07-.289-.016-.064-.032-.128-.043-.187-.005-.021-.011-.043-.016-.059-.011-.059-.027-.112-.038-.166q-.353-1.436-.728-2.873c0-.005,0-.005-.005-.011a95.354,95.354,0,0,0-8.025-21.069c-.107-.2-.214-.4-.332-.6a61.9,61.9,0,0,0-5.559-8.432,54.768,54.768,0,0,0-3.644-4.168,45.5,45.5,0,0,0-11.385-8.528c-8.411-4.441-18.148-6.142-27.136-3.429C858.916,658.525,858.691,658.594,858.461,658.669Z" transform="translate(-509.01 -383.306)" fill="#f0f0f0"/>
    <path id="Tracé_1152" data-name="Tracé 1152" d="M858.32,659.989a56.643,56.643,0,0,1,30.436,16.975,24.393,24.393,0,0,1,4.377,6.265,13.992,13.992,0,0,1,1.129,7.276c-.215,2.32-.7,4.668-.35,7a8.566,8.566,0,0,0,3.876,5.836,22.255,22.255,0,0,0,8.367,2.9c3.232.62,6.6,1.213,9.3,3.232.327.245.687-.277.361-.521-4.693-3.513-10.983-2.776-16.118-5.255a8.675,8.675,0,0,1-5.051-5.724c-.519-2.344-.018-4.766.22-7.114a14.929,14.929,0,0,0-.838-7.155,22.551,22.551,0,0,0-4.12-6.41,54.954,54.954,0,0,0-13.259-10.917,57.645,57.645,0,0,0-18.278-7.023c-.4-.079-.445.553-.049.632Z" transform="translate(-508.817 -384.328)" fill="#fff"/>
    <path id="Tracé_1153" data-name="Tracé 1153" d="M910.214,677.083a8.5,8.5,0,0,0-.195-11c-.271-.305-.758.1-.487.406a7.869,7.869,0,0,1,.16,10.235C909.433,677.037,909.956,677.4,910.214,677.083Z" transform="translate(-532.72 -387.407)" fill="#fff"/>
    <path id="Tracé_1154" data-name="Tracé 1154" d="M915.793,712.636a16.38,16.38,0,0,1-11.52-3.128c-.328-.243-.688.278-.361.521a17.037,17.037,0,0,0,11.994,3.231C916.312,713.215,916.2,712.591,915.793,712.636Z" transform="translate(-530.084 -407.621)" fill="#fff"/>
    <path id="Tracé_1155" data-name="Tracé 1155" d="M878.551,667.637a4.81,4.81,0,0,1-3.779,2.56c-.407.04-.291.663.113.624A5.39,5.39,0,0,0,879.072,668a.328.328,0,0,0-.08-.441A.319.319,0,0,0,878.551,667.637Z" transform="translate(-516.476 -388.118)" fill="#fff"/>
  </g>
  <g id="goodcard">
    <rect id="Rectangle_76" data-name="Rectangle 76" width="173.455" height="42.15" transform="translate(63.209)" fill="#e6e6e6"/>
    <path id="Tracé_1167" data-name="Tracé 1167" d="M331.958,186.866H496.311V153.819H331.958Z" transform="translate(-264.198 -149.267)" fill="#fff"/>
    <circle id="Ellipse_27" data-name="Ellipse 27" cx="12.59" cy="12.59" r="12.59" transform="translate(86.474 8.485)" fill="#77c4c2"/>
    <rect id="Rectangle_77" data-name="Rectangle 77" width="84.228" height="2.737" transform="translate(129.171 16.148)" fill="#77c4c2"/>
    <rect id="Rectangle_78" data-name="Rectangle 78" width="84.228" height="2.737" transform="translate(129.171 23.265)" fill="#77c4c2"/>
  </g>
  <g id="badcard1">
    <path id="Rectangle_1" data-name="Rectangle 1" d="M205.309,265.054l146.764,10.705v38.535l-146.764-2.725Z" transform="translate(-205.309 -200.989)" fill="#e6e6e6"/>
    <path id="Path_1" data-name="Path 1" d="M213.95,311.294l138.937,3.4V284.339L213.95,275.021Z" transform="translate(-209.327 -205.624)" fill="#fff"/>
    <path id="Ellipse_1" data-name="Ellipse 1" d="M260.519,286.6a11.047,11.047,0,0,1,4.577,1.325,12.742,12.742,0,0,1,3.7,3.051,14.409,14.409,0,0,1,2.476,4.319,15.1,15.1,0,0,1,.9,5.16,14.41,14.41,0,0,1-.9,5.077,12.8,12.8,0,0,1-2.476,4.095,11.174,11.174,0,0,1-3.7,2.713,10.383,10.383,0,0,1-4.577.906,10.961,10.961,0,0,1-4.629-1.189,12.627,12.627,0,0,1-3.819-3,14.352,14.352,0,0,1-2.595-4.383,15.1,15.1,0,0,1-.955-5.3,14.388,14.388,0,0,1,.955-5.212,12.72,12.72,0,0,1,2.6-4.144,11.1,11.1,0,0,1,3.819-2.652A10.378,10.378,0,0,1,260.519,286.6Z" transform="translate(-225.402 -211)" fill="#e6e6e6"/>
    <path id="Rectangle_2" data-name="Rectangle 2" d="M322.037,304.444l67.621,3.524v2.561l-67.621-3.285Z" transform="translate(-259.585 -219.305)" fill="#e6e6e6"/>
    <path id="Rectangle_3" data-name="Rectangle 3" d="M322.037,318.051l67.621,2.9v2.561l-67.621-2.664Z" transform="translate(-259.585 -225.632)" fill="#e6e6e6"/>
  </g>
  <g id="badcard2">
    <path id="Rectangle_4" data-name="Rectangle 4" d="M205.309,409l146.764-2.725v38.535L205.309,455.514Z" transform="translate(-205.309 -266.653)" fill="#e6e6e6"/>
    <path id="Path_2" data-name="Path 2" d="M213.95,453.864l138.937-9.318V414.2l-138.937,3.4Z" transform="translate(-209.327 -270.337)" fill="#fff"/>
    <path id="Ellipse_2" data-name="Ellipse 2" d="M248.528,440.185a15.078,15.078,0,0,1,1.169-5.254,14.178,14.178,0,0,1,2.764-4.249,12.413,12.413,0,0,1,3.927-2.807,10.831,10.831,0,0,1,4.661-.953,10.4,10.4,0,0,1,4.525,1.14,11.333,11.333,0,0,1,3.579,2.9,13.011,13.011,0,0,1,2.305,4.222,14.557,14.557,0,0,1,.7,5.126,15.085,15.085,0,0,1-1.106,5.119,14.246,14.246,0,0,1-2.643,4.2A12.529,12.529,0,0,1,264.6,452.5a10.909,10.909,0,0,1-4.62,1.093,10.387,10.387,0,0,1-4.587-1.007,11.25,11.25,0,0,1-3.7-2.851,12.94,12.94,0,0,1-2.42-4.283A14.54,14.54,0,0,1,248.528,440.185Z" transform="translate(-225.398 -276.254)" fill="#e6e6e6"/>
    <path id="Rectangle_5" data-name="Rectangle 5" d="M322.037,437.761l67.621-2.664v2.561l-67.621,2.9Z" transform="translate(-259.585 -280.055)" fill="#e6e6e6"/>
    <path id="Rectangle_6" data-name="Rectangle 6" d="M322.037,450.828l67.621-3.285V450.1l-67.621,3.524Z" transform="translate(-259.585 -285.843)" fill="#e6e6e6"/>
  </g>
  <path id="Tracé_1168" data-name="Tracé 1168" d="M816.069,753.758H612.226a.535.535,0,0,1,0-1.07H816.069a.535.535,0,0,1,0,1.07Z" transform="translate(-394.268 -427.728)" fill="#cacaca"/>
  <g id="person" transform="translate(96.824 2.669)">
    <path id="Tracé_1346" data-name="Tracé 1346" d="M295.746.747c2.583-1.873,7.063-.1,10.006,3.958a12.549,12.549,0,0,1,2.322,5.452l1.664,2.356,23.825,31S359.84,63.9,362.074,68.562a9.4,9.4,0,0,1-.55,8.8l-5.273,2.468L320.507,47.523,303.294,19.235l-2.435-3.846a12.548,12.548,0,0,1-4.461-3.9c-2.943-4.059-3.236-8.868-.653-10.741h0Z" transform="translate(-167.225 0)" fill="#feb9b9"/>
    <path id="Tracé_1347" data-name="Tracé 1347" d="M279.691,186.8l-1.55,28.282H234.382l1-28.282Z" transform="translate(-49.473 -76.736)" fill="#a0616a"/>
    <path id="Tracé_1348" data-name="Tracé 1348" d="M241.733,323.3l-9.967,63.425,9.672,47.641h-11.5l-17.055-50.71.569-58Z" transform="translate(1.153 -132.808)" fill="#feb9b9"/>
    <path id="Tracé_1349" data-name="Tracé 1349" d="M270.882,323.3l19.444,123.735h10.028l-.627-63.906-.563-57.471Z" transform="translate(-91.38 -132.808)" fill="#feb9b9"/>
    <g id="Groupe_2583" data-name="Groupe 2583" transform="translate(-116.165 -22.747)">
      <path id="Tracé_1326" data-name="Tracé 1326" d="M325.752,113.946l-2.21-13.811,14.915-6.077,2.21,20.992Z" transform="translate(-11.115 -29.764)" fill="#ffb6b6"/>
      <path id="Tracé_1327" data-name="Tracé 1327" d="M325.752,113.946l-2.21-13.811,14.915-6.077,2.21,20.992Z" transform="translate(-11.115 -29.764)" opacity="0.1"/>
      <g id="Groupe_2576" data-name="Groupe 2576" transform="translate(301.791 27.557)">
        <circle id="Ellipse_51" data-name="Ellipse 51" cx="15.21" cy="15.21" r="15.21" transform="translate(1.268 16.833)" fill="#ffb6b6"/>
        <path id="Tracé_1331" data-name="Tracé 1331" d="M319.614,39.151c-.443.257-1.037-.132-1.179-.621a2.531,2.531,0,0,1,.188-1.492l.827-2.431a12.447,12.447,0,0,1,2.479-4.82c1.917-1.98,4.963-2.484,7.7-2.119,3.521.469,7,2.361,8.633,5.491s.94,7.5-2.018,9.45c4.216,4.8,5.686,10.144,5.454,16.506s-7.217,12.218-11.772,16.7c-1.017-.612-1.942-3.481-1.383-4.523s-.242-2.249.451-3.209,1.272.569.572-.386c-.442-.6,1.283-1.988.626-2.348-3.178-1.743-4.234-5.675-6.23-8.686a14.925,14.925,0,0,0-10.887-6.5,10.355,10.355,0,0,0-6.907,1.566,6.406,6.406,0,0,0-2.786,6.209,5.491,5.491,0,0,1,1.155-8.63,8.958,8.958,0,0,1,1.926-8.491c2.053-2.247,10.381-1.864,13.379-1.273" transform="translate(-301.791 -27.557)" fill="#2f2e41"/>
        <path id="Tracé_1332" data-name="Tracé 1332" d="M318.035,68.641c3.941.425,6.786,3.839,9.189,6.991,1.385,1.817,2.835,3.823,2.8,6.108-.035,2.309-1.579,4.29-2.317,6.479A9.764,9.764,0,0,0,330.547,98.5a5.673,5.673,0,0,1-6.394-4.435c-.57-3.313,1.941-6.511,1.644-9.859-.262-2.95-2.587-5.221-4.563-7.426s-3.833-5.133-2.923-7.952" transform="translate(-299.684 -45.945)" fill="#2f2e41"/>
      </g>
      <path id="Tracé_1350" data-name="Tracé 1350" d="M227.631,172.988c16.351,6.244,31.683,6.475,44.78-6.481-.49-13.652,3.06-23.395,7.365-32.407l.295-27.693L263.279,95.8h-26.9l-.055.032a11.719,11.719,0,0,1-10.513.708c-.3-.129-.5-.19-.539-.151-5.068,5.321-2.13,16.548-1.188,24.082l2.072,16.574c2.071,6.5,2.482,29.1,1.473,35.942Z" transform="translate(73.382 -16.607)" fill="#344766"/>
    </g>
    <path id="Tracé_1351" data-name="Tracé 1351" d="M263.188,215.8l3.535,14.141s17.676,30.05,8.838,60.689l-28.38,9.4-1.964-27.369-3.24,27.369s-22.1-3.211-29.756-10.871c0,0-5.892-40.066,2.357-55.975l3.83-12.668s24.452,6.776,44.78-4.714Z" transform="translate(-33.559 -88.649)" fill="#2f2e41"/>
    <path id="Tracé_1352" data-name="Tracé 1352" d="M338.635,99.882s-4.322,9.933-10.115,7.343c-12.235-2.479-28.684-27.331-28.684-27.331L316.7,78.8l21.212,17.087a4.664,4.664,0,0,1,.723,3.994Z" transform="translate(-146.751 -32.371)" fill="#344766"/>
    <path id="Tracé_1353" data-name="Tracé 1353" d="M266.223,530h0a8.764,8.764,0,0,0-.486,2.885h0a3.464,3.464,0,0,0,3.464,3.464h31.611a2.363,2.363,0,0,0,2.363-2.363v-1.316s1.564-3.955-1.656-8.831c0,0-4,3.817-9.98-2.162l-1.763-3.194-12.763,9.334-7.074.871c-1.548.19-2.92-.03-3.716,1.311Z" transform="translate(-91.547 -212.985)" fill="#2f2e41"/>
    <path id="Tracé_1354" data-name="Tracé 1354" d="M204.216,526.134h0a8.765,8.765,0,0,0,.689,2.844h0a3.464,3.464,0,0,0,4.548,1.821l29.059-12.442a2.363,2.363,0,0,0,1.242-3.1l-.518-1.21s-.119-4.252-5-7.466c0,0-2.176,5.084-10.026,1.941l-2.878-2.242-8.059,13.6-6.161,3.585c-1.348.784-2.7,1.122-2.9,2.668h0Z" transform="translate(8.052 -207.972)" fill="#2f2e41"/>
    <path id="Tracé_1355" data-name="Tracé 1355" d="M219.539,219.994c-3.191.007-5.786-4.051-5.8-9.065a12.549,12.549,0,0,1,1.308-5.78l.03-2.884L213.9,163.187s-9.372-31.915-8.458-37a9.4,9.4,0,0,1,5.6-6.815l5.72,1.084,10.075,47.116-2.6,33.011-.277,4.543A12.549,12.549,0,0,1,225.3,210.9c.011,5.014-2.566,9.084-5.757,9.091Z" transform="translate(20.473 -49.037)" fill="#feb9b9"/>
    <path id="Tracé_1356" data-name="Tracé 1356" d="M213.022,108.79s11.2-.589,13.552,5.3,4.242,35.892,4.242,35.892l-16.027-10.556c-3.451-9.086-6.208-18.437-3.535-29.862l1.768-.777Z" transform="translate(13.661 -44.683)" fill="#344766"/>
    <path id="Tracé_1358" data-name="Tracé 1358" d="M242.08,18.494a8.53,8.53,0,1,0,2.433,16.886c4.663-.672,8.946-7.974,4.412-9.254C243.535,24.6,246.743,17.822,242.08,18.494Z" transform="translate(-20.859 -7.578)" fill="#2f2e41"/>
  </g>
</svg>
