<svg xmlns="http://www.w3.org/2000/svg" width="53.583" height="36.283" viewBox="0 0 53.583 36.283">
  <g id="Groupe_2526" data-name="Groupe 2526" transform="translate(-349.463 -619.482)">
    <path id="Tracé_1075" data-name="Tracé 1075" d="M670.837,291.52a2.875,2.875,0,0,0-2.875,2.875v8.675a2.712,2.712,0,0,1-5.424,0v-8.675a2.875,2.875,0,0,0-5.75,0v8.675a8.462,8.462,0,0,0,16.924,0V294.4a2.875,2.875,0,0,0-2.875-2.875" transform="translate(-288.995 336.098)" fill="#161615"/>
    <path id="Tracé_1076" data-name="Tracé 1076" d="M14.049,291.511a2.875,2.875,0,0,0-2.875,2.875v8.675a2.712,2.712,0,0,1-5.424,0v-8.675a2.875,2.875,0,1,0-5.75,0v8.675a8.458,8.458,0,0,0,11.174,8.014v5.709a2.875,2.875,0,1,0,5.75,0v-22.4a2.875,2.875,0,0,0-2.875-2.875" transform="translate(349.463 336.107)" fill="#161615"/>
    <path id="Tracé_1077" data-name="Tracé 1077" d="M1322.027,8.141a8.422,8.422,0,0,0-2.712.448V2.88a2.875,2.875,0,1,0-5.75,0v22.4a2.875,2.875,0,1,0,5.75,0V16.6a2.712,2.712,0,1,1,5.424,0v8.674a2.875,2.875,0,1,0,5.75,0V16.6a8.472,8.472,0,0,0-8.462-8.462" transform="translate(-927.443 619.477)" fill="#161615"/>
  </g>
</svg>
