<?xml version="1.0" encoding="UTF-8"?>
<svg id="AW" xmlns="http://www.w3.org/2000/svg" viewBox="0 0 283.46 283.46">
  <defs>
    <style>
      .cls-1 {
        fill: #fff;
      }
    </style>
  </defs>
  <rect width="283.46" height="283.46"/>
  <path class="cls-1" d="M241.58,217.8v1.06c-30.25,10.56-66.49,1.93-86.24-17.33-3.05-2.57-13.82-14.24-18-19.23-9.47-11.12-22.12-28.72-32.92-42.49v56.19h-15.35V84.67c17.19,14.03,34.55,41.87,47.54,58.62,0,0,25.23,33.97,35.78,46.01,8.15,10.02,22.3,20.98,32.17,24.65,13.21,5.26,26.62,6.08,37.01,3.85Z"/>
  <path class="cls-1" d="M41.89,64.61c30.25-10.56,66.49-1.93,86.24,17.33,3.05,2.57,13.82,14.24,18,19.23,9.47,11.12,22.12,28.72,32.92,42.49v-56.19h15.35v111.34c-17.19-14.03-34.55-41.87-47.54-58.62,0,0-25.24-33.97-35.78-46.01-8.15-10.02-22.3-20.98-32.17-24.65-13.21-5.26-26.62-6.07-37.01-3.85v-1.06Z"/>
</svg>