<svg xmlns="http://www.w3.org/2000/svg" width="438.737" height="498.199" viewBox="0 0 438.737 498.199">
  <g id="undraw_in_thought_re_qyxl" transform="translate(0)" opacity="0.997">
    <g id="Groupe_2570" data-name="Groupe 2570" transform="translate(0 14.093)">
      <path id="Tracé_1169" data-name="Tracé 1169" d="M404.58,339.475c-21.9-21.557-31.146-44.046-26.043-63.324,6.55-24.74,35.646-41.845,79.828-46.93l.163,1.419c-43.567,5.014-72.22,21.735-78.61,45.876-4.967,18.762,4.147,40.759,25.664,61.941Z" transform="translate(-304.032 -151.509)" fill="#77a9c4"/>
      <path id="Tracé_1170" data-name="Tracé 1170" d="M638.053,468.671c-27.33,0-57.029-4.061-86.528-11.871-36.48-9.658-69.928-24.235-96.728-42.156l.794-1.187c26.671,17.834,59.971,32.345,96.3,41.962,32.83,8.692,65.906,12.719,95.64,11.656l.052,1.427Q642.872,468.672,638.053,468.671Z" transform="translate(-326.227 -204.185)" fill="#77a9c4"/>
      <path id="Tracé_1171" data-name="Tracé 1171" d="M756.778,411.151l-.457-1.353c24.443-8.264,39.731-21.577,44.211-38.5,5.7-21.514-6.678-46.479-34.84-70.3-28.306-23.939-69.124-43.8-114.937-55.93l.365-1.381c46.013,12.181,87.029,32.147,115.493,56.221,28.607,24.194,41.144,49.676,35.3,71.752C797.3,389.072,781.7,402.727,756.778,411.151Z" transform="translate(-382.254 -155.646)" fill="#77a9c4"/>
      <path id="Tracé_1172" data-name="Tracé 1172" d="M438.269,456.461c-53.7-23.817-95.083-54.717-116.52-87.008l1.19-.79c21.289,32.068,62.453,62.785,115.909,86.493Z" transform="translate(-288.187 -191.377)" fill="#77a9c4"/>
      <path id="Tracé_1173" data-name="Tracé 1173" d="M742.563,542.752q-8.309,0-16.9-.371l.061-1.427c42.748,1.851,80.466-3.265,109.082-14.8l.534,1.325C810.377,537.541,778.56,542.752,742.563,542.752Z" transform="translate(-403.671 -236.407)" fill="#77a9c4"/>
      <path id="Tracé_1174" data-name="Tracé 1174" d="M634.974,220.862c-8.876-2.89-18.006-5.581-27.135-8-52.538-13.909-104.183-18.847-149.355-14.278l-.144-1.421c45.34-4.584,97.162.366,149.864,14.319,9.156,2.424,18.311,5.122,27.212,8.021Z" transform="translate(-327.24 -141.869)" fill="#77a9c4"/>
      <path id="Tracé_1175" data-name="Tracé 1175" d="M357.58,342.475c-21.9-21.557-31.146-44.046-26.043-63.324,6.55-24.74,35.646-41.845,79.828-46.93l.163,1.419c-43.567,5.014-72.22,21.735-78.611,45.876-4.967,18.762,4.147,40.759,25.664,61.941Z" transform="translate(-290.593 -152.367)" fill="#77a9c4"/>
      <path id="Tracé_1176" data-name="Tracé 1176" d="M591.053,471.671c-27.33,0-57.029-4.061-86.528-11.871-36.48-9.658-69.928-24.235-96.728-42.156l.794-1.187c26.671,17.834,59.971,32.345,96.3,41.962,32.83,8.692,65.906,12.719,95.64,11.656l.052,1.427Q595.872,471.672,591.053,471.671Z" transform="translate(-312.789 -205.042)" fill="#77a9c4"/>
      <path id="Tracé_1177" data-name="Tracé 1177" d="M709.778,414.151l-.457-1.353c24.443-8.264,39.731-21.577,44.211-38.5,5.7-21.514-6.678-46.479-34.84-70.3-28.306-23.939-69.124-43.8-114.937-55.93l.365-1.381c46.013,12.181,87.029,32.147,115.493,56.221,28.607,24.194,41.144,49.676,35.3,71.752C750.3,392.072,734.7,405.727,709.778,414.151Z" transform="translate(-368.816 -156.503)" fill="#77a9c4"/>
      <path id="Tracé_1178" data-name="Tracé 1178" d="M391.269,459.461c-53.7-23.817-95.083-54.717-116.52-87.008l1.19-.79c21.289,32.068,62.453,62.785,115.909,86.493Z" transform="translate(-274.749 -192.235)" fill="#77a9c4"/>
      <path id="Tracé_1179" data-name="Tracé 1179" d="M695.563,545.752q-8.309,0-16.9-.371l.061-1.427c42.748,1.851,80.466-3.265,109.082-14.8l.534,1.325C763.377,540.541,731.56,545.752,695.563,545.752Z" transform="translate(-390.233 -237.265)" fill="#77a9c4"/>
      <path id="Tracé_1180" data-name="Tracé 1180" d="M587.974,223.862c-8.876-2.89-18.006-5.581-27.135-8-52.538-13.909-104.183-18.847-149.355-14.278l-.144-1.421c45.34-4.584,97.162.366,149.864,14.319,9.156,2.424,18.311,5.122,27.212,8.021Z" transform="translate(-313.802 -142.726)" fill="#77a9c4"/>
      <path id="Path_2961" data-name="Path 2961" d="M387.427,761.285a10.237,10.237,0,0,0,9.969-1.171c3.623-2.7,4.982-7.42,6.12-11.794l3.361-12.94-5.676,3.446c-4.082,2.478-8.258,5.038-11.205,8.8s-4.437,9.034-2.5,13.4" transform="translate(-306.736 -296.227)" fill="#77a9c4"/>
      <circle id="Ellipse_32" data-name="Ellipse 32" cx="5.713" cy="5.713" r="5.713" transform="translate(42.667 101.834)" fill="#77a9c4"/>
      <circle id="Ellipse_34" data-name="Ellipse 34" cx="5.713" cy="5.713" r="5.713" transform="translate(374.004 276.071)" fill="#77a9c4"/>
      <path id="Tracé_1185" data-name="Tracé 1185" d="M445.014,298.547l.217-1.412,27.9,4.28c-2.843-2.745-12.259-11.234-20.8-12.094-10.2-1.028-14.691,3.339-15.284,9.225s2.933,11.061,13.135,12.09c8.648.872,19.739-5.743,22.919-7.78Z" transform="translate(-321.135 -168.649)" fill="#77a9c4"/>
      <path id="Tracé_1187" data-name="Tracé 1187" d="M818.9,189.118l-.861-1.14,22.526-17.012c-3.95.124-16.6.952-23.173,6.472-7.852,6.595-7.852,12.857-4.047,17.387s9.973,5.612,17.825-.983c6.656-5.59,9.649-18.152,10.408-21.851Z" transform="translate(-428.03 -134.853)" fill="#77a9c4"/>
      <path id="Tracé_1189" data-name="Tracé 1189" d="M745.319,420.493l-.619-.82,16.206-12.239c-2.842.089-11.943.685-16.672,4.657-5.649,4.745-5.649,9.25-2.912,12.509s7.175,4.037,12.824-.707c4.788-4.022,6.942-13.06,7.487-15.721Z" transform="translate(-407.638 -202.462)" fill="#77a9c4"/>
      <path id="Tracé_1190" data-name="Tracé 1190" d="M566.691,143.613c4.391-11.805,14.765-22.006,27.3-23.219a58.032,58.032,0,0,0-9.172,38.773c.642,5.243,1.9,11.008-.925,15.471a12.972,12.972,0,0,1-8.053,5.258,38.527,38.527,0,0,1-9.811.647l-.736.363C562.984,168.524,562.3,155.418,566.691,143.613Z" transform="translate(-357.299 -120.394)" fill="#77a9c4"/>
      <path id="Tracé_1195" data-name="Tracé 1195" d="M624.768,160.9c-.21.075-.421.151-.632.231a55.468,55.468,0,0,0-8.178,3.756c-.2.111-.41.226-.611.342a58.482,58.482,0,0,0-16.364,13.995,56.807,56.807,0,0,0-4.881,7.116c-1.994,3.442-3.882,7.333-6.811,9.842a9.732,9.732,0,0,1-.954.737l-19.983-4.729c-.04-.034-.081-.063-.122-.1l-.806-.152c.065-.134.136-.271.2-.4.038-.078.08-.154.117-.232.027-.051.053-.1.074-.151.009-.017.018-.034.025-.047.021-.048.046-.09.066-.134q.591-1.153,1.2-2.3s0,0,.007-.008A83.511,83.511,0,0,1,578.2,172.332c.131-.147.263-.3.4-.444a54.2,54.2,0,0,1,6.437-6.064,47.919,47.919,0,0,1,3.945-2.817,39.84,39.84,0,0,1,11.422-4.972c8.063-2.088,16.7-1.575,23.816,2.549C624.41,160.69,624.588,160.795,624.768,160.9Z" transform="translate(-357.857 -130.813)" fill="#77a9c4"/>
      <path id="Tracé_1200" data-name="Tracé 1200" d="M481.691,371.613c4.391-11.805,14.765-22.006,27.3-23.219a58.032,58.032,0,0,0-9.172,38.772c.642,5.243,1.9,11.008-.925,15.471a12.972,12.972,0,0,1-8.053,5.258,38.528,38.528,0,0,1-9.811.647l-.736.363C477.984,396.524,477.3,383.418,481.691,371.613Z" transform="translate(-332.996 -185.582)" fill="#77a9c4"/>
      <path id="Tracé_1205" data-name="Tracé 1205" d="M539.768,388.9c-.21.075-.421.151-.632.231a55.475,55.475,0,0,0-8.178,3.756c-.2.111-.41.226-.611.342a58.48,58.48,0,0,0-16.364,13.995,56.79,56.79,0,0,0-4.881,7.116c-1.994,3.442-3.883,7.333-6.811,9.842a9.733,9.733,0,0,1-.954.737l-19.983-4.728c-.04-.034-.081-.063-.122-.1l-.806-.152c.066-.134.136-.271.2-.4.038-.078.08-.154.117-.232.027-.051.053-.1.074-.151.009-.017.018-.034.025-.047.021-.048.046-.09.066-.134q.591-1.153,1.2-2.3s0,0,.007-.008A83.508,83.508,0,0,1,493.2,400.332c.131-.147.263-.3.4-.444a54.2,54.2,0,0,1,6.437-6.064,47.925,47.925,0,0,1,3.945-2.817,39.841,39.841,0,0,1,11.422-4.972c8.063-2.088,16.7-1.575,23.816,2.549C539.41,388.69,539.588,388.795,539.768,388.9Z" transform="translate(-333.555 -196.001)" fill="#77a9c4"/>
      <path id="Tracé_1210" data-name="Tracé 1210" d="M830.953,495.249c-2.241-8.377-.483-18.237,6.07-23.915a39.951,39.951,0,0,0,10.306,25.42c2.45,2.687,5.455,5.422,5.647,9.053a8.93,8.93,0,0,1-2.425,6.161,26.52,26.52,0,0,1-5.249,4.274l-.268.5C838.8,510.71,833.194,503.626,830.953,495.249Z" transform="translate(-433.511 -220.732)" fill="#77a9c4"/>
      <path id="Tracé_1215" data-name="Tracé 1215" d="M871.623,478.121c-.088.126-.176.252-.263.382a38.183,38.183,0,0,0-3.093,5.368c-.071.143-.14.29-.207.435a40.261,40.261,0,0,0-3.607,14.378,39.109,39.109,0,0,0,.1,5.94c.253,2.727.744,5.664.1,8.239a6.707,6.707,0,0,1-.242.794l-13.1,5.311c-.036,0-.071,0-.107-.005l-.513.236c-.016-.1-.031-.207-.048-.308-.01-.059-.017-.119-.027-.177-.006-.039-.011-.079-.018-.114,0-.013,0-.026,0-.036-.007-.035-.01-.069-.017-.1q-.128-.882-.244-1.77s0,0,0-.007a57.492,57.492,0,0,1-.288-13.589c.015-.135.029-.273.05-.41a37.291,37.291,0,0,1,1.2-5.97,32.963,32.963,0,0,1,1.092-3.154,27.429,27.429,0,0,1,4.43-7.343c3.693-4.386,8.748-7.541,14.385-8.062C871.336,478.144,871.478,478.132,871.623,478.121Z" transform="translate(-439.155 -222.673)" fill="#77a9c4"/>
    </g>
    <circle id="Ellipse_563" data-name="Ellipse 563" cx="32.49" cy="32.49" r="32.49" transform="translate(79.027 13.951)" fill="#77c4c2"/>
    <path id="Tracé_1181" data-name="Tracé 1181" d="M428.293,167.065a33.2,33.2,0,1,1,33.2-33.2,33.2,33.2,0,0,1-33.2,33.2Zm0-64.979a31.775,31.775,0,1,0,31.775,31.775A31.775,31.775,0,0,0,428.293,102.086Z" transform="translate(-309.156 -100.658)" fill="#3f3d56"/>
    <circle id="Ellipse_565" data-name="Ellipse 565" cx="22.311" cy="22.311" r="22.311" transform="translate(388.168 140.087)" fill="#77c4c2"/>
    <path id="Tracé_1182" data-name="Tracé 1182" d="M847.689,329.155a23.025,23.025,0,1,1,23.025-23.025A23.025,23.025,0,0,1,847.689,329.155Zm0-44.622a21.6,21.6,0,1,0,21.6,21.6A21.6,21.6,0,0,0,847.689,284.533Z" transform="translate(-431.977 -152.821)" fill="#3f3d56"/>
    <g id="Group_221" data-name="Group 221" transform="translate(184.321 116.489)">
      <path id="Path_2938" data-name="Path 2938" d="M671.134,413.468l12.139-1.428,4.285,37.132L698.5,500.449a7.855,7.855,0,1,1-8.521,1.071l-10.987-30.212Z" transform="translate(-572.402 -306.175)" fill="#ffb6b6"/>
      <path id="Path_2939" data-name="Path 2939" d="M646.437,769.307h10l4.759-38.579H646.436Z" transform="translate(-565.34 -397.292)" fill="#ffb6b6"/>
      <path id="Path_2940" data-name="Path 2940" d="M642.866,793.138h32.25v-.408a12.553,12.553,0,0,0-12.551-12.552h-19.7Z" transform="translate(-564.319 -411.431)" fill="#2f2e41"/>
      <path id="Path_2941" data-name="Path 2941" d="M538.948,761.949l9.82,1.9,11.988-36.975-14.5-2.8Z" transform="translate(-534.608 -395.389)" fill="#ffb6b6"/>
      <path id="Path_2942" data-name="Path 2942" d="M532.87,784.672l31.665,6.115.077-.4a12.554,12.554,0,0,0-9.945-14.705h0l-19.34-3.735Z" transform="translate(-532.87 -409.077)" fill="#2f2e41"/>
      <path id="Path_2943" data-name="Path 2943" d="M648.646,310.231l-5.811,11.15-43.524-9.6,4.768-21.618c3.774-17.111,18.9-29.468,36.014-25.694s25.094,20.5,21.32,37.609L654.4,323.929l-7.1-1.565Z" transform="translate(-551.866 -263.788)" fill="#2f2e41"/>
      <path id="Path_2944" data-name="Path 2944" d="M648.1,500.278s4.284,21.423-1.428,52.842-7.141,44.987-7.141,44.987,4.285,5,1.428,7.855,0,8.569,0,8.569L634.537,683.8l-22.137-3.57,2.856-64.982s-2.856-5.713-1.428-7.141-1.428-10-1.428-10l-3.57-67.838-22.137,74.265s2.142,2.856,0,5-6.427,12.854-6.427,12.854l-14.282,49.986-22.851-4.284,12.854-57.127s-1.428-3.57.714-5.713a5.594,5.594,0,0,0,1.428-5s-2.142-2.142.714-5,4.285-14.282,4.285-14.282,2.142-76.407,9.283-80.692S648.1,500.278,648.1,500.278Z" transform="translate(-535.805 -330.859)" fill="#2f2e41"/>
      <circle id="Ellipse_569" data-name="Ellipse 569" cx="19.994" cy="19.994" r="19.994" transform="translate(60.017 11.276)" fill="#ffb6b6"/>
      <path id="Path_2945" data-name="Path 2945" d="M597.931,343.287s-14.513-1.7-18.8,2.584l4.285,86.4s-2.856,2.142-1.428,7.141a20.4,20.4,0,0,1,0,10s-4.284,5-2.142,7.141,79.264.714,79.264.714,2.856-5-1.428-7.855S655.54,438.7,655.54,438.7s1.428-2.142-2.142-5.713-6.427-32.848-6.427-32.848l9.283-35.7s-9.345-10.548-20.025-11.343Z" transform="translate(-546.097 -286.423)" fill="#344766"/>
      <path id="Path_2946" data-name="Path 2946" d="M670.35,373.53l11.063-.491s6.427,12.854,7.141,24.279l3.932,42.622-25.355,3.793Z" transform="translate(-571.257 -295.024)" fill="#344766"/>
      <path id="Path_2947" data-name="Path 2947" d="M654.563,298.883l7.426-9.556a7.791,7.791,0,0,0-5.914-9.261l-28.058-6.189a7.792,7.792,0,0,0-9.262,5.914l-.016.071L620.75,291.4l.353-.063c17.413-3.1,22.373-2.012,33.176,7.3Z" transform="translate(-557.421 -266.621)" fill="#2f2e41"/>
      <path id="Path_2948" data-name="Path 2948" d="M562.938,484.257l1.339-56.227L565.7,388.04l17.138,2.142-9.2,95.577a7.855,7.855,0,1,1-11.038-1.25q.165-.131.337-.254Z" transform="translate(-540.524 -299.313)" fill="#ffb6b6"/>
      <path id="Path_2949" data-name="Path 2949" d="M584.346,348.244l-12.5-1.205s-2.142,0-4.284,7.141-13.919,82.611-13.919,82.611l26.059,2.365Z" transform="translate(-538.809 -287.59)" fill="#344766"/>
    </g>
    <g id="Group_58" data-name="Group 58" transform="translate(395.46 433.225)">
      <path id="Path_438" data-name="Path 438" d="M872.7,743.994a13.906,13.906,0,0,1-13.429-2.366c-4.7-3.947-6.178-10.452-7.378-16.474l-3.549-17.813,7.43,5.117c5.343,3.679,10.807,7.477,14.507,12.806s5.315,12.6,2.342,18.371" transform="translate(-834.206 -707.341)" fill="#fd6584"/>
      <path id="Path_439" data-name="Path 439" d="M875.54,772.883c.935-6.814,1.9-13.715,1.241-20.6a32.4,32.4,0,0,0-6.248-16.987,28.258,28.258,0,0,0-7.25-6.57c-.725-.458-1.393.691-.671,1.147a26.866,26.866,0,0,1,10.626,12.822c2.314,5.885,2.685,12.3,2.285,18.551-.241,3.78-.752,7.536-1.267,11.287a.688.688,0,0,0,.464.817.668.668,0,0,0,.817-.464Z" transform="translate(-838.198 -713.425)" fill="#f2f2f2"/>
      <path id="Path_442" data-name="Path 442" d="M859.157,770.859a10.237,10.237,0,0,1-8.92,4.6c-4.515-.214-8.28-3.366-11.668-6.355l-10.022-8.852,6.633-.317c4.77-.229,9.664-.441,14.21,1.03s8.734,5.011,9.565,9.711" transform="translate(-828.547 -722.333)" fill="#e6e6e6"/>
      <path id="Path_443" data-name="Path 443" d="M873.486,787.86c-4.5-7.966-9.724-16.82-19.055-19.65a21.267,21.267,0,0,0-8.015-.828c-.851.071-.638,1.385.214,1.312a19.755,19.755,0,0,1,12.791,3.384,33.234,33.234,0,0,1,8.791,9.487c1.456,2.214,2.76,4.528,4.064,6.836C872.689,789.138,873.908,788.606,873.486,787.86Z" transform="translate(-833.501 -724.484)" fill="#f2f2f2"/>
    </g>
    <g id="Group_222" data-name="Group 222" transform="translate(80.777 464.504)">
      <path id="Path_2962" data-name="Path 2962" d="M388.314,783.346c-.725-9.12-1.344-19.383,4.809-26.946a21.264,21.264,0,0,1,6.182-5.168c.746-.417,1.3.791.556,1.207a19.754,19.754,0,0,0-8.712,9.958,33.233,33.233,0,0,0-1.983,12.781c.031,2.649.244,5.3.453,7.94C389.689,783.96,388.381,784.2,388.314,783.346Z" transform="translate(-387.868 -751.145)" fill="#f2f2f2"/>
    </g>
    <circle id="Ellipse_567" data-name="Ellipse 567" cx="32.072" cy="32.072" r="32.072" transform="translate(35.67 206.762)" fill="#77c4c2"/>
    <path id="Tracé_1183" data-name="Tracé 1183" d="M367.022,436.479a32.786,32.786,0,1,1,32.786-32.786A32.786,32.786,0,0,1,367.022,436.479Zm0-64.143a31.358,31.358,0,1,0,31.358,31.358A31.358,31.358,0,0,0,367.022,372.336Z" transform="translate(-291.757 -177.926)" fill="#2f2e41"/>
    <circle id="Ellipse_33" data-name="Ellipse 33" cx="5.713" cy="5.713" r="5.713" transform="translate(336.157 87.363)" fill="#fd6584"/>
    <path id="Tracé_1184" data-name="Tracé 1184" d="M214.063,206.857Z" transform="translate(-61.203 -59.143)" fill="#f2f2f2"/>
    <path id="Tracé_1186" data-name="Tracé 1186" d="M579.407,70.278Z" transform="translate(-165.66 -20.093)" fill="#f2f2f2"/>
    <path id="Tracé_1188" data-name="Tracé 1188" d="M495.935,306.755Z" transform="translate(-141.794 -87.705)" fill="#f2f2f2"/>
    <path id="Tracé_1191" data-name="Tracé 1191" d="M594.727,120.538A49.6,49.6,0,0,0,576.3,144.864a21.362,21.362,0,0,0-1.3,6.564,12.252,12.252,0,0,0,1.657,6.231,25.356,25.356,0,0,1,2.745,5.489,7.5,7.5,0,0,1-1.053,6.044,19.487,19.487,0,0,1-5.686,5.274c-2.373,1.635-4.865,3.3-6.317,5.864-.176.311-.649.02-.473-.291,2.527-4.469,7.829-6.092,11.073-9.888a7.6,7.6,0,0,0,2.035-6.368c-.409-2.062-1.664-3.828-2.681-5.626a13.072,13.072,0,0,1-1.847-6.032,19.746,19.746,0,0,1,1.046-6.59,48.126,48.126,0,0,1,6.788-13.422,50.479,50.479,0,0,1,12.183-12.065c.292-.2.552.287.262.49Z" transform="translate(-357.973 -106.188)" fill="#fff"/>
    <path id="Tracé_1192" data-name="Tracé 1192" d="M580.149,146.654a7.442,7.442,0,0,1-3.717-8.89c.109-.34.643-.186.533.155a6.891,6.891,0,0,0,3.475,8.263c.319.16.027.632-.291.473Z" transform="translate(-360.903 -111.212)" fill="#fff"/>
    <path id="Tracé_1193" data-name="Tracé 1193" d="M580.036,168.883a14.343,14.343,0,0,0,8.135-6.564c.177-.311.65-.019.473.291a14.919,14.919,0,0,1-8.479,6.813C579.823,169.529,579.7,168.989,580.036,168.883Z" transform="translate(-361.977 -118.249)" fill="#fff"/>
    <path id="Tracé_1194" data-name="Tracé 1194" d="M593.916,131.267a4.212,4.212,0,0,0,3.931.722c.34-.111.467.43.129.54a4.72,4.72,0,0,1-4.351-.789.287.287,0,0,1-.091-.382.279.279,0,0,1,.382-.091Z" transform="translate(-365.883 -109.398)" fill="#fff"/>
    <path id="Tracé_1196" data-name="Tracé 1196" d="M624.745,162.641a49.6,49.6,0,0,0-29.359,8.328,21.36,21.36,0,0,0-4.993,4.456,12.25,12.25,0,0,0-2.429,5.973,25.357,25.357,0,0,1-1.113,6.036,7.5,7.5,0,0,1-4.48,4.191,19.49,19.49,0,0,1-7.715.788c-2.879-.123-5.868-.3-8.574.879-.328.143-.53-.375-.2-.517,4.708-2.047,9.919-.151,14.795-1.228a7.6,7.6,0,0,0,5.459-3.86c.915-1.893.976-4.058,1.247-6.106a13.073,13.073,0,0,1,2.157-5.928,19.748,19.748,0,0,1,4.8-4.632,48.124,48.124,0,0,1,13.5-6.63,50.481,50.481,0,0,1,16.992-2.3c.356.013.268.561-.086.549Z" transform="translate(-357.939 -118.213)" fill="#fff"/>
    <path id="Tracé_1197" data-name="Tracé 1197" d="M610.719,167.935A7.442,7.442,0,0,1,613.1,158.6c.292-.206.625.239.333.445a6.891,6.891,0,0,0-2.2,8.69c.158.32-.359.521-.517.2Z" transform="translate(-370.591 -117.209)" fill="#fff"/>
    <path id="Tracé_1198" data-name="Tracé 1198" d="M596.731,187.534a14.343,14.343,0,0,0,10.447-.343c.328-.141.53.376.2.517a14.919,14.919,0,0,1-10.872.335C596.171,187.922,596.4,187.414,596.731,187.534Z" transform="translate(-366.697 -125.392)" fill="#fff"/>
    <path id="Tracé_1199" data-name="Tracé 1199" d="M632.077,163.858a4.212,4.212,0,0,0,2.7,2.943c.338.116.114.624-.222.509a4.72,4.72,0,0,1-3-3.25.287.287,0,0,1,.157-.36A.279.279,0,0,1,632.077,163.858Z" transform="translate(-376.761 -118.677)" fill="#fff"/>
    <path id="Tracé_1201" data-name="Tracé 1201" d="M509.727,348.538A49.6,49.6,0,0,0,491.3,372.864a21.361,21.361,0,0,0-1.3,6.564,12.252,12.252,0,0,0,1.657,6.231,25.354,25.354,0,0,1,2.745,5.489,7.5,7.5,0,0,1-1.054,6.044,19.488,19.488,0,0,1-5.686,5.274c-2.373,1.635-4.865,3.3-6.317,5.865-.176.311-.649.02-.473-.291,2.527-4.469,7.829-6.092,11.073-9.888a7.6,7.6,0,0,0,2.035-6.368c-.409-2.062-1.664-3.828-2.681-5.626a13.073,13.073,0,0,1-1.847-6.032,19.748,19.748,0,0,1,1.047-6.59,48.122,48.122,0,0,1,6.788-13.422,50.481,50.481,0,0,1,12.183-12.065c.292-.2.552.287.262.49Z" transform="translate(-333.67 -171.376)" fill="#fff"/>
    <path id="Tracé_1202" data-name="Tracé 1202" d="M495.149,374.654a7.442,7.442,0,0,1-3.717-8.89c.109-.34.643-.186.533.155a6.891,6.891,0,0,0,3.475,8.263C495.759,374.342,495.466,374.814,495.149,374.654Z" transform="translate(-336.601 -176.4)" fill="#fff"/>
    <path id="Tracé_1203" data-name="Tracé 1203" d="M495.036,396.883a14.343,14.343,0,0,0,8.135-6.564c.177-.311.65-.019.473.291a14.919,14.919,0,0,1-8.479,6.813c-.342.107-.469-.434-.129-.54Z" transform="translate(-337.675 -183.438)" fill="#fff"/>
    <path id="Tracé_1204" data-name="Tracé 1204" d="M508.916,359.267a4.212,4.212,0,0,0,3.931.722c.34-.111.467.43.129.54a4.721,4.721,0,0,1-4.351-.789.287.287,0,0,1-.091-.382A.279.279,0,0,1,508.916,359.267Z" transform="translate(-341.58 -174.586)" fill="#fff"/>
    <path id="Tracé_1206" data-name="Tracé 1206" d="M539.745,390.641a49.6,49.6,0,0,0-29.359,8.328,21.362,21.362,0,0,0-4.993,4.456,12.251,12.251,0,0,0-2.429,5.973,25.355,25.355,0,0,1-1.113,6.036,7.5,7.5,0,0,1-4.48,4.191,19.49,19.49,0,0,1-7.715.788c-2.879-.123-5.868-.3-8.574.879-.328.143-.53-.375-.2-.517,4.708-2.047,9.919-.151,14.795-1.228a7.6,7.6,0,0,0,5.459-3.859c.915-1.893.976-4.058,1.247-6.106a13.071,13.071,0,0,1,2.157-5.928,19.748,19.748,0,0,1,4.8-4.632,48.124,48.124,0,0,1,13.5-6.63,50.481,50.481,0,0,1,16.992-2.3c.356.013.268.561-.086.548Z" transform="translate(-333.637 -183.401)" fill="#fff"/>
    <path id="Tracé_1207" data-name="Tracé 1207" d="M525.719,395.935A7.441,7.441,0,0,1,528.1,386.6c.292-.206.625.239.333.445a6.891,6.891,0,0,0-2.2,8.69c.158.32-.359.521-.517.2Z" transform="translate(-346.289 -182.397)" fill="#fff"/>
    <path id="Tracé_1208" data-name="Tracé 1208" d="M511.731,415.534a14.343,14.343,0,0,0,10.447-.343c.328-.141.53.376.2.517a14.919,14.919,0,0,1-10.872.335C511.171,415.922,511.4,415.414,511.731,415.534Z" transform="translate(-342.394 -190.58)" fill="#fff"/>
    <path id="Tracé_1209" data-name="Tracé 1209" d="M547.077,391.858a4.212,4.212,0,0,0,2.7,2.943c.338.116.114.624-.222.509a4.72,4.72,0,0,1-3-3.25.287.287,0,0,1,.157-.36.279.279,0,0,1,.36.157Z" transform="translate(-352.459 -183.865)" fill="#fff"/>
    <path id="Tracé_1211" data-name="Tracé 1211" d="M839.066,471.39a34.147,34.147,0,0,0-.648,21,14.7,14.7,0,0,0,1.885,4.2,8.433,8.433,0,0,0,3.413,2.837,17.453,17.453,0,0,1,3.729,1.987,5.165,5.165,0,0,1,1.818,3.812,13.418,13.418,0,0,1-1.089,5.227,13.174,13.174,0,0,0-1.208,5.81c.025.245-.356.27-.381.025-.363-3.516,1.966-6.54,2.274-9.964a5.23,5.23,0,0,0-1.4-4.386,13.543,13.543,0,0,0-3.747-2.089,9,9,0,0,1-3.441-2.65,13.592,13.592,0,0,1-2.039-4.116,33.132,33.132,0,0,1-1.54-10.239,34.756,34.756,0,0,1,2.029-11.628c.083-.231.424-.059.342.171Z" transform="translate(-435.416 -206.575)" fill="#fff"/>
    <path id="Tracé_1212" data-name="Tracé 1212" d="M835.767,496.349a5.123,5.123,0,0,1-5.63-3.509c-.074-.234.287-.361.361-.126a4.744,4.744,0,0,0,5.244,3.253c.243-.037.267.344.025.381Z" transform="translate(-433.539 -212.716)" fill="#fff"/>
    <path id="Tracé_1213" data-name="Tracé 1213" d="M845.555,507.606a9.874,9.874,0,0,0,1.95-6.927c-.024-.245.357-.27.381-.025a10.271,10.271,0,0,1-2.044,7.2C845.694,508.054,845.407,507.8,845.555,507.606Z" transform="translate(-437.938 -214.973)" fill="#fff"/>
    <path id="Tracé_1214" data-name="Tracé 1214" d="M837.286,481.786a2.9,2.9,0,0,0,2.495-1.162c.147-.2.433.055.288.252a3.25,3.25,0,0,1-2.757,1.291.2.2,0,0,1-.2-.178.192.192,0,0,1,.178-.2Z" transform="translate(-435.535 -209.275)" fill="#fff"/>
    <path id="Tracé_1216" data-name="Tracé 1216" d="M871.994,478.222A34.148,34.148,0,0,0,858.834,494.6a14.706,14.706,0,0,0-1.026,4.492,8.434,8.434,0,0,0,1.017,4.321,17.458,17.458,0,0,1,1.781,3.832,5.165,5.165,0,0,1-.844,4.138,13.418,13.418,0,0,1-4.017,3.517,13.176,13.176,0,0,0-4.463,3.911c-.127.211-.447,0-.32-.209,1.827-3.026,5.508-4.038,7.815-6.586a5.229,5.229,0,0,0,1.526-4.342,13.539,13.539,0,0,0-1.734-3.925,9,9,0,0,1-1.152-4.188,13.6,13.6,0,0,1,.85-4.514,33.13,33.13,0,0,1,4.935-9.1,34.756,34.756,0,0,1,8.622-8.063C872.029,477.745,872.2,478.088,871.994,478.222Z" transform="translate(-439.488 -208.502)" fill="#fff"/>
    <path id="Tracé_1217" data-name="Tracé 1217" d="M861.9,495.684a5.123,5.123,0,0,1-2.383-6.191c.082-.232.446-.115.364.117a4.744,4.744,0,0,0,2.228,5.755C862.328,495.481,862.118,495.8,861.9,495.684Z" transform="translate(-441.86 -211.795)" fill="#fff"/>
    <path id="Tracé_1218" data-name="Tracé 1218" d="M861.352,511.041a9.874,9.874,0,0,0,5.728-4.357c.128-.21.448,0,.32.209a10.271,10.271,0,0,1-5.969,4.521C861.193,511.482,861.116,511.107,861.352,511.041Z" transform="translate(-442.426 -216.721)" fill="#fff"/>
    <path id="Tracé_1219" data-name="Tracé 1219" d="M871.7,485.364a2.9,2.9,0,0,0,2.691.574c.236-.07.313.3.078.374a3.25,3.25,0,0,1-2.978-.629.2.2,0,0,1-.055-.265.192.192,0,0,1,.265-.055Z" transform="translate(-445.341 -210.641)" fill="#fff"/>
  </g>
</svg>
