<svg xmlns="http://www.w3.org/2000/svg" xmlns:xlink="http://www.w3.org/1999/xlink" width="610.129" height="796.062" viewBox="0 0 610.129 796.062">
  <defs>
    <clipPath id="clip-path">
      <rect id="Rectangle_56" data-name="Rectangle 56" width="15.299" height="17.445" fill="none"/>
    </clipPath>
    <clipPath id="clip-path-2">
      <rect id="Rectangle_57" data-name="Rectangle 57" width="21.295" height="11.989" fill="none"/>
    </clipPath>
    <clipPath id="clip-path-3">
      <rect id="Rectangle_58" data-name="Rectangle 58" width="8.939" height="16.854" fill="none"/>
    </clipPath>
    <clipPath id="clip-path-4">
      <rect id="Rectangle_59" data-name="Rectangle 59" width="7.299" height="8.495" fill="none"/>
    </clipPath>
    <clipPath id="clip-path-5">
      <rect id="Rectangle_61" data-name="Rectangle 61" width="76.688" height="84.388" fill="none"/>
    </clipPath>
    <clipPath id="clip-path-7">
      <rect id="Rectangle_64" data-name="Rectangle 64" width="7.376" height="11.377" fill="none"/>
    </clipPath>
    <clipPath id="clip-path-8">
      <rect id="Rectangle_62" data-name="Rectangle 62" width="28.28" height="16.144" fill="none"/>
    </clipPath>
    <clipPath id="clip-path-9">
      <rect id="Rectangle_63" data-name="Rectangle 63" width="15.836" height="9.236" fill="none"/>
    </clipPath>
  </defs>
  <g id="opening" transform="translate(-792.431 -134)">
    <g id="opening-hand" transform="translate(1330.431 -857.936)">
      <path id="Tracé_1063" data-name="Tracé 1063" d="M1756.56,303.336s24.333-2.755,32.548,18.88c6.474,17.052,1.617,42.268-31.469,65.55Z" transform="translate(-1765.633 780.018)" fill="#77c4c2"/>
      <path id="Tracé_1064" data-name="Tracé 1064" d="M1740.55,601.615s54.987-53.7,79.729-22.551c21.56,27.143-14.053,60.907-79.729,115.062Z" transform="translate(-1754.444 594.028)" fill="#77c4c2"/>
      <path id="Tracé_1065" data-name="Tracé 1065" d="M1786.841,1083.782l-40.307,52.454-5.983-12.249,3.966-59.967Z" transform="translate(-1754.444 248.309)" fill="#77c4c2"/>
      <path id="Tracé_1066" data-name="Tracé 1066" d="M518.626,967.682l-27.956.9L276.313,812.15,247.46,923.3l-90.35,178.5C150.732,1131.977,0,1363.661,0,1363.661H297.915l59.657-144.942c90.3-15.492,148.652-167.6,151.142-172.581,6.841-6.531,30.635-38.567,44.785-51.006,2.424-2.132,4.6-4.189,6.552-6.2l-41.421-21.247Z" transform="translate(-538 424.337)" fill="#77c4c2"/>
      <g id="opening-hand-phone" transform="translate(-267.231 991.936)">
        <g id="opening-hand-phone-screen" transform="translate(5.194)">
          <path id="Tracé_1067" data-name="Tracé 1067" d="M951.836,0h187.532a35.385,35.385,0,0,1,35.369,35.369V455.22a35.385,35.385,0,0,1-35.369,35.369H951.839A35.385,35.385,0,0,1,916.47,455.22V35.369A35.385,35.385,0,0,1,951.839,0Z" transform="translate(-916.47)" fill="#344766"/>
          <path id="opening-hand-phone-screen-bg" d="M990.907,45.86h181.826a22.63,22.63,0,0,1,22.62,22.62V486.208a22.63,22.63,0,0,1-22.62,22.62H990.91a22.63,22.63,0,0,1-22.62-22.62V68.48a22.63,22.63,0,0,1,22.62-22.62Z" transform="translate(-952.686 -32.051)" fill="#469190"/>
        </g>
        <path id="Tracé_1069" data-name="Tracé 1069" d="M1772.18,341.64h2.069a3.479,3.479,0,0,1,3.478,3.478v43.773a3.479,3.479,0,0,1-3.478,3.478h-2.069V341.64Z" transform="translate(-1509.318 -238.767)" fill="#344766"/>
        <path id="Tracé_1070" data-name="Tracé 1070" d="M902.7,363.85h2.069V401.2H902.7a3.479,3.479,0,0,1-3.478-3.478v-30.4A3.479,3.479,0,0,1,902.7,363.85Z" transform="translate(-899.22 -254.289)" fill="#344766"/>
        <path id="Tracé_1071" data-name="Tracé 1071" d="M902.7,498.74h2.069v37.353H902.7a3.479,3.479,0,0,1-3.478-3.478v-30.4A3.479,3.479,0,0,1,902.7,498.74Z" transform="translate(-899.22 -348.562)" fill="#351b12"/>
      </g>
      <path id="Tracé_1072" data-name="Tracé 1072" d="M613.307,449.573c17.206-1.653,38.567,8,38.567,73.987,0,45-8.82,64.415-8.82,64.415a175.76,175.76,0,0,1-7.666,60.19s54.02,58.531,53.571,142.7C688.21,931.638,552.109,903.4,521.714,848.3c0,0-.527-100.2,3.842-149.648a89.228,89.228,0,0,1,5.8-24.577c18.636-47.736,32.77-92.159,42.689-112.22,37.085-74.993,19.049-110.332,39.262-112.277Z" transform="translate(-902.604 677.853)" fill="#77c4c2"/>
      <path id="Tracé_1073" data-name="Tracé 1073" d="M1725.878,882.538s-12.945-15.571-27.934-8.136-25.58,39.693.852,67.013c20.1,20.771,34.6,18.919,34.6,18.919s15.378-5.926,21.015-27.164S1725.878,882.538,1725.878,882.538Z" transform="translate(-1713.963 382.236)" fill="#77c4c2"/>
      <path id="Tracé_1074" data-name="Tracé 1074" d="M1730.108,1216.955s-18.745-5.059-28.022-26.525-2.511-42.725,17.585-49.874c13.141-5.026,46.378,26.257,45.026,41.828-1.12,12.9-6.224,23.6-17.947,35.691l-16.646-1.117Z" transform="translate(-1724.703 195.197)" fill="#77c4c2"/>
    </g>
    <g id="opening-center" transform="translate(1118.131 271.253)">
      <path id="Tracé_1084" data-name="Tracé 1084" d="M245.468,188.469c-9.5,14.891-23.1,4.989-23.1,4.989l1.906,17.445c25.179,0,21.193-22.434,21.193-22.434" transform="translate(-90.736 -76.904)" fill="#c2eae9"/>
      <g id="Groupe_2531" data-name="Groupe 2531" transform="translate(131.633 116.554)" opacity="0.7" style="mix-blend-mode: multiply;isolation: isolate">
        <g id="Groupe_2530" data-name="Groupe 2530">
          <g id="Groupe_2529" data-name="Groupe 2529" clip-path="url(#clip-path)">
            <path id="Tracé_1085" data-name="Tracé 1085" d="M224.275,214.342c5.947,0,10.267-1.253,13.394-3.168a42.592,42.592,0,0,0-1.686-11.535c-7.134,1.971-13.614-2.743-13.614-2.743Z" transform="translate(-222.37 -196.897)" fill="rgba(255,220,220,0.26)"/>
          </g>
        </g>
      </g>
      <path id="Tracé_1086" data-name="Tracé 1086" d="M39.574,317.872c0,1.295,24.783,2.357,55.341,2.357s55.355-1.063,55.355-2.357c0-1.316-24.794-2.378-55.355-2.378s-55.341,1.063-55.341,2.378" transform="translate(-16.148 -128.735)" fill="#6b7189"/>
      <path id="Tracé_1087" data-name="Tracé 1087" d="M78.024,292.573v14.348s2.644,1.6,10.777,1.6,10.466-1.6,10.466-1.6v-8.643Z" transform="translate(-31.837 -119.382)" fill="#c2eae9"/>
      <path id="Tracé_1088" data-name="Tracé 1088" d="M87.49,309.1c-8.418,0-11.443-1.678-11.759-1.865a1.9,1.9,0,0,1-.919-1.631V291.26a1.9,1.9,0,1,1,3.8,0v13.063a31.485,31.485,0,0,0,8.875.979,29.411,29.411,0,0,0,8.57-.94v-7.4a1.9,1.9,0,1,1,3.8,0v8.644a1.9,1.9,0,0,1-.827,1.569c-.469.324-3.232,1.927-11.541,1.927" transform="translate(-30.526 -118.07)" fill="#344766"/>
      <path id="Tracé_1089" data-name="Tracé 1089" d="M154.192,297.4v8.644s2.336,1.6,10.467,1.6,10.793-1.6,10.793-1.6v-15.62Z" transform="translate(-62.917 -118.506)" fill="#c2eae9"/>
      <path id="Tracé_1090" data-name="Tracé 1090" d="M163.344,308.233c-8.3,0-11.066-1.6-11.537-1.923a1.9,1.9,0,0,1-.836-1.573v-8.644a1.9,1.9,0,1,1,3.8,0v7.386a29.27,29.27,0,0,0,8.57.951,31.391,31.391,0,0,0,8.888-.983v-14.33a1.9,1.9,0,0,1,3.8,0v15.62a1.893,1.893,0,0,1-.922,1.633c-.317.188-3.353,1.863-11.768,1.863" transform="translate(-61.603 -117.198)" fill="#344766"/>
      <path id="Tracé_1091" data-name="Tracé 1091" d="M222.967,211.487a1.9,1.9,0,0,1-1.895-1.694l-1.9-17.443a1.9,1.9,0,0,1,3.012-1.74,17.07,17.07,0,0,0,8.873,2.86h0c4.521,0,8.387-2.468,11.5-7.339a1.9,1.9,0,0,1,3.469.69c.078.419,1.744,10.262-4.31,17.485-3.993,4.763-10.3,7.181-18.752,7.181m.379-15.929,1.321,12.091c6.41-.288,11.163-2.229,14.138-5.784a16.937,16.937,0,0,0,3.606-9.479,15.826,15.826,0,0,1-11.35,4.887h0a19.4,19.4,0,0,1-7.714-1.715" transform="translate(-89.428 -75.591)" fill="#344766"/>
      <path id="Tracé_1092" data-name="Tracé 1092" d="M23.159,198.991l-17.488.648s-8.125,16.719,5.561,34.313c0,0,8.929,4.849,22.456,3.232Z" transform="translate(-1.337 -81.197)" fill="#c2eae9"/>
      <path id="Tracé_1093" data-name="Tracé 1093" d="M26.856,238.1h0c-10.755,0-17.579-3.638-17.865-3.793a1.948,1.948,0,0,1-.593-.5c-14.249-18.32-6.124-35.588-5.772-36.311a1.892,1.892,0,0,1,1.64-1.07l17.487-.652a1.894,1.894,0,0,1,1.9,1.394l10.529,38.2a1.9,1.9,0,0,1-.253,1.563,1.925,1.925,0,0,1-1.354.832,49.319,49.319,0,0,1-5.718.34m-15.722-6.971a38,38,0,0,0,15.72,3.169h0c1.013,0,2.035-.034,3.062-.11l-9.53-34.557-14.774.55c-1.417,3.723-5.191,16.9,5.52,30.948" transform="translate(0 -79.885)" fill="#344766"/>
      <g id="Groupe_2534" data-name="Groupe 2534" transform="translate(6.981 141.163)" opacity="0.7" style="mix-blend-mode: multiply;isolation: isolate">
        <g id="Groupe_2533" data-name="Groupe 2533">
          <g id="Groupe_2532" data-name="Groupe 2532" clip-path="url(#clip-path-2)">
            <path id="Tracé_1094" data-name="Tracé 1094" d="M11.792,238.469a35.106,35.106,0,0,0,4.978,9.079,36.818,36.818,0,0,0,14.895,2.909h0q.707,0,1.419-.022l-3.3-11.966Z" transform="translate(-11.792 -238.469)" fill="rgba(119,177,175,0.26)"/>
          </g>
        </g>
      </g>
      <path id="Tracé_1095" data-name="Tracé 1095" d="M90.848,136.719c-32.508,0-57.33,18.473-61.709,42.6,0,0-1.879,8.884-.517,14.408a92.21,92.21,0,0,0,3.988,11.725c8.8,18.633,30.779,31.805,58.238,31.805,35.9,0,62.5-22.49,62.5-50.262s-26.6-50.275-62.5-50.275" transform="translate(-11.477 -55.787)" fill="#c2eae9"/>
      <g id="Groupe_2537" data-name="Groupe 2537" transform="translate(50.53 83.403)" style="mix-blend-mode: multiply;isolation: isolate">
        <g id="Groupe_2536" data-name="Groupe 2536">
          <g id="Groupe_2535" data-name="Groupe 2535" clip-path="url(#clip-path-3)">
            <path id="Tracé_1096" data-name="Tracé 1096" d="M85.362,157.743s9.345.662,8.926-16.85l-7.26,2.3s4.458,6.642-1.665,14.551" transform="translate(-85.362 -140.893)" fill="rgba(119,177,175,0.26)"/>
          </g>
        </g>
      </g>
      <g id="Groupe_2540" data-name="Groupe 2540" transform="translate(56.965 177.497)" opacity="0.7" style="mix-blend-mode: multiply;isolation: isolate">
        <g id="Groupe_2539" data-name="Groupe 2539">
          <g id="Groupe_2538" data-name="Groupe 2538" clip-path="url(#clip-path-4)">
            <path id="Tracé_1097" data-name="Tracé 1097" d="M103.531,301.8l-7.3-1.957v8.5a32.976,32.976,0,0,0,7.3-.65Z" transform="translate(-96.232 -299.848)" fill="rgba(119,177,175,0.26)"/>
          </g>
        </g>
      </g>
      <path id="Tracé_1098" data-name="Tracé 1098" d="M47.735,153.876c-11.354,8.016-18.84,19.223-21.08,31.561a1.9,1.9,0,0,0,1.531,2.21,1.74,1.74,0,0,0,.342.033,1.9,1.9,0,0,0,1.868-1.564c2.27-12.509,9.971-23.057,21.142-30.329L49.7,152.551c-.664.431-1.321.87-1.966,1.325" transform="translate(-10.864 -62.247)" fill="#344766"/>
      <path id="Tracé_1099" data-name="Tracé 1099" d="M178.441,176.746c-5.19-25.459-31.308-43.239-63.5-43.239a78.626,78.626,0,0,0-27.776,4.858L88.3,141.97a75.724,75.724,0,0,1,26.636-4.661c30.367,0,54.954,16.527,59.774,40.2a1.9,1.9,0,1,0,3.73-.758" transform="translate(-35.565 -54.477)" fill="#344766"/>
      <path id="Tracé_1100" data-name="Tracé 1100" d="M188.394,263.615a1.9,1.9,0,0,1-.829-3.614c17.845-8.686,28.505-24.135,28.505-41.323,0-.763-.022-1.538-.069-2.306a1.9,1.9,0,0,1,3.8-.213c.044.838.072,1.685.072,2.519,0,18.671-11.454,35.4-30.647,44.747a1.9,1.9,0,0,1-.828.191" transform="translate(-76.097 -87.471)" fill="#344766"/>
      <path id="Tracé_1101" data-name="Tracé 1101" d="M122.277,306.042A83.166,83.166,0,0,1,106.7,304.6a1.9,1.9,0,0,1,.713-3.737,80.74,80.74,0,0,0,30.666-.182,1.9,1.9,0,1,1,.761,3.723,82.953,82.953,0,0,1-16.558,1.641" transform="translate(-42.906 -122.674)" fill="#344766"/>
      <path id="Tracé_1102" data-name="Tracé 1102" d="M59.746,278a1.936,1.936,0,0,1-.832-.192c-11.9-5.8-21.221-14.851-26.241-25.483a1.9,1.9,0,1,1,3.436-1.619c4.653,9.845,13.344,18.258,24.473,23.681A1.9,1.9,0,0,1,59.746,278" transform="translate(-13.257 -101.856)" fill="#344766"/>
      <g id="Groupe_2546" data-name="Groupe 2546" transform="translate(61.09 92.234)" opacity="0.7">
        <g id="Groupe_2545" data-name="Groupe 2545">
          <g id="Groupe_2544" data-name="Groupe 2544" clip-path="url(#clip-path-5)">
            <g id="Groupe_2543" data-name="Groupe 2543" style="mix-blend-mode: multiply;isolation: isolate">
              <g id="Groupe_2542" data-name="Groupe 2542">
                <g id="Groupe_2541" data-name="Groupe 2541" clip-path="url(#clip-path-5)">
                  <path id="Tracé_1103" data-name="Tracé 1103" d="M164.428,164.289a55.315,55.315,0,0,0-14.217-8.477,52.9,52.9,0,0,1,6.751,4.865c9.969,8.493,15.46,19.842,15.46,31.957s-5.491,23.464-15.459,31.95c-10.5,8.933-24.952,13.858-40.706,13.858a71.808,71.808,0,0,1-13.057-1.184,71.278,71.278,0,0,0,20.53,2.943c15.755,0,30.208-4.8,40.7-13.524,9.974-8.286,15.459-19.367,15.459-31.19s-5.486-22.907-15.46-31.2" transform="translate(-103.201 -155.812)" fill="rgba(119,177,175,0.26)"/>
                </g>
              </g>
            </g>
          </g>
        </g>
      </g>
      <path id="Tracé_1105" data-name="Tracé 1105" d="M66.649,130.607v14.8l11.833,6.77a14.172,14.172,0,0,0,2.106-7.457,14.027,14.027,0,0,0-13.939-14.111" transform="translate(-27.196 -53.293)" fill="#c2eae9"/>
      <path id="Tracé_1106" data-name="Tracé 1106" d="M77.169,152.768a1.871,1.871,0,0,1-1-.285,1.9,1.9,0,0,1-.62-2.615,12.269,12.269,0,0,0-8.312-18.519V144.1a1.9,1.9,0,0,1-3.8,0V129.3a1.9,1.9,0,0,1,1.9-1.9,16.041,16.041,0,0,1,13.45,24.465,1.9,1.9,0,0,1-1.619.9" transform="translate(-25.885 -51.984)" fill="#344766"/>
      <g id="Groupe_2555" data-name="Groupe 2555" transform="translate(101.988 174.616)" opacity="0.7" style="mix-blend-mode: multiply;isolation: isolate">
        <g id="Groupe_2554" data-name="Groupe 2554">
          <g id="Groupe_2553" data-name="Groupe 2553" clip-path="url(#clip-path-7)">
            <path id="Tracé_1115" data-name="Tracé 1115" d="M179.665,294.981l-7.376,2.421v8.956a34.163,34.163,0,0,0,7.376-.686Z" transform="translate(-172.289 -294.981)" fill="rgba(119,177,175,0.26)"/>
          </g>
        </g>
      </g>
      <path id="Tracé_1116" data-name="Tracé 1116" d="M69.673,148.382a1.613,1.613,0,0,1-.68-.153,1.587,1.587,0,0,1-.751-2.113c4.269-8.979-3.33-15.1-3.659-15.352a1.586,1.586,0,0,1,1.95-2.5c.1.078,9.946,7.906,4.57,19.214a1.587,1.587,0,0,1-1.431.905" transform="translate(-26.106 -52.201)" fill="#344766"/>
      <rect id="Rectangle_65" data-name="Rectangle 65" width="156.868" height="191.495" fill="none"/>
      <rect id="Rectangle_66" data-name="Rectangle 66" width="156.868" height="191.495" fill="none"/>
      <path id="opening-center-eye-close" d="M31,0a6.9,6.9,0,0,1,0,13.8" transform="translate(29.568 150.247) rotate(-90)" fill="none" stroke="#344766" stroke-linecap="round" stroke-width="4"/>
      <path id="opening-center-eye-open" d="M50.58,193.224A4.619,4.619,0,1,0,55.2,188.6a4.612,4.612,0,0,0-4.617,4.62" transform="translate(-20.639 -76.959)" fill="#344766"/>
      <path id="opening-center-fente-back" d="M106.805,153.364a2.536,2.536,0,0,1-.585-5,76.32,76.32,0,0,1,17.6-2.013h0a76.344,76.344,0,0,1,16.972,1.869,2.533,2.533,0,1,1-1.121,4.94,71.626,71.626,0,0,0-15.851-1.74h0a71.229,71.229,0,0,0-16.428,1.878,2.71,2.71,0,0,1-.589.07" transform="translate(-42.548 -59.716)" fill="#344766"/>
      <g id="opening-center-coin" transform="translate(2 7.168)">
        <path id="Tracé_1107" data-name="Tracé 1107" d="M109.567,76.22A14.14,14.14,0,1,0,123.71,62.079,14.139,14.139,0,0,0,109.567,76.22" transform="translate(-44.708 -25.331)" fill="#ffd673"/>
        <g id="Groupe_2549" data-name="Groupe 2549" transform="translate(64.859 48.884)" style="mix-blend-mode: multiply;isolation: isolate">
          <g id="Groupe_2548" data-name="Groupe 2548">
            <g id="Groupe_2547" data-name="Groupe 2547" clip-path="url(#clip-path-8)">
              <path id="Tracé_1108" data-name="Tracé 1108" d="M123.709,94.719a14.138,14.138,0,0,1-14-12.139,13.769,13.769,0,0,0-.144,2,14.14,14.14,0,1,0,28.28,0,13.684,13.684,0,0,0-.144-2,14.14,14.14,0,0,1-13.993,12.139" transform="translate(-109.567 -82.58)" fill="#ffd673"/>
            </g>
          </g>
        </g>
        <path id="Tracé_1109" data-name="Tracé 1109" d="M122.4,90.95a16.041,16.041,0,1,1,16.034-16.041A16.061,16.061,0,0,1,122.4,90.95m0-28.281a12.239,12.239,0,1,0,12.24,12.239A12.251,12.251,0,0,0,122.4,62.669" transform="translate(-43.397 -24.02)" fill="#344766"/>
        <g id="Groupe_2552" data-name="Groupe 2552" transform="translate(71.079 42.968)" style="mix-blend-mode: screen;isolation: isolate">
          <g id="Groupe_2551" data-name="Groupe 2551">
            <g id="Groupe_2550" data-name="Groupe 2550" clip-path="url(#clip-path-9)">
              <path id="Tracé_1110" data-name="Tracé 1110" d="M128,75.219a7.937,7.937,0,0,1,7.8,6.605,8.469,8.469,0,0,0,.111-1.316,7.918,7.918,0,1,0-15.716,1.316,7.927,7.927,0,0,1,7.8-6.605" transform="translate(-120.074 -72.587)" fill="#ffd673"/>
            </g>
          </g>
        </g>
        <path id="Tracé_1111" data-name="Tracé 1111" d="M127.121,88.819a9.186,9.186,0,1,1,9.187-9.185,9.2,9.2,0,0,1-9.187,9.185m0-15.837a6.651,6.651,0,1,0,6.648,6.651,6.66,6.66,0,0,0-6.648-6.651" transform="translate(-48.12 -28.746)" fill="#344766"/>
        <path id="Tracé_1112" data-name="Tracé 1112" d="M128.3,29.145a1.266,1.266,0,0,1-1.264-1.268V1.267a1.267,1.267,0,1,1,2.534,0v26.61a1.27,1.27,0,0,1-1.269,1.268" transform="translate(-51.835)" fill="#344766"/>
        <path id="Tracé_1113" data-name="Tracé 1113" d="M136.858,35.7a1.27,1.27,0,0,1-1.264-1.268V17.322a1.265,1.265,0,1,1,2.529,0V34.428a1.264,1.264,0,0,1-1.265,1.268" transform="translate(-55.328 -6.551)" fill="#344766"/>
        <path id="Tracé_1114" data-name="Tracé 1114" d="M136.858,10.608a1.268,1.268,0,0,1-1.264-1.267V8.074a1.265,1.265,0,1,1,2.529,0V9.342a1.263,1.263,0,0,1-1.265,1.267" transform="translate(-55.328 -2.778)" fill="#344766"/>
      </g>
      <path id="opening-center-hide" d="M0,.482S9.815-4.55,19.315-4.55,38,.482,38,.482V70.149H0Z" transform="translate(61.869 95.053)" fill="#c2eae9"/>
      <path id="opening-center-fente-front" d="M106.805,153.364a1.216,1.216,0,0,1-1.277-1.021s-1.36-1.907,0-2.233c5.628-1.335,9.524-1.637,17.357-1.758h9.079c5.827,0,2.279-.28,7.714.961,1.366.311,1.983.736,1.673,2.1s-.308,2.049-1.673,1.74a71.626,71.626,0,0,0-15.851-1.74h0a71.229,71.229,0,0,0-16.428,1.878,2.71,2.71,0,0,1-.589.07" transform="translate(-42.548 -59.716)" fill="#344766"/>
    </g>
    <g id="opening-graph" transform="translate(305 -2)" opacity="0.996">
      <path id="Tracé_1140" data-name="Tracé 1140" d="M10,0H197a10,10,0,0,1,10,10V47a10,10,0,0,1-10,10H10A10,10,0,0,1,0,47V10A10,10,0,0,1,10,0Z" transform="translate(788 160)" fill="#77c4c2"/>
      <path id="Tracé_1136" data-name="Tracé 1136" d="M815.051,272.722a3.022,3.022,0,1,0,0,6.044H827.14a3.022,3.022,0,1,0,0-6.044Z" transform="translate(153.762 -67.76)" fill="#344766"/>
      <rect id="Rectangle_68" data-name="Rectangle 68" width="139.547" height="0.795" transform="translate(844.378 199.1)" fill="#469190"/>
      <g id="opening-graph-logo">
        <ellipse id="Ellipse_25" data-name="Ellipse 25" cx="17.602" cy="17.602" rx="17.602" ry="17.602" transform="translate(797.606 170.763)" fill="#344766"/>
        <path id="Tracé_1139" data-name="Tracé 1139" d="M453.441,217.509c.329-2.2-1.348-3.387-3.641-4.177l.744-2.984-1.817-.453L448,212.8c-.477-.119-.967-.231-1.455-.342l.729-2.924-1.815-.453-.744,2.983c-.4-.09-.783-.179-1.16-.273l0-.009-2.5-.625-.483,1.94s1.348.309,1.319.328a.966.966,0,0,1,.846,1.056l-.847,3.4a1.507,1.507,0,0,1,.189.061l-.191-.048-1.188,4.762a.661.661,0,0,1-.832.431c.018.026-1.32-.33-1.32-.33l-.9,2.08,2.364.589c.44.11.871.226,1.294.334l-.752,3.019,1.814.453.745-2.986c.5.135.976.259,1.447.376l-.742,2.972,1.816.453.752-3.012c3.1.586,5.427.35,6.406-2.451.79-2.255-.039-3.557-1.668-4.405a2.9,2.9,0,0,0,2.319-2.668Zm-4.15,5.819c-.562,2.256-4.359,1.037-5.591.73l1-4c1.231.307,5.179.916,4.594,3.268Zm.561-5.852c-.512,2.052-3.673,1.009-4.7.754l.9-3.626c1.026.256,4.328.733,3.794,2.873Z" transform="translate(368.849 -31.198)" fill="#77c4c2"/>
      </g>
      <path id="opening-graph-line" d="M-574.445,192.392l14.208-9.662,9.637,4.9,14.716-9.4,28.332,12.249,22.9-11.268,21.85,9.072,27.572-24.486" transform="translate(1419 2)" fill="none" stroke="#344766" stroke-linecap="round" stroke-width="2"/>
    </g>
    <g id="menu">
      <path id="menu-titre" d="M48.565,16.678h-4.77L43,19h-3.24L44.425,6.364h3.546L52.633,19H49.357Zm-.792-2.34-1.584-4.68-1.6,4.68ZM58.357,8.83A4.988,4.988,0,0,1,61.615,9.9a4.749,4.749,0,0,1,1.656,2.943H60.013a1.719,1.719,0,0,0-.594-1.008,1.758,1.758,0,0,0-1.134-.36,1.645,1.645,0,0,0-1.332.639,2.884,2.884,0,0,0-.522,1.863,2.884,2.884,0,0,0,.522,1.863,1.645,1.645,0,0,0,1.332.639,1.758,1.758,0,0,0,1.134-.36,1.719,1.719,0,0,0,.594-1.008h3.258a4.749,4.749,0,0,1-1.656,2.943,4.988,4.988,0,0,1-3.258,1.071,5.4,5.4,0,0,1-2.619-.621,4.437,4.437,0,0,1-1.791-1.791,5.557,5.557,0,0,1-.648-2.736,5.607,5.607,0,0,1,.639-2.745,4.379,4.379,0,0,1,1.791-1.782A5.45,5.45,0,0,1,58.357,8.83Zm11.052,0A4.988,4.988,0,0,1,72.667,9.9a4.749,4.749,0,0,1,1.656,2.943H71.065a1.719,1.719,0,0,0-.594-1.008,1.758,1.758,0,0,0-1.134-.36A1.645,1.645,0,0,0,68,12.115a2.884,2.884,0,0,0-.522,1.863A2.884,2.884,0,0,0,68,15.841a1.645,1.645,0,0,0,1.332.639,1.758,1.758,0,0,0,1.134-.36,1.719,1.719,0,0,0,.594-1.008h3.258a4.749,4.749,0,0,1-1.656,2.943,4.988,4.988,0,0,1-3.258,1.071A5.4,5.4,0,0,1,66.79,18.5,4.437,4.437,0,0,1,65,16.714a5.557,5.557,0,0,1-.648-2.736,5.607,5.607,0,0,1,.639-2.745,4.379,4.379,0,0,1,1.791-1.782A5.45,5.45,0,0,1,69.409,8.83Zm16.056,4.878a4.246,4.246,0,0,1-.09.828H78.409a2.328,2.328,0,0,0,.576,1.629,1.858,1.858,0,0,0,1.332.495,1.821,1.821,0,0,0,1.134-.342,1.6,1.6,0,0,0,.594-.882H85.3a4.257,4.257,0,0,1-.864,1.9,4.6,4.6,0,0,1-1.692,1.314,5.778,5.778,0,0,1-4.905-.144,4.437,4.437,0,0,1-1.791-1.791,5.557,5.557,0,0,1-.648-2.736,5.607,5.607,0,0,1,.639-2.745,4.379,4.379,0,0,1,1.791-1.782,5.91,5.91,0,0,1,5.256-.009,4.324,4.324,0,0,1,1.755,1.719A5.117,5.117,0,0,1,85.465,13.708Zm-3.114-.468a1.85,1.85,0,0,0-.531-1.485,1.955,1.955,0,0,0-1.359-.495,2.016,2.016,0,0,0-1.4.5,2.11,2.11,0,0,0-.63,1.476Zm-.18-7.092V8.236L77.833,6.382V4.06Zm8.55,2.682a4.608,4.608,0,0,1,3.051.954A4.145,4.145,0,0,1,95.2,12.3h-2.88a1.6,1.6,0,0,0-.567-.963,1.722,1.722,0,0,0-1.107-.351,1.21,1.21,0,0,0-.792.225.785.785,0,0,0-.27.639.75.75,0,0,0,.5.7,7.893,7.893,0,0,0,1.557.468,15.462,15.462,0,0,1,1.89.549,3.118,3.118,0,0,1,1.278.909,2.512,2.512,0,0,1,.54,1.692,2.6,2.6,0,0,1-.468,1.53,3.081,3.081,0,0,1-1.35,1.044,5.275,5.275,0,0,1-2.088.378,5.377,5.377,0,0,1-3.258-.9,3.8,3.8,0,0,1-1.494-2.574h2.97a1.337,1.337,0,0,0,.549.99,2.067,2.067,0,0,0,1.233.342,1.148,1.148,0,0,0,.792-.243.819.819,0,0,0,.27-.639.768.768,0,0,0-.5-.747,9.1,9.1,0,0,0-1.611-.477,12.882,12.882,0,0,1-1.836-.5,3.031,3.031,0,0,1-1.242-.873,2.432,2.432,0,0,1-.522-1.647,2.688,2.688,0,0,1,1.026-2.187A4.471,4.471,0,0,1,90.721,8.83Zm13.014,2.016a4.368,4.368,0,0,1,1.485-1.458,3.791,3.791,0,0,1,1.971-.54v3.294h-.882a3.042,3.042,0,0,0-1.9.522,2.1,2.1,0,0,0-.675,1.764V19h-3.078V8.956h3.078ZM112.3,8.83a3.636,3.636,0,0,1,1.98.522,3.138,3.138,0,0,1,1.224,1.422V8.956h3.06V19h-3.06V17.182a3.138,3.138,0,0,1-1.224,1.422,3.636,3.636,0,0,1-1.98.522,4.068,4.068,0,0,1-2.223-.621,4.249,4.249,0,0,1-1.548-1.791,6.207,6.207,0,0,1-.567-2.736,6.193,6.193,0,0,1,.567-2.745,4.259,4.259,0,0,1,1.548-1.782A4.068,4.068,0,0,1,112.3,8.83Zm.99,2.7a2.073,2.073,0,0,0-1.593.648,2.54,2.54,0,0,0-.6,1.8,2.54,2.54,0,0,0,.6,1.8,2.26,2.26,0,0,0,3.186-.018,2.508,2.508,0,0,0,.621-1.782,2.5,2.5,0,0,0-.621-1.791A2.1,2.1,0,0,0,113.293,11.53Zm13.662-2.7a4.068,4.068,0,0,1,2.223.621,4.259,4.259,0,0,1,1.548,1.782,6.193,6.193,0,0,1,.567,2.745,6.207,6.207,0,0,1-.567,2.736,4.249,4.249,0,0,1-1.548,1.791,4.068,4.068,0,0,1-2.223.621,3.636,3.636,0,0,1-1.98-.522,3.031,3.031,0,0,1-1.206-1.422v6.606h-3.078V8.956h3.078v1.818a3.031,3.031,0,0,1,1.206-1.422A3.636,3.636,0,0,1,126.955,8.83Zm-.99,2.7a2.1,2.1,0,0,0-1.593.657,2.5,2.5,0,0,0-.621,1.791,2.508,2.508,0,0,0,.621,1.782,2.26,2.26,0,0,0,3.186.018,2.54,2.54,0,0,0,.6-1.8,2.54,2.54,0,0,0-.6-1.8A2.073,2.073,0,0,0,125.965,11.53Zm6.642-5.4a1.5,1.5,0,0,1,.5-1.161,2.162,2.162,0,0,1,2.664,0,1.5,1.5,0,0,1,.5,1.161,1.483,1.483,0,0,1-.5,1.143,2.162,2.162,0,0,1-2.664,0A1.483,1.483,0,0,1,132.607,6.13Zm3.366,2.826V19h-3.078V8.956Zm5.94-.126a3.636,3.636,0,0,1,1.98.522,3.031,3.031,0,0,1,1.206,1.422V5.68h3.078V19H145.1V17.182a3.031,3.031,0,0,1-1.206,1.422,3.636,3.636,0,0,1-1.98.522,4.068,4.068,0,0,1-2.223-.621,4.249,4.249,0,0,1-1.548-1.791,6.207,6.207,0,0,1-.567-2.736,6.193,6.193,0,0,1,.567-2.745,4.259,4.259,0,0,1,1.548-1.782A4.068,4.068,0,0,1,141.913,8.83Zm.99,2.7a2.073,2.073,0,0,0-1.593.648,2.54,2.54,0,0,0-.6,1.8,2.54,2.54,0,0,0,.6,1.8,2.26,2.26,0,0,0,3.186-.018,2.508,2.508,0,0,0,.621-1.782,2.5,2.5,0,0,0-.621-1.791A2.1,2.1,0,0,0,142.9,11.53Zm16.938,2.178a4.245,4.245,0,0,1-.09.828h-6.966a2.328,2.328,0,0,0,.576,1.629,1.858,1.858,0,0,0,1.332.495,1.821,1.821,0,0,0,1.134-.342,1.6,1.6,0,0,0,.594-.882h3.258a4.257,4.257,0,0,1-.864,1.9,4.6,4.6,0,0,1-1.692,1.314,5.778,5.778,0,0,1-4.9-.144,4.437,4.437,0,0,1-1.791-1.791,5.557,5.557,0,0,1-.648-2.736,5.607,5.607,0,0,1,.639-2.745,4.379,4.379,0,0,1,1.791-1.782,5.91,5.91,0,0,1,5.256-.009,4.324,4.324,0,0,1,1.755,1.719A5.117,5.117,0,0,1,159.841,13.708Zm-3.114-.468a1.851,1.851,0,0,0-.531-1.485,1.955,1.955,0,0,0-1.359-.495,2.016,2.016,0,0,0-1.4.5,2.11,2.11,0,0,0-.63,1.476Z" transform="translate(1097 248)" fill="#fff"/>
      <g id="btn1">
        <rect id="Rectangle_1181" data-name="Rectangle 1181" width="200" height="38" rx="5" transform="translate(1097 294)" fill="#c2eae9"/>
        <path id="Tracé_1669" data-name="Tracé 1669" d="M9.809-1.679,9.782-6.372H5.634V-5h2.6L8.218-2.127a1.632,1.632,0,0,1-.5.47,2.874,2.874,0,0,1-.642.286,3.561,3.561,0,0,1-.708.141,5.72,5.72,0,0,1-.7.026,2.693,2.693,0,0,1-1.037-.207,2.632,2.632,0,0,1-.8-.532,3.247,3.247,0,0,1-.6-.773,5.087,5.087,0,0,1-.4-.932A6.193,6.193,0,0,1,2.6-4.654a7.943,7.943,0,0,1-.083-1v-1.5a8.219,8.219,0,0,1,.062-.984,6.458,6.458,0,0,1,.2-1,5.527,5.527,0,0,1,.36-.936,2.926,2.926,0,0,1,.554-.778,2.551,2.551,0,0,1,.782-.532,2.525,2.525,0,0,1,1.028-.2,2.768,2.768,0,0,1,1.063.189,2.4,2.4,0,0,1,.791.523,2.624,2.624,0,0,1,.527.8,4.577,4.577,0,0,1,.3,1.024H9.791a4.739,4.739,0,0,0-.422-1.622,3.991,3.991,0,0,0-.905-1.244A3.977,3.977,0,0,0,7.146-12.7a4.77,4.77,0,0,0-1.652-.277,4.234,4.234,0,0,0-1.459.237,4.129,4.129,0,0,0-1.16.642,4.185,4.185,0,0,0-.888.971,6.087,6.087,0,0,0-.615,1.208,7.185,7.185,0,0,0-.365,1.358A9.261,9.261,0,0,0,.879-7.137v1.485a8.059,8.059,0,0,0,.145,1.428,6.665,6.665,0,0,0,.409,1.349,5.833,5.833,0,0,0,.659,1.2,4.479,4.479,0,0,0,.923.958,4.137,4.137,0,0,0,1.191.646A4.519,4.519,0,0,0,5.66.176,5.8,5.8,0,0,0,7.154,0,4.9,4.9,0,0,0,8.481-.545a4.8,4.8,0,0,0,.694-.5A5.656,5.656,0,0,0,9.809-1.679ZM18.58,0h1.7V-.141a4.469,4.469,0,0,1-.246-.927,6.182,6.182,0,0,1-.088-1.006V-6.5a3.167,3.167,0,0,0-.29-1.4,2.891,2.891,0,0,0-.791-1,3.508,3.508,0,0,0-1.2-.593,5.468,5.468,0,0,0-1.5-.2,4.759,4.759,0,0,0-1.586.246,3.887,3.887,0,0,0-1.182.642,2.9,2.9,0,0,0-.751.905,2.282,2.282,0,0,0-.268,1.02H14a1.225,1.225,0,0,1,.145-.576,1.446,1.446,0,0,1,.409-.479,2.12,2.12,0,0,1,.646-.325,2.821,2.821,0,0,1,.866-.123A3.1,3.1,0,0,1,17-8.244a2.1,2.1,0,0,1,.708.369,1.7,1.7,0,0,1,.448.589,1.825,1.825,0,0,1,.158.773v.747H16.541a7.7,7.7,0,0,0-1.8.193,4.172,4.172,0,0,0-1.375.58,2.755,2.755,0,0,0-.883.984,2.886,2.886,0,0,0-.312,1.371,2.663,2.663,0,0,0,.233,1.112,2.519,2.519,0,0,0,.664.883,3.1,3.1,0,0,0,1.033.6,4.017,4.017,0,0,0,1.367.22,3.848,3.848,0,0,0,.879-.1,4.233,4.233,0,0,0,.782-.264,3.977,3.977,0,0,0,.664-.387,4.551,4.551,0,0,0,.549-.466,5.039,5.039,0,0,0,.083.576A1.771,1.771,0,0,0,18.58,0ZM15.706-1.239a2.583,2.583,0,0,1-.835-.123,1.651,1.651,0,0,1-.6-.343,1.328,1.328,0,0,1-.356-.51,1.747,1.747,0,0,1-.119-.65,1.533,1.533,0,0,1,.136-.659,1.4,1.4,0,0,1,.4-.5,2.439,2.439,0,0,1,1-.444A6.6,6.6,0,0,1,16.8-4.614h1.512v1.925a2.251,2.251,0,0,1-.387.541,2.774,2.774,0,0,1-.58.461,3.381,3.381,0,0,1-.756.325A3.1,3.1,0,0,1,15.706-1.239Zm7.128-3.595v.185a6.623,6.623,0,0,0,.264,1.9,4.781,4.781,0,0,0,.756,1.534A3.477,3.477,0,0,0,25.04-.193a3.332,3.332,0,0,0,1.573.369,4.054,4.054,0,0,0,.967-.11A3.357,3.357,0,0,0,28.4-.246a2.725,2.725,0,0,0,.444-.308,3.744,3.744,0,0,0,.391-.387v.817a3.127,3.127,0,0,1-.176,1.09,2.1,2.1,0,0,1-.5.791,2.188,2.188,0,0,1-.8.492,3.084,3.084,0,0,1-1.046.167,3.266,3.266,0,0,1-.65-.066,2.97,2.97,0,0,1-.65-.215,3.169,3.169,0,0,1-.642-.4,4.165,4.165,0,0,1-.615-.611l-.844.976a3.133,3.133,0,0,0,.778.782,4.252,4.252,0,0,0,.945.5,4.833,4.833,0,0,0,.958.277,4.931,4.931,0,0,0,.844.083,4.832,4.832,0,0,0,1.635-.264,3.563,3.563,0,0,0,1.274-.773,3.542,3.542,0,0,0,.822-1.239A4.434,4.434,0,0,0,30.858-.2V-9.51H29.382L29.3-8.473a3.46,3.46,0,0,0-.356-.387,2.645,2.645,0,0,0-.4-.308,3.015,3.015,0,0,0-.866-.387,3.95,3.95,0,0,0-1.05-.132,3.438,3.438,0,0,0-1.591.36,3.509,3.509,0,0,0-1.2,1,4.6,4.6,0,0,0-.751,1.534A6.987,6.987,0,0,0,22.834-4.834Zm1.626.185v-.185A5.867,5.867,0,0,1,24.6-6.157a3.412,3.412,0,0,1,.461-1.112,2.311,2.311,0,0,1,.8-.756,2.311,2.311,0,0,1,1.173-.281,2.542,2.542,0,0,1,.738.1,2.387,2.387,0,0,1,.606.277,2.424,2.424,0,0,1,.483.431,2.966,2.966,0,0,1,.369.545v4.359a3.108,3.108,0,0,1-.369.563,2.4,2.4,0,0,1-.475.439,2.208,2.208,0,0,1-.611.286,2.653,2.653,0,0,1-.76.1,2.3,2.3,0,0,1-1.16-.277,2.284,2.284,0,0,1-.791-.751,3.313,3.313,0,0,1-.461-1.1A5.809,5.809,0,0,1,24.46-4.649ZM33.935,0h1.626V-6.82a3.057,3.057,0,0,1,.391-.562,3.054,3.054,0,0,1,.488-.448,2.867,2.867,0,0,1,.712-.347,2.652,2.652,0,0,1,.835-.127,3.126,3.126,0,0,1,.918.123,1.666,1.666,0,0,1,.681.4A1.733,1.733,0,0,1,40-7.075,3.551,3.551,0,0,1,40.14-6V0h1.626V-6.038a5.142,5.142,0,0,0-.233-1.639,3,3,0,0,0-.664-1.138,2.6,2.6,0,0,0-1.042-.659,4.14,4.14,0,0,0-1.358-.211,3.732,3.732,0,0,0-1.05.163,3.528,3.528,0,0,0-.918.435,3.356,3.356,0,0,0-.532.435,4.2,4.2,0,0,0-.461.549L35.394-9.51H33.935ZM50.985,0h1.7V-.141a4.469,4.469,0,0,1-.246-.927,6.182,6.182,0,0,1-.088-1.006V-6.5a3.167,3.167,0,0,0-.29-1.4,2.891,2.891,0,0,0-.791-1,3.508,3.508,0,0,0-1.2-.593,5.468,5.468,0,0,0-1.5-.2,4.759,4.759,0,0,0-1.586.246,3.887,3.887,0,0,0-1.182.642,2.9,2.9,0,0,0-.751.905,2.282,2.282,0,0,0-.268,1.02h1.635a1.225,1.225,0,0,1,.145-.576,1.446,1.446,0,0,1,.409-.479,2.12,2.12,0,0,1,.646-.325,2.821,2.821,0,0,1,.866-.123,3.1,3.1,0,0,1,.936.132,2.1,2.1,0,0,1,.708.369,1.7,1.7,0,0,1,.448.589,1.825,1.825,0,0,1,.158.773v.747H48.946a7.7,7.7,0,0,0-1.8.193,4.172,4.172,0,0,0-1.375.58,2.755,2.755,0,0,0-.883.984,2.886,2.886,0,0,0-.312,1.371,2.663,2.663,0,0,0,.233,1.112,2.519,2.519,0,0,0,.664.883,3.1,3.1,0,0,0,1.033.6,4.017,4.017,0,0,0,1.367.22,3.848,3.848,0,0,0,.879-.1,4.233,4.233,0,0,0,.782-.264A3.977,3.977,0,0,0,50.2-.571a4.551,4.551,0,0,0,.549-.466,5.039,5.039,0,0,0,.083.576A1.771,1.771,0,0,0,50.985,0ZM48.111-1.239a2.583,2.583,0,0,1-.835-.123,1.651,1.651,0,0,1-.6-.343,1.328,1.328,0,0,1-.356-.51,1.747,1.747,0,0,1-.119-.65,1.533,1.533,0,0,1,.136-.659,1.4,1.4,0,0,1,.4-.5,2.439,2.439,0,0,1,1-.444,6.6,6.6,0,0,1,1.472-.145h1.512v1.925a2.251,2.251,0,0,1-.387.541,2.774,2.774,0,0,1-.58.461A3.381,3.381,0,0,1,49-1.362,3.1,3.1,0,0,1,48.111-1.239ZM55.538,0h1.626V-6.82a3.057,3.057,0,0,1,.391-.562,3.054,3.054,0,0,1,.488-.448,2.867,2.867,0,0,1,.712-.347,2.652,2.652,0,0,1,.835-.127,3.126,3.126,0,0,1,.918.123,1.666,1.666,0,0,1,.681.4,1.733,1.733,0,0,1,.413.712A3.551,3.551,0,0,1,61.743-6V0h1.626V-6.038a5.142,5.142,0,0,0-.233-1.639,3,3,0,0,0-.664-1.138,2.6,2.6,0,0,0-1.042-.659,4.14,4.14,0,0,0-1.358-.211,3.732,3.732,0,0,0-1.05.163,3.528,3.528,0,0,0-.918.435,3.356,3.356,0,0,0-.532.435,4.2,4.2,0,0,0-.461.549L57-9.51H55.538ZM70.189-11.812H68.555v2.3h-2.5v1.257h2.5v5.168a4.271,4.271,0,0,0,.233,1.5A2.662,2.662,0,0,0,69.425-.58,2.425,2.425,0,0,0,70.378,0a3.771,3.771,0,0,0,1.182.18q.378,0,.76-.035a6.633,6.633,0,0,0,.725-.105,5.007,5.007,0,0,0,.633-.154,2.275,2.275,0,0,0,.492-.215l-.229-1.151q-.149.035-.382.083t-.5.092q-.272.044-.554.075a5.013,5.013,0,0,1-.545.031,2.568,2.568,0,0,1-.681-.088,1.392,1.392,0,0,1-.567-.308,1.409,1.409,0,0,1-.387-.571,2.54,2.54,0,0,1-.141-.914V-8.253h3.621V-9.51H70.189Zm13.271,9.29a1.068,1.068,0,0,1-.088.431,1.193,1.193,0,0,1-.255.369,1.836,1.836,0,0,1-.756.426,3.75,3.75,0,0,1-1.134.154,4.085,4.085,0,0,1-.835-.088,2.367,2.367,0,0,1-.765-.3,1.85,1.85,0,0,1-.584-.554,1.683,1.683,0,0,1-.268-.844H77.15a2.616,2.616,0,0,0,.277,1.169,2.889,2.889,0,0,0,.8.984,4.008,4.008,0,0,0,1.274.69,5.3,5.3,0,0,0,1.723.259,5.68,5.68,0,0,0,1.556-.2A3.862,3.862,0,0,0,84.006-.6a2.7,2.7,0,0,0,.8-.888,2.346,2.346,0,0,0,.286-1.151,2.09,2.09,0,0,0-.25-1.037,2.461,2.461,0,0,0-.725-.791,4.725,4.725,0,0,0-1.169-.576,12.827,12.827,0,0,0-1.573-.426,9.936,9.936,0,0,1-1.1-.272,2.678,2.678,0,0,1-.69-.316,1.018,1.018,0,0,1-.369-.4,1.144,1.144,0,0,1-.105-.5,1.134,1.134,0,0,1,.132-.527,1.3,1.3,0,0,1,.4-.448,1.978,1.978,0,0,1,.646-.308,3.256,3.256,0,0,1,.91-.114,2.7,2.7,0,0,1,.9.141,2.256,2.256,0,0,1,.681.369,1.724,1.724,0,0,1,.439.523,1.258,1.258,0,0,1,.158.6H84.99a2.585,2.585,0,0,0-.268-1.165,2.86,2.86,0,0,0-.76-.945,3.627,3.627,0,0,0-1.2-.633,5.105,5.105,0,0,0-1.582-.229,4.86,4.86,0,0,0-1.5.22,3.847,3.847,0,0,0-1.173.6,2.765,2.765,0,0,0-.765.883A2.252,2.252,0,0,0,77.476-6.9a1.984,1.984,0,0,0,.264,1.033,2.42,2.42,0,0,0,.747.769,4.708,4.708,0,0,0,1.147.571,11.252,11.252,0,0,0,1.49.4,7.717,7.717,0,0,1,1.116.294,3.053,3.053,0,0,1,.721.356,1.165,1.165,0,0,1,.387.426A1.172,1.172,0,0,1,83.461-2.522ZM90.088,1.1l5.335-13.9h-1.45L88.629,1.1Zm8.648,2.558h1.626V-.914a3.335,3.335,0,0,0,.378.356,3.384,3.384,0,0,0,.431.294,3.358,3.358,0,0,0,.848.325,4.292,4.292,0,0,0,1.015.114,3.363,3.363,0,0,0,1.6-.369,3.407,3.407,0,0,0,1.173-1.02,4.727,4.727,0,0,0,.721-1.534,7.066,7.066,0,0,0,.246-1.9v-.185a7.338,7.338,0,0,0-.246-1.956,4.615,4.615,0,0,0-.721-1.534,3.345,3.345,0,0,0-1.178-1,3.5,3.5,0,0,0-1.617-.36,4.109,4.109,0,0,0-.971.11,3.139,3.139,0,0,0-.822.321,2.671,2.671,0,0,0-.492.338,3.2,3.2,0,0,0-.422.444l-.079-1.037H98.736Zm6.407-8.49v.185a5.6,5.6,0,0,1-.154,1.327,3.552,3.552,0,0,1-.47,1.116,2.388,2.388,0,0,1-.809.769,2.289,2.289,0,0,1-1.169.286,2.638,2.638,0,0,1-.769-.105,2.42,2.42,0,0,1-.628-.29,1.966,1.966,0,0,1-.439-.387,3.21,3.21,0,0,1-.343-.492V-7a3.045,3.045,0,0,1,.387-.545,2.117,2.117,0,0,1,.5-.413,2.013,2.013,0,0,1,.576-.255,2.638,2.638,0,0,1,.7-.088,2.336,2.336,0,0,1,1.178.281,2.459,2.459,0,0,1,.817.756,3.556,3.556,0,0,1,.47,1.112A5.546,5.546,0,0,1,105.144-4.834Zm8.6,5.01a4.519,4.519,0,0,0,2.333-.558A4.229,4.229,0,0,0,117.5-1.661l-.993-.773a3.355,3.355,0,0,1-1.125.932,3.307,3.307,0,0,1-1.547.352,2.892,2.892,0,0,1-1.2-.246,2.766,2.766,0,0,1-.932-.677,3.026,3.026,0,0,1-.593-.932,4.21,4.21,0,0,1-.277-1.222v-.062h6.794v-.729a6.522,6.522,0,0,0-.25-1.846,4.246,4.246,0,0,0-.76-1.485,3.549,3.549,0,0,0-1.279-.98,4.241,4.241,0,0,0-1.8-.356,4.006,4.006,0,0,0-1.6.334,4.259,4.259,0,0,0-1.384.958,4.739,4.739,0,0,0-.984,1.542A5.441,5.441,0,0,0,109.2-4.79v.369a4.947,4.947,0,0,0,.334,1.837,4.382,4.382,0,0,0,.932,1.459,4.178,4.178,0,0,0,1.437.958A4.825,4.825,0,0,0,113.748.176Zm-.211-8.525a2.363,2.363,0,0,1,1.077.229,2.265,2.265,0,0,1,.751.6,2.741,2.741,0,0,1,.466.875A3.021,3.021,0,0,1,116-5.7v.079h-5.115a4.051,4.051,0,0,1,.338-1.165,3.073,3.073,0,0,1,.593-.857,2.465,2.465,0,0,1,.791-.523A2.432,2.432,0,0,1,113.537-8.35ZM126.58-9.686a3.738,3.738,0,0,0-1.85.453A4.369,4.369,0,0,0,123.337-8l-.009-.237-.07-1.274h-1.547V0h1.635V-6.1a3.548,3.548,0,0,1,.4-.8,2.529,2.529,0,0,1,.567-.6,2.544,2.544,0,0,1,.844-.426,3.756,3.756,0,0,1,1.081-.145,7.92,7.92,0,0,1,.892.048,8.666,8.666,0,0,1,.9.154l.22-1.591a2.882,2.882,0,0,0-.734-.167A7.486,7.486,0,0,0,126.58-9.686Zm4.263,4.852v.185a6.424,6.424,0,0,0,.272,1.9,4.918,4.918,0,0,0,.765,1.534,3.575,3.575,0,0,0,1.191,1.02,3.288,3.288,0,0,0,1.56.369,3.694,3.694,0,0,0,1.538-.3A3.11,3.11,0,0,0,137.3-1l.07,1h1.494V-13.5h-1.626v4.931a3.111,3.111,0,0,0-1.1-.831,3.614,3.614,0,0,0-1.49-.286,3.4,3.4,0,0,0-1.573.36,3.509,3.509,0,0,0-1.2,1,4.627,4.627,0,0,0-.769,1.534A6.772,6.772,0,0,0,130.843-4.834Zm1.626.185v-.185a5.7,5.7,0,0,1,.149-1.323,3.482,3.482,0,0,1,.466-1.112,2.311,2.311,0,0,1,.8-.756,2.311,2.311,0,0,1,1.173-.281,2.281,2.281,0,0,1,1.336.374,2.751,2.751,0,0,1,.853.954v4.412a2.615,2.615,0,0,1-.853.993,2.333,2.333,0,0,1-1.354.369,2.3,2.3,0,0,1-1.16-.277,2.284,2.284,0,0,1-.791-.751,3.381,3.381,0,0,1-.466-1.1A5.646,5.646,0,0,1,132.469-4.649ZM148.2,0h1.7V-.141a4.469,4.469,0,0,1-.246-.927,6.182,6.182,0,0,1-.088-1.006V-6.5a3.167,3.167,0,0,0-.29-1.4,2.891,2.891,0,0,0-.791-1,3.508,3.508,0,0,0-1.2-.593,5.468,5.468,0,0,0-1.5-.2,4.759,4.759,0,0,0-1.586.246,3.887,3.887,0,0,0-1.182.642,2.9,2.9,0,0,0-.751.905,2.282,2.282,0,0,0-.268,1.02h1.635a1.225,1.225,0,0,1,.145-.576,1.446,1.446,0,0,1,.409-.479,2.12,2.12,0,0,1,.646-.325,2.821,2.821,0,0,1,.866-.123,3.1,3.1,0,0,1,.936.132,2.1,2.1,0,0,1,.708.369,1.7,1.7,0,0,1,.448.589,1.825,1.825,0,0,1,.158.773v.747h-1.775a7.7,7.7,0,0,0-1.8.193,4.172,4.172,0,0,0-1.375.58,2.755,2.755,0,0,0-.883.984,2.886,2.886,0,0,0-.312,1.371,2.663,2.663,0,0,0,.233,1.112,2.519,2.519,0,0,0,.664.883,3.1,3.1,0,0,0,1.033.6,4.017,4.017,0,0,0,1.367.22,3.848,3.848,0,0,0,.879-.1,4.233,4.233,0,0,0,.782-.264,3.977,3.977,0,0,0,.664-.387,4.551,4.551,0,0,0,.549-.466,5.039,5.039,0,0,0,.083.576A1.771,1.771,0,0,0,148.2,0Zm-2.874-1.239a2.583,2.583,0,0,1-.835-.123,1.651,1.651,0,0,1-.6-.343,1.328,1.328,0,0,1-.356-.51,1.747,1.747,0,0,1-.119-.65,1.533,1.533,0,0,1,.136-.659,1.4,1.4,0,0,1,.4-.5,2.439,2.439,0,0,1,1-.444,6.6,6.6,0,0,1,1.472-.145h1.512v1.925a2.251,2.251,0,0,1-.387.541,2.774,2.774,0,0,1-.58.461,3.381,3.381,0,0,1-.756.325A3.1,3.1,0,0,1,145.327-1.239ZM152.754,0h1.626V-6.82a3.057,3.057,0,0,1,.391-.562,3.054,3.054,0,0,1,.488-.448,2.867,2.867,0,0,1,.712-.347,2.652,2.652,0,0,1,.835-.127,3.126,3.126,0,0,1,.918.123,1.666,1.666,0,0,1,.681.4,1.733,1.733,0,0,1,.413.712A3.551,3.551,0,0,1,158.959-6V0h1.626V-6.038a5.142,5.142,0,0,0-.233-1.639,3,3,0,0,0-.664-1.138,2.6,2.6,0,0,0-1.042-.659,4.14,4.14,0,0,0-1.358-.211,3.732,3.732,0,0,0-1.05.163,3.528,3.528,0,0,0-.918.435,3.356,3.356,0,0,0-.532.435,4.2,4.2,0,0,0-.461.549l-.114-1.406h-1.459Zm14.651-11.812h-1.635v2.3h-2.5v1.257h2.5v5.168a4.271,4.271,0,0,0,.233,1.5,2.662,2.662,0,0,0,.637,1.006,2.425,2.425,0,0,0,.954.576,3.771,3.771,0,0,0,1.182.18q.378,0,.76-.035a6.633,6.633,0,0,0,.725-.105,5.007,5.007,0,0,0,.633-.154,2.275,2.275,0,0,0,.492-.215l-.229-1.151q-.149.035-.382.083t-.5.092q-.272.044-.554.075a5.013,5.013,0,0,1-.545.031,2.568,2.568,0,0,1-.681-.088,1.392,1.392,0,0,1-.567-.308,1.409,1.409,0,0,1-.387-.571,2.54,2.54,0,0,1-.141-.914V-8.253h3.621V-9.51h-3.621Zm13.271,9.29a1.068,1.068,0,0,1-.088.431,1.193,1.193,0,0,1-.255.369,1.836,1.836,0,0,1-.756.426,3.75,3.75,0,0,1-1.134.154,4.085,4.085,0,0,1-.835-.088,2.367,2.367,0,0,1-.765-.3,1.85,1.85,0,0,1-.584-.554,1.683,1.683,0,0,1-.268-.844h-1.626a2.616,2.616,0,0,0,.277,1.169,2.889,2.889,0,0,0,.8.984,4.008,4.008,0,0,0,1.274.69,5.3,5.3,0,0,0,1.723.259A5.68,5.68,0,0,0,180-.026,3.862,3.862,0,0,0,181.222-.6a2.7,2.7,0,0,0,.8-.888,2.346,2.346,0,0,0,.286-1.151,2.09,2.09,0,0,0-.25-1.037,2.461,2.461,0,0,0-.725-.791,4.725,4.725,0,0,0-1.169-.576,12.827,12.827,0,0,0-1.573-.426,9.936,9.936,0,0,1-1.1-.272,2.678,2.678,0,0,1-.69-.316,1.018,1.018,0,0,1-.369-.4,1.144,1.144,0,0,1-.105-.5,1.134,1.134,0,0,1,.132-.527,1.3,1.3,0,0,1,.4-.448,1.978,1.978,0,0,1,.646-.308,3.256,3.256,0,0,1,.91-.114,2.7,2.7,0,0,1,.9.141,2.256,2.256,0,0,1,.681.369,1.724,1.724,0,0,1,.439.523,1.258,1.258,0,0,1,.158.6h1.626a2.585,2.585,0,0,0-.268-1.165,2.86,2.86,0,0,0-.76-.945,3.627,3.627,0,0,0-1.2-.633,5.105,5.105,0,0,0-1.582-.229,4.86,4.86,0,0,0-1.5.22,3.847,3.847,0,0,0-1.173.6,2.765,2.765,0,0,0-.765.883,2.252,2.252,0,0,0-.272,1.085,1.984,1.984,0,0,0,.264,1.033,2.42,2.42,0,0,0,.747.769,4.708,4.708,0,0,0,1.147.571,11.252,11.252,0,0,0,1.49.4,7.717,7.717,0,0,1,1.116.294,3.053,3.053,0,0,1,.721.356,1.165,1.165,0,0,1,.387.426A1.172,1.172,0,0,1,180.677-2.522Z" transform="translate(1107 319)" fill="#344766"/>
      </g>
      <g id="btn2">
        <rect id="Rectangle_1182" data-name="Rectangle 1182" width="200" height="38" rx="5" transform="translate(1097 341)" fill="#c2eae9"/>
        <path id="Tracé_1670" data-name="Tracé 1670" d="M7.638-3.313,8.648,0h1.617L6.205-12.8H4.843L.712,0H2.338L3.366-3.313ZM3.806-4.729,5.52-10.283,7.207-4.729ZM16.383-1.143a2.482,2.482,0,0,1-1.279-.3,2.375,2.375,0,0,1-.822-.8,3.283,3.283,0,0,1-.453-1.094,5.656,5.656,0,0,1-.136-1.235v-.369a5.557,5.557,0,0,1,.136-1.222,3.385,3.385,0,0,1,.453-1.1,2.486,2.486,0,0,1,.831-.787,2.463,2.463,0,0,1,1.27-.3,2.5,2.5,0,0,1,.918.167,2.256,2.256,0,0,1,.734.457,2.212,2.212,0,0,1,.488.672,1.98,1.98,0,0,1,.189.813H20.25a3.21,3.21,0,0,0-.29-1.354,3.381,3.381,0,0,0-.8-1.1,3.95,3.95,0,0,0-1.226-.725,4.345,4.345,0,0,0-1.551-.268,4.335,4.335,0,0,0-1.89.387,3.889,3.889,0,0,0-1.345,1.037,4.48,4.48,0,0,0-.817,1.521,5.938,5.938,0,0,0-.272,1.8v.369a5.925,5.925,0,0,0,.272,1.806,4.391,4.391,0,0,0,.817,1.507A3.842,3.842,0,0,0,14.493-.211a4.335,4.335,0,0,0,1.89.387,4.112,4.112,0,0,0,1.45-.259,4.292,4.292,0,0,0,1.23-.7,3.418,3.418,0,0,0,.857-1.006A2.522,2.522,0,0,0,20.25-3H18.712a1.5,1.5,0,0,1-.207.734,1.984,1.984,0,0,1-.523.584,2.472,2.472,0,0,1-.743.4A2.667,2.667,0,0,1,16.383-1.143Zm10.6-10.67H25.348v2.3h-2.5v1.257h2.5v5.168a4.271,4.271,0,0,0,.233,1.5A2.662,2.662,0,0,0,26.218-.58,2.425,2.425,0,0,0,27.171,0a3.771,3.771,0,0,0,1.182.18q.378,0,.76-.035a6.633,6.633,0,0,0,.725-.105,5.007,5.007,0,0,0,.633-.154,2.275,2.275,0,0,0,.492-.215l-.229-1.151q-.149.035-.382.083t-.5.092q-.272.044-.554.075a5.013,5.013,0,0,1-.545.031,2.568,2.568,0,0,1-.681-.088A1.392,1.392,0,0,1,27.51-1.6a1.409,1.409,0,0,1-.387-.571,2.54,2.54,0,0,1-.141-.914V-8.253H30.6V-9.51H26.982Zm7.207,2.3v1.415h3.234v6.688H34.189V0h7.963V-1.406h-3.1v-8.1Zm3.023-2.5a.938.938,0,0,0,.242.659.948.948,0,0,0,.734.264.95.95,0,0,0,.729-.264.929.929,0,0,0,.246-.659,1.127,1.127,0,0,0-.07-.4.761.761,0,0,0-.211-.308.8.8,0,0,0-.29-.18,1.147,1.147,0,0,0-.4-.066,1.184,1.184,0,0,0-.409.066.8.8,0,0,0-.294.18.793.793,0,0,0-.207.316A1.167,1.167,0,0,0,37.213-12.006Zm7.066,7.163v.193a5.889,5.889,0,0,0,.3,1.907,4.546,4.546,0,0,0,.861,1.529A3.888,3.888,0,0,0,46.8-.193a4.3,4.3,0,0,0,1.815.369,4.251,4.251,0,0,0,1.8-.369,3.986,3.986,0,0,0,1.362-1.02,4.63,4.63,0,0,0,.853-1.529,5.889,5.889,0,0,0,.3-1.907v-.193a5.929,5.929,0,0,0-.3-1.912,4.622,4.622,0,0,0-.853-1.534A4.024,4.024,0,0,0,50.41-9.312a4.259,4.259,0,0,0-1.815-.374,4.208,4.208,0,0,0-1.8.374,3.946,3.946,0,0,0-1.354,1.024,4.539,4.539,0,0,0-.861,1.534A5.929,5.929,0,0,0,44.279-4.843Zm1.626.193v-.193a5.231,5.231,0,0,1,.167-1.332,3.413,3.413,0,0,1,.51-1.121,2.524,2.524,0,0,1,.835-.769,2.338,2.338,0,0,1,1.178-.286,2.362,2.362,0,0,1,1.182.286,2.6,2.6,0,0,1,.848.769,3.6,3.6,0,0,1,.505,1.121A5.1,5.1,0,0,1,51.3-4.843v.193a5.267,5.267,0,0,1-.167,1.34,3.524,3.524,0,0,1-.5,1.121,2.55,2.55,0,0,1-.848.765,2.373,2.373,0,0,1-1.173.281,2.417,2.417,0,0,1-1.187-.281,2.454,2.454,0,0,1-.844-.765,3.413,3.413,0,0,1-.51-1.121A5.267,5.267,0,0,1,45.905-4.649ZM55.538,0h1.626V-6.82a3.057,3.057,0,0,1,.391-.562,3.054,3.054,0,0,1,.488-.448,2.867,2.867,0,0,1,.712-.347,2.652,2.652,0,0,1,.835-.127,3.126,3.126,0,0,1,.918.123,1.666,1.666,0,0,1,.681.4,1.733,1.733,0,0,1,.413.712A3.551,3.551,0,0,1,61.743-6V0h1.626V-6.038a5.142,5.142,0,0,0-.233-1.639,3,3,0,0,0-.664-1.138,2.6,2.6,0,0,0-1.042-.659,4.14,4.14,0,0,0-1.358-.211,3.732,3.732,0,0,0-1.05.163,3.528,3.528,0,0,0-.918.435,3.356,3.356,0,0,0-.532.435,4.2,4.2,0,0,0-.461.549L57-9.51H55.538ZM72.659-2.522a1.068,1.068,0,0,1-.088.431,1.193,1.193,0,0,1-.255.369,1.836,1.836,0,0,1-.756.426,3.75,3.75,0,0,1-1.134.154,4.085,4.085,0,0,1-.835-.088,2.367,2.367,0,0,1-.765-.3,1.85,1.85,0,0,1-.584-.554,1.683,1.683,0,0,1-.268-.844H66.349a2.616,2.616,0,0,0,.277,1.169,2.889,2.889,0,0,0,.8.984,4.008,4.008,0,0,0,1.274.69,5.3,5.3,0,0,0,1.723.259,5.68,5.68,0,0,0,1.556-.2A3.862,3.862,0,0,0,73.2-.6a2.7,2.7,0,0,0,.8-.888,2.346,2.346,0,0,0,.286-1.151,2.09,2.09,0,0,0-.25-1.037,2.461,2.461,0,0,0-.725-.791,4.725,4.725,0,0,0-1.169-.576,12.827,12.827,0,0,0-1.573-.426,9.936,9.936,0,0,1-1.1-.272,2.678,2.678,0,0,1-.69-.316,1.018,1.018,0,0,1-.369-.4,1.144,1.144,0,0,1-.105-.5,1.134,1.134,0,0,1,.132-.527,1.3,1.3,0,0,1,.4-.448,1.978,1.978,0,0,1,.646-.308,3.256,3.256,0,0,1,.91-.114,2.7,2.7,0,0,1,.9.141,2.256,2.256,0,0,1,.681.369,1.724,1.724,0,0,1,.439.523,1.258,1.258,0,0,1,.158.6h1.626a2.585,2.585,0,0,0-.268-1.165,2.86,2.86,0,0,0-.76-.945,3.627,3.627,0,0,0-1.2-.633,5.105,5.105,0,0,0-1.582-.229,4.86,4.86,0,0,0-1.5.22,3.847,3.847,0,0,0-1.173.6,2.765,2.765,0,0,0-.765.883A2.252,2.252,0,0,0,66.674-6.9a1.984,1.984,0,0,0,.264,1.033,2.42,2.42,0,0,0,.747.769,4.708,4.708,0,0,0,1.147.571,11.252,11.252,0,0,0,1.49.4,7.717,7.717,0,0,1,1.116.294,3.053,3.053,0,0,1,.721.356,1.165,1.165,0,0,1,.387.426A1.172,1.172,0,0,1,72.659-2.522ZM94.175-9.686a3.738,3.738,0,0,0-1.85.453A4.369,4.369,0,0,0,90.932-8l-.009-.237-.07-1.274H89.306V0H90.94V-6.1a3.548,3.548,0,0,1,.4-.8,2.529,2.529,0,0,1,.567-.6,2.544,2.544,0,0,1,.844-.426,3.756,3.756,0,0,1,1.081-.145,7.92,7.92,0,0,1,.892.048,8.666,8.666,0,0,1,.9.154l.22-1.591a2.882,2.882,0,0,0-.734-.167A7.486,7.486,0,0,0,94.175-9.686ZM102.946.176a4.519,4.519,0,0,0,2.333-.558A4.229,4.229,0,0,0,106.7-1.661l-.993-.773a3.355,3.355,0,0,1-1.125.932,3.307,3.307,0,0,1-1.547.352,2.892,2.892,0,0,1-1.2-.246,2.766,2.766,0,0,1-.932-.677,3.026,3.026,0,0,1-.593-.932,4.21,4.21,0,0,1-.277-1.222v-.062h6.794v-.729a6.522,6.522,0,0,0-.25-1.846,4.246,4.246,0,0,0-.76-1.485,3.549,3.549,0,0,0-1.279-.98,4.241,4.241,0,0,0-1.8-.356,4.006,4.006,0,0,0-1.6.334,4.259,4.259,0,0,0-1.384.958,4.739,4.739,0,0,0-.984,1.542A5.441,5.441,0,0,0,98.4-4.79v.369a4.947,4.947,0,0,0,.334,1.837,4.382,4.382,0,0,0,.932,1.459,4.178,4.178,0,0,0,1.437.958A4.825,4.825,0,0,0,102.946.176Zm-.211-8.525a2.363,2.363,0,0,1,1.077.229,2.265,2.265,0,0,1,.751.6,2.741,2.741,0,0,1,.466.875,3.021,3.021,0,0,1,.167.945v.079h-5.115a4.051,4.051,0,0,1,.338-1.165,3.073,3.073,0,0,1,.593-.857,2.465,2.465,0,0,1,.791-.523A2.432,2.432,0,0,1,102.735-8.35ZM109.547,0h1.626V-6.82a3.057,3.057,0,0,1,.391-.562,3.054,3.054,0,0,1,.488-.448,2.867,2.867,0,0,1,.712-.347,2.652,2.652,0,0,1,.835-.127,3.126,3.126,0,0,1,.918.123,1.666,1.666,0,0,1,.681.4,1.733,1.733,0,0,1,.413.712A3.551,3.551,0,0,1,115.752-6V0h1.626V-6.038a5.142,5.142,0,0,0-.233-1.639,3,3,0,0,0-.664-1.138,2.6,2.6,0,0,0-1.042-.659,4.14,4.14,0,0,0-1.358-.211,3.732,3.732,0,0,0-1.05.163,3.528,3.528,0,0,0-.918.435,3.356,3.356,0,0,0-.532.435,4.2,4.2,0,0,0-.461.549l-.114-1.406h-1.459Zm10.345-4.843v.193a5.889,5.889,0,0,0,.3,1.907,4.546,4.546,0,0,0,.861,1.529,3.888,3.888,0,0,0,1.358,1.02,4.3,4.3,0,0,0,1.815.369,4.251,4.251,0,0,0,1.8-.369,3.986,3.986,0,0,0,1.362-1.02,4.63,4.63,0,0,0,.853-1.529,5.889,5.889,0,0,0,.3-1.907v-.193a5.929,5.929,0,0,0-.3-1.912,4.622,4.622,0,0,0-.853-1.534,4.024,4.024,0,0,0-1.367-1.024,4.259,4.259,0,0,0-1.815-.374,4.208,4.208,0,0,0-1.8.374,3.946,3.946,0,0,0-1.354,1.024,4.539,4.539,0,0,0-.861,1.534A5.929,5.929,0,0,0,119.892-4.843Zm1.626.193v-.193a5.231,5.231,0,0,1,.167-1.332,3.413,3.413,0,0,1,.51-1.121,2.524,2.524,0,0,1,.835-.769,2.338,2.338,0,0,1,1.178-.286,2.362,2.362,0,0,1,1.182.286,2.6,2.6,0,0,1,.848.769,3.6,3.6,0,0,1,.505,1.121,5.1,5.1,0,0,1,.171,1.332v.193a5.267,5.267,0,0,1-.167,1.34,3.524,3.524,0,0,1-.5,1.121,2.55,2.55,0,0,1-.848.765,2.373,2.373,0,0,1-1.173.281,2.417,2.417,0,0,1-1.187-.281,2.454,2.454,0,0,1-.844-.765,3.413,3.413,0,0,1-.51-1.121A5.267,5.267,0,0,1,121.518-4.649ZM131.9-9.51h-1.459V0h1.547V-7.567a1.249,1.249,0,0,1,.136-.264,1.084,1.084,0,0,1,.2-.22,1.05,1.05,0,0,1,.365-.189,1.733,1.733,0,0,1,.505-.066,1.461,1.461,0,0,1,.461.066.781.781,0,0,1,.33.207.908.908,0,0,1,.207.378,1.908,1.908,0,0,1,.066.527V0H135.8V-7.295a1.407,1.407,0,0,1,.105-.4,1.043,1.043,0,0,1,.22-.321,1.041,1.041,0,0,1,.352-.211,1.427,1.427,0,0,1,.5-.079,1.486,1.486,0,0,1,.479.07.886.886,0,0,1,.347.211,1.012,1.012,0,0,1,.2.378,1.8,1.8,0,0,1,.07.527V0h1.547V-7.1a4,4,0,0,0-.158-1.191,2.08,2.08,0,0,0-.457-.822,1.756,1.756,0,0,0-.668-.426,2.565,2.565,0,0,0-.888-.145,2.607,2.607,0,0,0-.664.1,2.271,2.271,0,0,0-.549.237,2.227,2.227,0,0,0-.36.308,2.235,2.235,0,0,0-.29.378,1.875,1.875,0,0,0-.233-.4,1.539,1.539,0,0,0-.3-.3,1.735,1.735,0,0,0-.532-.242,2.566,2.566,0,0,0-.681-.083,2.238,2.238,0,0,0-1.138.29,2.142,2.142,0,0,0-.76.782Zm10.8,0H141.24V0h1.547V-7.567a1.249,1.249,0,0,1,.136-.264,1.084,1.084,0,0,1,.2-.22,1.05,1.05,0,0,1,.365-.189,1.733,1.733,0,0,1,.505-.066,1.461,1.461,0,0,1,.461.066.781.781,0,0,1,.33.207.908.908,0,0,1,.207.378,1.908,1.908,0,0,1,.066.527V0H146.6V-7.295a1.407,1.407,0,0,1,.105-.4,1.043,1.043,0,0,1,.22-.321,1.041,1.041,0,0,1,.352-.211,1.427,1.427,0,0,1,.5-.079,1.486,1.486,0,0,1,.479.07.886.886,0,0,1,.347.211,1.012,1.012,0,0,1,.2.378,1.8,1.8,0,0,1,.07.527V0h1.547V-7.1a4,4,0,0,0-.158-1.191,2.08,2.08,0,0,0-.457-.822,1.756,1.756,0,0,0-.668-.426,2.565,2.565,0,0,0-.888-.145,2.607,2.607,0,0,0-.664.1,2.271,2.271,0,0,0-.549.237,2.227,2.227,0,0,0-.36.308,2.235,2.235,0,0,0-.29.378,1.875,1.875,0,0,0-.233-.4,1.539,1.539,0,0,0-.3-.3,1.735,1.735,0,0,0-.532-.242,2.566,2.566,0,0,0-.681-.083,2.238,2.238,0,0,0-1.138.29,2.142,2.142,0,0,0-.76.782ZM156.955.176a4.519,4.519,0,0,0,2.333-.558,4.229,4.229,0,0,0,1.419-1.279l-.993-.773a3.355,3.355,0,0,1-1.125.932,3.307,3.307,0,0,1-1.547.352,2.892,2.892,0,0,1-1.2-.246,2.766,2.766,0,0,1-.932-.677,3.026,3.026,0,0,1-.593-.932,4.21,4.21,0,0,1-.277-1.222v-.062h6.794v-.729a6.522,6.522,0,0,0-.25-1.846,4.246,4.246,0,0,0-.76-1.485,3.549,3.549,0,0,0-1.279-.98,4.241,4.241,0,0,0-1.8-.356,4.006,4.006,0,0,0-1.6.334,4.259,4.259,0,0,0-1.384.958,4.739,4.739,0,0,0-.984,1.542,5.441,5.441,0,0,0-.369,2.061v.369a4.947,4.947,0,0,0,.334,1.837,4.382,4.382,0,0,0,.932,1.459,4.178,4.178,0,0,0,1.437.958A4.825,4.825,0,0,0,156.955.176Zm-.211-8.525a2.363,2.363,0,0,1,1.077.229,2.265,2.265,0,0,1,.751.6,2.741,2.741,0,0,1,.466.875,3.021,3.021,0,0,1,.167.945v.079H154.09a4.051,4.051,0,0,1,.338-1.165,3.073,3.073,0,0,1,.593-.857,2.465,2.465,0,0,1,.791-.523A2.432,2.432,0,0,1,156.744-8.35Zm.791-4.86-1.617,2.338h1.23L159.5-13.21ZM167.757.176a4.519,4.519,0,0,0,2.333-.558,4.229,4.229,0,0,0,1.419-1.279l-.993-.773a3.355,3.355,0,0,1-1.125.932,3.307,3.307,0,0,1-1.547.352,2.892,2.892,0,0,1-1.2-.246,2.766,2.766,0,0,1-.932-.677,3.026,3.026,0,0,1-.593-.932,4.21,4.21,0,0,1-.277-1.222v-.062h6.794v-.729a6.522,6.522,0,0,0-.25-1.846,4.246,4.246,0,0,0-.76-1.485,3.549,3.549,0,0,0-1.279-.98,4.241,4.241,0,0,0-1.8-.356,4.006,4.006,0,0,0-1.6.334,4.259,4.259,0,0,0-1.384.958,4.739,4.739,0,0,0-.984,1.542,5.441,5.441,0,0,0-.369,2.061v.369a4.947,4.947,0,0,0,.334,1.837,4.382,4.382,0,0,0,.932,1.459,4.178,4.178,0,0,0,1.437.958A4.825,4.825,0,0,0,167.757.176Zm-.211-8.525a2.363,2.363,0,0,1,1.077.229,2.265,2.265,0,0,1,.751.6,2.741,2.741,0,0,1,.466.875,3.021,3.021,0,0,1,.167.945v.079h-5.115a4.051,4.051,0,0,1,.338-1.165,3.073,3.073,0,0,1,.593-.857,2.465,2.465,0,0,1,.791-.523A2.432,2.432,0,0,1,167.546-8.35Zm13.131,5.827a1.068,1.068,0,0,1-.088.431,1.193,1.193,0,0,1-.255.369,1.836,1.836,0,0,1-.756.426,3.75,3.75,0,0,1-1.134.154,4.085,4.085,0,0,1-.835-.088,2.367,2.367,0,0,1-.765-.3,1.85,1.85,0,0,1-.584-.554,1.683,1.683,0,0,1-.268-.844h-1.626a2.616,2.616,0,0,0,.277,1.169,2.889,2.889,0,0,0,.8.984,4.008,4.008,0,0,0,1.274.69,5.3,5.3,0,0,0,1.723.259A5.68,5.68,0,0,0,180-.026,3.862,3.862,0,0,0,181.222-.6a2.7,2.7,0,0,0,.8-.888,2.346,2.346,0,0,0,.286-1.151,2.09,2.09,0,0,0-.25-1.037,2.461,2.461,0,0,0-.725-.791,4.725,4.725,0,0,0-1.169-.576,12.827,12.827,0,0,0-1.573-.426,9.936,9.936,0,0,1-1.1-.272,2.678,2.678,0,0,1-.69-.316,1.018,1.018,0,0,1-.369-.4,1.144,1.144,0,0,1-.105-.5,1.134,1.134,0,0,1,.132-.527,1.3,1.3,0,0,1,.4-.448,1.978,1.978,0,0,1,.646-.308,3.256,3.256,0,0,1,.91-.114,2.7,2.7,0,0,1,.9.141,2.256,2.256,0,0,1,.681.369,1.724,1.724,0,0,1,.439.523,1.258,1.258,0,0,1,.158.6h1.626a2.585,2.585,0,0,0-.268-1.165,2.86,2.86,0,0,0-.76-.945,3.627,3.627,0,0,0-1.2-.633,5.105,5.105,0,0,0-1.582-.229,4.86,4.86,0,0,0-1.5.22,3.847,3.847,0,0,0-1.173.6,2.765,2.765,0,0,0-.765.883,2.252,2.252,0,0,0-.272,1.085,1.984,1.984,0,0,0,.264,1.033,2.42,2.42,0,0,0,.747.769,4.708,4.708,0,0,0,1.147.571,11.252,11.252,0,0,0,1.49.4,7.717,7.717,0,0,1,1.116.294,3.053,3.053,0,0,1,.721.356,1.165,1.165,0,0,1,.387.426A1.172,1.172,0,0,1,180.677-2.522Z" transform="translate(1107 366)" fill="#344766"/>
      </g>
      <g id="btn3">
        <rect id="Rectangle_1183" data-name="Rectangle 1183" width="200" height="38" rx="5" transform="translate(1097 388)" fill="#c2eae9"/>
        <path id="Tracé_1671" data-name="Tracé 1671" d="M8.569-5.915v-1.38H3.226v-4.113H9.378V-12.8H1.6V0H9.457V-1.38H3.226V-5.915Zm12.393-5.493V-12.8H11.47v1.389h3.955V0h1.582V-11.408Zm9.29,5.757v-1.38H24.926v-4.377H31.14V-12.8H23.282V0h1.644V-5.651Zm10,3.129a1.068,1.068,0,0,1-.088.431,1.193,1.193,0,0,1-.255.369,1.836,1.836,0,0,1-.756.426,3.75,3.75,0,0,1-1.134.154,4.085,4.085,0,0,1-.835-.088,2.367,2.367,0,0,1-.765-.3,1.85,1.85,0,0,1-.584-.554,1.683,1.683,0,0,1-.268-.844H33.943a2.616,2.616,0,0,0,.277,1.169,2.889,2.889,0,0,0,.8.984,4.008,4.008,0,0,0,1.274.69,5.3,5.3,0,0,0,1.723.259,5.68,5.68,0,0,0,1.556-.2A3.862,3.862,0,0,0,40.8-.6a2.7,2.7,0,0,0,.8-.888,2.346,2.346,0,0,0,.286-1.151,2.09,2.09,0,0,0-.25-1.037,2.461,2.461,0,0,0-.725-.791,4.725,4.725,0,0,0-1.169-.576,12.827,12.827,0,0,0-1.573-.426,9.936,9.936,0,0,1-1.1-.272,2.678,2.678,0,0,1-.69-.316,1.018,1.018,0,0,1-.369-.4,1.144,1.144,0,0,1-.105-.5,1.134,1.134,0,0,1,.132-.527,1.3,1.3,0,0,1,.4-.448,1.978,1.978,0,0,1,.646-.308,3.256,3.256,0,0,1,.91-.114,2.7,2.7,0,0,1,.9.141,2.256,2.256,0,0,1,.681.369A1.724,1.724,0,0,1,40-7.317a1.258,1.258,0,0,1,.158.6h1.626a2.585,2.585,0,0,0-.268-1.165,2.86,2.86,0,0,0-.76-.945,3.627,3.627,0,0,0-1.2-.633,5.105,5.105,0,0,0-1.582-.229,4.86,4.86,0,0,0-1.5.22,3.847,3.847,0,0,0-1.173.6,2.765,2.765,0,0,0-.765.883A2.252,2.252,0,0,0,34.269-6.9a1.984,1.984,0,0,0,.264,1.033,2.42,2.42,0,0,0,.747.769,4.708,4.708,0,0,0,1.147.571,11.252,11.252,0,0,0,1.49.4,7.717,7.717,0,0,1,1.116.294,3.053,3.053,0,0,1,.721.356,1.165,1.165,0,0,1,.387.426A1.172,1.172,0,0,1,40.254-2.522Z" transform="translate(1178 413)" fill="#344766"/>
      </g>
      <g id="btn4">
        <rect id="Rectangle_1184" data-name="Rectangle 1184" width="200" height="38" rx="5" transform="translate(1097 435)" fill="#c2eae9"/>
        <path id="Tracé_1672" data-name="Tracé 1672" d="M9.817-3.85H8.191a4.713,4.713,0,0,1-.272,1.077,2.758,2.758,0,0,1-.519.857,2.2,2.2,0,0,1-.8.571,2.8,2.8,0,0,1-1.112.2,2.587,2.587,0,0,1-1.028-.189A2.352,2.352,0,0,1,3.7-1.854a2.8,2.8,0,0,1-.536-.756,5.081,5.081,0,0,1-.343-.923,6.547,6.547,0,0,1-.189-.989,8.726,8.726,0,0,1-.057-.98V-7.3a8.726,8.726,0,0,1,.057-.98,6.547,6.547,0,0,1,.189-.989,4.951,4.951,0,0,1,.347-.914,2.883,2.883,0,0,1,.541-.756,2.308,2.308,0,0,1,.76-.514,2.6,2.6,0,0,1,1.024-.189A2.651,2.651,0,0,1,6.6-11.43a2.3,2.3,0,0,1,.8.593,2.978,2.978,0,0,1,.519.879,4.79,4.79,0,0,1,.272,1.081H9.817a5.826,5.826,0,0,0-.435-1.67,4.18,4.18,0,0,0-.875-1.3,3.793,3.793,0,0,0-1.3-.831,4.693,4.693,0,0,0-1.714-.294,4.352,4.352,0,0,0-1.441.224,3.906,3.906,0,0,0-1.143.62,4.028,4.028,0,0,0-.875.936,5.611,5.611,0,0,0-.6,1.173,6.822,6.822,0,0,0-.365,1.327A8.995,8.995,0,0,0,.94-7.286V-5.5A8.995,8.995,0,0,0,1.068-4.1a6.822,6.822,0,0,0,.365,1.327,5.505,5.505,0,0,0,.6,1.169,4.067,4.067,0,0,0,.875.932,3.894,3.894,0,0,0,1.147.62A4.363,4.363,0,0,0,5.493.176,4.555,4.555,0,0,0,7.167-.119,3.9,3.9,0,0,0,8.473-.949a4.188,4.188,0,0,0,.888-1.27A5.56,5.56,0,0,0,9.817-3.85Zm2.057-.993v.193a5.889,5.889,0,0,0,.3,1.907,4.546,4.546,0,0,0,.861,1.529,3.888,3.888,0,0,0,1.358,1.02,4.3,4.3,0,0,0,1.815.369,4.251,4.251,0,0,0,1.8-.369,3.986,3.986,0,0,0,1.362-1.02,4.63,4.63,0,0,0,.853-1.529,5.889,5.889,0,0,0,.3-1.907v-.193a5.929,5.929,0,0,0-.3-1.912,4.622,4.622,0,0,0-.853-1.534A4.024,4.024,0,0,0,18-9.312a4.259,4.259,0,0,0-1.815-.374,4.208,4.208,0,0,0-1.8.374,3.946,3.946,0,0,0-1.354,1.024,4.539,4.539,0,0,0-.861,1.534A5.929,5.929,0,0,0,11.874-4.843Zm1.626.193v-.193a5.231,5.231,0,0,1,.167-1.332,3.413,3.413,0,0,1,.51-1.121,2.524,2.524,0,0,1,.835-.769,2.338,2.338,0,0,1,1.178-.286,2.362,2.362,0,0,1,1.182.286,2.6,2.6,0,0,1,.848.769,3.6,3.6,0,0,1,.505,1.121A5.1,5.1,0,0,1,18.9-4.843v.193a5.267,5.267,0,0,1-.167,1.34,3.524,3.524,0,0,1-.5,1.121,2.55,2.55,0,0,1-.848.765,2.373,2.373,0,0,1-1.173.281,2.417,2.417,0,0,1-1.187-.281,2.454,2.454,0,0,1-.844-.765,3.413,3.413,0,0,1-.51-1.121A5.267,5.267,0,0,1,13.5-4.649ZM23.133,0h1.626V-6.82a3.057,3.057,0,0,1,.391-.562,3.054,3.054,0,0,1,.488-.448,2.867,2.867,0,0,1,.712-.347,2.652,2.652,0,0,1,.835-.127,3.126,3.126,0,0,1,.918.123,1.666,1.666,0,0,1,.681.4,1.733,1.733,0,0,1,.413.712A3.551,3.551,0,0,1,29.338-6V0h1.626V-6.038a5.142,5.142,0,0,0-.233-1.639,3,3,0,0,0-.664-1.138,2.6,2.6,0,0,0-1.042-.659,4.14,4.14,0,0,0-1.358-.211,3.732,3.732,0,0,0-1.05.163,3.528,3.528,0,0,0-.918.435,3.356,3.356,0,0,0-.532.435,4.2,4.2,0,0,0-.461.549L24.592-9.51H23.133ZM37.986-1.143a2.482,2.482,0,0,1-1.279-.3,2.375,2.375,0,0,1-.822-.8,3.283,3.283,0,0,1-.453-1.094A5.656,5.656,0,0,1,35.3-4.57v-.369a5.557,5.557,0,0,1,.136-1.222,3.385,3.385,0,0,1,.453-1.1,2.486,2.486,0,0,1,.831-.787,2.463,2.463,0,0,1,1.27-.3,2.5,2.5,0,0,1,.918.167,2.256,2.256,0,0,1,.734.457,2.212,2.212,0,0,1,.488.672,1.98,1.98,0,0,1,.189.813h1.538a3.21,3.21,0,0,0-.29-1.354,3.381,3.381,0,0,0-.8-1.1,3.95,3.95,0,0,0-1.226-.725,4.345,4.345,0,0,0-1.551-.268A4.335,4.335,0,0,0,36.1-9.3a3.889,3.889,0,0,0-1.345,1.037,4.48,4.48,0,0,0-.817,1.521,5.938,5.938,0,0,0-.272,1.8v.369a5.925,5.925,0,0,0,.272,1.806,4.391,4.391,0,0,0,.817,1.507A3.842,3.842,0,0,0,36.1-.211a4.335,4.335,0,0,0,1.89.387,4.112,4.112,0,0,0,1.45-.259,4.292,4.292,0,0,0,1.23-.7,3.418,3.418,0,0,0,.857-1.006A2.522,2.522,0,0,0,41.854-3H40.315a1.5,1.5,0,0,1-.207.734,1.984,1.984,0,0,1-.523.584,2.472,2.472,0,0,1-.743.4A2.667,2.667,0,0,1,37.986-1.143Zm7-12.357v1.415h3.234V-1.406H44.991V0h7.963V-1.406h-3.1V-13.5ZM61.8,0h1.477V-9.51H61.646v6.82a2.655,2.655,0,0,1-.33.567,2.071,2.071,0,0,1-.461.444,2.453,2.453,0,0,1-.747.356,3.438,3.438,0,0,1-.976.127,2.512,2.512,0,0,1-.822-.123,1.307,1.307,0,0,1-.6-.431,1.993,1.993,0,0,1-.369-.809,5.593,5.593,0,0,1-.123-1.283V-9.51H55.591v5.651a6.272,6.272,0,0,0,.233,1.824,3.375,3.375,0,0,0,.664,1.252,2.6,2.6,0,0,0,1.037.725,3.749,3.749,0,0,0,1.354.233,3.358,3.358,0,0,0,1.644-.391A3.386,3.386,0,0,0,61.708-1.31ZM72.659-2.522a1.068,1.068,0,0,1-.088.431,1.193,1.193,0,0,1-.255.369,1.836,1.836,0,0,1-.756.426,3.75,3.75,0,0,1-1.134.154,4.085,4.085,0,0,1-.835-.088,2.367,2.367,0,0,1-.765-.3,1.85,1.85,0,0,1-.584-.554,1.683,1.683,0,0,1-.268-.844H66.349a2.616,2.616,0,0,0,.277,1.169,2.889,2.889,0,0,0,.8.984,4.008,4.008,0,0,0,1.274.69,5.3,5.3,0,0,0,1.723.259,5.68,5.68,0,0,0,1.556-.2A3.862,3.862,0,0,0,73.2-.6a2.7,2.7,0,0,0,.8-.888,2.346,2.346,0,0,0,.286-1.151,2.09,2.09,0,0,0-.25-1.037,2.461,2.461,0,0,0-.725-.791,4.725,4.725,0,0,0-1.169-.576,12.827,12.827,0,0,0-1.573-.426,9.936,9.936,0,0,1-1.1-.272,2.678,2.678,0,0,1-.69-.316,1.018,1.018,0,0,1-.369-.4,1.144,1.144,0,0,1-.105-.5,1.134,1.134,0,0,1,.132-.527,1.3,1.3,0,0,1,.4-.448,1.978,1.978,0,0,1,.646-.308,3.256,3.256,0,0,1,.91-.114,2.7,2.7,0,0,1,.9.141,2.256,2.256,0,0,1,.681.369,1.724,1.724,0,0,1,.439.523,1.258,1.258,0,0,1,.158.6h1.626a2.585,2.585,0,0,0-.268-1.165,2.86,2.86,0,0,0-.76-.945,3.627,3.627,0,0,0-1.2-.633,5.105,5.105,0,0,0-1.582-.229,4.86,4.86,0,0,0-1.5.22,3.847,3.847,0,0,0-1.173.6,2.765,2.765,0,0,0-.765.883A2.252,2.252,0,0,0,66.674-6.9a1.984,1.984,0,0,0,.264,1.033,2.42,2.42,0,0,0,.747.769,4.708,4.708,0,0,0,1.147.571,11.252,11.252,0,0,0,1.49.4,7.717,7.717,0,0,1,1.116.294,3.053,3.053,0,0,1,.721.356,1.165,1.165,0,0,1,.387.426A1.172,1.172,0,0,1,72.659-2.522ZM77.4-9.51v1.415h3.234v6.688H77.4V0h7.963V-1.406h-3.1v-8.1Zm3.023-2.5a.938.938,0,0,0,.242.659.948.948,0,0,0,.734.264.95.95,0,0,0,.729-.264.929.929,0,0,0,.246-.659,1.127,1.127,0,0,0-.07-.4.761.761,0,0,0-.211-.308.8.8,0,0,0-.29-.18,1.147,1.147,0,0,0-.4-.066,1.184,1.184,0,0,0-.409.066.8.8,0,0,0-.294.18.793.793,0,0,0-.207.316A1.167,1.167,0,0,0,80.42-12.006Zm7.066,7.163v.193a5.889,5.889,0,0,0,.3,1.907,4.546,4.546,0,0,0,.861,1.529A3.888,3.888,0,0,0,90-.193a4.3,4.3,0,0,0,1.815.369,4.251,4.251,0,0,0,1.8-.369,3.986,3.986,0,0,0,1.362-1.02,4.63,4.63,0,0,0,.853-1.529,5.889,5.889,0,0,0,.3-1.907v-.193a5.929,5.929,0,0,0-.3-1.912,4.622,4.622,0,0,0-.853-1.534,4.024,4.024,0,0,0-1.367-1.024A4.259,4.259,0,0,0,91.8-9.686a4.208,4.208,0,0,0-1.8.374,3.946,3.946,0,0,0-1.354,1.024,4.539,4.539,0,0,0-.861,1.534A5.929,5.929,0,0,0,87.486-4.843Zm1.626.193v-.193a5.231,5.231,0,0,1,.167-1.332,3.413,3.413,0,0,1,.51-1.121,2.524,2.524,0,0,1,.835-.769A2.338,2.338,0,0,1,91.8-8.35a2.362,2.362,0,0,1,1.182.286,2.6,2.6,0,0,1,.848.769,3.6,3.6,0,0,1,.505,1.121,5.1,5.1,0,0,1,.171,1.332v.193a5.267,5.267,0,0,1-.167,1.34,3.524,3.524,0,0,1-.5,1.121,2.55,2.55,0,0,1-.848.765,2.373,2.373,0,0,1-1.173.281,2.417,2.417,0,0,1-1.187-.281,2.454,2.454,0,0,1-.844-.765,3.413,3.413,0,0,1-.51-1.121A5.267,5.267,0,0,1,89.112-4.649ZM98.745,0h1.626V-6.82a3.057,3.057,0,0,1,.391-.562,3.054,3.054,0,0,1,.488-.448,2.867,2.867,0,0,1,.712-.347,2.652,2.652,0,0,1,.835-.127,3.126,3.126,0,0,1,.918.123,1.666,1.666,0,0,1,.681.4,1.733,1.733,0,0,1,.413.712A3.551,3.551,0,0,1,104.95-6V0h1.626V-6.038a5.142,5.142,0,0,0-.233-1.639,3,3,0,0,0-.664-1.138,2.6,2.6,0,0,0-1.042-.659,4.14,4.14,0,0,0-1.358-.211,3.732,3.732,0,0,0-1.05.163,3.528,3.528,0,0,0-.918.435,3.356,3.356,0,0,0-.532.435,4.2,4.2,0,0,0-.461.549L100.2-9.51H98.745Zm17.121-2.522a1.068,1.068,0,0,1-.088.431,1.193,1.193,0,0,1-.255.369,1.836,1.836,0,0,1-.756.426,3.75,3.75,0,0,1-1.134.154,4.085,4.085,0,0,1-.835-.088,2.367,2.367,0,0,1-.765-.3,1.85,1.85,0,0,1-.584-.554,1.683,1.683,0,0,1-.268-.844h-1.626a2.616,2.616,0,0,0,.277,1.169,2.889,2.889,0,0,0,.8.984,4.008,4.008,0,0,0,1.274.69,5.3,5.3,0,0,0,1.723.259,5.68,5.68,0,0,0,1.556-.2A3.862,3.862,0,0,0,116.411-.6a2.7,2.7,0,0,0,.8-.888,2.346,2.346,0,0,0,.286-1.151,2.09,2.09,0,0,0-.25-1.037,2.461,2.461,0,0,0-.725-.791,4.725,4.725,0,0,0-1.169-.576,12.827,12.827,0,0,0-1.573-.426,9.936,9.936,0,0,1-1.1-.272,2.678,2.678,0,0,1-.69-.316,1.018,1.018,0,0,1-.369-.4,1.144,1.144,0,0,1-.105-.5,1.134,1.134,0,0,1,.132-.527,1.3,1.3,0,0,1,.4-.448,1.978,1.978,0,0,1,.646-.308,3.256,3.256,0,0,1,.91-.114,2.7,2.7,0,0,1,.9.141,2.256,2.256,0,0,1,.681.369,1.724,1.724,0,0,1,.439.523,1.258,1.258,0,0,1,.158.6H117.4a2.585,2.585,0,0,0-.268-1.165,2.86,2.86,0,0,0-.76-.945,3.627,3.627,0,0,0-1.2-.633,5.105,5.105,0,0,0-1.582-.229,4.86,4.86,0,0,0-1.5.22,3.847,3.847,0,0,0-1.173.6,2.765,2.765,0,0,0-.765.883,2.252,2.252,0,0,0-.272,1.085,1.984,1.984,0,0,0,.264,1.033,2.42,2.42,0,0,0,.747.769,4.708,4.708,0,0,0,1.147.571,11.252,11.252,0,0,0,1.49.4,7.717,7.717,0,0,1,1.116.294,3.053,3.053,0,0,1,.721.356,1.165,1.165,0,0,1,.387.426A1.172,1.172,0,0,1,115.866-2.522Z" transform="translate(1139 460)" fill="#344766"/>
      </g>
    </g>
    <g id="btn-pass" transform="translate(1)">
      <g id="Groupe_3941" data-name="Groupe 3941" transform="translate(-2 49)">
        <circle id="Ellipse_57" data-name="Ellipse 57" cx="23" cy="23" r="23" transform="translate(1175 503)" opacity="0.119"/>
        <g id="Groupe_3940" data-name="Groupe 3940" transform="translate(13.126 -25.969)">
          <line id="Ligne_529" data-name="Ligne 529" x2="15.5" transform="translate(1179.394 546.686) rotate(45)" fill="none" stroke="#344766" stroke-linecap="round" stroke-width="2"/>
          <line id="Ligne_530" data-name="Ligne 530" y2="15.5" transform="translate(1190.354 547.04) rotate(45)" fill="none" stroke="#344766" stroke-linecap="round" stroke-width="2"/>
        </g>
      </g>
      <path id="Tracé_1673" data-name="Tracé 1673" d="M-19.4-3.422h1.682A3.549,3.549,0,0,0-16.632-3.6a2.731,2.731,0,0,0,.9-.492,2.324,2.324,0,0,0,.612-.794,2.491,2.491,0,0,0,.226-1.087,2.51,2.51,0,0,0-.226-1.09,2.316,2.316,0,0,0-.612-.8,2.731,2.731,0,0,0-.9-.492,3.674,3.674,0,0,0-1.087-.182h-2.766V0H-19.4Zm0-.891V-7.641h1.682a2.1,2.1,0,0,1,.694.123,1.634,1.634,0,0,1,.554.334,1.553,1.553,0,0,1,.36.527,1.768,1.768,0,0,1,.132.7,1.7,1.7,0,0,1-.132.688,1.474,1.474,0,0,1-.366.513,1.652,1.652,0,0,1-.551.325,2.121,2.121,0,0,1-.691.12Zm10.09,2.1L-8.637,0h1.078l-2.707-8.531h-.908L-13.928,0h1.084l.686-2.209Zm-2.555-.943,1.143-3.7,1.125,3.7Zm10.148,1a1.16,1.16,0,0,1-.152.606,1.321,1.321,0,0,1-.393.419,1.651,1.651,0,0,1-.548.249A2.5,2.5,0,0,1-3.434-.8a2.389,2.389,0,0,1-.735-.108,1.743,1.743,0,0,1-.595-.325,1.687,1.687,0,0,1-.422-.519A2.063,2.063,0,0,1-5.4-2.461H-6.51a2.362,2.362,0,0,0,.243,1,2.525,2.525,0,0,0,.612.782,3,3,0,0,0,1.022.592,3.62,3.62,0,0,0,1.2.205,3.746,3.746,0,0,0,1.02-.144A2.941,2.941,0,0,0-1.5-.457a2.266,2.266,0,0,0,.659-.709,1.92,1.92,0,0,0,.255-1,2.054,2.054,0,0,0-.237-1A2.327,2.327,0,0,0-1.447-3.9a3.7,3.7,0,0,0-.867-.53,8.913,8.913,0,0,0-.949-.354q-.287-.088-.612-.205a3.006,3.006,0,0,1-.6-.293,1.6,1.6,0,0,1-.463-.431,1.078,1.078,0,0,1-.187-.624,1.25,1.25,0,0,1,.138-.6,1.3,1.3,0,0,1,.372-.434,1.6,1.6,0,0,1,.524-.264,2.119,2.119,0,0,1,.606-.088,1.9,1.9,0,0,1,.694.12,1.567,1.567,0,0,1,.53.337,1.659,1.659,0,0,1,.357.519,2.368,2.368,0,0,1,.182.671H-.609A2.425,2.425,0,0,0-.861-7.137,2.539,2.539,0,0,0-1.5-7.945a2.964,2.964,0,0,0-.914-.519,3.158,3.158,0,0,0-1.072-.185,3.349,3.349,0,0,0-1,.155,2.864,2.864,0,0,0-.891.454,2.363,2.363,0,0,0-.636.732,1.978,1.978,0,0,0-.243.984,1.833,1.833,0,0,0,.243.958,2.519,2.519,0,0,0,.63.706,4.172,4.172,0,0,0,.847.5,9.279,9.279,0,0,0,.917.354q.311.1.647.223a3.086,3.086,0,0,1,.618.3,1.627,1.627,0,0,1,.46.457A1.172,1.172,0,0,1-1.717-2.156Zm7.2,0a1.16,1.16,0,0,1-.152.606,1.321,1.321,0,0,1-.393.419,1.651,1.651,0,0,1-.548.249A2.5,2.5,0,0,1,3.768-.8a2.389,2.389,0,0,1-.735-.108,1.743,1.743,0,0,1-.595-.325,1.687,1.687,0,0,1-.422-.519A2.063,2.063,0,0,1,1.8-2.461H.691a2.362,2.362,0,0,0,.243,1,2.525,2.525,0,0,0,.612.782,3,3,0,0,0,1.022.592,3.62,3.62,0,0,0,1.2.205,3.746,3.746,0,0,0,1.02-.144A2.941,2.941,0,0,0,5.7-.457a2.266,2.266,0,0,0,.659-.709,1.92,1.92,0,0,0,.255-1,2.054,2.054,0,0,0-.237-1A2.327,2.327,0,0,0,5.754-3.9a3.7,3.7,0,0,0-.867-.53,8.913,8.913,0,0,0-.949-.354q-.287-.088-.612-.205a3.006,3.006,0,0,1-.6-.293,1.6,1.6,0,0,1-.463-.431,1.078,1.078,0,0,1-.187-.624,1.25,1.25,0,0,1,.138-.6,1.3,1.3,0,0,1,.372-.434,1.6,1.6,0,0,1,.524-.264,2.119,2.119,0,0,1,.606-.088,1.9,1.9,0,0,1,.694.12,1.567,1.567,0,0,1,.53.337,1.659,1.659,0,0,1,.357.519,2.368,2.368,0,0,1,.182.671H6.592A2.425,2.425,0,0,0,6.34-7.137,2.539,2.539,0,0,0,5.7-7.945a2.964,2.964,0,0,0-.914-.519,3.158,3.158,0,0,0-1.072-.185,3.349,3.349,0,0,0-1,.155,2.864,2.864,0,0,0-.891.454,2.363,2.363,0,0,0-.636.732,1.978,1.978,0,0,0-.243.984,1.833,1.833,0,0,0,.243.958,2.519,2.519,0,0,0,.63.706,4.172,4.172,0,0,0,.847.5A9.279,9.279,0,0,0,3.58-3.8q.311.1.647.223a3.086,3.086,0,0,1,.618.3,1.627,1.627,0,0,1,.46.457A1.172,1.172,0,0,1,5.484-2.156Zm7.43-1.787v-.92H9.352V-7.605h4.1v-.926H8.268V0h5.238V-.92H9.352V-3.943Zm5.332.463L19.922,0h1.143l.006-.07L19.26-3.715a3.253,3.253,0,0,0,.645-.369,2.438,2.438,0,0,0,.5-.5,2.29,2.29,0,0,0,.331-.627,2.308,2.308,0,0,0,.12-.762,2.6,2.6,0,0,0-.226-1.122,2.222,2.222,0,0,0-.618-.794,2.735,2.735,0,0,0-.926-.475,4.184,4.184,0,0,0-1.125-.17h-2.5V0h1.078V-3.48Zm-1.705-.891v-3.27h1.424a2.5,2.5,0,0,1,.724.111,1.631,1.631,0,0,1,.571.311,1.458,1.458,0,0,1,.375.519,1.776,1.776,0,0,1,.135.718,1.573,1.573,0,0,1-.141.683,1.492,1.492,0,0,1-.381.5,1.749,1.749,0,0,1-.568.313,2.251,2.251,0,0,1-.686.114Z" transform="translate(1196 542)" fill="#fff" opacity="0.704"/>
    </g>
  </g>
</svg>
