<svg xmlns="http://www.w3.org/2000/svg" xmlns:xlink="http://www.w3.org/1999/xlink" width="779" height="624" viewBox="0 0 779 624">
  <defs>
    <clipPath id="clip-path">
      <rect id="Rectangle_34" data-name="Rectangle 34" width="59.651" height="59.913" fill="none"/>
    </clipPath>
  </defs>
  <g id="schema1" transform="translate(-595 -177)">
    <g id="tasse">
      <g id="Rectangle_32" data-name="Rectangle 32" transform="translate(1069.906 403.609) rotate(42)" fill="#fff" stroke="#f7e38d" stroke-width="4">
        <rect width="26.599" height="54.116" rx="10" stroke="none"/>
        <rect x="2" y="2" width="22.599" height="50.116" rx="8" fill="none"/>
      </g>
      <g id="Ellipse_3" data-name="Ellipse 3" transform="translate(874 415)" fill="#fff" stroke="#f7e38d" stroke-width="4">
        <circle cx="104" cy="104" r="104" stroke="none"/>
        <circle cx="104" cy="104" r="102" fill="none"/>
      </g>
      <circle id="Ellipse_4" data-name="Ellipse 4" cx="86.5" cy="86.5" r="86.5" transform="translate(892 433)" fill="#887639"/>
      <ellipse id="Ellipse_5" data-name="Ellipse 5" cx="3" cy="2.5" rx="3" ry="2.5" transform="translate(939 500)" fill="#363636"/>
      <circle id="Ellipse_6" data-name="Ellipse 6" cx="5.5" cy="5.5" r="5.5" transform="translate(930 486)" fill="#363636"/>
      <ellipse id="Ellipse_7" data-name="Ellipse 7" cx="6.5" cy="6" rx="6.5" ry="6" transform="translate(954 467)" fill="#363636"/>
      <circle id="Ellipse_8" data-name="Ellipse 8" cx="4.5" cy="4.5" r="4.5" transform="translate(986 458)" fill="#363636"/>
      <circle id="Ellipse_9" data-name="Ellipse 9" cx="3.5" cy="3.5" r="3.5" transform="translate(954 451)" fill="#363636"/>
      <circle id="Ellipse_10" data-name="Ellipse 10" cx="3.5" cy="3.5" r="3.5" transform="translate(976 456)" fill="#363636"/>
      <circle id="Ellipse_11" data-name="Ellipse 11" cx="3.5" cy="3.5" r="3.5" transform="translate(944 472)" fill="#363636"/>
      <circle id="Ellipse_12" data-name="Ellipse 12" cx="3.5" cy="3.5" r="3.5" transform="translate(935 476)" fill="#363636"/>
      <ellipse id="Ellipse_13" data-name="Ellipse 13" cx="4" cy="3.5" rx="4" ry="3.5" transform="translate(917 484)" fill="#363636"/>
      <circle id="Ellipse_14" data-name="Ellipse 14" cx="3.5" cy="3.5" r="3.5" transform="translate(923 494)" fill="#363636"/>
      <circle id="Ellipse_15" data-name="Ellipse 15" cx="4" cy="4" r="4" transform="translate(916 501)" fill="#363636"/>
      <ellipse id="Ellipse_16" data-name="Ellipse 16" cx="3.5" cy="4" rx="3.5" ry="4" transform="translate(951 478)" fill="#363636"/>
      <circle id="Ellipse_17" data-name="Ellipse 17" cx="2.5" cy="2.5" r="2.5" transform="translate(965 478)" fill="#363636"/>
      <ellipse id="Ellipse_18" data-name="Ellipse 18" cx="4" cy="3.5" rx="4" ry="3.5" transform="translate(950 488)" fill="#363636"/>
      <ellipse id="Ellipse_19" data-name="Ellipse 19" cx="3" cy="2.5" rx="3" ry="2.5" transform="translate(927 476)" fill="#363636"/>
      <path id="Tracé_961" data-name="Tracé 961" d="M-829.892,1532.252s85.194,40.134,36.28,119.12c-34.69,50.882-113.005,45.134-136.07-20.654h0s22.006,14.938,32.224,7.564,8.642-28.039,27.1-46.491,27.209-7.97,40.462-25.874S-829.892,1532.252-829.892,1532.252Z" transform="translate(1834.356 -1086.563)" fill="#363636"/>
    </g>
    <g id="icon-5" transform="translate(-15.35 -17)">
      <path id="Tracé_1004" data-name="Tracé 1004" d="M-769.29,1327.937l.487-3.19,1.968-1.549,11.188.479,1.593,1.07v3.968l17.338.417,2.051,1.491.723,2-.465,1.926-1.72.955h-1.935l-6.763,48.347-1.163,1.4-.55.422-2.94.574-26.458-.574-3-1.82-.52-3.469-5.864-44.878-2.681-.471-1.963-2.944,1.006-2.026,2.02-.931h17.1Z" transform="translate(1701 -1117.31)" fill="#fff"/>
      <path id="Tracé_990" data-name="Tracé 990" d="M46.692,65.325H20.12a4.025,4.025,0,0,1-3.994-3.473L9.7,14.7H57.025L50.686,61.852A4.025,4.025,0,0,1,46.692,65.325Z" transform="translate(905.872 202.739)" fill="none" stroke="#000" stroke-width="2"/>
      <path id="Tracé_991" data-name="Tracé 991" d="M57.535,13.778H8.039A3.077,3.077,0,0,1,5,10.739H5A3.077,3.077,0,0,1,8.039,7.7H57.449a3.077,3.077,0,0,1,3.039,3.039h0A2.948,2.948,0,0,1,57.535,13.778Z" transform="translate(906.49 203.66)" fill="none" stroke="#000" stroke-width="2"/>
      <path id="Tracé_992" data-name="Tracé 992" d="M43.557,6.731H28.1V4.126A3.113,3.113,0,0,1,31.226,1h9.2a3.113,3.113,0,0,1,3.126,3.126Z" transform="translate(903.449 204.542)" fill="none" stroke="#000" stroke-width="2"/>
      <path id="Tracé_993" data-name="Tracé 993" d="M34.449,31.66,29.76,36.436l-3.56-3.56L30.889,28.1Z" transform="translate(903.699 200.975)" fill="none" stroke="#000" stroke-width="2"/>
      <path id="Tracé_994" data-name="Tracé 994" d="M38.634,37.652l1.3-1.216L31.6,28.1h7.12L43.5,32.876l1.3-1.3.174,6.078Z" transform="translate(902.989 200.975)" fill="none" stroke="#000" stroke-width="2"/>
      <path id="Tracé_995" data-name="Tracé 995" d="M26.1,51.4l6.513,1.737L31.313,58,24.8,56.263Z" transform="translate(903.884 197.907)" fill="none" stroke="#000" stroke-width="2"/>
      <path id="Tracé_996" data-name="Tracé 996" d="M29.123,43.671,27.3,43.15,24.26,54.525,20.787,48.36l1.737-6.513L20.7,41.413,25.91,38.2Z" transform="translate(904.424 199.645)" fill="none" stroke="#000" stroke-width="2"/>
      <path id="Tracé_997" data-name="Tracé 997" d="M47.437,48.728,45.7,42.3,50.563,41,52.3,47.426Z" transform="translate(901.132 199.277)" fill="none" stroke="#000" stroke-width="2"/>
      <path id="Tracé_998" data-name="Tracé 998" d="M39.213,49.7l.434,1.737L51.023,48.4l-3.56,6.165L40.95,56.3l.434,1.737L36,55.173Z" transform="translate(902.409 198.302)" fill="none" stroke="#000" stroke-width="2"/>
    </g>
    <g id="fleche-5">
      <path id="Tracé_1021" data-name="Tracé 1021" d="M16.353,79.476A237.622,237.622,0,0,1,151.78,1.312" transform="translate(785.925 279.798)" fill="none" stroke="#1d1d1b" stroke-miterlimit="10" stroke-width="3"/>
      <path id="Tracé_1022" data-name="Tracé 1022" d="M67.4,3.09,54.25,11.66l2.268-6.481L52.012,0Z" transform="translate(880.475 276.32)" fill="#1d1d1b"/>
    </g>
    <g id="icon-35" transform="translate(1026.197 186.84)">
      <path id="Tracé_999" data-name="Tracé 999" d="M1.873,4l2.69,5.155,3.67,4.677L17.5,21.776l5.288,5.079,2.706,5.335.873,8.229-1.852,7.555-4.239,1.1H13.6l-6.67-4.111-3.31-5.479L1.528,31.3.857,23.529V14.756Z" transform="translate(-0.857)" fill="#fff"/>
      <path id="Tracé_1000" data-name="Tracé 1000" d="M41.337,38.919l-.6-4.966,2.219-4.691,3.7-2.768,8.168-1.809,9.553-.628h5.118L65.03,26.494l-3.155,2.768-2.792,3.722-2.46,3.578L53.42,39.5l-4.833,1.617-6.434-.584Z" transform="translate(-0.857)" fill="#fff"/>
      <path id="path192" d="M-29.581-16.323c-3.567,5.134-6.67,9.561-16.158,7.252a.718.718,0,0,0-.007-.1c-.031-.107-.05-.207-.078-.312a29.022,29.022,0,0,1,11.711-6.95.832.832,0,0,0,.564-1.031.833.833,0,0,0-1.032-.564,30.2,30.2,0,0,0-11.643,6.679c-.447-2.808-.02-5.051,1.322-6.8,2.828-3.678,9.773-5.424,22.233-5.537-3.036,1.789-5,4.6-6.911,7.355M-79.625-3.579c-5.924-5.253-7.953-17.365-6.446-38.955,2.286,6.08,7.08,9.951,11.757,13.709,7.576,6.088,14.738,11.853,10.229,26.762-1-1.332-2.048-2.671-3.109-4.025C-72.3-12.6-77.573-19.337-78.82-27.134a.826.826,0,0,0-.951-.689.831.831,0,0,0-.689.952c1.315,8.22,6.725,15.128,11.958,21.808,1.074,1.37,2.133,2.725,3.142,4.072C-71.6.234-76.275-.61-79.625-3.579M-17.37-24.085a.726.726,0,0,0,.063-.145.679.679,0,0,0,.035-.158.72.72,0,0,0,.019-.084.655.655,0,0,0-.015-.081c0-.028.007-.054,0-.081a.624.624,0,0,0-.031-.077.761.761,0,0,0-.062-.158A.763.763,0,0,0-17.442-25a.866.866,0,0,0-.112-.115.817.817,0,0,0-.125-.087.792.792,0,0,0-.148-.066.887.887,0,0,0-.156-.035c-.029,0-.055-.017-.086-.018-16.171-.3-24.593,1.534-28.152,6.163-1.816,2.362-2.282,5.374-1.439,9.165A42.131,42.131,0,0,0-58.186,7.6,40.794,40.794,0,0,0-62.868-.4c5.6-16.856-2.538-23.394-10.405-29.716-5.632-4.527-11.456-9.206-12.383-17.827a.705.705,0,0,0-.027-.084.727.727,0,0,0-.044-.145.792.792,0,0,0-.089-.16.717.717,0,0,0-.075-.091.8.8,0,0,0-.151-.123.687.687,0,0,0-.112-.059.8.8,0,0,0-.173-.052.63.63,0,0,0-.082-.024.713.713,0,0,0-.085.008c-.027,0-.051-.009-.078-.007s-.047.017-.073.022a.884.884,0,0,0-.179.057.84.84,0,0,0-.113.064.742.742,0,0,0-.139.116.841.841,0,0,0-.087.108.854.854,0,0,0-.077.147.758.758,0,0,0-.045.155.718.718,0,0,0-.025.082c-2.3,25.828-.333,39.463,6.583,45.595A14.788,14.788,0,0,0-70.493,1.22,29.1,29.1,0,0,0-64.48.531.741.741,0,0,0-64.3.453c3.4,4.724,5.986,9.373,5.986,14.256a.831.831,0,0,0,.831.831.831.831,0,0,0,.831-.831A17.6,17.6,0,0,0-57.657,9a.85.85,0,0,0,.175.022.831.831,0,0,0,.805-.63A39.939,39.939,0,0,1-47.115-8.2a.826.826,0,0,0,.607.657,22,22,0,0,0,5.462.767c6.854,0,9.884-4.359,12.83-8.6,2.633-3.791,5.119-7.37,10.278-8.294a.874.874,0,0,0,.081-.032.771.771,0,0,0,.158-.062.758.758,0,0,0,.126-.084.849.849,0,0,0,.115-.111.777.777,0,0,0,.087-.126" transform="translate(88.228 48.685)"/>
    </g>
    <text id="txt-35" transform="translate(1121 219)" font-size="17" font-family="Poppins-Regular, Poppins"><tspan x="0" y="18">Approvisionnement en </tspan><tspan x="0" y="39">café vert</tspan></text>
    <text id="txt-45" transform="translate(616 631)" font-size="17" font-family="Poppins-Regular, Poppins"><tspan x="0" y="18">Préparation </tspan><tspan x="0" y="39">du café</tspan></text>
    <text id="nb-35" transform="translate(1121 177)" font-size="36" font-family="Poppins-Bold, Poppins" font-weight="700"><tspan x="0" y="38">35%</tspan></text>
    <text id="nb-45" transform="translate(616 589)" font-size="36" font-family="Poppins-Bold, Poppins" font-weight="700"><tspan x="0" y="38">45%</tspan></text>
    <g id="icon-7">
      <rect id="Rectangle_40" data-name="Rectangle 40" width="31" height="62" transform="translate(748 345)" fill="#fff"/>
      <path id="grey_hotel-building_icon-icons.com_59461" d="M32.612,30.557H27.057V25h5.556Zm0-13.89H27.057v5.556h5.556Zm8.334,25H35.39v5.556h5.556Zm0-25H35.39v5.556h5.556Zm0,16.668H35.39v5.556h5.556Zm0-25H35.39V13.89h5.556Zm0,16.668H35.39v5.556h5.556ZM32.612,8.334H27.057V13.89h5.556ZM24.279,25H18.723v5.556h5.556Zm0,16.668H18.723v5.556h5.556Zm0-8.334H18.723v5.556h5.556ZM46.78,5.556V63.892h3.889V66.67H9V63.892h3.889V5.556H9V2.778h7.778V0H42.891V2.778h7.778V5.556ZM34,56.947a4.167,4.167,0,1,0-8.334,0v6.945H34ZM44,5.556H15.667V63.892H22.89V56.947a6.945,6.945,0,0,1,13.89,0v6.945H44ZM32.612,41.669H27.057v5.556h5.556Zm0-8.334H27.057v5.556h5.556ZM24.279,16.668H18.723v5.556h5.556Zm0-8.334H18.723V13.89h5.556Z" transform="translate(733.565 341.182)"/>
    </g>
    <g id="fleche-7">
      <path id="Tracé_1023" data-name="Tracé 1023" d="M14.262,202.172a239.025,239.025,0,0,1-.54-158.332" transform="translate(743.891 392.56)" fill="none" stroke="#1d1d1b" stroke-miterlimit="10" stroke-width="3"/>
      <path id="Tracé_1024" data-name="Tracé 1024" d="M12.629,41.2,13.5,56.872l-4.488-5.2L2.273,52.994Z" transform="translate(748.594 385.55)" fill="#1d1d1b"/>
    </g>
    <g id="icon-45" transform="translate(752.655 599.711)">
      <path id="Tracé_1003" data-name="Tracé 1003" d="M-947.369,1737.042l2.312-10.39,6.358-6.5,5.25-1.614,4.263-.281,6.194,1.9,4.68,3.472,3.192,6.261,1.074,6.672v47.833h-33.615Z" transform="translate(948.345 -1717.711)" fill="#fff"/>
      <path id="path244" d="M-3166.171-6587.274h31.8v7.267h-31.8Zm16.087-56.861c9.642,0,15.019,6.595,15.648,19.114h-31.656c.7-12.353,6.323-19.114,16.008-19.114m-.353,37.136a12.356,12.356,0,0,1-12.336-12.089h24.672A12.357,12.357,0,0,1-3150.437-6607m-.672,1.842h1.344v2.135h-1.344Zm16.736-17.312v1.679h-31.8v-1.52c0-.346.02-.671.027-1.01h31.75c.005.287.021.559.021.851m-9.9,32.3c3.271-3.389,3.116-8.883,3.108-9.115a.851.851,0,0,0-.851-.821h-17.3a.852.852,0,0,0-.851.844c0,.052,0,.366.034.843-1.7-.48-2.667-.125-3.188.316a2.209,2.209,0,0,0-.635,2.278c.41,1.748,2.438,3.909,6.043,4.8a.864.864,0,0,0,.205.024c.009,0,.017-.008.026-.008a8.8,8.8,0,0,0,.839,1,7.979,7.979,0,0,0,1.247,1.026h-10.57v-30.111h1.7a14.057,14.057,0,0,0,11.664,13.575v3.343a.852.852,0,0,0,.851.851h3.046a.852.852,0,0,0,.851-.851v-3.343a14.058,14.058,0,0,0,11.664-13.575h2.026v30.111h-11.363a8.093,8.093,0,0,0,1.46-1.191m-14.152-8.234h15.541c-.086,1.536-.52,4.884-2.613,7.052a7.024,7.024,0,0,1-5.275,2.034,6.583,6.583,0,0,1-4.86-1.882c-2.139-2.152-2.665-5.615-2.793-7.2m-.475,5.264c-2.134-.874-3.206-2.236-3.4-3.073-.039-.164-.08-.458.077-.59.2-.172.922-.293,2.32.255a15.472,15.472,0,0,0,1.005,3.407m8.819-52.7c-6.643,0-17.789,3.056-17.789,23.527v43.152a.851.851,0,0,0,.851.852h33.5a.851.851,0,0,0,.851-.852v-43.31c0-19.314-9.469-23.37-17.413-23.37" transform="translate(3167.873 6645.84)"/>
      <g id="g246" transform="translate(12.238 6.153)">
        <path id="path248" d="M-32.1-10.187a3.667,3.667,0,0,1,3.662,3.662A3.666,3.666,0,0,1-32.1-2.864,3.665,3.665,0,0,1-35.76-6.525,3.666,3.666,0,0,1-32.1-10.187m0,9.025a5.37,5.37,0,0,0,5.364-5.363A5.37,5.37,0,0,0-32.1-11.889a5.369,5.369,0,0,0-5.363,5.363A5.369,5.369,0,0,0-32.1-1.162" transform="translate(37.461 11.889)"/>
      </g>
    </g>
    <g id="fleche-45">
      <path id="Tracé_1025" data-name="Tracé 1025" d="M150.354,183.44A237.523,237.523,0,0,1,17.3,108.972" transform="translate(788.428 565.257)" fill="none" stroke="#1d1d1b" stroke-miterlimit="10" stroke-width="3"/>
      <path id="Tracé_1026" data-name="Tracé 1026" d="M15.449,106.836,29.6,113.643l-6.719,1.42L20.784,121.6Z" transform="translate(783.529 559.594)" fill="#1d1d1b"/>
    </g>
    <g id="icon-2" transform="translate(941.988 719.706)">
      <path id="Tracé_1002" data-name="Tracé 1002" d="M-748.417,1860.858h41.011l.289,12.447h12.2l8.389,12.6v11.557h-6.732l-.555-2.3-1.1-1.251-2.557-.583h-2.542l-1.344,1.833-.653,1.754-5.4.544h-24.973l-1.006-2.761-2.219-1.371-1.87-.324-1.938.324-1.063,1.833-.586,2.3h-7.671Z" transform="translate(759.012 -1837.706)" fill="#fff"/>
      <path id="Tracé_982" data-name="Tracé 982" d="M90.643,60.533v11.8H84.008a4.424,4.424,0,0,0-8.847,0H70V48H82.533Zm-5.161,0-4.424-7.373h-5.9v7.373Z" transform="translate(-18.282 -12.501)" fill="none"/>
      <path id="Tracé_983" data-name="Tracé 983" d="M20.925,68.337H13.737A.737.737,0,0,1,13,67.6V30.737A.737.737,0,0,1,13.737,30h35.8v1.475H14.475V66.863h6.451Z" transform="translate(-3.305 -7.772)"/>
      <path id="Tracé_984" data-name="Tracé 984" d="M28.161,84.322a5.161,5.161,0,1,1,5.161-5.161,5.161,5.161,0,0,1-5.161,5.161Zm0-8.847a3.686,3.686,0,1,0,3.686,3.686A3.686,3.686,0,0,0,28.161,75.475Z" transform="translate(-5.933 -19.333)"/>
      <rect id="Rectangle_36" data-name="Rectangle 36" width="6" height="2" transform="translate(51.012 58.295)"/>
      <path id="Tracé_986" data-name="Tracé 986" d="M90.643,72.8H84.008V71.329h5.9V60.484l-7.771-12.01H70V47H82.533a.737.737,0,0,1,.619.339l8.11,12.533a.737.737,0,0,1,.118.4v11.8A.737.737,0,0,1,90.643,72.8Z" transform="translate(-18.282 -12.239)"/>
      <path id="Tracé_987" data-name="Tracé 987" d="M61.132,68.337H36.25V66.863H60.4V31.475H53.76V30h7.373a.737.737,0,0,1,.737.737V67.6A.737.737,0,0,1,61.132,68.337Z" transform="translate(-9.414 -7.772)"/>
      <path id="Tracé_988" data-name="Tracé 988" d="M81.161,84.322a5.161,5.161,0,1,1,5.161-5.161,5.161,5.161,0,0,1-5.161,5.161Zm0-8.847a3.686,3.686,0,1,0,3.686,3.686A3.686,3.686,0,0,0,81.161,75.475Z" transform="translate(-19.858 -19.333)"/>
      <path id="Tracé_989" data-name="Tracé 989" d="M87.059,62.847H76.737A.737.737,0,0,1,76,62.11V54.737A.737.737,0,0,1,76.737,54h5.9a.737.737,0,0,1,.634.361l4.424,7.373a.737.737,0,0,1-.634,1.113Zm-9.584-1.475h8.279l-3.539-5.9H77.475Z" transform="translate(-19.858 -14.078)"/>
      <rect id="Rectangle_39" data-name="Rectangle 39" width="74" height="74" transform="translate(0.012 0.295)" fill="none"/>
    </g>
    <g id="fleche-2">
      <path id="Tracé_1027" data-name="Tracé 1027" d="M213.783,107.344A237.7,237.7,0,0,1,78.3,187.228" transform="translate(950.183 560.941)" fill="none" stroke="#1d1d1b" stroke-miterlimit="10" stroke-width="3"/>
      <path id="Tracé_1028" data-name="Tracé 1028" d="M75.52,136l13.087-8.669-2.216,6.5,4.542,5.149Z" transform="translate(942.806 613.94)" fill="#1d1d1b"/>
    </g>
    <g id="icon-3">
      <path id="Tracé_1001" data-name="Tracé 1001" d="M-490.394,1727.289h10.427v51.754h-52.078v-31.376l10.15-9.861.317,9.861,10.21-9.861.251,9.861,10.3-10.182v10.182l10.1-9.861Z" transform="translate(1701 -1118)" fill="#fff"/>
      <path id="factory_icon_142647" d="M59.373,60.319a.945.945,0,0,0,.945-.945V7.438a.945.945,0,0,0-.945-.945H48.984a.945.945,0,0,0-.945.945v10L39.58,25.893l.128-8.053a.946.946,0,0,0-1.61-.686l-8.965,8.825-.087-8.162a.945.945,0,0,0-1.617-.654l-8.692,8.785-.113-8.133a.945.945,0,0,0-1.618-.651L6.765,27.549a.943.943,0,0,0-.273.663V59.374a.945.945,0,0,0,.945.945H59.373ZM49.931,8.383h8.5V58.427h-8.5V8.383ZM8.384,28.6l8.383-8.5.113,8.127a.945.945,0,0,0,1.617.651L27.18,20.1l.087,8.121a.945.945,0,0,0,1.608.663l8.905-8.767L37.653,28.2a.945.945,0,0,0,1.614.682l8.771-8.773v38.32H8.384Zm18.084,2.074H21.313a.945.945,0,0,0-.945.945v5.155a.945.945,0,0,0,.945.945h5.155a.945.945,0,0,0,.945-.945V31.618A.943.943,0,0,0,26.468,30.673Zm-.945,5.155H22.259V32.565h3.263Zm-8.569-5.155H11.8a.945.945,0,0,0-.945.945v5.155a.945.945,0,0,0,.945.945h5.154a.945.945,0,0,0,.945-.945V31.618A.945.945,0,0,0,16.953,30.673Zm-.947,5.155H12.745V32.565h3.262ZM45.5,30.673H40.342a.945.945,0,0,0-.945.945v5.155a.945.945,0,0,0,.945.945H45.5a.945.945,0,0,0,.945-.945V31.618A.943.943,0,0,0,45.5,30.673Zm-.945,5.155H41.289V32.565h3.263Zm-8.569-5.155H30.827a.945.945,0,0,0-.945.945v5.155a.945.945,0,0,0,.945.945h5.155a.945.945,0,0,0,.945-.945V31.618A.943.943,0,0,0,35.982,30.673Zm-.945,5.155H31.774V32.565h3.263Z" transform="translate(1161.615 601.602)"/>
    </g>
    <g id="fleche-3">
      <path id="Tracé_1029" data-name="Tracé 1029" d="M127.014,43.432a237.455,237.455,0,0,1,13.752,79.895,237.6,237.6,0,0,1-12.379,75.925" transform="translate(1079.342 391.478)" fill="none" stroke="#1d1d1b" stroke-miterlimit="10" stroke-width="3"/>
      <path id="Tracé_1030" data-name="Tracé 1030" d="M127.172,100.134l-1.019-15.665,4.535,5.156,6.726-1.388Z" transform="translate(1077.059 500.289)" fill="#1d1d1b"/>
    </g>
    <text id="txt-3" transform="translate(1267 645)" font-size="17" font-family="Poppins-Regular, Poppins"><tspan x="0" y="18">Production</tspan></text>
    <text id="txt-2" transform="translate(1110 777)" font-size="17" font-family="Poppins-Regular, Poppins"><tspan x="0" y="18">Distribution</tspan></text>
    <text id="nb-3" transform="translate(1267 602)" font-size="36" font-family="Poppins-Bold, Poppins" font-weight="700"><tspan x="0" y="38">3%</tspan></text>
    <text id="nb-2" transform="translate(1110 734)" font-size="36" font-family="Poppins-Bold, Poppins" font-weight="700"><tspan x="0" y="38">2%</tspan></text>
    <g id="icon-14" transform="translate(1164.872 362.202)">
      <g id="Groupe_2494" data-name="Groupe 2494" clip-path="url(#clip-path)">
        <path id="Tracé_974" data-name="Tracé 974" d="M27.727,59.91a54.293,54.293,0,0,1-10.281-1.142A34.512,34.512,0,0,1,5.173,54.215,12.806,12.806,0,0,1,1.082,50.3a6.785,6.785,0,0,1,.548-8.088A15.063,15.063,0,0,1,5.483,38.9,1.158,1.158,0,0,0,6,38.217c.383-2.253.718-4.514,1.075-6.772.424-2.683.862-5.363,1.283-8.046q.6-3.838,1.181-7.68c.38-2.537.7-5.084,1.132-7.613A3.173,3.173,0,0,1,12.6,5.786c1.5-.687,3.043-1.269,4.57-1.89Q20.837,2.406,24.5.925A14.517,14.517,0,0,1,31.019.049a15.7,15.7,0,0,1,5.517,1.558c2.25,1.034,4.7,1.631,7.018,2.523a21.315,21.315,0,0,1,3.729,1.846c1.572.993,1.819,2.715,2.063,4.4q.721,4.977,1.473,9.95.777,5.2,1.566,10.389c.376,2.485.741,4.972,1.16,7.451a1.353,1.353,0,0,0,.623.8,10.857,10.857,0,0,1,5.176,5.862,5.935,5.935,0,0,1-.253,4.388,11.564,11.564,0,0,1-4.524,4.918A33.205,33.205,0,0,1,44.085,58.3,66.468,66.468,0,0,1,27.727,59.91m-15.765-48a2.59,2.59,0,0,0-.179.483q-.6,3.914-1.189,7.83c-.389,2.611-.751,5.227-1.155,7.836-.513,3.311-1.068,6.615-1.583,9.925-.417,2.684-.767,5.378-1.22,8.056A2.486,2.486,0,0,0,7.2,48.216a9.625,9.625,0,0,0,3.841,2.535,36.249,36.249,0,0,0,10.317,2.528c8.292.869,16.544.8,24.627-1.617a15.445,15.445,0,0,0,5.727-2.748,2.707,2.707,0,0,0,1.331-2.426c-.409-2.891-.872-5.774-1.314-8.66-.419-2.735-.856-5.468-1.256-8.206s-.737-5.483-1.146-8.219c-.323-2.157-.709-4.3-1.074-6.456-.172-1.012-.358-2.022-.55-3.107-.226.117-.342.162-.442.231-3.362,2.284-7.226,3.063-11.14,3.506a48.918,48.918,0,0,1-15.784-.534,44.027,44.027,0,0,1-5.459-1.6,21.966,21.966,0,0,1-2.91-1.534m20.425,2.269a37.655,37.655,0,0,0,10.5-1.841,8.765,8.765,0,0,0,3.907-2.259,1.348,1.348,0,0,0,.048-2.04A5.585,5.585,0,0,0,45.006,6.6c-2.252-.914-4.565-1.677-6.842-2.529-.872-.326-1.679-.586-2.31.405a.884.884,0,0,1-.456.26,14.843,14.843,0,0,1-2.873.911,16.61,16.61,0,0,1-6.655-.3,7.727,7.727,0,0,1-2.419-1.2A1.143,1.143,0,0,0,22.179,3.9c-1.748.68-3.514,1.316-5.261,2-1.226.479-2.448.973-3.643,1.525a1.467,1.467,0,0,0-.9,1.758,3.649,3.649,0,0,0,1.216,1.568,13.155,13.155,0,0,0,5.14,2.191,48.368,48.368,0,0,0,13.654,1.235m21.579,26.94c.265,1.619.46,3.071.753,4.5a3.946,3.946,0,0,1-.42,2.934c-1.21,2.061-3.221,3.063-5.3,3.905a45.588,45.588,0,0,1-14.873,2.952A66.7,66.7,0,0,1,17.8,54.477,29.714,29.714,0,0,1,8.451,51.4c-2.8-1.609-4.234-3.2-3.387-6.735.266-1.113.333-2.274.491-3.413l-.225-.16a27.042,27.042,0,0,0-2.1,2,5.141,5.141,0,0,0,.129,7.284A16.894,16.894,0,0,0,9.094,54.32,42.976,42.976,0,0,0,22.245,57.7a61.6,61.6,0,0,0,18.076-.451,42.67,42.67,0,0,0,9.849-2.787,17.776,17.776,0,0,0,5.886-3.859c3.357-3.543,1.539-7.345-2.088-9.49M34.85,2.868c-1.944-1.469-8.339-1.44-10.1.011,1.389,1.6,8.587,1.617,10.1-.011" transform="translate(0 0)"/>
        <path id="Tracé_975" data-name="Tracé 975" d="M48.426,77.45a21.975,21.975,0,0,0,2.91,1.534,44.044,44.044,0,0,0,5.459,1.6,48.918,48.918,0,0,0,15.784.534c3.914-.442,7.779-1.221,11.14-3.506.1-.068.217-.114.442-.231.193,1.085.379,2.095.55,3.107.364,2.151.751,4.3,1.074,6.456.409,2.736.748,5.482,1.147,8.219s.836,5.471,1.255,8.206c.442,2.886.9,5.769,1.314,8.66a2.707,2.707,0,0,1-1.331,2.426,15.446,15.446,0,0,1-5.727,2.748c-8.083,2.413-16.335,2.487-24.627,1.617A36.249,36.249,0,0,1,47.5,116.294a9.626,9.626,0,0,1-3.841-2.535,2.486,2.486,0,0,1-.559-2.179c.453-2.677.8-5.372,1.22-8.056.515-3.31,1.07-6.614,1.583-9.925.4-2.609.766-5.224,1.155-7.836s.787-5.221,1.189-7.83a2.6,2.6,0,0,1,.179-.483m31.539,8.7c-.562,0-.881.453-.76,1.236q.592,3.84,1.246,7.67c.491,2.851,1.029,5.694,1.527,8.544.582,3.326,1.135,6.656,1.717,9.982.134.77.5,1.038,1.121.9.588-.127.79-.571.638-1.318q-.259-1.267-.476-2.542c-.418-2.427-.823-4.856-1.241-7.283Q82.852,98.2,81.955,93.06q-.522-3-1.052-6c-.093-.531-.343-.9-.938-.914m.379-2.208c-.146-.926-.2-1.616-.377-2.275a.866.866,0,1,0-1.7.326c.081.654.2,1.305.34,1.95.108.5.45.9.96.739.347-.112.59-.55.778-.74" transform="translate(-36.464 -65.543)" fill="#fff"/>
        <path id="Tracé_976" data-name="Tracé 976" d="M100.558,35.1A48.367,48.367,0,0,1,86.9,33.865a13.155,13.155,0,0,1-5.14-2.191,3.649,3.649,0,0,1-1.216-1.568,1.467,1.467,0,0,1,.9-1.758c1.194-.552,2.417-1.046,3.643-1.525,1.747-.683,3.513-1.318,5.261-2a1.143,1.143,0,0,1,1.273.256,7.727,7.727,0,0,0,2.419,1.2,16.61,16.61,0,0,0,6.655.3,14.843,14.843,0,0,0,2.873-.911.884.884,0,0,0,.456-.26c.631-.991,1.438-.731,2.31-.405,2.278.852,4.59,1.615,6.842,2.529a5.585,5.585,0,0,1,1.832,1.433,1.348,1.348,0,0,1-.048,2.04,8.765,8.765,0,0,1-3.907,2.259,37.66,37.66,0,0,1-10.5,1.841m3-8.9c-.282.208-.63.343-.748.589a.961.961,0,0,0,.118.822,12.273,12.273,0,0,0,1.184,1.284c1.1,1.119,2.2,2.245,3.325,3.339.571.554,1.311.428,1.423-.245a1.367,1.367,0,0,0-.374-.986c-1.367-1.462-2.77-2.89-4.175-4.316a4.425,4.425,0,0,0-.755-.487" transform="translate(-68.171 -20.924)" fill="#fff"/>
        <path id="Tracé_977" data-name="Tracé 977" d="M63.819,268.611c3.627,2.146,5.445,5.947,2.088,9.49a17.772,17.772,0,0,1-5.886,3.859,42.675,42.675,0,0,1-9.849,2.788,61.6,61.6,0,0,1-18.076.45,42.976,42.976,0,0,1-13.151-3.383,16.892,16.892,0,0,1-5.735-3.937,5.14,5.14,0,0,1-.129-7.284,27.047,27.047,0,0,1,2.1-2l.225.16c-.158,1.139-.225,2.3-.491,3.413-.847,3.539.584,5.126,3.387,6.735a29.716,29.716,0,0,0,9.354,3.074,66.711,66.711,0,0,0,16.326.932,45.593,45.593,0,0,0,14.873-2.952c2.074-.843,4.085-1.845,5.3-3.905a3.944,3.944,0,0,0,.42-2.934c-.293-1.432-.487-2.884-.753-4.5" transform="translate(-9.853 -227.496)" fill="#fff"/>
        <path id="Tracé_978" data-name="Tracé 978" d="M171.859,12.711c-1.515,1.629-8.712,1.613-10.1.011,1.762-1.452,8.157-1.481,10.1-.011" transform="translate(-137.009 -9.843)" fill="#fff"/>
        <path id="Tracé_979" data-name="Tracé 979" d="M279.969,134.655c.6.014.845.382.938.913q.526,3,1.052,6,.894,5.139,1.781,10.279c.418,2.427.823,4.856,1.241,7.283.146.85.3,1.7.476,2.542.152.747-.051,1.191-.638,1.318-.618.133-.987-.135-1.121-.9-.581-3.326-1.135-6.656-1.716-9.982-.5-2.85-1.036-5.693-1.527-8.544q-.659-3.829-1.246-7.67c-.121-.783.2-1.231.76-1.236" transform="translate(-236.468 -114.053)"/>
        <path id="Tracé_980" data-name="Tracé 980" d="M275.232,103.622c-.188.19-.431.628-.778.74-.51.164-.851-.239-.96-.739-.139-.645-.259-1.3-.34-1.95a.866.866,0,1,1,1.7-.326c.174.659.231,1.349.377,2.275" transform="translate(-231.352 -85.228)"/>
        <path id="Tracé_981" data-name="Tracé 981" d="M226.906,34.48a4.425,4.425,0,0,1,.755.487c1.4,1.426,2.808,2.854,4.175,4.316a1.367,1.367,0,0,1,.374.986c-.112.673-.852.8-1.423.245-1.127-1.094-2.223-2.22-3.325-3.339a12.271,12.271,0,0,1-1.184-1.284.961.961,0,0,1-.118-.822c.117-.246.466-.381.748-.589" transform="translate(-191.516 -29.205)"/>
      </g>
    </g>
    <g id="fleche-14">
      <path id="Tracé_1031" data-name="Tracé 1031" d="M78.445,1.429A237.625,237.625,0,0,1,211.206,78.647" transform="translate(950.562 280.108)" fill="none" stroke="#1d1d1b" stroke-miterlimit="10" stroke-width="3"/>
      <path id="Tracé_1032" data-name="Tracé 1032" d="M126.789,35.538l-14.018-7.066,6.744-1.3,2.213-6.5Z" transform="translate(1041.578 331.141)" fill="#1d1d1b"/>
    </g>
    <text id="txt-14" transform="translate(1270 399)" font-size="17" font-family="Poppins-Regular, Poppins"><tspan x="0" y="18">Emballage</tspan></text>
    <text id="txt-5" transform="translate(778 227)" font-size="17" font-family="Poppins-Regular, Poppins"><tspan x="0" y="18">Fin de vie</tspan></text>
    <text id="nb-14" transform="translate(1270 355)" font-size="36" font-family="Poppins-Bold, Poppins" font-weight="700"><tspan x="0" y="38">14%</tspan></text>
    <text id="nb-5" transform="translate(778 183)" font-size="36" font-family="Poppins-Bold, Poppins" font-weight="700"><tspan x="0" y="38">5%</tspan></text>
    <text id="txt-7" transform="translate(595 366)" font-size="17" font-family="Poppins-Regular, Poppins"><tspan x="0" y="18">Activité</tspan><tspan x="0" y="39">administrative</tspan></text>
    <text id="nb-7" transform="translate(595 324)" font-size="36" font-family="Poppins-Bold, Poppins" font-weight="700"><tspan x="0" y="38">7%</tspan></text>
  </g>
</svg>
