<svg xmlns="http://www.w3.org/2000/svg" width="524.67" height="523.156" viewBox="0 0 524.67 523.156">
  <g id="welldone" transform="translate(0 2.968)">
    <path id="Tracé_1320" data-name="Tracé 1320" d="M524.67,519a1.186,1.186,0,0,1-1.19,1.19H1.19a1.19,1.19,0,0,1,0-2.38H523.48A1.187,1.187,0,0,1,524.67,519Z" fill="#cacaca"/>
    <g id="baloon">
      <ellipse id="Ellipse_50" data-name="Ellipse 50" cx="41.5" cy="52.5" rx="41.5" ry="52.5" transform="translate(413.872 3.149) rotate(-4.227)" fill="#77c4c2"/>
      <rect id="Rectangle_117" data-name="Rectangle 117" width="2" height="199.438" transform="translate(460.129 104.805)" fill="#2f2e41"/>
      <path id="Tracé_1330" data-name="Tracé 1330" d="M462.626,100.594l.24,7.067,3.194,6.542-13.324-.68,5.6-5.634-.633-6.421Z" fill="#77c4c2"/>
    </g>
    <g id="balooner">
      <path id="Tracé_1326" data-name="Tracé 1326" d="M350.542,130.059l4-25-27-11-4,38Z" fill="#ffb6b6"/>
      <g id="Groupe_2578" data-name="Groupe 2578">
        <path id="Tracé_1321" data-name="Tracé 1321" d="M362.542,461.059l6,25-18,5-4-27Z" fill="#ffb6b6"/>
        <path id="Tracé_1322" data-name="Tracé 1322" d="M391.542,380.059l-19,16-12,19,17,11,29-33Z" fill="#ffb6b6"/>
        <path id="Tracé_1323" data-name="Tracé 1323" d="M385.542,215.059l16,54s71,62,64,75-54,49-54,49,3.488,11.512-6.756,6.756-21.244-17.756-21.244-17.756,0-10,5-8,28-25,28-25l-50-46V456.874s12,10.492,0,11.339-23,2.846-23,2.846-14-5-9-10l-15-82-11-100,8-52,69-12Z" fill="#2f2e41"/>
        <path id="Tracé_1324" data-name="Tracé 1324" d="M353.542,483.059s1-4,5-4h12.217s3.783,17,2.783,17,16,22-2,23-23-1-23-1l-2-7.894s-3-5.106-2-9.106S353.542,483.059,353.542,483.059Z" fill="#2f2e41"/>
        <path id="Tracé_1325" data-name="Tracé 1325" d="M378.542,418.059s11.486-.181,8.743,2.909-7.743,8.091-7.743,8.091-11.894,24-17.447,19.5-14.553-54.5-11.553-60.5,7-6,7-6l18.449,11.1S364.542,421.059,378.542,418.059Z" fill="#2f2e41"/>
        <path id="Tracé_1327" data-name="Tracé 1327" d="M350.542,130.059l4-25-27-11-4,38Z" opacity="0.1"/>
        <path id="Tracé_1328" data-name="Tracé 1328" d="M322.042,126.559l32-8,34,11s15,42,10,57-5,44.3-5,44.3-.5-12.8-29.5-3.8-50,8-50,8l-1-36L299.98,167.082a28.765,28.765,0,0,1,13.426-36l8.636-4.524Z" fill="#344766"/>
        <g id="Groupe_2574" data-name="Groupe 2574">
          <path id="uuid-1b03a630-7e31-41b5-b302-96493ff31189-493" d="M468.936,244.361c4.515,5.41,5.384,12.124,1.941,15s-9.894.816-14.41-4.6a17.635,17.635,0,0,1-3.777-7.423l-18.842-23.162,9.178-7.428,19.281,22.565a17.636,17.636,0,0,1,6.629,5.046Z" fill="#fdb6b6"/>
          <path id="Tracé_1329" data-name="Tracé 1329" d="M386.589,129.878l-6.558,25.976,32.1,51.379,32.766,32.931,10.62-8.811-33.045-41.117-25.048-52.977Z" fill="#344766"/>
        </g>
        <g id="Groupe_2576" data-name="Groupe 2576">
          <circle id="Ellipse_51" data-name="Ellipse 51" cx="27.534" cy="27.534" r="27.534" transform="translate(316.185 58.028)" fill="#ffb6b6"/>
          <path id="Tracé_1331" data-name="Tracé 1331" d="M341.521,48.545c.8.465,1.864-.239,2.119-1.125a4.612,4.612,0,0,0-.337-2.7l-1.486-4.4c-1.054-3.121-2.172-6.35-4.454-8.726-3.444-3.585-8.918-4.5-13.845-3.836-6.328.848-12.571,4.275-15.513,9.941s-1.69,13.572,3.627,17.106c-7.577,8.684-10.218,18.362-9.8,29.88s12.968,22.117,21.153,30.23c1.828-1.108,3.49-6.3,2.484-8.187s.435-4.072-.81-5.809-2.286,1.029-1.028-.7c.794-1.09-2.305-3.6-1.125-4.251,5.71-3.156,7.609-10.273,11.195-15.723a26.787,26.787,0,0,1,19.562-11.764c4.316-.407,8.874.33,12.411,2.835s5.827,6.983,5.007,11.239a9.982,9.982,0,0,0-2.076-15.623,16.305,16.305,0,0,0-3.461-15.37c-3.689-4.067-18.654-3.375-24.04-2.3" fill="#2f2e41"/>
          <path id="Tracé_1332" data-name="Tracé 1332" d="M340.685,68.641c-7.133.77-12.284,6.949-16.633,12.656-2.507,3.289-5.133,6.921-5.07,11.056.064,4.181,2.859,7.766,4.195,11.728a17.675,17.675,0,0,1-5.142,18.618,10.269,10.269,0,0,0,11.574-8.028c1.032-6-3.514-11.785-2.976-17.847.474-5.34,4.683-9.45,8.26-13.443s6.938-9.291,5.292-14.394" fill="#2f2e41"/>
        </g>
        <path id="uuid-b40723c2-846b-43d4-8d7a-d7be28bdc184-494" d="M336.509,224.322c6.746,2.037,11.163,7.168,9.866,11.461s-7.816,6.121-14.564,4.083a17.635,17.635,0,0,1-7.236-4.124l-28.473-8.99,3.584-11.25,28.511,8.251a17.636,17.636,0,0,1,8.312.571Z" fill="#ffb6b6"/>
        <path id="Tracé_1341" data-name="Tracé 1341" d="M287.042,150.559l30-22-1,42-28,36,30,12-1,17.134s-38-9.134-44-10.134-11-15-11-15Z" fill="#344766"/>
      </g>
    </g>
    <path id="Tracé_1333" data-name="Tracé 1333" d="M314.426,234.558H108.758a42.23,42.23,0,0,0-42.23,42.23V476.221a42.23,42.23,0,0,0,42.23,42.23H314.426a42.23,42.23,0,0,0,42.23-42.23V276.788a42.23,42.23,0,0,0-42.23-42.23Z" fill="#fff"/>
    <path id="Tracé_1334" data-name="Tracé 1334" d="M314.426,519.45H108.758a43.279,43.279,0,0,1-43.23-43.229V276.788a43.279,43.279,0,0,1,43.23-43.23H314.426a43.279,43.279,0,0,1,43.23,43.23V476.221A43.279,43.279,0,0,1,314.426,519.45ZM108.758,235.558a41.277,41.277,0,0,0-41.23,41.23V476.221a41.276,41.276,0,0,0,41.23,41.229H314.426a41.276,41.276,0,0,0,41.23-41.229V276.788a41.277,41.277,0,0,0-41.23-41.23Z" fill="#3f3d56"/>
    <circle id="Ellipse_52" data-name="Ellipse 52" cx="4.769" cy="4.769" r="4.769" transform="translate(287.956 244.639)" fill="#3f3d56"/>
    <circle id="Ellipse_53" data-name="Ellipse 53" cx="4.769" cy="4.769" r="4.769" transform="translate(301.071 244.639)" fill="#3f3d56"/>
    <circle id="Ellipse_54" data-name="Ellipse 54" cx="4.769" cy="4.769" r="4.769" transform="translate(314.186 244.639)" fill="#3f3d56"/>
    <path id="Tracé_1335" data-name="Tracé 1335" d="M102.015,448.631a2.69,2.69,0,0,0-2.687,2.687A2.712,2.712,0,0,0,102.015,454h215.1a2.69,2.69,0,0,0,2.687-2.687,2.712,2.712,0,0,0-2.687-2.687Z" fill="#e6e6e6"/>
    <path id="Tracé_1336" data-name="Tracé 1336" d="M217.03,447.735V454.9H102.015a3.609,3.609,0,0,1-3.583-3.583,3.593,3.593,0,0,1,3.583-3.583H217.03Z" fill="#77c4c2"/>
    <path id="Tracé_1337" data-name="Tracé 1337" d="M312.636,434.3H276.81a7.165,7.165,0,1,1,0-14.33h35.826a7.165,7.165,0,1,1,0,14.33Z" fill="#e6e6e6"/>
    <g id="Groupe_2577" data-name="Groupe 2577">
      <path id="Tracé_1338" data-name="Tracé 1338" d="M178.044,439.422,153,355.274l-1.917.57L176.039,439.7" fill="#2f2e41"/>
      <ellipse id="Ellipse_55" data-name="Ellipse 55" cx="41.5" cy="52.5" rx="41.5" ry="52.5" transform="translate(129.786 146.26) rotate(-4.227)" fill="#77c4c2"/>
      <rect id="Rectangle_118" data-name="Rectangle 118" width="2" height="199.438" transform="translate(176.042 247.916)" fill="#2f2e41"/>
      <path id="Tracé_1339" data-name="Tracé 1339" d="M154.126,352.836l2.245,6.705,4.927,5.36-12.965,3.148,3.762-7-2.438-5.974Z" fill="#77c4c2"/>
      <path id="Tracé_1340" data-name="Tracé 1340" d="M178.54,243.7l.24,7.067,3.194,6.542-13.324-.68,5.6-5.634-.633-6.421Z" fill="#77c4c2"/>
      <ellipse id="Ellipse_56" data-name="Ellipse 56" cx="41.5" cy="52.5" rx="41.5" ry="52.5" transform="matrix(0.934, -0.357, 0.357, 0.934, 78.523, 271.351)" fill="#77c4c2"/>
    </g>
  </g>
</svg>
